<svg width="201" height="59" viewBox="0 0 201 59" fill="none" xmlns="http://www.w3.org/2000/svg">
<g clip-path="url(#clip0_321_493)">
<path d="M29.2702 58.5719C45.2305 58.5719 58.1577 45.6447 58.1577 29.6844C58.1577 13.724 45.2305 0.796875 29.2702 0.796875C13.3098 0.796875 0.38266 13.724 0.38266 29.6844C0.38266 45.6447 13.3098 58.5719 29.2702 58.5719Z" fill="#F0BE5F"/>
<mask id="mask0_321_493" style="mask-type:luminance" maskUnits="userSpaceOnUse" x="19" y="8" width="20" height="43">
<path d="M38.4616 8.86694H19.6912V50.1868H38.4616V8.86694Z" fill="white"/>
</mask>
<g mask="url(#mask0_321_493)">
<path fill-rule="evenodd" clip-rule="evenodd" d="M29.6574 28.2531C29.6574 25.6636 30.8612 24.1799 32.3449 23.158C33.6186 22.2762 37.7479 20.4846 38.4617 18.1331V18.9589V23.0041C38.4617 25.5096 37.1739 26.9233 35.9142 27.7632C35.3963 28.0991 34.4865 28.659 33.4787 29.2469C31.757 30.2546 30.1753 31.1925 29.6714 32.7462V28.2531H29.6574Z" fill="white"/>
<path fill-rule="evenodd" clip-rule="evenodd" d="M29.6574 36.9874C29.6574 34.3979 30.8612 32.9142 32.3449 31.8924C33.6186 31.0106 37.7479 29.2189 38.4617 26.8674V27.6933V31.7385C38.4617 34.244 37.1739 35.6577 35.9142 36.4975C35.3963 36.8335 34.4865 37.3794 33.4787 37.9673C31.757 38.975 30.1753 39.9129 29.6714 41.4666V36.9874H29.6574Z" fill="#435EA8"/>
<path fill-rule="evenodd" clip-rule="evenodd" d="M29.6574 45.7077C29.6574 43.1182 30.8612 41.6345 32.3449 40.6126C33.6186 39.7308 37.7479 37.9392 38.4617 35.5876V36.4135V40.4587C38.4617 42.9642 37.1739 44.3779 35.9142 45.2178C35.3963 45.5537 34.4865 46.0995 33.4787 46.6875C31.757 47.6953 30.1753 48.633 29.6714 50.1867V45.7077H29.6574Z" fill="#E83D37"/>
<path fill-rule="evenodd" clip-rule="evenodd" d="M28.4955 28.2531C28.4955 25.6636 27.2917 24.1799 25.808 23.158C24.5343 22.2762 20.4051 20.4846 19.6912 18.1331V18.9589V23.0041C19.6912 25.5096 20.979 26.9233 22.2387 27.7632C22.7567 28.0991 23.6665 28.645 24.6743 29.2329C26.3959 30.2407 27.9776 31.1785 28.4815 32.7321V28.2531H28.4955Z" fill="#D19B3F"/>
<path fill-rule="evenodd" clip-rule="evenodd" d="M28.4955 50.1867V45.7216C28.4955 43.1321 27.2917 41.6484 25.808 40.6267C24.5343 39.7308 20.4051 37.9392 19.6912 35.5876V36.4135V40.4587C19.6912 42.9642 20.979 44.3779 22.2387 45.2178C22.7567 45.5537 23.6665 46.1136 24.6743 46.7015C26.4099 47.6953 27.9776 48.633 28.4955 50.1867Z" fill="#D19B3F"/>
<path fill-rule="evenodd" clip-rule="evenodd" d="M25.808 31.8785C24.5343 31.0107 20.4051 29.219 19.6912 26.8535V27.6793V31.7245C19.6912 34.2301 20.979 35.6438 22.2387 36.4836C22.7567 36.8195 23.6665 37.3794 24.6743 37.9673C26.3959 38.9751 27.9776 39.9129 28.4815 41.4666V37.0015C28.4955 34.384 27.2917 32.9143 25.808 31.8785Z" fill="#D19B3F"/>
<path fill-rule="evenodd" clip-rule="evenodd" d="M33.0443 17.9932C33.0443 14.7738 30.1889 13.1361 29.0691 8.86694C27.9494 13.1361 25.0799 14.7738 25.0799 17.9932C25.0799 21.5904 27.9213 21.3245 29.0691 23.4241C30.2029 21.3105 33.0443 21.5904 33.0443 17.9932Z" fill="#D19B3F"/>
</g>
</g>
<path d="M68.2165 22.5869V14.0426H70.7984L72.3488 19.8709L73.8816 14.0426H76.4694V22.5869H74.8666V15.861L73.1706 22.5869H71.5095L69.8193 15.861V22.5869H68.2165ZM78.1305 16.3972H79.7041V20.2847L82.222 16.3972H83.8306V22.5869H82.257V18.6295L79.7041 22.5869H78.1305V16.3972ZM85.4509 16.3972H87.0887V18.6644H89.4317V16.3972H91.0752V22.5869H89.4317V19.9875H87.0887V22.5869H85.4509V16.3972ZM92.6897 16.3972H94.2634V20.2847L96.7812 16.3972H98.3898V22.5869H96.8162V18.6295L94.2634 22.5869H92.6897V16.3972ZM105.471 18.2273L103.857 18.5187C103.802 18.1962 103.678 17.9534 103.484 17.7902C103.293 17.627 103.045 17.5454 102.738 17.5454C102.33 17.5454 102.003 17.6872 101.759 17.9709C101.518 18.2506 101.397 18.7208 101.397 19.3813C101.397 20.1157 101.52 20.6344 101.764 20.9375C102.013 21.2406 102.345 21.3921 102.761 21.3921C103.072 21.3921 103.326 21.3047 103.525 21.1298C103.723 20.9511 103.863 20.6461 103.944 20.2148L105.553 20.4887C105.386 21.227 105.065 21.7845 104.591 22.1614C104.117 22.5383 103.482 22.7268 102.685 22.7268C101.78 22.7268 101.057 22.4412 100.517 21.87C99.981 21.2988 99.7129 20.5081 99.7129 19.4979C99.7129 18.476 99.9829 17.6814 100.523 17.1141C101.063 16.5429 101.794 16.2573 102.714 16.2573C103.468 16.2573 104.067 16.4205 104.51 16.7469C104.956 17.0694 105.277 17.5629 105.471 18.2273ZM105.984 16.3972H111.585V17.7202H109.604V22.5869H107.966V17.7202H105.984V16.3972ZM116.155 20.6169L117.787 20.8909C117.577 21.4892 117.245 21.9458 116.79 22.2605C116.339 22.5714 115.774 22.7268 115.094 22.7268C114.018 22.7268 113.221 22.3752 112.704 21.6719C112.296 21.1085 112.092 20.3974 112.092 19.5387C112.092 18.5129 112.36 17.7105 112.897 17.1316C113.433 16.5487 114.111 16.2573 114.931 16.2573C115.852 16.2573 116.578 16.5623 117.11 17.1724C117.643 17.7785 117.897 18.7091 117.874 19.9642H113.771C113.782 20.4499 113.915 20.8287 114.167 21.1007C114.42 21.3688 114.734 21.5028 115.111 21.5028C115.368 21.5028 115.583 21.4329 115.758 21.293C115.933 21.1531 116.065 20.9278 116.155 20.6169ZM116.248 18.9617C116.236 18.4876 116.114 18.1282 115.881 17.8834C115.648 17.6348 115.364 17.5104 115.03 17.5104C114.672 17.5104 114.377 17.6406 114.144 17.9009C113.911 18.1613 113.796 18.5148 113.8 18.9617H116.248ZM119.168 16.3972H120.695V17.3064C120.893 16.9956 121.161 16.743 121.499 16.5487C121.837 16.3545 122.212 16.2573 122.624 16.2573C123.343 16.2573 123.953 16.539 124.454 17.1024C124.955 17.6658 125.206 18.4507 125.206 19.4571C125.206 20.4907 124.953 21.295 124.448 21.87C123.943 22.4412 123.331 22.7268 122.612 22.7268C122.271 22.7268 121.96 22.6588 121.68 22.5228C121.404 22.3868 121.113 22.1537 120.806 21.8234V24.9416H119.168V16.3972ZM120.788 19.3872C120.788 20.0827 120.926 20.5975 121.202 20.9317C121.478 21.2619 121.814 21.4271 122.21 21.4271C122.591 21.4271 122.908 21.2755 123.16 20.9725C123.413 20.6655 123.539 20.1643 123.539 19.4687C123.539 18.8199 123.409 18.338 123.149 18.0233C122.888 17.7086 122.566 17.5512 122.181 17.5512C121.781 17.5512 121.449 17.7066 121.184 18.0175C120.92 18.3244 120.788 18.781 120.788 19.3872ZM131.909 18.2273L130.294 18.5187C130.24 18.1962 130.115 17.9534 129.921 17.7902C129.731 17.627 129.482 17.5454 129.175 17.5454C128.767 17.5454 128.441 17.6872 128.196 17.9709C127.955 18.2506 127.835 18.7208 127.835 19.3813C127.835 20.1157 127.957 20.6344 128.202 20.9375C128.45 21.2406 128.783 21.3921 129.198 21.3921C129.509 21.3921 129.764 21.3047 129.962 21.1298C130.16 20.9511 130.3 20.6461 130.382 20.2148L131.99 20.4887C131.823 21.227 131.503 21.7845 131.029 22.1614C130.555 22.5383 129.919 22.7268 129.123 22.7268C128.217 22.7268 127.495 22.4412 126.955 21.87C126.418 21.2988 126.15 20.5081 126.15 19.4979C126.15 18.476 126.42 17.6814 126.96 17.1141C127.5 16.5429 128.231 16.2573 129.152 16.2573C129.906 16.2573 130.504 16.4205 130.947 16.7469C131.394 17.0694 131.714 17.5629 131.909 18.2273ZM132.422 16.3972H138.023V17.7202H136.041V22.5869H134.403V17.7202H132.422V16.3972ZM139.025 16.3972H142.609C143.344 16.3972 143.894 16.5313 144.259 16.7994C144.624 17.0675 144.807 17.4716 144.807 18.0117C144.807 18.3575 144.706 18.6586 144.504 18.9151C144.306 19.1715 144.055 19.3425 143.752 19.4279C144.179 19.5329 144.498 19.7291 144.708 20.0166C144.918 20.3041 145.022 20.6189 145.022 20.9608C145.022 21.4426 144.846 21.8351 144.492 22.1381C144.138 22.4373 143.616 22.5869 142.924 22.5869H139.025V16.3972ZM140.674 18.9675H141.729C142.238 18.9675 142.606 18.9034 142.831 18.7752C143.06 18.647 143.175 18.4449 143.175 18.169C143.175 17.9087 143.068 17.7241 142.854 17.6153C142.644 17.5027 142.27 17.4463 141.729 17.4463H140.674V18.9675ZM140.674 21.5378H141.968C142.435 21.5378 142.775 21.4815 142.988 21.3688C143.202 21.2561 143.309 21.0541 143.309 20.7626C143.309 20.4596 143.187 20.2517 142.942 20.139C142.697 20.0224 142.221 19.9642 141.514 19.9642H140.674V21.5378ZM145.809 19.4046C145.809 18.8607 145.943 18.3342 146.211 17.8252C146.48 17.3161 146.858 16.9276 147.348 16.6595C147.841 16.3914 148.391 16.2573 148.997 16.2573C149.934 16.2573 150.701 16.5623 151.3 17.1724C151.898 17.7785 152.197 18.5459 152.197 19.4746C152.197 20.411 151.894 21.1881 151.288 21.8059C150.686 22.4198 149.926 22.7268 149.009 22.7268C148.442 22.7268 147.9 22.5986 147.383 22.3421C146.87 22.0857 146.48 21.7107 146.211 21.2173C145.943 20.7199 145.809 20.1157 145.809 19.4046ZM147.488 19.4921C147.488 20.106 147.634 20.5761 147.925 20.9025C148.216 21.2289 148.576 21.3921 149.003 21.3921C149.431 21.3921 149.788 21.2289 150.076 20.9025C150.367 20.5761 150.513 20.1021 150.513 19.4804C150.513 18.8743 150.367 18.408 150.076 18.0816C149.788 17.7552 149.431 17.592 149.003 17.592C148.576 17.592 148.216 17.7552 147.925 18.0816C147.634 18.408 147.488 18.8781 147.488 19.4921ZM73.6252 30.2273L72.0107 30.5187C71.9563 30.1962 71.832 29.9534 71.6377 29.7902C71.4473 29.627 71.1986 29.5454 70.8917 29.5454C70.4837 29.5454 70.1573 29.6872 69.9125 29.9709C69.6716 30.2506 69.5512 30.7208 69.5512 31.3813C69.5512 32.1157 69.6736 32.6344 69.9183 32.9375C70.167 33.2406 70.4992 33.3921 70.915 33.3921C71.2258 33.3921 71.4803 33.3047 71.6785 33.1298C71.8767 32.9511 72.0166 32.6461 72.0982 32.2148L73.7068 32.4887C73.5397 33.227 73.2191 33.7845 72.7451 34.1614C72.2711 34.5383 71.6358 34.7268 70.8392 34.7268C69.9339 34.7268 69.2112 34.4412 68.6711 33.87C68.1349 33.2988 67.8668 32.5081 67.8668 31.4979C67.8668 30.476 68.1368 29.6814 68.6769 29.1141C69.217 28.5429 69.9475 28.2573 70.8684 28.2573C71.6222 28.2573 72.2205 28.4205 72.6635 28.7469C73.1103 29.0694 73.4309 29.5629 73.6252 30.2273ZM78.4569 32.6169L80.0888 32.8909C79.879 33.4892 79.5468 33.9458 79.0922 34.2605C78.6414 34.5714 78.0761 34.7268 77.3961 34.7268C76.3198 34.7268 75.5233 34.3752 75.0065 33.6719C74.5985 33.1085 74.3945 32.3974 74.3945 31.5387C74.3945 30.5129 74.6626 29.7105 75.1988 29.1316C75.735 28.5487 76.4131 28.2573 77.2329 28.2573C78.1538 28.2573 78.8804 28.5623 79.4127 29.1724C79.945 29.7785 80.1996 30.7091 80.1762 31.9642H76.0731C76.0847 32.4499 76.2168 32.8287 76.4694 33.1007C76.722 33.3688 77.0367 33.5028 77.4136 33.5028C77.6701 33.5028 77.8857 33.4329 78.0605 33.293C78.2354 33.1531 78.3675 32.9278 78.4569 32.6169ZM78.5501 30.9617C78.5385 30.4876 78.4161 30.1282 78.1829 29.8834C77.9498 29.6348 77.6662 29.5104 77.332 29.5104C76.9745 29.5104 76.6792 29.6406 76.4461 29.9009C76.213 30.1613 76.0983 30.5148 76.1022 30.9617H78.5501ZM81.9597 28.3972H87.4442V34.5869H85.8123V29.7261H83.58V32.5062C83.58 33.2134 83.4984 33.7107 83.3352 33.9983C83.172 34.2819 82.9913 34.4684 82.7932 34.5578C82.595 34.6471 82.2764 34.6918 81.8373 34.6918C81.577 34.6918 81.2331 34.6569 80.8057 34.5869V33.3804C80.8407 33.3804 80.932 33.3843 81.0796 33.3921C81.2506 33.4038 81.3827 33.4096 81.476 33.4096C81.6974 33.4096 81.8334 33.3377 81.8839 33.1939C81.9345 33.0463 81.9597 32.6402 81.9597 31.9758V28.3972ZM89.1402 28.3972H90.778V30.9675H92.4216C93.0666 30.9675 93.562 31.0141 93.9078 31.1074C94.2536 31.2006 94.5412 31.4027 94.7704 31.7135C94.9997 32.0205 95.1143 32.378 95.1143 32.786C95.1143 33.3843 94.9084 33.8351 94.4965 34.1381C94.0885 34.4373 93.4746 34.5869 92.6547 34.5869H89.1402V28.3972ZM90.778 33.5495H92.305C92.783 33.5495 93.088 33.4718 93.2201 33.3163C93.3561 33.1609 93.4241 32.9763 93.4241 32.7626C93.4241 32.4635 93.3075 32.2575 93.0744 32.1448C92.8451 32.0322 92.4352 31.9758 91.8446 31.9758H90.778V33.5495ZM101.846 30.2273L100.232 30.5187C100.177 30.1962 100.053 29.9534 99.8586 29.7902C99.6682 29.627 99.4195 29.5454 99.1125 29.5454C98.7046 29.5454 98.3782 29.6872 98.1334 29.9709C97.8925 30.2506 97.772 30.7208 97.772 31.3813C97.772 32.1157 97.8944 32.6344 98.1392 32.9375C98.3879 33.2406 98.7201 33.3921 99.1359 33.3921C99.4467 33.3921 99.7012 33.3047 99.8994 33.1298C100.098 32.9511 100.237 32.6461 100.319 32.2148L101.928 32.4887C101.761 33.227 101.44 33.7845 100.966 34.1614C100.492 34.5383 99.8566 34.7268 99.0601 34.7268C98.1547 34.7268 97.432 34.4412 96.8919 33.87C96.3557 33.2988 96.0876 32.5081 96.0876 31.4979C96.0876 30.476 96.3577 29.6814 96.8978 29.1141C97.4379 28.5429 98.1683 28.2573 99.0892 28.2573C99.843 28.2573 100.441 28.4205 100.884 28.7469C101.331 29.0694 101.652 29.5629 101.846 30.2273ZM103.029 28.3972H104.661V30.9267C104.933 30.8956 105.125 30.8121 105.238 30.6761C105.351 30.5401 105.487 30.2429 105.646 29.7844C105.856 29.1743 106.085 28.7838 106.334 28.6129C106.583 28.4419 106.909 28.3564 107.313 28.3564C107.437 28.3564 107.653 28.3661 107.96 28.3856L107.966 29.4696C107.535 29.4696 107.259 29.5104 107.138 29.592C107.018 29.6775 106.888 29.932 106.748 30.3555C106.557 30.9267 106.283 31.2784 105.926 31.4105C106.443 31.5542 106.88 32.003 107.237 32.7568C107.257 32.7957 107.278 32.8365 107.301 32.8792L108.216 34.5869H106.456L105.64 32.7976C105.473 32.4363 105.328 32.2051 105.203 32.104C105.083 31.9991 104.902 31.9467 104.661 31.9467V34.5869H103.029V28.3972ZM108.531 31.4046C108.531 30.8607 108.665 30.3342 108.933 29.8252C109.201 29.3161 109.58 28.9276 110.07 28.6595C110.563 28.3914 111.113 28.2573 111.719 28.2573C112.656 28.2573 113.423 28.5623 114.021 29.1724C114.62 29.7785 114.919 30.5459 114.919 31.4746C114.919 32.411 114.616 33.1881 114.01 33.8059C113.408 34.4198 112.648 34.7268 111.731 34.7268C111.164 34.7268 110.622 34.5986 110.105 34.3421C109.592 34.0857 109.201 33.7107 108.933 33.2173C108.665 32.7199 108.531 32.1157 108.531 31.4046ZM110.21 31.4921C110.21 32.106 110.355 32.5761 110.647 32.9025C110.938 33.2289 111.298 33.3921 111.725 33.3921C112.152 33.3921 112.51 33.2289 112.797 32.9025C113.089 32.5761 113.235 32.1021 113.235 31.4804C113.235 30.8743 113.089 30.408 112.797 30.0816C112.51 29.7552 112.152 29.592 111.725 29.592C111.298 29.592 110.938 29.7552 110.647 30.0816C110.355 30.408 110.21 30.8781 110.21 31.4921ZM116.143 28.3972H120.322V29.7202H117.781V34.5869H116.143V28.3972ZM120.642 31.4046C120.642 30.8607 120.777 30.3342 121.045 29.8252C121.313 29.3161 121.692 28.9276 122.181 28.6595C122.675 28.3914 123.224 28.2573 123.831 28.2573C124.767 28.2573 125.534 28.5623 126.133 29.1724C126.731 29.7785 127.03 30.5459 127.03 31.4746C127.03 32.411 126.727 33.1881 126.121 33.8059C125.519 34.4198 124.759 34.7268 123.842 34.7268C123.275 34.7268 122.733 34.5986 122.216 34.3421C121.703 34.0857 121.313 33.7107 121.045 33.2173C120.777 32.7199 120.642 32.1157 120.642 31.4046ZM122.321 31.4921C122.321 32.106 122.467 32.5761 122.758 32.9025C123.05 33.2289 123.409 33.3921 123.836 33.3921C124.264 33.3921 124.621 33.2289 124.909 32.9025C125.2 32.5761 125.346 32.1021 125.346 31.4804C125.346 30.8743 125.2 30.408 124.909 30.0816C124.621 29.7552 124.264 29.592 123.836 29.592C123.409 29.592 123.05 29.7552 122.758 30.0816C122.467 30.408 122.321 30.8781 122.321 31.4921ZM130.854 34.5869L133.086 31.3988L130.947 28.3972H132.946L134.042 30.0991L135.196 28.3972H137.119L135.021 31.3289L137.312 34.5869H135.301L134.042 32.6694L132.771 34.5869H130.854ZM137.603 31.4046C137.603 30.8607 137.737 30.3342 138.005 29.8252C138.273 29.3161 138.652 28.9276 139.142 28.6595C139.635 28.3914 140.185 28.2573 140.791 28.2573C141.727 28.2573 142.495 28.5623 143.093 29.1724C143.692 29.7785 143.991 30.5459 143.991 31.4746C143.991 32.411 143.688 33.1881 143.082 33.8059C142.479 34.4198 141.72 34.7268 140.803 34.7268C140.235 34.7268 139.693 34.5986 139.177 34.3421C138.664 34.0857 138.273 33.7107 138.005 33.2173C137.737 32.7199 137.603 32.1157 137.603 31.4046ZM139.282 31.4921C139.282 32.106 139.427 32.5761 139.719 32.9025C140.01 33.2289 140.369 33.3921 140.797 33.3921C141.224 33.3921 141.582 33.2289 141.869 32.9025C142.161 32.5761 142.306 32.1021 142.306 31.4804C142.306 30.8743 142.161 30.408 141.869 30.0816C141.582 29.7552 141.224 29.592 140.797 29.592C140.369 29.592 140.01 29.7552 139.719 30.0816C139.427 30.408 139.282 30.8781 139.282 31.4921ZM146.783 32.0458V30.9792C147.066 30.9792 147.272 30.9617 147.4 30.9267C147.529 30.8879 147.649 30.7985 147.762 30.6586C147.878 30.5148 147.937 30.3516 147.937 30.169C147.937 29.9747 147.865 29.796 147.721 29.6328C147.581 29.4657 147.369 29.3822 147.086 29.3822C146.868 29.3822 146.674 29.4288 146.503 29.5221C146.332 29.6153 146.176 29.8368 146.037 30.1865L144.649 29.8893C144.789 29.3453 145.088 28.9373 145.547 28.6653C146.005 28.3933 146.528 28.2573 147.115 28.2573C147.861 28.2573 148.438 28.4283 148.846 28.7702C149.258 29.1122 149.464 29.5415 149.464 30.0583C149.464 30.3808 149.374 30.6489 149.196 30.8626C149.021 31.0724 148.743 31.2686 148.362 31.4513C148.821 31.5756 149.163 31.7641 149.388 32.0166C149.617 32.2692 149.732 32.5839 149.732 32.9608C149.732 33.4426 149.506 33.8584 149.056 34.2081C148.605 34.5539 147.956 34.7268 147.109 34.7268C145.632 34.7268 144.729 34.1498 144.399 32.9958L145.897 32.7218C146.138 33.328 146.536 33.6311 147.091 33.6311C147.398 33.6311 147.643 33.5514 147.826 33.3921C148.012 33.2289 148.106 33.0385 148.106 32.8209C148.106 32.58 148.008 32.3916 147.814 32.2556C147.624 32.1157 147.373 32.0458 147.062 32.0458H146.783ZM156.353 28.3972V34.5869H154.727V32.0166H154.575C154.221 32.0166 153.961 32.0632 153.794 32.1565C153.631 32.2459 153.448 32.4382 153.246 32.7335L153.147 32.8559L152.069 34.5869H150.163L151.335 32.7918C151.669 32.2789 151.972 31.9836 152.244 31.9059C151.785 31.8787 151.412 31.7058 151.125 31.3872C150.841 31.0646 150.699 30.6547 150.699 30.1574C150.699 29.7572 150.792 29.4152 150.979 29.1316C151.169 28.8479 151.42 28.6556 151.731 28.5546C152.046 28.4497 152.512 28.3972 153.13 28.3972H156.353ZM154.727 29.4521H153.555C153.124 29.4521 152.821 29.5143 152.646 29.6386C152.471 29.7591 152.384 29.9611 152.384 30.2448C152.384 30.5284 152.483 30.7324 152.681 30.8568C152.879 30.9811 153.203 31.0433 153.654 31.0433H154.727V29.4521ZM157.979 28.3972H159.552V32.2847L162.07 28.3972H163.679V34.5869H162.105V30.6295L159.552 34.5869H157.979V28.3972ZM161.901 25.8852H162.7C162.653 26.4136 162.467 26.8294 162.14 27.1325C161.818 27.4316 161.398 27.5812 160.881 27.5812C160.365 27.5812 159.943 27.4316 159.617 27.1325C159.294 26.8294 159.11 26.4136 159.063 25.8852H159.861C159.889 26.1611 159.986 26.3709 160.153 26.5147C160.32 26.6545 160.563 26.7245 160.881 26.7245C161.2 26.7245 161.443 26.6545 161.61 26.5147C161.777 26.3709 161.874 26.1611 161.901 25.8852ZM170.76 30.2273L169.146 30.5187C169.092 30.1962 168.967 29.9534 168.773 29.7902C168.583 29.627 168.334 29.5454 168.027 29.5454C167.619 29.5454 167.293 29.6872 167.048 29.9709C166.807 30.2506 166.686 30.7208 166.686 31.3813C166.686 32.1157 166.809 32.6344 167.054 32.9375C167.302 33.2406 167.634 33.3921 168.05 33.3921C168.361 33.3921 168.616 33.3047 168.814 33.1298C169.012 32.9511 169.152 32.6461 169.233 32.2148L170.842 32.4887C170.675 33.227 170.354 33.7845 169.88 34.1614C169.406 34.5383 168.771 34.7268 167.974 34.7268C167.069 34.7268 166.346 34.4412 165.806 33.87C165.27 33.2988 165.002 32.5081 165.002 31.4979C165.002 30.476 165.272 29.6814 165.812 29.1141C166.352 28.5429 167.083 28.2573 168.004 28.2573C168.757 28.2573 169.356 28.4205 169.799 28.7469C170.246 29.0694 170.566 29.5629 170.76 30.2273ZM171.273 28.3972H176.874V29.7202H174.893V34.5869H173.255V29.7202H171.273V28.3972ZM177.877 28.3972H181.461C182.196 28.3972 182.745 28.5313 183.111 28.7994C183.476 29.0675 183.659 29.4716 183.659 30.0117C183.659 30.3575 183.558 30.6586 183.355 30.9151C183.157 31.1715 182.907 31.3425 182.604 31.4279C183.031 31.5329 183.35 31.7291 183.559 32.0166C183.769 32.3041 183.874 32.6189 183.874 32.9608C183.874 33.4426 183.697 33.8351 183.344 34.1381C182.99 34.4373 182.468 34.5869 181.776 34.5869H177.877V28.3972ZM179.526 30.9675H180.581C181.09 30.9675 181.457 30.9034 181.683 30.7752C181.912 30.647 182.027 30.4449 182.027 30.169C182.027 29.9087 181.92 29.7241 181.706 29.6153C181.496 29.5027 181.121 29.4463 180.581 29.4463H179.526V30.9675ZM179.526 33.5378H180.82C181.286 33.5378 181.626 33.4815 181.84 33.3688C182.054 33.2561 182.161 33.0541 182.161 32.7626C182.161 32.4596 182.038 32.2517 181.793 32.139C181.549 32.0224 181.073 31.9642 180.366 31.9642H179.526V33.5378ZM186.264 30.2856L184.778 30.0175C184.945 29.4191 185.232 28.9762 185.64 28.6886C186.048 28.4011 186.654 28.2573 187.459 28.2573C188.189 28.2573 188.733 28.3448 189.091 28.5196C189.448 28.6906 189.699 28.9101 189.842 29.1782C189.99 29.4424 190.064 29.9301 190.064 30.6411L190.046 32.5528C190.046 33.0968 190.072 33.499 190.122 33.7593C190.177 34.0157 190.276 34.2916 190.419 34.5869H188.799C188.756 34.4781 188.704 34.3169 188.642 34.1032C188.615 34.006 188.595 33.9419 188.583 33.9108C188.304 34.1828 188.005 34.3868 187.686 34.5228C187.367 34.6588 187.027 34.7268 186.666 34.7268C186.029 34.7268 185.526 34.5539 185.156 34.2081C184.791 33.8623 184.609 33.4251 184.609 32.8967C184.609 32.547 184.692 32.2361 184.859 31.9642C185.026 31.6883 185.259 31.4785 185.559 31.3347C185.862 31.187 186.297 31.0588 186.864 30.95C187.63 30.8063 188.16 30.6722 188.455 30.5479V30.3847C188.455 30.0699 188.378 29.8465 188.222 29.7144C188.067 29.5784 187.773 29.5104 187.342 29.5104C187.051 29.5104 186.823 29.5687 186.66 29.6853C186.497 29.798 186.365 29.9981 186.264 30.2856ZM188.455 31.6145C188.245 31.6844 187.913 31.7679 187.459 31.8651C187.004 31.9622 186.707 32.0574 186.567 32.1507C186.353 32.3022 186.246 32.4945 186.246 32.7277C186.246 32.9569 186.332 33.1551 186.503 33.3222C186.674 33.4892 186.891 33.5728 187.156 33.5728C187.451 33.5728 187.733 33.4756 188.001 33.2814C188.199 33.1337 188.329 32.953 188.391 32.7393C188.434 32.5994 188.455 32.3333 188.455 31.9408V31.6145ZM69.9769 43.4344C71.3768 43.4344 72.1738 44.2825 72.1738 45.7437C72.1738 47.2457 71.3768 48.0733 69.9769 48.0733H69.1186V50.5869H68.0866V43.4344H69.9769ZM69.9667 47.0924C70.7433 47.0924 71.1213 46.6633 71.1213 45.7437C71.1213 44.8649 70.7433 44.4153 69.9667 44.4153H69.1186V47.0924H69.9667ZM75.1878 50.7197C73.8186 50.7197 73.0012 49.8104 73.0012 48.3186V45.7028C73.0012 44.211 73.8186 43.3016 75.1878 43.3016C76.557 43.3016 77.3744 44.211 77.3744 45.7028V48.3186C77.3744 49.8104 76.557 50.7197 75.1878 50.7197ZM75.1878 49.7082C75.9235 49.7082 76.3117 49.2177 76.3117 48.3186V45.7028C76.3117 44.8036 75.9235 44.3132 75.1878 44.3132C74.4419 44.3132 74.0638 44.8036 74.0638 45.7028V48.3186C74.0638 49.2177 74.4419 49.7082 75.1878 49.7082ZM80.4737 50.7095C79.2169 50.7095 78.3995 49.9228 78.3995 48.482V45.5393C78.3995 44.0884 79.2067 43.3016 80.4635 43.3016C81.7611 43.3016 82.5275 44.0781 82.5888 45.4984H81.567C81.5057 44.6606 81.1378 44.2825 80.4532 44.2825C79.8504 44.2825 79.4519 44.681 79.4519 45.5393V48.482C79.4519 49.3301 79.8504 49.7286 80.4737 49.7286C81.1685 49.7286 81.5363 49.3403 81.6079 48.5229H82.6296C82.5581 49.933 81.7918 50.7095 80.4737 50.7095ZM85.5028 50.7095C84.246 50.7095 83.4286 49.9228 83.4286 48.482V45.5393C83.4286 44.0884 84.2358 43.3016 85.4926 43.3016C86.7902 43.3016 87.5566 44.0781 87.6179 45.4984H86.5961C86.5348 44.6606 86.1669 44.2825 85.4823 44.2825C84.8795 44.2825 84.481 44.681 84.481 45.5393V48.482C84.481 49.3301 84.8795 49.7286 85.5028 49.7286C86.1976 49.7286 86.5654 49.3403 86.637 48.5229H87.6587C87.5872 49.933 86.8209 50.7095 85.5028 50.7095ZM88.662 50.5869V43.4344H89.6736V46.5611C89.6736 47.072 89.6327 48.0018 89.5612 48.6251L89.5918 48.6455C89.7247 48.2981 89.9086 47.7974 90.1027 47.3785L91.8398 43.4344H92.8922V50.5869H91.8806V47.4705C91.8806 46.9289 91.9215 45.9684 91.9726 45.3758L91.9419 45.3554C91.8091 45.7232 91.6048 46.275 91.4311 46.6735L89.7042 50.5869H88.662ZM96.4655 42.7396C95.7502 42.7396 95.2598 42.29 95.2291 41.5135H95.9342C95.9546 41.8711 96.1487 42.055 96.4553 42.055C96.772 42.055 96.9662 41.8711 96.9866 41.5135H97.6916C97.661 42.3002 97.1705 42.7396 96.4655 42.7396ZM94.3197 50.5869V43.4344H95.3313V46.5611C95.3313 47.072 95.2904 48.0018 95.2189 48.6251L95.2496 48.6455C95.3824 48.2981 95.5663 47.7974 95.7605 47.3785L97.4975 43.4344H98.5499V50.5869H97.5384V47.4705C97.5384 46.9289 97.5792 45.9684 97.6303 45.3758L97.5997 45.3554C97.4668 45.7232 97.2625 46.275 97.0888 46.6735L95.362 50.5869H94.3197ZM101.847 50.7095C100.591 50.7095 99.7731 49.9228 99.7731 48.482V45.5393C99.7731 44.0884 100.58 43.3016 101.837 43.3016C103.135 43.3016 103.901 44.0781 103.962 45.4984H102.941C102.879 44.6606 102.512 44.2825 101.827 44.2825C101.224 44.2825 100.826 44.681 100.826 45.5393V48.482C100.826 49.3301 101.224 49.7286 101.847 49.7286C102.542 49.7286 102.91 49.3403 102.982 48.5229H104.003C103.932 49.933 103.165 50.7095 101.847 50.7095ZM108.246 50.5869L106.498 47.4603L106.028 48.1653V50.5869H105.007V43.4344H106.028V46.5406L106.498 45.7028L107.929 43.4344H109.135L107.091 46.5509L109.431 50.5869H108.246ZM111.948 50.7197C110.579 50.7197 109.761 49.8104 109.761 48.3186V45.7028C109.761 44.211 110.579 43.3016 111.948 43.3016C113.317 43.3016 114.135 44.211 114.135 45.7028V48.3186C114.135 49.8104 113.317 50.7197 111.948 50.7197ZM111.948 49.7082C112.684 49.7082 113.072 49.2177 113.072 48.3186V45.7028C113.072 44.8036 112.684 44.3132 111.948 44.3132C111.202 44.3132 110.824 44.8036 110.824 45.7028V48.3186C110.824 49.2177 111.202 49.7082 111.948 49.7082ZM117.51 42.7396C116.795 42.7396 116.304 42.29 116.274 41.5135H116.979C116.999 41.8711 117.193 42.055 117.5 42.055C117.816 42.055 118.011 41.8711 118.031 41.5135H118.736C118.705 42.3002 118.215 42.7396 117.51 42.7396ZM115.364 50.5869V43.4344H116.376V46.5611C116.376 47.072 116.335 48.0018 116.263 48.6251L116.294 48.6455C116.427 48.2981 116.611 47.7974 116.805 47.3785L118.542 43.4344H119.594V50.5869H118.583V47.4705C118.583 46.9289 118.624 45.9684 118.675 45.3758L118.644 45.3554C118.511 45.7232 118.307 46.275 118.133 46.6735L116.406 50.5869H115.364ZM125.404 51.2204V50.4234H125.24C123.8 50.4234 122.788 49.4834 122.788 47.8077V46.2443C122.788 44.5584 123.8 43.5979 125.24 43.5979H125.404V42.8418H126.426V43.5979H126.589C128.03 43.5979 129.041 44.5584 129.041 46.2443V47.8077C129.041 49.4834 128.03 50.4234 126.589 50.4234H126.426V51.2204H125.404ZM125.199 49.4323H125.404V44.589H125.199C124.351 44.589 123.82 45.0897 123.82 46.2443V47.8077C123.82 48.9316 124.351 49.4323 125.199 49.4323ZM126.426 49.4323H126.62C127.478 49.4323 128.009 48.9418 128.009 47.8077V46.2443C128.009 45.0897 127.478 44.589 126.62 44.589H126.426V49.4323ZM131.074 49.6162H133.649V50.5869H130.042V43.4344H133.547V44.4051H131.074V46.4793H133.353V47.4296H131.074V49.6162ZM138.89 49.6162H139.524V51.7824H138.512V50.5869H135.11V51.7824H134.098V49.6162H134.517C135.038 49.0849 135.283 48.012 135.324 46.8881L135.447 43.4344H138.89V49.6162ZM137.869 49.6162V44.4051H136.418L136.315 47.1742C136.275 48.1857 136.091 49.0134 135.753 49.6162H137.869ZM141.462 49.6162H144.037V50.5869H140.43V43.4344H143.935V44.4051H141.462V46.4793H143.74V47.4296H141.462V49.6162ZM147.03 43.4344C148.43 43.4344 149.227 44.2825 149.227 45.7437C149.227 47.2457 148.43 48.0733 147.03 48.0733H146.172V50.5869H145.14V43.4344H147.03ZM147.02 47.0924C147.796 47.0924 148.174 46.6633 148.174 45.7437C148.174 44.8649 147.796 44.4153 147.02 44.4153H146.172V47.0924H147.02ZM152.813 50.5869L152.476 49.1462H150.586L150.259 50.5869H149.176L150.974 43.4344H152.088L153.886 50.5869H152.813ZM150.811 48.1857H152.262L151.812 46.2648C151.71 45.7947 151.597 45.1101 151.546 44.7321H151.516C151.465 45.1101 151.362 45.7947 151.25 46.2648L150.811 48.1857ZM158.368 51.7824V50.5869H154.679V43.4344H155.711V49.606H157.693V43.4344H158.725V49.606H159.379V51.7824H158.368ZM160.287 50.5869V43.4344H161.298V46.5611C161.298 47.072 161.257 48.0018 161.186 48.6251L161.217 48.6455C161.349 48.2981 161.533 47.7974 161.727 47.3785L163.465 43.4344H164.517V50.5869H163.505V47.4705C163.505 46.9289 163.546 45.9684 163.597 45.3758L163.567 45.3554C163.434 45.7232 163.23 46.275 163.056 46.6735L161.329 50.5869H160.287ZM165.945 50.5869V43.4344H166.956V46.5611C166.956 47.072 166.915 48.0018 166.844 48.6251L166.874 48.6455C167.007 48.2981 167.191 47.7974 167.385 47.3785L169.122 43.4344H170.175V50.5869H169.163V47.4705C169.163 46.9289 169.204 45.9684 169.255 45.3758L169.224 45.3554C169.092 45.7232 168.887 46.275 168.714 46.6735L166.987 50.5869H165.945Z" fill="#D19B3F"/>
<defs>
<clipPath id="clip0_321_493">
<rect width="57.775" height="57.775" fill="white" transform="translate(0.38266 0.796875)"/>
</clipPath>
</defs>
</svg>
