<svg width="106" height="94" viewBox="0 0 106 94" fill="none" xmlns="http://www.w3.org/2000/svg">
<g clip-path="url(#clip0_321_209)">
<path d="M24.8759 38.0203H22.5656V44.3273H24.8759V38.0203Z" fill="black"/>
<path d="M28.8594 38.0203H26.5491V44.3273H28.8594V38.0203Z" fill="black"/>
<path d="M32.8426 38.0203H30.5322V44.3273H32.8426V38.0203Z" fill="black"/>
<path d="M36.9057 38.0203H34.5953V44.3273H36.9057V38.0203Z" fill="black"/>
<path d="M40.889 38.0203H38.4193V44.3273H40.889V38.0203Z" fill="black"/>
<path d="M44.8725 38.0203H42.4028V44.3273H44.8725V38.0203Z" fill="black"/>
<path d="M48.7763 38.0203H46.4659V44.3273H48.7763V38.0203Z" fill="black"/>
<path d="M52.7597 38.0203H50.4493V44.3273H52.7597V38.0203Z" fill="black"/>
<path d="M56.7428 38.0203H54.4325V44.3273H56.7428V38.0203Z" fill="black"/>
<path d="M60.8057 38.0203H58.4954V44.3273H60.8057V38.0203Z" fill="black"/>
<path d="M64.7894 38.0203H62.3197V44.3273H64.7894V38.0203Z" fill="black"/>
<path d="M68.7725 38.0203H66.3029V44.3273H68.7725V38.0203Z" fill="black"/>
<path d="M72.6763 38.0203H70.366V44.3273H72.6763V38.0203Z" fill="black"/>
<path d="M76.6597 38.0203H74.3494V44.3273H76.6597V38.0203Z" fill="black"/>
<path d="M80.6432 38.0203H78.3329V44.3273H80.6432V38.0203Z" fill="black"/>
<path d="M84.7058 38.0203H82.3955V44.3273H84.7058V38.0203Z" fill="black"/>
<path d="M24.8759 45.0461H22.5656V47.521H24.8759V45.0461Z" fill="black"/>
<path d="M28.8594 45.0461H26.5491V47.521H28.8594V45.0461Z" fill="black"/>
<path d="M32.8426 45.0461H30.5322V47.521H32.8426V45.0461Z" fill="black"/>
<path d="M36.9057 45.0461H34.5953V47.521H36.9057V45.0461Z" fill="black"/>
<path d="M38.4193 45.0461H40.889V47.6009H38.4193V45.0461Z" fill="black"/>
<path d="M42.4028 45.126L44.8725 45.0461V47.6009H42.4028V45.126Z" fill="black"/>
<path d="M48.7763 45.0461H46.4659V47.521H48.7763V45.0461Z" fill="black"/>
<path d="M52.7597 45.0461H50.4493V47.521H52.7597V45.0461Z" fill="black"/>
<path d="M56.7428 45.0461H54.4325V47.521H56.7428V45.0461Z" fill="black"/>
<path d="M60.8057 45.0461H58.4954V47.521H60.8057V45.0461Z" fill="black"/>
<path d="M62.3197 45.0461L64.7894 45.126V47.6009H62.3197V45.0461Z" fill="black"/>
<path d="M66.3029 45.126L68.7725 45.0461V47.6009H66.3029V45.126Z" fill="black"/>
<path d="M72.6763 45.0461H70.366V47.521H72.6763V45.0461Z" fill="black"/>
<path d="M76.6597 45.0461H74.3494V47.521H76.6597V45.0461Z" fill="black"/>
<path d="M80.6432 45.0461H78.3329V47.521H80.6432V45.0461Z" fill="black"/>
<path d="M84.7058 45.0461H82.3955V47.521H84.7058V45.0461Z" fill="black"/>
<path d="M30.2934 33.071H28.222V33.9492H30.2934V33.071Z" fill="black"/>
<path d="M33.5598 33.071H31.2494V33.9492H33.5598V33.071Z" fill="black"/>
<path d="M36.826 33.071H34.5156V33.9492H36.826V33.071Z" fill="black"/>
<path d="M39.8535 33.071H37.7821V33.9492H39.8535V33.071Z" fill="black"/>
<path d="M55.9462 33.071H53.6359V33.9492H55.9462V33.071Z" fill="black"/>
<path d="M52.6798 33.071H50.3694V33.9492H52.6798V33.071Z" fill="black"/>
<path d="M49.4136 33.071H47.3423V33.9492H49.4136V33.071Z" fill="black"/>
<path d="M43.1201 33.071H40.8097V33.9492H43.1201V33.071Z" fill="black"/>
<path d="M46.3859 33.071H44.0756V33.9492H46.3859V33.071Z" fill="black"/>
<path d="M75.0665 33.071H72.7561V33.9492H75.0665V33.071Z" fill="black"/>
<path d="M71.8 33.071H69.4896V33.9492H71.8V33.071Z" fill="black"/>
<path d="M68.5339 33.071H66.4625V33.9492H68.5339V33.071Z" fill="black"/>
<path d="M65.5062 33.071H63.1958V33.9492H65.5062V33.071Z" fill="black"/>
<path d="M62.24 33.071H59.9297V33.9492H62.24V33.071Z" fill="black"/>
<path d="M59.0532 33.071H56.9022V33.9492H59.0532V33.071Z" fill="black"/>
<path d="M30.2934 30.0369H28.222V31.7932H30.2934V30.0369Z" fill="black"/>
<path d="M78.0938 33.071H76.0225V33.9492H78.0938V33.071Z" fill="black"/>
<path d="M33.5598 30.0369H31.2494V31.7932H33.5598V30.0369Z" fill="black"/>
<path d="M36.826 30.0369H34.5156V31.7932H36.826V30.0369Z" fill="black"/>
<path d="M39.9331 30.0369H37.7821V31.7932H39.9331V30.0369Z" fill="black"/>
<path d="M43.1201 30.0369H40.8097V31.7932H43.1201V30.0369Z" fill="black"/>
<path d="M46.3859 30.0369H44.0756V31.7932H46.3859V30.0369Z" fill="black"/>
<path d="M49.4136 30.0369H47.3423V31.7932H49.4136V30.0369Z" fill="black"/>
<path d="M52.6798 30.0369H50.3694V31.7932H52.6798V30.0369Z" fill="black"/>
<path d="M68.5339 30.0369H66.4625V31.7932H68.5339V30.0369Z" fill="black"/>
<path d="M65.5062 30.0369H63.1958V31.7932H65.5062V30.0369Z" fill="black"/>
<path d="M62.24 30.0369H59.9297V31.7932H62.24V30.0369Z" fill="black"/>
<path d="M59.0532 30.0369H56.9022V31.7932H59.0532V30.0369Z" fill="black"/>
<path d="M55.9462 30.0369H53.6359V31.7932H55.9462V30.0369Z" fill="black"/>
<path d="M78.0938 30.0369H76.0225V31.7932H78.0938V30.0369Z" fill="black"/>
<path d="M75.0665 30.0369H72.7561V31.7932H75.0665V30.0369Z" fill="black"/>
<path d="M71.8 30.0369H69.4896V31.7932H71.8V30.0369Z" fill="black"/>
<path d="M30.2934 26.7637H28.222V28.52H30.2934V26.7637Z" fill="black"/>
<path d="M33.5598 26.7637H31.2494V28.52H33.5598V26.7637Z" fill="black"/>
<path d="M36.826 26.7637H34.5156V28.52H36.826V26.7637Z" fill="black"/>
<path d="M39.9331 26.7637H37.7821V28.52H39.9331V26.7637Z" fill="black"/>
<path d="M43.1201 26.7637H40.8097V28.52H43.1201V26.7637Z" fill="black"/>
<path d="M46.3859 26.7637H44.0756V28.52H46.3859V26.7637Z" fill="black"/>
<path d="M49.4136 26.7637H47.3423V28.52H49.4136V26.7637Z" fill="black"/>
<path d="M52.6798 26.7637H50.3694V28.52H52.6798V26.7637Z" fill="black"/>
<path d="M68.5339 26.7637H66.4625V28.52H68.5339V26.7637Z" fill="black"/>
<path d="M65.5062 26.7637H63.1958V28.52H65.5062V26.7637Z" fill="black"/>
<path d="M62.24 26.7637H59.9297V28.52H62.24V26.7637Z" fill="black"/>
<path d="M59.0532 26.7637H56.9022V28.52H59.0532V26.7637Z" fill="black"/>
<path d="M55.9462 26.7637H53.6359V28.52H55.9462V26.7637Z" fill="black"/>
<path d="M78.0938 26.7637H76.0225V28.52H78.0938V26.7637Z" fill="black"/>
<path d="M75.0665 26.7637H72.7561V28.52H75.0665V26.7637Z" fill="black"/>
<path d="M71.8 26.7637H69.4896V28.52H71.8V26.7637Z" fill="black"/>
<path d="M30.2934 23.6501H28.222V25.4065H30.2934V23.6501Z" fill="black"/>
<path d="M33.5598 23.6501H31.2494V25.4065H33.5598V23.6501Z" fill="black"/>
<path d="M36.826 23.6501H34.5156V25.4065H36.826V23.6501Z" fill="black"/>
<path d="M39.9331 23.6501H37.7821V25.4065H39.9331V23.6501Z" fill="black"/>
<path d="M43.1201 23.6501H40.8097V25.4065H43.1201V23.6501Z" fill="black"/>
<path d="M46.3859 23.6501H44.0756V25.4065H46.3859V23.6501Z" fill="black"/>
<path d="M49.4136 23.6501H47.3423V25.4065H49.4136V23.6501Z" fill="black"/>
<path d="M52.6798 23.6501H50.3694V25.4065H52.6798V23.6501Z" fill="black"/>
<path d="M68.5339 23.6501H66.4625V25.4065H68.5339V23.6501Z" fill="black"/>
<path d="M65.5062 23.6501H63.1958V25.4065H65.5062V23.6501Z" fill="black"/>
<path d="M62.24 23.6501H59.9297V25.4065H62.24V23.6501Z" fill="black"/>
<path d="M59.0532 23.6501H56.9022V25.4065H59.0532V23.6501Z" fill="black"/>
<path d="M55.9462 23.6501H53.6359V25.4065H55.9462V23.6501Z" fill="black"/>
<path d="M78.0938 23.6501H76.0225V25.4065H78.0938V23.6501Z" fill="black"/>
<path d="M75.0665 23.6501H72.7561V25.4065H75.0665V23.6501Z" fill="black"/>
<path d="M71.8 23.6501H69.4896V25.4065H71.8V23.6501Z" fill="black"/>
<path d="M30.2934 20.457H28.222V22.2134H30.2934V20.457Z" fill="black"/>
<path d="M33.5598 20.457H31.2494V22.2134H33.5598V20.457Z" fill="black"/>
<path d="M36.826 20.457H34.5156V22.2134H36.826V20.457Z" fill="black"/>
<path d="M39.9331 20.457H37.7821V22.2134H39.9331V20.457Z" fill="black"/>
<path d="M43.1201 20.457H40.8097V22.2134H43.1201V20.457Z" fill="black"/>
<path d="M46.3859 20.457H44.0756V22.2134H46.3859V20.457Z" fill="black"/>
<path d="M49.4136 20.457H47.3423V22.2134H49.4136V20.457Z" fill="black"/>
<path d="M52.6798 20.457H50.3694V22.2134H52.6798V20.457Z" fill="black"/>
<path d="M68.5339 20.457H66.4625V22.2134H68.5339V20.457Z" fill="black"/>
<path d="M65.5062 20.457H63.1958V22.2134H65.5062V20.457Z" fill="black"/>
<path d="M62.24 20.457H59.9297V22.2134H62.24V20.457Z" fill="black"/>
<path d="M59.0532 20.457H56.9022V22.2134H59.0532V20.457Z" fill="black"/>
<path d="M55.9462 20.457H53.6359V22.2134H55.9462V20.457Z" fill="black"/>
<path d="M78.0938 20.457H76.0225V22.2134H78.0938V20.457Z" fill="black"/>
<path d="M75.0665 20.457H72.7561V22.2134H75.0665V20.457Z" fill="black"/>
<path d="M71.8 20.457H69.4896V22.2134H71.8V20.457Z" fill="black"/>
<path d="M30.2934 17.1836H28.222V18.94H30.2934V17.1836Z" fill="black"/>
<path d="M33.5598 17.1836H31.2494V18.94H33.5598V17.1836Z" fill="black"/>
<path d="M36.826 17.1836H34.5156V18.94H36.826V17.1836Z" fill="black"/>
<path d="M39.9331 17.1836H37.7821V18.94H39.9331V17.1836Z" fill="black"/>
<path d="M43.1201 17.1836H40.8097V18.94H43.1201V17.1836Z" fill="black"/>
<path d="M46.3859 17.1836H44.0756V18.94H46.3859V17.1836Z" fill="black"/>
<path d="M49.4136 17.1836H47.3423V18.94H49.4136V17.1836Z" fill="black"/>
<path d="M52.6798 17.1836H50.3694V18.94H52.6798V17.1836Z" fill="black"/>
<path d="M68.5339 17.1836H66.4625V18.94H68.5339V17.1836Z" fill="black"/>
<path d="M65.5062 17.1836H63.1958V18.94H65.5062V17.1836Z" fill="black"/>
<path d="M62.24 17.1836H59.9297V18.94H62.24V17.1836Z" fill="black"/>
<path d="M59.0532 17.1836H56.9022V18.94H59.0532V17.1836Z" fill="black"/>
<path d="M55.9462 17.1836H53.6359V18.94H55.9462V17.1836Z" fill="black"/>
<path d="M78.0938 17.1836H76.0225V18.94H78.0938V17.1836Z" fill="black"/>
<path d="M75.0665 17.1836H72.7561V18.94H75.0665V17.1836Z" fill="black"/>
<path d="M71.8 17.1836H69.4896V18.94H71.8V17.1836Z" fill="black"/>
<path d="M101.436 48.3194V33.1507H100.48V33.8692H97.453V33.0709H92.673V33.8692H89.4066V33.1507H88.6896V34.6676L86.22 36.1844H80.6433V16.2256H81.4399V11.4355H80.6433V10.6371H70.2865V9.83879H67.8169V10.6371H54.4328V5.84702H52.6801V2.57376H56.6635V0.098877H51.8834V6.00669H50.3697V10.7968H36.8263V9.99845H34.3567V10.7968H25.7526L24.9559 11.5952V16.6248H25.7526V13.3515H26.4696V15.8264H27.2663V13.3515H28.063V15.8264H29.019V13.3515H29.5766V15.8264H30.5326V13.3515H31.0903V15.8264H32.0463V13.3515H32.843V15.8264H33.799V13.3515H34.3567V15.8264H35.3127V13.3515H35.8703V15.8264H36.8263V13.3515H37.623V15.8264H38.579V13.3515H39.1367V15.8264H40.0927V13.3515H40.6504V15.8264H41.6064V13.3515H42.403V15.8264H43.3591V13.3515H43.9167V15.8264H44.8727V13.3515H45.4304V15.8264H46.3864V13.3515H47.1831V15.8264H48.1391V13.3515H48.6968V15.8264H49.6527V13.3515H50.2104V15.8264H51.1664V13.3515H51.9631V15.8264H52.9191V13.3515H53.4768V15.8264H54.4328V13.3515H54.9905V15.8264H55.9465V13.3515H56.6635V15.8264H57.6195V13.3515H58.1771V15.8264H59.1331V13.3515H59.6908V15.8264H60.6468V13.3515H61.4435V15.8264H62.3995V13.3515H62.9572V15.8264H63.9132V13.3515H64.5505V15.8264H65.5065V13.3515H66.3032V15.8264H67.2592V13.3515H67.8169V15.8264H68.7729V13.3515H69.3305V15.8264H70.2865V13.3515H71.0035V15.8264H71.9595V13.3515H72.5172V15.8264H73.3936V13.3515H74.0309V15.8264H74.9869V13.3515H75.7836V15.8264H76.7396V13.3515H77.2972V15.8264H78.2533V13.3515H78.8109V15.8264H79.7669V13.3515H80.5636V16.3853H79.8466V36.5038H78.0939V34.8272H76.0226V36.5038H75.0666V34.8272H72.7562V36.5038H71.8002V34.8272H69.4899V36.5038H68.5339V34.8272H66.4625V36.5038H65.5065V34.8272H63.1962V36.5038H62.2402V34.8272H59.9298V36.5038H58.9738V34.8272H56.9025V36.5038H55.9465V34.8272H53.6361V36.5038H52.6801V34.8272H50.3697V36.5038H49.4138V34.8272H47.3424V36.5038H46.3864V34.8272H44.076V36.5038H43.1201V34.8272H40.8097V36.5038H39.8537V34.8272H37.7824V36.5038H36.8263V34.8272H34.516V36.5038H33.56V34.8272H31.2496V36.5038H30.2936V34.8272H28.2223V36.5038H26.4696V16.4651H25.7526L25.6729 36.5038H20.7336L18.3436 34.0289V33.2305H17.6266V33.9491H14.3602V33.2305H9.5802V34.0289H6.55283V33.3104H5.59684V48.4791H0.0201416V49.996H105.181V48.4791L101.436 48.3194ZM27.2663 12.633H26.3103V11.5952H27.2663V12.633ZM28.9393 12.633H27.9833V11.5952H28.9393V12.633ZM30.5326 12.633H29.5766V11.5952H30.5326V12.633ZM32.0463 12.633H31.0903V11.5952H32.0463V12.633ZM33.7193 12.633H32.7633V11.5952H33.7193V12.633ZM35.3127 12.633H34.3567V11.5952H35.3127V12.633ZM36.8263 12.633H35.8703V11.5952H36.8263V12.633ZM38.4994 12.633H37.5434V11.5952H38.4994V12.633ZM39.1367 12.633V11.5952H40.0927V12.633H39.1367ZM41.6064 12.633H40.6504V11.5952H41.6064V12.633ZM43.2794 12.633H42.3234V11.5952H43.2794V12.633ZM43.9167 12.633V11.5952H44.8727V12.633H43.9167ZM45.4304 12.633V11.5952H46.3864V12.633H45.4304ZM48.0594 12.633H47.1034V11.5952H48.0594V12.633ZM49.5731 12.633H48.6171V11.5952H49.5731V12.633ZM51.1664 12.633H50.2104V11.5952H51.1664V12.633ZM52.8394 12.633H51.8834V11.5952H52.8394V12.633ZM51.1664 10.0783V9.12026H53.4768V10.0783H51.1664ZM54.3531 12.633H53.3971V11.5952H54.3531V12.633ZM54.9905 12.633V11.5952H55.9465V12.633H54.9905ZM57.6195 12.633H56.6635V11.5952H57.6195V12.633ZM59.1331 12.633H58.1771V11.5952H59.1331V12.633ZM60.7265 12.633H59.7705V11.5952H60.7265V12.633ZM62.3995 12.633H61.4435V11.5952H62.3995V12.633ZM63.9132 12.633H62.9572V11.5952H63.9132V12.633ZM65.5065 12.633H64.5505V11.5952H65.5065V12.633ZM67.1795 12.633H66.2235V11.5952H67.1795V12.633ZM68.6932 12.633H67.7372V11.5952H68.6932V12.633ZM70.2865 12.633H69.3305V11.5952H70.2865V12.633ZM71.9595 12.633H71.0035V11.5952H71.9595V12.633ZM73.4732 12.633H72.5172V11.5952H73.4732V12.633ZM75.0666 12.633H74.1106V11.5952H75.0666V12.633ZM76.7396 12.633H75.7836V11.5952H76.7396V12.633ZM78.2533 12.633H77.2972V11.5952H78.2533V12.633ZM79.8466 12.633H78.8906V11.5952H79.8466V12.633ZM16.1926 48.3194V37.2223H15.3959V48.3194H13.6432V36.2643H14.3602V35.5458H9.5802V36.3441H10.5362V48.3993H8.8632V37.3021H8.06653V48.3993H6.6325V34.8272H17.7062V48.3993L16.1926 48.3194ZM86.1403 48.3194H20.9726V37.2223H86.1403V48.3194ZM98.9667 48.3194V37.2223H98.0107V48.3194H96.497V36.2643H97.453V35.4659H92.673V36.2643H93.4697V48.3194H91.956V37.2223H90.9203V48.3194H89.4066V34.7474H100.48V48.3194H98.9667Z" fill="black"/>
<path d="M0.258667 58.1392H7.03037V66.6815H5.35736V59.5762H2.01135V66.6815H0.258667V58.1392Z" fill="black"/>
<path d="M8.86279 66.7614V58.1392H11.6511C12.6868 58.1392 13.4038 58.219 13.7225 58.2988C14.2005 58.4585 14.5988 58.698 14.9175 59.177C15.2361 59.5762 15.3955 60.135 15.3955 60.8536C15.3955 61.4124 15.3158 61.8116 15.0768 62.2108C14.8378 62.6099 14.6785 62.8494 14.3598 63.0889C14.0412 63.3285 13.8021 63.4083 13.4835 63.4881C13.0851 63.568 12.4478 63.6478 11.7308 63.6478H10.6155V66.921H8.86279V66.7614ZM10.5358 59.656V62.0511H11.4918C12.2088 62.0511 12.6071 61.9713 12.8461 61.8914C13.0852 61.8116 13.2445 61.6519 13.4038 61.4922C13.5631 61.3326 13.5631 61.0931 13.5631 60.8536C13.5631 60.5342 13.4835 60.2947 13.3241 60.0552C13.1648 59.8157 12.9258 59.7359 12.6071 59.656C12.3681 59.656 11.9698 59.5762 11.3325 59.5762H10.5358V59.656Z" fill="black"/>
<path d="M23.4418 66.7614H21.6095L20.8128 64.7655H17.3871L16.6701 66.6815H14.8378L18.1838 58.1392H20.0161L23.4418 66.7614ZM20.3348 63.3285L19.1398 60.135L17.9448 63.3285H20.3348Z" fill="black"/>
<path d="M24.398 58.1392H27.8237C28.461 58.1392 29.0187 58.1392 29.3374 58.219C29.656 58.2988 29.9747 58.3787 30.2137 58.5383C30.4527 58.698 30.6917 58.9375 30.851 59.2569C31.0104 59.5762 31.0901 59.8955 31.0901 60.2947C31.0901 60.6939 31.0104 61.0931 30.7714 61.4124C30.5324 61.7317 30.2934 61.9713 29.8951 62.1309C30.4527 62.2906 30.8511 62.5301 31.0901 62.9293C31.3291 63.3285 31.4884 63.7276 31.4884 64.2066C31.4884 64.6058 31.4087 65.005 31.2494 65.3243C31.09 65.7235 30.8511 65.963 30.5324 66.2025C30.2137 66.442 29.8154 66.5219 29.3374 66.6017C29.0187 66.6017 28.3814 66.6815 27.266 66.6815H24.3184V58.1392H24.398ZM26.1507 59.5762V61.5721H28.5407C28.8594 61.5721 29.0984 61.4124 29.2577 61.2527C29.417 61.0931 29.4967 60.8536 29.4967 60.614C29.4967 60.3745 29.417 60.135 29.2577 59.9754C29.0984 59.8157 28.8594 59.7359 28.6204 59.656H26.1507V59.5762ZM26.1507 63.0091V65.3243H27.744C28.3814 65.3243 28.7797 65.3243 28.939 65.2445C29.178 65.1647 29.4171 65.0848 29.5764 64.9252C29.7357 64.7655 29.8154 64.526 29.8154 64.2066C29.8154 63.9671 29.7357 63.7276 29.656 63.568C29.5764 63.4083 29.3374 63.2486 29.0984 63.1688C28.8594 63.089 28.3814 63.0091 27.5847 63.0091H26.1507Z" fill="black"/>
<path d="M33.0819 58.1392H34.6753V63.8075L38.1806 58.1392H39.9333V66.6815H38.3399V61.0931L34.9142 66.6815H33.1616V58.1392H33.0819Z" fill="black"/>
<path d="M43.5179 66.7616V59.6563H40.9685V58.2192H47.7402V59.6563H45.1909V66.7616H43.5179Z" fill="black"/>
<path d="M48.9357 66.7614V58.1392H55.309V59.5762H50.6884V61.4922H54.9904V62.9293H50.6884V65.2445H55.4684V66.6815H48.9357V66.7614Z" fill="black"/>
<path d="M57.46 58.1392H63.435V66.6815H61.6823V59.5762H59.133V63.2486C59.133 64.2865 59.133 65.005 59.0533 65.484C58.9736 65.8832 58.8143 66.2025 58.5753 66.442C58.3363 66.6815 57.8583 66.7614 57.3006 66.7614C57.0616 66.7614 56.743 66.7614 56.1853 66.6815V65.3243H56.5836C56.982 65.3243 57.221 65.2445 57.3006 65.1647C57.3803 65.0848 57.46 64.8453 57.46 64.4461V58.1392Z" fill="black"/>
<path d="M65.2673 58.1392H67.02V61.5721H69.3303C70.4457 61.5721 71.2423 61.8116 71.7203 62.3704C72.1983 62.8494 72.4373 63.4881 72.4373 64.2066C72.4373 64.7655 72.278 65.3243 71.9593 65.7235C71.6407 66.1227 71.322 66.442 70.9237 66.5219C70.5253 66.6815 69.9677 66.7614 69.2506 66.7614H65.1876V58.1392H65.2673ZM67.02 65.3243H68.693C69.2507 65.3243 69.649 65.3243 69.8083 65.2445C70.0473 65.1647 70.2066 65.0848 70.366 64.8453C70.5253 64.6857 70.605 64.4462 70.605 64.1268C70.605 63.7276 70.4457 63.4083 70.2067 63.2486C69.888 63.0889 69.41 63.0091 68.7726 63.0091H67.02V65.3243Z" fill="black"/>
<path d="M79.0497 63.568L80.7227 64.1268C80.4837 65.0848 80.0057 65.7235 79.448 66.2025C78.8107 66.6815 78.0937 66.921 77.1377 66.921C76.0224 66.921 75.0663 66.5219 74.3493 65.7235C73.6323 64.9252 73.234 63.8873 73.234 62.5301C73.234 61.0931 73.6323 59.9754 74.3493 59.177C75.0663 58.3787 76.0224 57.9795 77.2174 57.9795C78.253 57.9795 79.1294 58.2988 79.7667 58.9375C80.165 59.3367 80.4837 59.8157 80.6431 60.5342L78.97 60.9334C78.8904 60.4544 78.6514 60.135 78.3327 59.8955C78.014 59.656 77.6157 59.4964 77.1377 59.4964C76.5004 59.4964 76.0224 59.7359 75.624 60.2149C75.2257 60.6939 75.0664 61.4124 75.0664 62.4503C75.0664 63.568 75.2257 64.2865 75.624 64.7655C76.0224 65.2445 76.5004 65.484 77.1377 65.484C77.6157 65.484 78.014 65.3243 78.3327 65.0848C78.6514 64.6857 78.8904 64.2066 79.0497 63.568Z" fill="black"/>
<path d="M83.8299 66.7616V59.6563H81.2805V58.2192H88.0522V59.6563H85.5029V66.7616H83.8299Z" fill="black"/>
<path d="M89.1677 58.1392H92.5934C93.2307 58.1392 93.7884 58.1392 94.107 58.219C94.4257 58.2988 94.7444 58.3787 94.9834 58.5383C95.2224 58.698 95.4614 58.9375 95.6207 59.2569C95.7801 59.5762 95.8597 59.8955 95.8597 60.2947C95.8597 60.6939 95.7801 61.0931 95.5411 61.4124C95.3021 61.7317 95.063 61.9713 94.6647 62.1309C95.2224 62.2906 95.6207 62.5301 95.8597 62.9293C96.0987 63.3285 96.2581 63.7276 96.2581 64.2066C96.2581 64.6058 96.1784 65.005 96.0191 65.3243C95.8597 65.7235 95.6207 65.963 95.3021 66.2025C94.9834 66.442 94.585 66.5219 94.107 66.6017C93.7884 66.6017 93.151 66.6815 92.0357 66.6815H89.088V58.1392H89.1677ZM90.9204 59.5762V61.5721H93.3104C93.629 61.5721 93.868 61.4124 94.0274 61.2527C94.1867 61.0931 94.2664 60.8536 94.2664 60.614C94.2664 60.3745 94.1867 60.135 94.0274 59.9754C93.868 59.8157 93.629 59.7359 93.39 59.656H90.9204V59.5762ZM90.9204 63.0091V65.3243H92.5137C93.151 65.3243 93.5494 65.3243 93.7087 65.2445C93.9477 65.1647 94.1867 65.0848 94.346 64.9252C94.5054 64.7655 94.5851 64.526 94.5851 64.2066C94.5851 63.9671 94.5054 63.7276 94.4257 63.568C94.3461 63.4083 94.107 63.2486 93.868 63.1688C93.629 63.089 93.151 63.0091 92.3544 63.0091H90.9204Z" fill="black"/>
<path d="M97.2137 62.5301C97.2137 61.6519 97.3731 60.9334 97.6121 60.2947C97.7714 59.8955 98.0901 59.4964 98.4088 59.0972C98.7274 58.7778 99.1258 58.4585 99.5241 58.2988C100.082 58.0593 100.639 57.9795 101.356 57.9795C102.631 57.9795 103.587 58.3787 104.384 59.177C105.101 59.9754 105.499 61.0132 105.499 62.4503C105.499 63.8075 105.101 64.9252 104.384 65.7235C103.667 66.5219 102.631 66.921 101.356 66.921C100.082 66.921 99.0461 66.5219 98.3291 65.7235C97.5324 64.9252 97.2137 63.8873 97.2137 62.5301ZM98.9664 62.4503C98.9664 63.4083 99.2054 64.1268 99.6038 64.6857C100.082 65.1647 100.639 65.4042 101.277 65.4042C101.994 65.4042 102.551 65.1647 102.95 64.6857C103.428 64.2066 103.587 63.4083 103.587 62.4503C103.587 61.4922 103.348 60.7737 102.95 60.2149C102.551 59.7359 101.914 59.4964 101.277 59.4964C100.56 59.4964 100.002 59.7359 99.5241 60.2149C99.2054 60.6939 98.9664 61.4922 98.9664 62.4503Z" fill="black"/>
<path d="M10.0577 79.1356V70.5134H12.8461C13.8818 70.5134 14.5987 70.5933 14.9174 70.6731C15.3954 70.8328 15.7938 71.0723 16.1124 71.5513C16.4311 71.9505 16.5904 72.5093 16.5904 73.2278C16.5904 73.7867 16.5108 74.1858 16.2718 74.585C16.0328 74.9842 15.8734 75.2237 15.5548 75.4632C15.2361 75.7027 14.9971 75.7826 14.6784 75.8624C14.2801 75.9422 13.6427 76.0221 12.9257 76.0221H11.8104V79.1356H10.0577ZM11.8104 72.0303V74.4254H12.7664C13.4834 74.4254 13.8817 74.3455 14.1207 74.2657C14.3597 74.1859 14.5191 74.0262 14.6784 73.8665C14.8378 73.7068 14.8378 73.4673 14.8378 73.2278C14.8378 72.9085 14.7581 72.669 14.5988 72.4295C14.4394 72.19 14.2004 72.1101 13.8818 72.0303C13.6427 72.0303 13.2444 71.9505 12.6071 71.9505H11.8104V72.0303Z" fill="black"/>
<path d="M17.7058 74.9046C17.7058 74.0264 17.8651 73.3079 18.1041 72.6692C18.2635 72.27 18.5821 71.8709 18.9008 71.4717C19.2195 71.1524 19.6178 70.833 20.0162 70.6733C20.5738 70.4338 21.1315 70.354 21.8485 70.354C23.1232 70.354 24.0792 70.7532 24.8759 71.5515C25.5929 72.3499 25.9912 73.3877 25.9912 74.8248C25.9912 76.182 25.5929 77.2997 24.8759 78.098C24.1588 78.8964 23.1232 79.2956 21.8485 79.2956C20.5738 79.2956 19.5382 78.8964 18.8212 78.098C18.1042 77.2997 17.7058 76.2618 17.7058 74.9046ZM19.4585 74.8248C19.4585 75.7828 19.6975 76.5013 20.0958 77.0602C20.5738 77.5392 21.1315 77.7787 21.7688 77.7787C22.4858 77.7787 23.0435 77.5392 23.4419 77.0602C23.9199 76.5812 24.0792 75.7828 24.0792 74.8248C24.0792 73.8668 23.8402 73.1482 23.4419 72.5894C23.0435 72.1104 22.4062 71.8709 21.7688 71.8709C21.0518 71.8709 20.4942 72.1104 20.0162 72.5894C19.6975 73.0684 19.4585 73.8668 19.4585 74.8248Z" fill="black"/>
<path d="M33.002 75.9425L34.675 76.5013C34.436 77.4593 33.958 78.098 33.4003 78.577C32.763 79.0561 32.046 79.2956 31.09 79.2956C29.9746 79.2956 29.0186 78.8964 28.3016 78.098C27.5846 77.2997 27.1863 76.2618 27.1863 74.9046C27.1863 73.4676 27.5846 72.3499 28.3016 71.5515C29.0186 70.7532 29.9746 70.354 31.1696 70.354C32.2053 70.354 33.0816 70.6733 33.719 71.312C34.1173 71.7112 34.436 72.1902 34.5953 72.9087L32.9223 73.3079C32.8426 72.8289 32.6036 72.5096 32.285 72.27C31.9663 72.0305 31.568 71.8709 31.09 71.8709C30.4526 71.8709 29.9746 72.1104 29.5763 72.5894C29.178 73.0684 29.0186 73.7869 29.0186 74.8248C29.0186 75.9425 29.178 76.661 29.5763 77.14C29.9746 77.619 30.4526 77.8585 31.09 77.8585C31.568 77.8585 31.9663 77.6989 32.285 77.4593C32.6036 77.0602 32.8426 76.5812 33.002 75.9425Z" fill="black"/>
<path d="M41.7655 75.9425L43.4385 76.5013C43.1995 77.4593 42.7215 78.098 42.1639 78.577C41.5265 79.0561 40.8095 79.2956 39.8535 79.2956C38.7382 79.2956 37.7822 78.8964 37.0652 78.098C36.3482 77.2997 35.9498 76.2618 35.9498 74.9046C35.9498 73.4676 36.3482 72.3499 37.0652 71.5515C37.7822 70.7532 38.7382 70.354 39.9332 70.354C40.9689 70.354 41.8452 70.6733 42.4825 71.312C42.8809 71.7112 43.1995 72.1902 43.3589 72.9087L41.6858 73.3079C41.6062 72.8289 41.3672 72.5096 41.0485 72.27C40.7299 72.0305 40.3315 71.8709 39.8535 71.8709C39.2162 71.8709 38.7382 72.1104 38.3398 72.5894C37.9415 73.0684 37.7822 73.7869 37.7822 74.8248C37.7822 75.9425 37.9415 76.661 38.3398 77.14C38.7382 77.619 39.2162 77.8585 39.8535 77.8585C40.3315 77.8585 40.7299 77.6989 41.0485 77.4593C41.4469 77.0602 41.6859 76.5812 41.7655 75.9425Z" fill="black"/>
<path d="M45.191 70.5134H46.7844V76.1817L50.2898 70.5134H52.0424V79.1356H50.4491V73.5472L47.0234 79.1356H45.2707V70.5134H45.191Z" fill="black"/>
<path d="M53.9546 70.5135H55.5479V76.1818L59.0533 70.5135H60.806V79.1357H59.2126V73.5472L55.7869 79.1357H54.0343V70.5135H53.9546ZM58.3363 68.4377H59.133C59.0533 68.9966 58.894 69.3958 58.5753 69.7151C58.2566 70.0345 57.8583 70.1941 57.3006 70.1941C56.7429 70.1941 56.3446 70.0345 56.0259 69.7151C55.7073 69.3958 55.5479 68.9966 55.4683 68.4377H56.2649C56.2649 68.6773 56.4243 68.9168 56.5836 69.0764C56.743 69.2361 56.982 69.3159 57.3006 69.3159C57.6193 69.3159 57.8583 69.2361 58.0176 69.0764C58.2566 68.9168 58.3363 68.6773 58.3363 68.4377Z" fill="black"/>
<path d="M68.1354 75.9425L69.8084 76.5013C69.5694 77.4593 69.0914 78.098 68.5337 78.577C67.8964 79.0561 67.1794 79.2956 66.2234 79.2956C65.108 79.2956 64.152 78.8964 63.435 78.098C62.718 77.2997 62.3197 76.2618 62.3197 74.9046C62.3197 73.4676 62.718 72.3499 63.435 71.5515C64.152 70.7532 65.1081 70.354 66.3031 70.354C67.3387 70.354 68.2151 70.6733 68.8524 71.312C69.2507 71.7112 69.5694 72.1902 69.7287 72.9087L68.0557 73.3079C67.9761 72.8289 67.7371 72.5096 67.4184 72.27C67.0997 72.0305 66.7014 71.8709 66.2234 71.8709C65.586 71.8709 65.1081 72.1104 64.7097 72.5894C64.3114 73.0684 64.152 73.7869 64.152 74.8248C64.152 75.9425 64.3114 76.661 64.7097 77.14C65.1081 77.619 65.586 77.8585 66.2234 77.8585C66.7014 77.8585 67.0997 77.6989 67.4184 77.4593C67.7371 77.0602 67.9761 76.5812 68.1354 75.9425Z" fill="black"/>
<path d="M71.4812 70.5137H73.2339V74.1861C73.6322 74.1861 73.8712 74.0264 74.0305 73.8668C74.1899 73.7071 74.3492 73.2281 74.6679 72.5096C74.9866 71.5515 75.3849 70.9927 75.7832 70.7532C76.1019 70.5137 76.7392 70.4338 77.5359 70.4338H77.7749V71.7112H77.5359C77.2172 71.7112 76.8986 71.791 76.7392 71.8709C76.5799 71.9507 76.4206 72.1104 76.3409 72.2701C76.2612 72.4297 76.1019 72.8289 75.8629 73.3877C75.7832 73.7071 75.6239 73.9466 75.5442 74.1063C75.3849 74.2659 75.2256 74.5054 74.9069 74.6651C75.3052 74.7449 75.6239 74.9845 75.8629 75.3038C76.1019 75.6231 76.4206 76.1022 76.6596 76.7408L77.8546 79.0561H75.7832L74.7475 76.8207C74.7475 76.8207 74.6679 76.7408 74.6679 76.661C74.6679 76.661 74.5882 76.5013 74.4289 76.2618C74.1899 75.8626 74.0305 75.5433 73.8712 75.4635C73.7119 75.3836 73.4729 75.3038 73.2339 75.3038V79.1359H71.4812V70.5137Z" fill="black"/>
<path d="M78.5717 74.9046C78.5717 74.0264 78.731 73.3079 78.97 72.6692C79.1293 72.27 79.448 71.8709 79.7667 71.4717C80.0853 71.1524 80.4837 70.833 80.882 70.6733C81.4397 70.4338 81.9973 70.354 82.7143 70.354C83.989 70.354 84.945 70.7532 85.7417 71.5515C86.4587 72.3499 86.857 73.3877 86.857 74.8248C86.857 76.182 86.4587 77.2997 85.7417 78.098C85.0247 78.8964 83.989 79.2956 82.7143 79.2956C81.4397 79.2956 80.404 78.8964 79.687 78.098C78.97 77.2997 78.5717 76.2618 78.5717 74.9046ZM80.404 74.8248C80.404 75.7828 80.643 76.5013 81.0413 77.0602C81.5193 77.5392 82.077 77.7787 82.7143 77.7787C83.4313 77.7787 83.989 77.5392 84.3874 77.0602C84.8654 76.5812 85.0247 75.7828 85.0247 74.8248C85.0247 73.8668 84.7857 73.1482 84.3874 72.5894C83.989 72.1104 83.3517 71.8709 82.7143 71.8709C81.9973 71.8709 81.4397 72.1104 80.9617 72.5894C80.643 73.0684 80.404 73.8668 80.404 74.8248Z" fill="black"/>
<path d="M88.4504 70.5135H90.0438V76.1818L93.5491 70.5135H95.3018V79.1357H93.7085V73.5472L90.2828 79.1357H88.5301V70.5135H88.4504ZM92.9118 68.4377H93.7085C93.6288 68.9966 93.4695 69.3958 93.1508 69.7151C92.8321 70.0345 92.4338 70.1941 91.8761 70.1941C91.3184 70.1941 90.9201 70.0345 90.6014 69.7151C90.2828 69.3958 90.1234 68.9966 90.0438 68.4377H90.8405C90.8405 68.6773 90.9998 68.9168 91.1591 69.0764C91.3185 69.2361 91.5574 69.3159 91.8761 69.3159C92.1948 69.3159 92.4338 69.2361 92.5931 69.0764C92.7525 68.9168 92.8321 68.6773 92.9118 68.4377Z" fill="black"/>
<path d="M19.8569 90.4723V91.5102H18.1839V90.4723C16.8296 90.3925 15.8736 90.0731 15.3159 89.4344C14.7582 88.7958 14.4396 87.9974 14.4396 87.1192C14.4396 86.1612 14.7582 85.3628 15.3159 84.7241C15.8736 84.0855 16.8296 83.7661 18.1839 83.7661V82.8879H19.8569V83.7661C21.2113 83.846 22.1673 84.1653 22.725 84.804C23.2826 85.4427 23.6013 86.241 23.6013 87.199C23.6013 88.1571 23.2826 88.9554 22.725 89.5143C22.1673 90.0731 21.2113 90.4723 19.8569 90.4723ZM18.1839 89.0353V85.2032C17.4669 85.2032 16.9092 85.3628 16.5906 85.6822C16.2719 86.0015 16.1126 86.4805 16.1126 87.1192C16.1126 88.3966 16.7499 89.0353 18.1839 89.0353ZM19.8569 89.0353C20.3349 89.0353 20.7333 88.9554 21.0519 88.7958C21.3706 88.6361 21.6096 88.4764 21.7689 88.1571C21.9283 87.9176 22.008 87.5184 22.008 87.0394C22.008 85.762 21.2909 85.2032 19.9366 85.2032V89.0353H19.8569Z" fill="black"/>
<path d="M25.1152 91.5104V82.968H31.4886V84.4051H26.8679V86.3211H31.1699V87.7581H26.8679V90.0734H31.6479V91.5104H25.1152Z" fill="black"/>
<path d="M33.9579 82.8879H39.8533V89.9933H40.5703V93.2665H39.1363V91.4303H33.7189V93.2665H32.2849V89.9933H33.0019C33.3206 89.2748 33.5596 88.3966 33.7189 87.4386C33.7986 86.4805 33.8783 85.283 33.8783 83.7661V82.8879H33.9579ZM35.6309 84.325C35.6309 86.9595 35.3919 88.7958 34.9139 89.9933H38.1803V84.325H35.6309Z" fill="black"/>
<path d="M42.0043 91.5104V82.968H48.3776V84.4051H43.757V86.3211H48.059V87.7581H43.757V90.0734H48.537V91.5104H42.0043Z" fill="black"/>
<path d="M50.1306 91.5104V82.968H52.919C53.9546 82.968 54.6716 83.0479 54.9903 83.1277C55.4683 83.2874 55.8667 83.5269 56.1853 84.0059C56.504 84.4051 56.6633 84.9639 56.6633 85.6824C56.6633 86.2413 56.5837 86.6404 56.3447 87.0396C56.1057 87.4388 55.9463 87.6783 55.6276 87.9178C55.309 88.1573 55.07 88.2371 54.7513 88.317C54.353 88.3968 53.7156 88.4767 52.9986 88.4767H51.8833V91.7499H50.1306V91.5104ZM51.8833 84.4051V86.8001H52.8393C53.5563 86.8001 53.9546 86.7203 54.1936 86.6404C54.4326 86.5606 54.592 86.4009 54.7513 86.2413C54.9106 86.0816 54.9106 85.8421 54.9106 85.6026C54.9106 85.2832 54.831 85.0437 54.6717 84.8042C54.5123 84.5647 54.2733 84.4849 53.9546 84.4051C53.7156 84.4051 53.3173 84.3252 52.68 84.3252H51.8833V84.4051Z" fill="black"/>
<path d="M64.9485 91.5104H63.0365L62.3195 89.5943H58.8938L58.1768 91.5104H56.3445L59.6905 82.968H61.5228L64.9485 91.5104ZM61.7618 88.0775L60.5668 84.8841L59.3718 88.0775H61.7618Z" fill="black"/>
<path d="M66.0638 82.8879H67.8165V89.9933H71.1625V82.8879H72.9152V89.9933H73.6322V93.2665H72.1982V91.4303H66.1435V82.8879H66.0638Z" fill="black"/>
<path d="M74.9865 82.8879H76.5798V88.5562L80.0852 82.8879H81.8378V91.4303H80.2445V85.8418L76.8188 91.4303H74.9865V82.8879Z" fill="black"/>
<path d="M83.7502 82.8879H85.3436V88.5562L88.8489 82.8879H90.6016V91.4303H89.0083V85.8418L85.5826 91.4303H83.7502V82.8879Z" fill="black"/>
</g>
<defs>
<clipPath id="clip0_321_209">
<rect width="105.161" height="93.4074" fill="white" transform="translate(0.0201416 0.098877)"/>
</clipPath>
</defs>
</svg>
