<svg width="190" height="107" viewBox="0 0 190 107" fill="none" xmlns="http://www.w3.org/2000/svg">
<path d="M15.4364 62.6497C15.6245 62.6801 15.8112 62.7257 15.9964 62.7861C16.181 62.8467 16.3563 62.9112 16.5222 62.9793V63.4113H12.8109V62.9793C13.1432 62.8129 13.4524 62.7028 13.7389 62.6497V56.2176C13.588 56.1874 13.4315 56.1456 13.2693 56.0926C13.107 56.0397 12.9542 55.9715 12.8109 55.888V55.4561H18.6043C18.6043 55.6379 18.6007 55.8464 18.593 56.0812C18.5854 56.3161 18.5741 56.5586 18.5591 56.8084C18.5438 57.0585 18.5212 57.3027 18.4913 57.5414C18.461 57.7801 18.4308 57.9944 18.4009 58.1837H17.9367L17.2238 56.1949H15.4364L15.4364 62.6497Z" fill="black"/>
<path d="M19.4099 59.4337C19.4099 58.8428 19.493 58.2955 19.6589 57.7915C19.8249 57.2877 20.0699 56.8523 20.3944 56.4847C20.7186 56.1173 21.1186 55.8313 21.5938 55.6267C22.0692 55.4222 22.6158 55.3198 23.2346 55.3198C23.8531 55.3198 24.4 55.4222 24.8752 55.6267C25.3503 55.8313 25.7481 56.1173 26.069 56.4847C26.3895 56.8523 26.6327 57.2877 26.799 57.7915C26.9645 58.2955 27.0477 58.8428 27.0477 59.4337C27.0477 60.0248 26.9645 60.5721 26.799 61.0759C26.6327 61.58 26.3895 62.0154 26.069 62.3827C25.7481 62.7504 25.3503 63.0363 24.8752 63.2408C24.4 63.4452 23.8531 63.5475 23.2346 63.5475C22.6158 63.5475 22.0692 63.4452 21.5938 63.2408C21.1186 63.0363 20.7186 62.7504 20.3944 62.3827C20.0699 62.0154 19.8249 61.58 19.6589 61.0759C19.493 60.5721 19.4099 60.0248 19.4099 59.4337ZM21.3337 59.4337C21.3337 59.9185 21.3713 60.3676 21.4468 60.7805C21.5219 61.1934 21.6408 61.5494 21.8034 61.8486C21.9653 62.148 22.1728 62.3827 22.4255 62.5532C22.6782 62.7237 22.9815 62.8089 23.3363 62.8089C23.6605 62.8089 23.9361 62.7237 24.1623 62.5532C24.3887 62.3827 24.5732 62.148 24.7169 61.8486C24.8598 61.5494 24.9638 61.1934 25.0279 60.7805C25.0921 60.3676 25.1242 59.9185 25.1242 59.4337C25.1242 58.949 25.0885 58.5 25.0166 58.087C24.9448 57.6742 24.8318 57.3182 24.6772 57.0188C24.5225 56.7196 24.3187 56.4847 24.066 56.3143C23.8133 56.1437 23.5063 56.0585 23.1442 56.0585C22.797 56.0585 22.5064 56.1437 22.2727 56.3143C22.039 56.4847 21.8523 56.7196 21.7126 57.0188C21.5729 57.3182 21.4752 57.6742 21.4183 58.087C21.3618 58.5 21.3337 58.949 21.3337 59.4337Z" fill="black"/>
<path d="M33.8269 61.0248H34.2907C34.3206 61.146 34.3491 61.2918 34.3753 61.4622C34.4016 61.6327 34.4242 61.8145 34.4435 62.0077C34.4621 62.2009 34.4752 62.3924 34.4829 62.5816C34.4902 62.7711 34.4942 62.9416 34.4942 63.0931C34.2302 63.2599 33.9002 63.3773 33.5042 63.4452C33.1082 63.5135 32.7024 63.5475 32.2877 63.5475C31.6617 63.5475 31.0939 63.4697 30.5849 63.3146C30.0758 63.1593 29.642 62.9131 29.2835 62.5759C28.9254 62.239 28.6483 61.8107 28.4521 61.2918C28.256 60.773 28.1578 60.1496 28.1578 59.4223C28.1578 58.7027 28.2654 58.0832 28.4802 57.5643C28.6954 57.0455 28.9837 56.6192 29.3458 56.2857C29.708 55.9525 30.1284 55.7082 30.6075 55.5527C31.0866 55.3977 31.5902 55.3198 32.1182 55.3198C32.6159 55.3198 33.0666 55.3559 33.4703 55.4279C33.8736 55.4998 34.2036 55.5965 34.4603 55.7176C34.4603 55.8388 34.4549 55.9942 34.4435 56.1836C34.4318 56.3729 34.4132 56.5718 34.3866 56.7801C34.3601 56.9886 34.3302 57.1931 34.2962 57.3938C34.2623 57.5947 34.2302 57.7631 34.2003 57.8994H33.7248L33.1024 56.1836C33.0345 56.1457 32.9252 56.1154 32.7742 56.0926C32.6233 56.0699 32.469 56.0585 32.3104 56.0585C32.0012 56.0585 31.7105 56.121 31.4392 56.246C31.1676 56.3709 30.9262 56.5699 30.7151 56.8426C30.5039 57.1154 30.3377 57.466 30.2174 57.8938C30.0963 58.322 30.0361 58.8353 30.0361 59.4337C30.0361 60.5172 30.2513 61.3505 30.6812 61.9339C31.1111 62.5173 31.6956 62.8089 32.4347 62.8089C32.6458 62.8089 32.8253 62.7919 32.9722 62.7577C33.1195 62.7237 33.2195 62.6764 33.2723 62.6157L33.8269 61.0248Z" fill="black"/>
<path d="M41.3102 56.2176C41.129 56.1797 40.9708 56.1323 40.8351 56.0755C40.6991 56.0188 40.5671 55.9563 40.4391 55.888V55.4561H43.1772V55.888C43.0941 55.9486 42.9829 56.0074 42.8436 56.0642C42.7035 56.121 42.5471 56.172 42.3739 56.2176L40.2127 61.1269C39.8506 61.9605 39.4732 62.5797 39.0812 62.985C38.6888 63.3904 38.2702 63.5514 37.8254 63.4679C37.7648 63.4075 37.7025 63.3146 37.6383 63.1895C37.5741 63.0646 37.514 62.9323 37.4575 62.7918C37.4009 62.6517 37.3535 62.5153 37.3159 62.3827C37.278 62.2502 37.2555 62.1383 37.2481 62.0474L37.565 61.5929L38.9113 62.0134C38.9718 61.9453 39.0283 61.862 39.0812 61.7632C39.1337 61.6651 39.1829 61.5552 39.2282 61.4338L36.2184 56.2176C36.0751 56.1797 35.9373 56.1323 35.8053 56.0755C35.6733 56.0188 35.5508 55.9563 35.4377 55.888V55.4561H38.9678V55.888C38.7417 56.0244 38.4547 56.1343 38.1079 56.2176L39.7037 59.2973L39.941 60.0248H39.9636L40.1901 59.2745L41.3102 56.2176Z" fill="black"/>
<path d="M51.3318 62.6724C51.3318 62.8467 51.3245 63.0456 51.3092 63.269C51.2943 63.4924 51.2735 63.7217 51.2472 63.9566C51.2206 64.1915 51.1907 64.4226 51.1568 64.6498C51.1229 64.8773 51.0831 65.0818 51.0379 65.2636H50.5967L49.9856 63.4113H44.5768L43.9661 65.2636H43.5249C43.4797 65.0741 43.4381 64.8619 43.4001 64.6271C43.3622 64.3922 43.3301 64.1554 43.3039 63.9168C43.2777 63.6782 43.2587 63.449 43.2474 63.2293C43.2361 63.0097 43.2306 62.824 43.2306 62.6724H44.2147C44.4259 62.3544 44.6203 61.9605 44.7974 61.4908C44.9747 61.0211 45.1257 60.5076 45.2504 59.9508C45.3747 59.3939 45.4691 58.8069 45.5333 58.1892C45.5971 57.5719 45.6292 56.9526 45.6292 56.3311C45.433 56.2934 45.2295 56.2365 45.0185 56.1608C44.807 56.085 44.6111 55.9942 44.4299 55.888V55.4561H50.9358V55.888C50.6718 56.0319 50.3626 56.142 50.0082 56.2176V62.6724H51.3318ZM48.3108 62.6724V56.1949H46.4894C46.4515 57.0739 46.3873 57.8616 46.2969 58.5587C46.2064 59.2557 46.0989 59.8695 45.9745 60.3998C45.8498 60.9301 45.716 61.3826 45.5727 61.7575C45.4294 62.1327 45.2897 62.4378 45.1541 62.6724H48.3108Z" fill="black"/>
<path d="M54.859 63.4113H52.064V62.9793C52.1847 62.9037 52.3149 62.8374 52.4541 62.7805C52.5938 62.7237 52.7317 62.6801 52.8673 62.6497L55.7866 55.3198H56.6238L59.464 62.6497C59.6146 62.6801 59.7656 62.7237 59.9166 62.7805C60.0675 62.8374 60.1995 62.9037 60.3125 62.9793V63.4113H56.7708V62.9793C56.9145 62.9112 57.0691 62.8467 57.235 62.7861C57.4009 62.7257 57.5591 62.6801 57.7101 62.6497L57.0538 60.8429H54.5421L53.8744 62.6497C54.2212 62.6951 54.5494 62.8052 54.859 62.9793V63.4113ZM54.8134 60.1042H56.8164L56.0809 57.9336L55.8658 56.9563H55.8431L55.5941 57.9563L54.8134 60.1042Z" fill="black"/>
<path d="M63.7253 62.6495C63.9287 62.6799 64.1307 62.7234 64.3306 62.7802C64.5304 62.8371 64.7094 62.9034 64.868 62.9791V63.411H61.1002V62.9791C61.2431 62.8957 61.396 62.8276 61.5582 62.7747C61.7205 62.7216 61.8769 62.6799 62.0279 62.6495V56.2174C61.8543 56.1872 61.6884 56.1434 61.5301 56.0866C61.3715 56.0298 61.2282 55.9638 61.1002 55.8878V55.4558H62.5256C62.8276 55.4558 63.1725 55.4408 63.5609 55.4104C63.9495 55.3803 64.3058 55.365 64.6303 55.365C65.0299 55.365 65.4205 55.4049 65.8015 55.4844C66.1822 55.564 66.5217 55.6984 66.8196 55.8878C67.1175 56.0771 67.3574 56.3293 67.5383 56.6435C67.7192 56.9581 67.81 57.3499 67.81 57.8196C67.81 58.2668 67.721 58.6532 67.5438 58.9789C67.3666 59.3047 67.131 59.5737 66.8368 59.7857C66.5425 59.9979 66.203 60.155 65.8184 60.2572C65.4336 60.3596 65.0376 60.4107 64.6303 60.4107H64.4491C64.3663 60.4107 64.2777 60.4088 64.1832 60.405C64.0892 60.4013 63.9984 60.3977 63.912 60.3937C63.8248 60.39 63.7629 60.3843 63.7253 60.3768L63.7253 62.6495ZM64.3361 56.1037C64.1851 56.1037 64.0666 56.1093 63.9798 56.1207C63.893 56.132 63.8081 56.1491 63.7253 56.1717V59.6266C63.7931 59.6493 63.8948 59.6627 64.0305 59.6665C64.1665 59.6704 64.2755 59.672 64.3586 59.672C64.5625 59.672 64.7587 59.638 64.9472 59.5698C65.1357 59.5015 65.3038 59.3957 65.4507 59.2516C65.5977 59.1078 65.7166 58.922 65.807 58.6947C65.8978 58.4675 65.943 58.1946 65.943 57.8764C65.943 57.2705 65.7957 56.8237 65.5018 56.5356C65.2075 56.2478 64.8189 56.1037 64.3361 56.1037Z" fill="black"/>
<path d="M74.4656 61.0248H74.9294C74.9593 61.146 74.9877 61.2918 75.0144 61.4622C75.0406 61.6327 75.0632 61.8145 75.0822 62.0077C75.1008 62.2009 75.1143 62.3924 75.122 62.5816C75.1292 62.7711 75.1329 62.9416 75.1329 63.0931C74.8688 63.2599 74.5389 63.3773 74.1429 63.4452C73.7468 63.5135 73.3414 63.5475 72.9268 63.5475C72.3004 63.5475 71.733 63.4697 71.2236 63.3146C70.7145 63.1593 70.2806 62.9131 69.9225 62.5759C69.5641 62.239 69.287 61.8107 69.0908 61.2918C68.8946 60.773 68.7965 60.1496 68.7965 59.4223C68.7965 58.7027 68.9041 58.0832 69.1192 57.5643C69.3344 57.0455 69.6228 56.6192 69.9849 56.2857C70.347 55.9525 70.7674 55.7082 71.2461 55.5527C71.7253 55.3977 72.2289 55.3198 72.7569 55.3198C73.2546 55.3198 73.7053 55.3559 74.109 55.4279C74.5126 55.4998 74.8426 55.5965 75.0993 55.7176C75.0993 55.8388 75.0935 55.9942 75.0822 56.1836C75.0708 56.3729 75.0519 56.5718 75.0257 56.7801C74.9991 56.9886 74.9692 57.1931 74.9349 57.3938C74.9009 57.5947 74.8688 57.7631 74.839 57.8994H74.3635L73.7414 56.1836C73.6732 56.1457 73.5638 56.1154 73.4132 56.0926C73.2623 56.0699 73.1077 56.0585 72.9494 56.0585C72.6398 56.0585 72.3496 56.121 72.0779 56.246C71.8067 56.3709 71.5649 56.5699 71.3537 56.8426C71.1426 57.1154 70.9763 57.466 70.856 57.8938C70.7353 58.322 70.6748 58.8353 70.6748 59.4337C70.6748 60.5172 70.8899 61.3505 71.3198 61.9339C71.7497 62.5173 72.3342 62.8089 73.0737 62.8089C73.2849 62.8089 73.4643 62.7919 73.6112 62.7577C73.7585 62.7237 73.8581 62.6764 73.9113 62.6157L74.4656 61.0248Z" fill="black"/>
<path d="M81.7036 63.4113H77.8115V62.9793C77.9621 62.9187 78.1338 62.8563 78.326 62.7918C78.5185 62.7275 78.7125 62.6801 78.9087 62.6497V56.1949H77.5963L76.8722 58.1383H76.4083C76.3777 57.9867 76.3478 57.7935 76.3176 57.5586C76.2877 57.3238 76.261 57.0812 76.2384 56.8312C76.2158 56.5813 76.1969 56.3332 76.1819 56.0869C76.1666 55.8408 76.1593 55.6306 76.1593 55.4561H83.3558C83.3558 55.6379 83.3478 55.8503 83.3329 56.0926C83.3176 56.3352 83.299 56.5813 83.2763 56.8312C83.2538 57.0812 83.2271 57.3218 83.1972 57.5529C83.1669 57.7842 83.1367 57.9792 83.1068 58.1383H82.6426L81.9188 56.1949H80.6061V62.6497C80.8023 62.6878 80.9963 62.7334 81.1888 62.7861C81.3813 62.8392 81.5527 62.9037 81.7036 62.9793V63.4113Z" fill="black"/>
<path d="M84.2189 63.4113V62.9793C84.3618 62.896 84.5146 62.8241 84.6769 62.7634C84.8392 62.7028 84.9955 62.6651 85.1465 62.6497V56.2176C84.9955 56.1874 84.8373 56.1437 84.6714 56.0869C84.5055 56.0301 84.3545 55.964 84.2189 55.8881V55.4561H86.0403C86.3269 55.4561 86.5985 55.4449 86.8549 55.4222C87.1116 55.3994 87.4058 55.3879 87.7377 55.3879C88.0998 55.3879 88.4506 55.4145 88.79 55.4676C89.1295 55.5205 89.4311 55.6152 89.6951 55.7516C89.9591 55.8881 90.1702 56.0794 90.3288 56.3255C90.4871 56.5717 90.5666 56.888 90.5666 57.2744C90.5666 57.5172 90.5228 57.7422 90.4364 57.9506C90.3496 58.1592 90.2289 58.3427 90.0743 58.5018C89.9197 58.6609 89.7384 58.7935 89.531 58.8996C89.3235 59.0057 89.0993 59.0814 88.8579 59.1268V59.1724C89.0993 59.2027 89.3425 59.2595 89.5879 59.3427C89.8329 59.4263 90.0535 59.5474 90.2497 59.7065C90.4458 59.8656 90.6059 60.0645 90.7306 60.3031C90.855 60.5417 90.9173 60.8241 90.9173 61.1497C90.9173 61.5587 90.8265 61.9112 90.6457 62.2066C90.4644 62.5021 90.2212 62.7446 89.9157 62.9339C89.6105 63.1234 89.2615 63.2617 88.8691 63.3487C88.4768 63.4357 88.0695 63.4794 87.6472 63.4794C87.4886 63.4794 87.315 63.4755 87.1265 63.4679C86.938 63.4604 86.7495 63.4527 86.561 63.4452C86.3721 63.4376 86.1894 63.43 86.0122 63.4224C85.835 63.4149 85.6859 63.4113 85.5651 63.4113H84.2189ZM87.1382 59.0019C87.2662 59.0019 87.3942 58.9962 87.5225 58.9847C87.6509 58.9735 87.7716 58.9604 87.8846 58.9449C88.1789 58.8239 88.4166 58.6364 88.5975 58.3826C88.7787 58.1288 88.8691 57.8389 88.8691 57.5132C88.8691 57.0358 88.7448 56.6855 88.4957 56.4619C88.2467 56.2385 87.9262 56.1266 87.5342 56.1266C87.3679 56.1266 87.2247 56.1307 87.1039 56.1382C86.9832 56.1456 86.8738 56.157 86.7758 56.172V59.0019L87.1382 59.0019ZM87.6359 62.7407C88.111 62.7407 88.4844 62.5988 88.7561 62.3144C89.0274 62.0304 89.1634 61.6536 89.1634 61.1837C89.1634 60.8958 89.1182 60.6592 89.0274 60.4734C88.937 60.2881 88.8126 60.1401 88.6544 60.0303C88.4957 59.9206 88.3072 59.8448 88.0885 59.803C87.8697 59.7615 87.6319 59.7404 87.3756 59.7404H86.7758V62.6613C86.8815 62.684 86.9927 62.7028 87.1097 62.718C87.2264 62.7334 87.4019 62.7407 87.6359 62.7407Z" fill="black"/>
<path d="M97.5046 55.4561C97.4894 55.797 97.4631 56.1494 97.4255 56.5132C97.3876 56.8766 97.3388 57.2176 97.2786 57.5359H96.8147L96.2941 56.1949H94.178V58.9792H95.5586L96.0563 58.1041H96.4184C96.4564 58.4752 96.4749 58.8882 96.4749 59.3426C96.4749 59.7973 96.4564 60.2218 96.4184 60.6157H96.0563L95.5586 59.7177H94.178V62.6724H96.3845L96.9843 61.2291H97.4481C97.4784 61.3734 97.5083 61.536 97.5385 61.7178C97.5689 61.8997 97.5933 62.0873 97.6122 62.2805C97.6312 62.4735 97.6462 62.6687 97.6575 62.8658C97.6688 63.0628 97.6746 63.2446 97.6746 63.4113H91.553V62.9793C91.6813 62.9112 91.8247 62.8467 91.9829 62.7861C92.1415 62.7257 92.3074 62.6801 92.481 62.6497V56.2176C92.33 56.1874 92.1696 56.1437 92 56.0869C91.8301 56.0301 91.6813 55.964 91.553 55.888V55.4561H97.5046Z" fill="black"/>
<path d="M102.126 63.4113H98.6976V62.9793C98.8256 62.9112 98.9748 62.8467 99.1447 62.7861C99.3143 62.7257 99.4743 62.6801 99.6253 62.6497V56.2176C99.4444 56.1874 99.2709 56.142 99.105 56.0812C98.9391 56.0206 98.8031 55.9563 98.6976 55.888V55.4561H102.126V55.888C102.013 55.964 101.886 56.0319 101.747 56.0926C101.607 56.1534 101.466 56.1949 101.323 56.2176V58.9676H104.321V56.2176C104.155 56.1874 104.006 56.142 103.874 56.0812C103.742 56.0206 103.623 55.9563 103.518 55.888V55.4561H106.946V55.888C106.818 55.9715 106.671 56.0397 106.505 56.0926C106.339 56.1456 106.177 56.1874 106.018 56.2176V62.6497C106.192 62.6801 106.36 62.7257 106.522 62.7861C106.684 62.8467 106.825 62.9112 106.946 62.9793V63.4113H103.518V62.9793C103.631 62.9112 103.755 62.8467 103.891 62.7861C104.027 62.7257 104.17 62.6801 104.321 62.6497V59.7065H101.323V62.6497C101.473 62.6801 101.613 62.7218 101.741 62.775C101.869 62.8279 101.998 62.896 102.126 62.9793V63.4113Z" fill="black"/>
<path d="M111.264 63.4113H107.836V62.9793C107.964 62.9112 108.113 62.8467 108.283 62.7861C108.453 62.7257 108.613 62.6801 108.764 62.6497V56.2176C108.583 56.1874 108.409 56.142 108.243 56.0812C108.077 56.0206 107.941 55.9563 107.836 55.888V55.4561H111.264V55.888C111.151 55.964 111.025 56.0319 110.886 56.0926C110.746 56.1534 110.604 56.1949 110.461 56.2176V58.9676H113.46V56.2176C113.294 56.1874 113.144 56.142 113.013 56.0812C112.88 56.0206 112.762 55.9563 112.656 55.888V55.4561H116.085V55.888C115.956 55.9715 115.809 56.0397 115.643 56.0926C115.477 56.1456 115.315 56.1874 115.157 56.2176V62.6497C115.331 62.6801 115.498 62.7257 115.66 62.7861C115.822 62.8467 115.964 62.9112 116.085 62.9793V63.4113H112.656V62.9793C112.77 62.9112 112.894 62.8467 113.03 62.7861C113.166 62.7257 113.309 62.6801 113.46 62.6497V59.7065H110.461V62.6497C110.612 62.6801 110.751 62.7218 110.88 62.775C111.008 62.8279 111.136 62.896 111.264 62.9793V63.4113Z" fill="black"/>
<path d="M119.662 63.4113H116.867V62.9793C116.988 62.9037 117.118 62.8374 117.257 62.7805C117.397 62.7237 117.535 62.6801 117.67 62.6497L120.589 55.3198H121.427L124.267 62.6497C124.417 62.6801 124.568 62.7237 124.719 62.7805C124.87 62.8374 125.002 62.9037 125.115 62.9793V63.4113H121.574V62.9793C121.717 62.9112 121.872 62.8467 122.038 62.7861C122.204 62.7257 122.362 62.6801 122.513 62.6497L121.857 60.8429H119.345L118.677 62.6497C119.024 62.6951 119.352 62.8052 119.662 62.9793L119.662 63.4113ZM119.616 60.1042H121.619L120.884 57.9336L120.669 56.9563H120.646L120.397 57.9563L119.616 60.1042Z" fill="black"/>
<path d="M133.345 55.4558V55.8878C133.247 55.9484 133.114 56.0089 132.949 56.0695C132.783 56.1304 132.605 56.1794 132.417 56.2173V62.6494C132.613 62.6875 132.787 62.7366 132.937 62.7974C133.088 62.858 133.224 62.9184 133.345 62.979V63.411H129.837V62.979C129.965 62.9105 130.103 62.8472 130.25 62.7901C130.397 62.7331 130.554 62.6853 130.72 62.6468V60.1267H129.769C129.543 60.6531 129.315 61.1644 129.085 61.6602C128.855 62.1561 128.573 62.6175 128.242 63.0446L127.778 63.411H125.82V63.0244L126.318 62.7497C126.801 62.2231 127.191 61.7383 127.489 61.2953C127.787 60.8525 128.064 60.4403 128.321 60.0583C128.125 59.9906 127.928 59.8983 127.733 59.7815C127.536 59.6647 127.361 59.5156 127.206 59.3347C127.052 59.1538 126.927 58.9388 126.833 58.6901C126.739 58.4415 126.692 58.151 126.692 57.8194C126.692 57.3823 126.786 57.0108 126.975 56.7055C127.163 56.4001 127.412 56.1512 127.721 55.959C128.031 55.7667 128.389 55.6294 128.796 55.5462C129.204 55.4632 129.622 55.4219 130.052 55.4219C130.128 55.4219 130.227 55.4237 130.352 55.4276C130.477 55.4314 130.608 55.4351 130.748 55.4387C130.887 55.4428 131.029 55.4464 131.172 55.4503C131.316 55.4541 131.444 55.4558 131.557 55.4558L133.345 55.4558ZM130.029 59.4788C130.135 59.4788 130.261 59.4731 130.409 59.4618C130.556 59.4504 130.659 59.4372 130.72 59.422V56.2173C130.659 56.2023 130.565 56.1888 130.437 56.1776C130.308 56.1661 130.199 56.1606 130.109 56.1606C129.89 56.1606 129.685 56.1888 129.492 56.2457C129.3 56.3025 129.13 56.3953 128.983 56.5241C128.836 56.6529 128.719 56.8196 128.632 57.0241C128.545 57.2289 128.502 57.4786 128.502 57.7742C128.502 58.3424 128.639 58.7685 128.915 59.0527C129.19 59.3369 129.562 59.4788 130.029 59.4788Z" fill="black"/>
<path d="M145.293 62.6724C145.293 62.8467 145.286 63.0456 145.271 63.269C145.255 63.4924 145.235 63.7217 145.208 63.9566C145.182 64.1915 145.152 64.4226 145.118 64.6498C145.084 64.8773 145.044 65.0818 144.999 65.2636H144.558L143.947 63.4113H138.538L137.927 65.2636H137.486C137.441 65.0741 137.399 64.8619 137.361 64.6271C137.324 64.3922 137.292 64.1554 137.265 63.9168C137.239 63.6782 137.22 63.449 137.209 63.2293C137.198 63.0097 137.192 62.824 137.192 62.6724H138.176C138.387 62.3544 138.581 61.9605 138.759 61.4908C138.936 61.0211 139.087 60.5076 139.212 59.9508C139.336 59.3939 139.43 58.8069 139.495 58.1892C139.558 57.5719 139.59 56.9526 139.59 56.3311C139.394 56.2934 139.191 56.2365 138.98 56.1608C138.768 56.085 138.572 55.9942 138.391 55.888V55.4561H144.897V55.888C144.633 56.0319 144.324 56.142 143.969 56.2176V62.6724H145.293ZM142.272 62.6724V56.1949H140.451C140.413 57.0739 140.348 57.8616 140.258 58.5587C140.168 59.2557 140.06 59.8695 139.936 60.3998C139.811 60.9301 139.677 61.3826 139.534 61.7575C139.391 62.1327 139.251 62.4378 139.115 62.6724H142.272Z" fill="black"/>
<path d="M151.7 56.2176C151.518 56.1797 151.36 56.1323 151.224 56.0755C151.088 56.0188 150.956 55.9563 150.828 55.888V55.4561H153.567V55.888C153.483 55.9486 153.372 56.0074 153.233 56.0642C153.093 56.121 152.936 56.172 152.763 56.2176L150.602 61.1269C150.24 61.9605 149.863 62.5797 149.471 62.985C149.078 63.3904 148.66 63.5514 148.215 63.4679C148.154 63.4075 148.092 63.3146 148.028 63.1895C147.963 63.0646 147.903 62.9323 147.847 62.7918C147.79 62.6517 147.743 62.5153 147.705 62.3827C147.667 62.2502 147.645 62.1383 147.637 62.0474L147.954 61.5929L149.301 62.0134C149.361 61.9453 149.418 61.862 149.471 61.7632C149.523 61.6651 149.572 61.5552 149.617 61.4338L146.608 56.2176C146.464 56.1797 146.327 56.1323 146.195 56.0755C146.063 56.0188 145.94 55.9563 145.827 55.888V55.4561H149.357V55.888C149.131 56.0244 148.844 56.1343 148.497 56.2176L150.093 59.2973L150.33 60.0248H150.353L150.579 59.2745L151.7 56.2176Z" fill="black"/>
<path d="M164.396 63.4113H161.013V62.9793C161.164 62.9037 161.311 62.8392 161.454 62.7861C161.597 62.7334 161.752 62.6878 161.918 62.6497V57.8994L161.974 56.5699H161.884L161.511 57.7858L159.327 63.4113H158.806L156.634 57.8312L156.227 56.5016H156.125L156.136 57.9449V62.6043C156.279 62.6347 156.438 62.684 156.611 62.7521C156.785 62.8203 156.947 62.896 157.098 62.9793V63.4113H154.337V62.9793C154.457 62.9187 154.607 62.8467 154.784 62.7634C154.961 62.6801 155.129 62.6233 155.287 62.5929V56.2176C155.137 56.1874 154.976 56.1456 154.807 56.0926C154.637 56.0397 154.488 55.9715 154.36 55.888V55.4561H157.426L159.157 60.0815L159.485 61.1725H159.497L159.836 60.0586L161.601 55.4561H164.407V55.888C164.279 55.964 164.141 56.0301 163.995 56.0869C163.847 56.1437 163.698 56.1874 163.547 56.2176V62.6612C163.706 62.6915 163.859 62.7369 164.005 62.7976C164.153 62.8583 164.283 62.9187 164.396 62.9793V63.4113Z" fill="black"/>
<path d="M167.984 63.4113H165.189V62.9793C165.31 62.9037 165.44 62.8374 165.58 62.7805C165.719 62.7237 165.857 62.6801 165.993 62.6497L168.912 55.3198H169.749L172.589 62.6497C172.74 62.6801 172.891 62.7237 173.042 62.7805C173.193 62.8374 173.325 62.9037 173.438 62.9793V63.4113H169.896V62.9793C170.04 62.9112 170.194 62.8467 170.36 62.7861C170.526 62.7257 170.684 62.6801 170.836 62.6497L170.179 60.8429H167.667L167 62.6497C167.346 62.6951 167.675 62.8052 167.984 62.9793V63.4113ZM167.939 60.1042H169.942L169.206 57.9336L168.991 56.9563H168.969L168.72 57.9563L167.939 60.1042Z" fill="black"/>
<path d="M15.5449 71.2699C15.8443 71.279 16.125 71.3158 16.3865 71.3811C16.6479 71.4462 16.8747 71.5471 17.0669 71.6841C17.259 71.821 17.41 71.9983 17.5194 72.216C17.6291 72.4339 17.6838 72.6998 17.6838 73.014V73.0678C17.6747 73.3867 17.6142 73.6571 17.5026 73.8795C17.391 74.1016 17.2389 74.2832 17.0469 74.4248C16.8543 74.5661 16.6301 74.6707 16.373 74.7381C16.1159 74.8053 15.8398 74.8413 15.5449 74.8458V75.5324H14.9749V74.8458C14.6708 74.8413 14.3893 74.8066 14.13 74.7414C13.8708 74.6764 13.6451 74.5741 13.4529 74.4348C13.2607 74.2958 13.1098 74.1175 13 73.8996C12.8906 73.6818 12.8359 73.4158 12.8359 73.1016V73.0678C12.8403 72.7447 12.8986 72.4709 13.0102 72.2462C13.1218 72.0219 13.2739 71.8388 13.466 71.6974C13.6585 71.5561 13.8843 71.4517 14.1436 71.3843C14.4025 71.3169 14.6799 71.279 14.9749 71.2699V70.583H15.5449L15.5449 71.2699ZM14.9749 71.7145C14.7605 71.7233 14.5604 71.7469 14.3747 71.7849C14.1891 71.8232 14.0272 71.8928 13.8887 71.9937C13.7501 72.0948 13.6403 72.2318 13.5601 72.4046C13.4796 72.5775 13.4372 72.8009 13.4329 73.0746V73.1083C13.4329 73.3508 13.4704 73.5538 13.5466 73.7177C13.6225 73.8816 13.7289 74.014 13.8653 74.1151C14.0013 74.2162 14.1636 74.2901 14.3514 74.3372C14.5388 74.3845 14.747 74.4104 14.9749 74.4149L14.9749 71.7145ZM15.5449 74.4013C15.7593 74.3969 15.9595 74.3744 16.145 74.3341C16.3303 74.2937 16.4911 74.2239 16.6275 74.1252C16.7642 74.0265 16.8736 73.8919 16.9564 73.721C17.0388 73.5505 17.0826 73.3304 17.087 73.0611V73.0073C17.087 72.7648 17.049 72.5617 16.9732 72.3978C16.8969 72.2342 16.7908 72.1016 16.6545 72.0005C16.5181 71.8995 16.3562 71.8267 16.1684 71.7817C15.9806 71.7368 15.7728 71.7099 15.5449 71.7009V74.4013Z" fill="black"/>
<path d="M20.0914 75.5259C19.8409 75.5259 19.613 75.483 19.4074 75.3979C19.2017 75.3127 19.023 75.1924 18.871 75.0377C18.719 74.8828 18.6015 74.6954 18.5191 74.4754C18.4363 74.2554 18.3951 74.0108 18.3951 73.7414V73.6876C18.3951 73.4226 18.4352 73.1791 18.5158 72.957C18.5964 72.7347 18.7091 72.5439 18.8542 72.3846C18.9997 72.2251 19.1729 72.1017 19.3742 72.014C19.5751 71.9264 19.7964 71.8828 20.0378 71.8828C20.2391 71.8828 20.4345 71.9156 20.6245 71.9812C20.8145 72.0467 20.983 72.1494 21.1307 72.2895C21.2784 72.4298 21.3954 72.6118 21.4829 72.8356C21.57 73.0593 21.6134 73.3294 21.6134 73.6459V73.8289H18.9716C18.9851 74.2265 19.0857 74.5301 19.2732 74.7399C19.4613 74.9498 19.7359 75.0548 20.098 75.0548C20.6479 75.0548 20.9585 74.855 21.03 74.4552H21.5865C21.5237 74.8075 21.3586 75.0741 21.0906 75.2547C20.8222 75.4354 20.4893 75.5259 20.0914 75.5259ZM21.0435 73.3644C21.0169 73.0031 20.9151 72.7444 20.7383 72.5884C20.5618 72.4322 20.3284 72.3541 20.0378 72.3541C19.7516 72.3541 19.5182 72.4446 19.337 72.6252C19.1562 72.8059 19.0409 73.0522 18.9917 73.3644H21.0435Z" fill="black"/>
<path d="M22.5245 76.3207H22.0752V74.9939H22.3231C22.395 74.9759 22.4519 74.9391 22.4942 74.8827C22.5368 74.8266 22.5715 74.7571 22.5985 74.6741C22.6251 74.5908 22.6473 74.4978 22.6652 74.3945C22.6831 74.2911 22.6987 74.1835 22.7122 74.0713C22.7345 73.8649 22.7556 73.638 22.7757 73.3912C22.7961 73.1442 22.8129 72.9131 22.8264 72.6976C22.8439 72.4462 22.8573 72.1948 22.8665 71.9434H25.1798V74.9939H25.7162V76.3207H25.2669L25.2268 75.4652H22.5649L22.5245 76.3207ZM23.2217 74.1096C23.1994 74.3148 23.1706 74.4894 23.1345 74.6322C23.0988 74.7749 23.0521 74.8955 22.9937 74.9939H24.6365V72.4146H23.3493C23.3449 72.5308 23.338 72.6592 23.3292 72.8C23.3201 72.9406 23.3099 73.0869 23.2989 73.2387C23.2877 73.3905 23.2756 73.5412 23.2621 73.691C23.2486 73.8406 23.2351 73.9801 23.2217 74.1096Z" fill="black"/>
<path d="M27.8903 75.5259C27.6398 75.5259 27.4119 75.483 27.2066 75.3979C27.0006 75.3127 26.8219 75.1924 26.6699 75.0377C26.5182 74.8828 26.4007 74.6954 26.318 74.4754C26.2352 74.2554 26.194 74.0108 26.194 73.7414V73.6876C26.194 73.4226 26.2341 73.1791 26.3147 72.957C26.3949 72.7347 26.508 72.5439 26.653 72.3846C26.7986 72.2251 26.9718 72.1017 27.173 72.014C27.374 71.9264 27.5953 71.8828 27.8367 71.8828C28.038 71.8828 28.2334 71.9156 28.4234 71.9812C28.6134 72.0467 28.7818 72.1494 28.9295 72.2895C29.0772 72.4298 29.1942 72.6118 29.2818 72.8356C29.3689 73.0593 29.4123 73.3294 29.4123 73.6459V73.8289H26.7705C26.784 74.2265 26.8846 74.5301 27.0721 74.7399C27.2602 74.9498 27.5348 75.0548 27.8969 75.0548C28.4467 75.0548 28.7574 74.855 28.8289 74.4552H29.3854C29.323 74.8075 29.1574 75.0741 28.8894 75.2547C28.621 75.4354 28.2881 75.5259 27.8903 75.5259ZM28.8424 73.3644C28.8158 73.0031 28.7141 72.7444 28.5375 72.5884C28.3607 72.4322 28.1273 72.3541 27.8367 72.3541C27.5505 72.3541 27.3171 72.4446 27.1358 72.6252C26.955 72.8059 26.8398 73.0522 26.7905 73.3644H28.8424Z" fill="black"/>
<path d="M30.316 71.9435H30.8721V72.536C30.9213 72.4507 30.9873 72.3688 31.0701 72.2902C31.1529 72.2115 31.2455 72.1421 31.3483 72.0813C31.4512 72.0207 31.5631 71.9727 31.6835 71.9366C31.8041 71.9007 31.9296 71.8828 32.059 71.8828C32.2869 71.8828 32.4995 71.9231 32.696 72.0041C32.8926 72.0848 33.0614 72.2016 33.2025 72.3541C33.3433 72.5067 33.4538 72.6931 33.5344 72.9132C33.6146 73.1332 33.6551 73.38 33.6551 73.6539V73.7077C33.6551 73.9771 33.6167 74.2228 33.5409 74.4449C33.4651 74.6673 33.3575 74.8593 33.2189 75.0209C33.0804 75.1823 32.913 75.307 32.7161 75.3944C32.5196 75.4821 32.3004 75.5259 32.059 75.5259C31.7684 75.5259 31.5237 75.4631 31.325 75.3375C31.1259 75.2117 30.9753 75.0613 30.8721 74.8863V76.6909H30.316V71.9435ZM32.0054 75.0547C32.354 75.0547 32.6202 74.9415 32.8036 74.7162C32.9866 74.4908 33.0781 74.1633 33.0781 73.7345V73.681C33.0781 73.462 33.049 73.2688 32.991 73.1012C32.9331 72.9337 32.8558 72.7953 32.7599 72.6858C32.6636 72.5765 32.5495 72.4937 32.4178 72.4379C32.2858 72.3822 32.1462 72.3541 31.9988 72.3541C31.838 72.3541 31.6871 72.3811 31.5463 72.4346C31.4056 72.4882 31.2834 72.5697 31.181 72.6792C31.0778 72.7887 30.9975 72.9271 30.9392 73.0945C30.8812 73.262 30.852 73.4576 30.852 73.681V73.7345C30.852 73.958 30.8801 74.1523 30.9359 74.3175C30.9917 74.4829 31.0701 74.62 31.1708 74.7295C31.2714 74.8388 31.3928 74.9207 31.5361 74.9741C31.6791 75.0278 31.8355 75.0547 32.0054 75.0547Z" fill="black"/>
<path d="M35.4729 75.5259C35.3121 75.5259 35.1601 75.5055 35.0171 75.4653C34.8738 75.4248 34.7498 75.3622 34.6448 75.2767C34.5398 75.1915 34.457 75.0838 34.3968 74.9535C34.3363 74.8233 34.306 74.6685 34.306 74.4887C34.306 74.2867 34.3553 74.1162 34.4537 73.9771C34.5518 73.8379 34.6827 73.7257 34.8461 73.6404C35.0091 73.5552 35.1969 73.4933 35.4091 73.4553C35.6213 73.4172 35.8394 73.3981 36.0629 73.3981H36.5657V73.1438C36.5657 72.8627 36.5077 72.6609 36.3915 72.5382C36.2751 72.4155 36.0829 72.3541 35.8149 72.3541C35.3322 72.3541 35.0638 72.5631 35.0102 72.9804H34.4537C34.4716 72.7785 34.5219 72.6078 34.6047 72.4686C34.6871 72.3294 34.7921 72.2161 34.9198 72.1286C35.047 72.0409 35.1899 71.9782 35.3489 71.9399C35.5075 71.9019 35.6716 71.8828 35.8416 71.8828C36.0071 71.8828 36.1679 71.9019 36.3243 71.9399C36.4807 71.9782 36.6171 72.0454 36.7335 72.1421C36.8498 72.2386 36.9435 72.3676 37.015 72.5294C37.0864 72.6909 37.1225 72.8953 37.1225 73.1421V75.4653H36.5657V75.0209C36.4359 75.1871 36.2864 75.3127 36.1165 75.3979C35.9466 75.483 35.7322 75.5259 35.4729 75.5259ZM35.5265 75.0817C35.6742 75.0817 35.8117 75.0624 35.9389 75.0243C36.0662 74.9861 36.1756 74.9309 36.2674 74.8593C36.359 74.7876 36.4319 74.6986 36.4855 74.5931C36.5391 74.4878 36.5657 74.3675 36.5657 74.2331V73.7953H36.0829C35.9087 73.7953 35.7468 73.8077 35.5969 73.8324C35.447 73.857 35.3176 73.8962 35.2082 73.9502C35.0984 74.004 35.0135 74.0747 34.9533 74.1622C34.8931 74.2498 34.8628 74.3587 34.8628 74.4887C34.8628 74.6729 34.9117 74.8179 35.0102 74.9231C35.1086 75.0287 35.2808 75.0817 35.5265 75.0817Z" fill="black"/>
<path d="M38.9199 74.1048C38.8794 74.572 38.797 74.9208 38.6716 75.1519C38.5465 75.3833 38.3409 75.499 38.055 75.499C37.9788 75.499 37.9186 75.4943 37.8738 75.4855C37.8515 75.4807 37.8337 75.4741 37.8202 75.4652V74.9331C37.8337 74.9378 37.8493 74.9422 37.8672 74.9466C37.8851 74.9512 37.9041 74.9547 37.9241 74.9569C37.9445 74.959 37.9722 74.96 38.0079 74.96C38.0794 74.96 38.1389 74.9365 38.1855 74.8896C38.2325 74.8422 38.2705 74.7783 38.2996 74.6975C38.3288 74.6168 38.351 74.5225 38.3667 74.4148C38.3824 74.307 38.397 74.1924 38.4101 74.0713C38.4328 73.8649 38.4495 73.638 38.4605 73.3912C38.4718 73.1442 38.4816 72.9131 38.4908 72.6976C38.4995 72.4462 38.5064 72.1948 38.5108 71.9434H40.8241V75.4652H40.2676V72.4146H39.0071C39.0027 72.5313 38.9979 72.6604 38.9935 72.8018C38.9892 72.9433 38.9837 73.0893 38.9768 73.2396C38.9703 73.3901 38.9622 73.5394 38.9534 73.6875C38.9444 73.8356 38.9334 73.9748 38.9199 74.1048Z" fill="black"/>
<path d="M41.9534 71.9434H42.5098V73.1757H43.1333C43.3164 73.1757 43.4896 73.1982 43.6529 73.2429C43.816 73.2878 43.9581 73.3565 44.0785 73.4484C44.1992 73.5405 44.2954 73.6595 44.3673 73.8054C44.4384 73.9514 44.4745 74.1252 44.4745 74.3271V74.3474C44.4745 74.5538 44.4384 74.7279 44.3673 74.8692C44.2954 75.0107 44.1992 75.125 44.0785 75.2127C43.9581 75.3 43.816 75.3643 43.6529 75.4047C43.4896 75.445 43.3164 75.4652 43.1333 75.4652H41.9534V71.9434ZM43.1669 75.0274C43.444 75.0274 43.6384 74.9682 43.7503 74.8491C43.8619 74.7302 43.9177 74.563 43.9177 74.3474V74.3271C43.9177 74.0847 43.8586 73.9063 43.7401 73.7919C43.6216 73.6772 43.4305 73.6201 43.1669 73.6201H42.5098V75.0274H43.1669Z" fill="black"/>
<path d="M47.535 73.8961H45.8121V75.4652H45.2556V71.9434H45.8121V73.4249H47.535V71.9434H48.0918V75.4652H47.535V73.8961Z" fill="black"/>
<path d="M50.7306 75.5259C50.4801 75.5259 50.25 75.4808 50.04 75.3913C49.83 75.3014 49.6487 75.1769 49.497 75.0174C49.345 74.8582 49.2264 74.6685 49.1415 74.4485C49.0565 74.2285 49.0139 73.9904 49.0139 73.7347V73.6808C49.0139 73.4159 49.0577 73.1734 49.1448 72.9535C49.232 72.7337 49.3515 72.5439 49.5036 72.3846C49.6553 72.2251 49.8365 72.1017 50.0469 72.014C50.2566 71.9264 50.4866 71.8828 50.7372 71.8828C50.9829 71.8828 51.2123 71.9264 51.4245 72.014C51.6368 72.1017 51.8191 72.224 51.9711 72.3811C52.1228 72.5382 52.2428 72.727 52.3299 72.9467C52.417 73.1668 52.4604 73.4091 52.4604 73.674V73.7279C52.4604 73.9928 52.417 74.2364 52.3299 74.4584C52.2428 74.6808 52.1221 74.8705 51.9675 75.0274C51.8136 75.1846 51.6313 75.307 51.4212 75.3944C51.2112 75.4821 50.9807 75.5259 50.7306 75.5259ZM50.7372 75.0547C50.9118 75.0547 51.0701 75.0234 51.2134 74.9608C51.3563 74.8983 51.477 74.8088 51.5755 74.6927C51.674 74.5764 51.7498 74.4371 51.8034 74.274C51.857 74.1109 51.884 73.9311 51.884 73.7345V73.6878C51.884 73.4867 51.857 73.3034 51.8034 73.1381C51.7498 72.9729 51.6725 72.8321 51.5722 72.716C51.4715 72.5997 51.3509 72.5105 51.2101 72.4481C51.069 72.3857 50.9118 72.3541 50.7372 72.3541C50.5629 72.3541 50.4043 72.3857 50.2613 72.4481C50.118 72.5105 49.9973 72.5997 49.8993 72.716C49.8008 72.8321 49.7249 72.9718 49.6713 73.1348C49.6174 73.2977 49.5907 73.4799 49.5907 73.681V73.7345C49.5907 74.1366 49.6925 74.4572 49.896 74.696C50.0991 74.935 50.3795 75.0547 50.7372 75.0547Z" fill="black"/>
<path d="M53.8959 72.4146V75.4652H53.3395V71.9434H55.5653V72.4146H53.8959Z" fill="black"/>
<path d="M57.7477 75.5259C57.4972 75.5259 57.2671 75.4808 57.057 75.3913C56.847 75.3014 56.6658 75.1769 56.5138 75.0174C56.3621 74.8582 56.2436 74.6685 56.1586 74.4485C56.0736 74.2285 56.031 73.9904 56.031 73.7347V73.6808C56.031 73.4159 56.0747 73.1734 56.1619 72.9535C56.249 72.7337 56.3686 72.5439 56.5207 72.3846C56.6724 72.2251 56.8536 72.1017 57.0637 72.014C57.2737 71.9264 57.5037 71.8828 57.7543 71.8828C58.0001 71.8828 58.2294 71.9264 58.4416 72.014C58.6538 72.1017 58.8362 72.224 58.9882 72.3811C59.1399 72.5382 59.2595 72.727 59.3467 72.9467C59.4338 73.1668 59.4775 73.4091 59.4775 73.674V73.7279C59.4775 73.9928 59.4338 74.2364 59.3467 74.4584C59.2595 74.6808 59.1392 74.8705 58.9846 75.0274C58.8303 75.1846 58.6484 75.307 58.4383 75.3944C58.2279 75.4821 57.9978 75.5259 57.7477 75.5259ZM57.7543 75.0547C57.9286 75.0547 58.0872 75.0234 58.2305 74.9608C58.3734 74.8983 58.4941 74.8088 58.5922 74.6927C58.6906 74.5764 58.7669 74.4371 58.8205 74.274C58.8741 74.1109 58.9011 73.9311 58.9011 73.7345V73.6878C58.9011 73.4867 58.8741 73.3034 58.8205 73.1381C58.7669 72.9729 58.6896 72.8321 58.5893 72.716C58.4886 72.5997 58.3679 72.5105 58.2272 72.4481C58.0861 72.3857 57.9286 72.3541 57.7543 72.3541C57.58 72.3541 57.4214 72.3857 57.2784 72.4481C57.1351 72.5105 57.0144 72.5997 56.916 72.716C56.8179 72.8321 56.742 72.9718 56.688 73.1348C56.6345 73.2977 56.6078 73.4799 56.6078 73.681V73.7345C56.6078 74.1366 56.7092 74.4572 56.9127 74.696C57.1161 74.935 57.3965 75.0547 57.7543 75.0547Z" fill="black"/>
<path d="M64.1638 75.526C63.8153 75.526 63.5034 75.4688 63.2285 75.3542C62.9536 75.2399 62.7191 75.076 62.5247 74.8627C62.3301 74.6496 62.1817 74.3936 62.0788 74.0951C61.976 73.7964 61.9242 73.461 61.9242 73.0883V73.0343C61.9242 72.6796 61.9803 72.352 62.092 72.0512C62.2039 71.7504 62.3603 71.4899 62.5612 71.27C62.7625 71.0501 63.0006 70.8794 63.2756 70.7582C63.5505 70.637 63.851 70.5764 64.1773 70.5764C64.4278 70.5764 64.6645 70.6101 64.888 70.6773C65.1115 70.7446 65.3106 70.8436 65.4849 70.9738C65.6593 71.1041 65.8022 71.2678 65.9138 71.4652C66.0257 71.6628 66.095 71.8919 66.1216 72.1522H65.5451C65.4824 71.7864 65.3427 71.5108 65.1261 71.3257C64.9092 71.1404 64.5952 71.0479 64.1839 71.0479C63.9338 71.0479 63.707 71.095 63.5034 71.1893C63.3 71.2835 63.1268 71.416 62.9838 71.5865C62.8409 71.7571 62.729 71.966 62.6484 72.2127C62.5681 72.4597 62.5277 72.7338 62.5277 73.0343V73.0883C62.5277 73.3936 62.5656 73.6684 62.6418 73.9132C62.718 74.1579 62.8263 74.3643 62.9671 74.5328C63.1078 74.7012 63.2799 74.8301 63.4834 74.9199C63.6866 75.0096 63.9181 75.0548 64.1773 75.0548C64.5708 75.0548 64.8949 74.9565 65.1495 74.76C65.4044 74.5637 65.563 74.2669 65.6257 73.8695H66.1686C66.0837 74.4262 65.8624 74.8415 65.505 75.1152C65.1472 75.3892 64.7002 75.526 64.1638 75.526Z" fill="black"/>
<path d="M68.5639 75.5259C68.3134 75.5259 68.0833 75.4808 67.8737 75.3913C67.6633 75.3014 67.482 75.1769 67.3303 75.0174C67.1783 74.8582 67.0598 74.6685 66.9752 74.4485C66.8899 74.2285 66.8475 73.9904 66.8475 73.7347V73.6808C66.8475 73.4159 66.8913 73.1734 66.9781 72.9535C67.0656 72.7337 67.1848 72.5439 67.3369 72.3846C67.489 72.2251 67.6702 72.1017 67.8802 72.014C68.0902 71.9264 68.3203 71.8828 68.5708 71.8828C68.8166 71.8828 69.0456 71.9264 69.2582 72.014C69.47 72.1017 69.6524 72.224 69.8044 72.3811C69.9565 72.5382 70.0761 72.727 70.1632 72.9467C70.2504 73.1668 70.2942 73.4091 70.2942 73.674V73.7279C70.2942 73.9928 70.2504 74.2364 70.1632 74.4584C70.0761 74.6808 69.9554 74.8705 69.8011 75.0274C69.6469 75.1846 69.4649 75.307 69.2546 75.3944C69.0445 75.4821 68.8144 75.5259 68.5639 75.5259ZM68.5708 75.0547C68.7452 75.0547 68.9038 75.0234 69.0467 74.9608C69.1896 74.8983 69.3103 74.8088 69.4088 74.6927C69.5073 74.5764 69.5831 74.4371 69.637 74.274C69.6907 74.1109 69.7173 73.9311 69.7173 73.7345V73.6878C69.7173 73.4867 69.6907 73.3034 69.637 73.1381C69.5831 72.9729 69.5061 72.8321 69.4055 72.716C69.3049 72.5997 69.1842 72.5105 69.0434 72.4481C68.9027 72.3857 68.7452 72.3541 68.5708 72.3541C68.3965 72.3541 68.2376 72.3857 68.0946 72.4481C67.9517 72.5105 67.831 72.5997 67.7325 72.716C67.6341 72.8321 67.5582 72.9718 67.5046 73.1348C67.4511 73.2977 67.4241 73.4799 67.4241 73.681V73.7345C67.4241 74.1366 67.5258 74.4572 67.7292 74.696C67.9327 74.935 68.2131 75.0547 68.5708 75.0547Z" fill="black"/>
<path d="M72.7356 75.526C72.4851 75.526 72.255 75.4867 72.045 75.4081C71.835 75.3297 71.6537 75.2061 71.502 75.0378C71.35 74.8694 71.2315 74.6551 71.1466 74.3947C71.0616 74.1344 71.0193 73.8223 71.0193 73.4587V73.2431C71.0193 72.8661 71.0426 72.5036 71.0896 72.1556C71.1367 71.8077 71.2304 71.498 71.3711 71.2263C71.5123 70.9547 71.7099 70.7347 71.9648 70.5664C72.2193 70.3979 72.5569 70.3027 72.977 70.2802L73.1112 70.2734C73.3526 70.26 73.5481 70.2443 73.6979 70.2263C73.8474 70.2084 73.9849 70.1746 74.1103 70.1252L74.184 70.5966C74.0407 70.6596 73.8868 70.7033 73.7213 70.7281C73.5561 70.7527 73.3548 70.7694 73.1178 70.7784L73.0175 70.7852C72.7356 70.7986 72.4986 70.8514 72.3064 70.9434C72.1143 71.0355 71.959 71.1668 71.8405 71.3374C71.7219 71.5081 71.6326 71.7169 71.5724 71.9637C71.5123 72.2107 71.4729 72.498 71.455 72.8258H71.482C71.5979 72.5834 71.7759 72.3878 72.0147 72.2398C72.254 72.0917 72.5343 72.0176 72.8563 72.0176C73.1021 72.0176 73.3234 72.0591 73.52 72.1423C73.7169 72.2252 73.8857 72.3431 74.0265 72.4957C74.1672 72.6484 74.2755 72.8289 74.3517 73.0379C74.4276 73.2466 74.4659 73.4744 74.4659 73.7212V73.7483C74.4659 74.0267 74.4221 74.2757 74.3349 74.4959C74.2478 74.7157 74.1271 74.902 73.9728 75.0549C73.8186 75.2074 73.6352 75.3241 73.423 75.405C73.2108 75.4857 72.9814 75.526 72.7356 75.526ZM72.7422 75.0549C73.0955 75.0549 73.3749 74.943 73.5805 74.7197C73.7861 74.4963 73.889 74.175 73.889 73.7551V73.7418C73.889 73.3621 73.7975 73.0584 73.6141 72.8306C73.4306 72.6029 73.1604 72.4889 72.8027 72.4889C72.4315 72.4889 72.1376 72.6052 71.921 72.8373C71.7041 73.0697 71.5958 73.3865 71.5958 73.7886V73.802C71.5958 74.1816 71.6975 74.4852 71.901 74.7132C72.1041 74.9408 72.3849 75.0549 72.7422 75.0549Z" fill="black"/>
<path d="M75.3761 71.9435H75.9325V72.536C75.9818 72.4507 76.0474 72.3688 76.1302 72.2902C76.213 72.2115 76.3056 72.1421 76.4088 72.0813C76.5112 72.0207 76.6232 71.9727 76.7439 71.9366C76.8646 71.9007 76.9896 71.8828 77.1195 71.8828C77.3473 71.8828 77.5596 71.9231 77.7565 72.0041C77.953 72.0848 78.1215 72.2016 78.2626 72.3541C78.4034 72.5067 78.5138 72.6931 78.5944 72.9132C78.675 73.1332 78.7151 73.38 78.7151 73.6539V73.7077C78.7151 73.9771 78.6772 74.2228 78.6013 74.4449C78.5252 74.6673 78.4179 74.8593 78.2794 75.0209C78.1408 75.1823 77.9731 75.307 77.7765 75.3944C77.5796 75.4821 77.3608 75.5259 77.1195 75.5259C76.8288 75.5259 76.5838 75.4631 76.3851 75.3375C76.186 75.2117 76.0354 75.0613 75.9325 74.8863V76.6909H75.3761V71.9435ZM77.0658 75.0547C77.4145 75.0547 77.6803 74.9415 77.8637 74.7162C78.0467 74.4908 78.1386 74.1633 78.1386 73.7345V73.681C78.1386 73.462 78.1094 73.2688 78.0515 73.1012C77.9931 72.9337 77.9162 72.7953 77.8199 72.6858C77.7237 72.5765 77.6099 72.4937 77.4782 72.4379C77.3462 72.3822 77.2066 72.3541 77.0589 72.3541C76.8981 72.3541 76.7472 72.3811 76.6064 72.4346C76.4656 72.4882 76.3438 72.5697 76.241 72.6792C76.1382 72.7887 76.0576 72.9271 75.9996 73.0945C75.9417 73.262 75.9125 73.4576 75.9125 73.681V73.7345C75.9125 73.958 75.9402 74.1523 75.9963 74.3175C76.0522 74.4829 76.1302 74.62 76.2308 74.7295C76.3314 74.8388 76.4532 74.9207 76.5962 74.9741C76.7391 75.0278 76.8959 75.0547 77.0658 75.0547Z" fill="black"/>
<path d="M80.5328 75.5259C80.372 75.5259 80.2199 75.5055 80.0766 75.4653C79.9337 75.4248 79.8097 75.3622 79.7047 75.2767C79.5996 75.1915 79.5169 75.0838 79.4567 74.9535C79.3962 74.8233 79.366 74.6685 79.366 74.4887C79.366 74.2867 79.4152 74.1162 79.5137 73.9771C79.6117 73.8379 79.7426 73.7257 79.906 73.6404C80.069 73.5552 80.2568 73.4933 80.469 73.4553C80.6816 73.4172 80.8993 73.3981 81.1228 73.3981H81.6256V73.1438C81.6256 72.8627 81.5676 72.6609 81.4513 72.5382C81.335 72.4155 81.1428 72.3541 80.8749 72.3541C80.3921 72.3541 80.1237 72.5631 80.0701 72.9804H79.5137C79.5315 72.7785 79.5818 72.6078 79.6642 72.4686C79.747 72.3294 79.852 72.2161 79.9796 72.1286C80.1069 72.0409 80.2498 71.9782 80.4088 71.9399C80.5674 71.9019 80.7316 71.8828 80.9015 71.8828C81.067 71.8828 81.2278 71.9019 81.3842 71.9399C81.5407 71.9782 81.677 72.0454 81.7934 72.1421C81.9097 72.2386 82.0034 72.3676 82.0748 72.5294C82.1463 72.6909 82.182 72.8953 82.182 73.1421V75.4653H81.6256V75.0209C81.4958 75.1871 81.3463 75.3127 81.1764 75.3979C81.0065 75.483 80.7921 75.5259 80.5328 75.5259ZM80.5864 75.0817C80.7341 75.0817 80.8716 75.0624 80.9988 75.0243C81.1261 74.9861 81.2355 74.9309 81.3274 74.8593C81.4189 74.7876 81.4914 74.6986 81.5451 74.5931C81.599 74.4878 81.6256 74.3675 81.6256 74.2331V73.7953H81.1428C80.9685 73.7953 80.8067 73.8077 80.6568 73.8324C80.5069 73.857 80.3775 73.8962 80.2681 73.9502C80.1583 74.004 80.0734 74.0747 80.0132 74.1622C79.9527 74.2498 79.9224 74.3587 79.9224 74.4887C79.9224 74.6729 79.9716 74.8179 80.0701 74.9231C80.1685 75.0287 80.3407 75.0817 80.5864 75.0817Z" fill="black"/>
<path d="M85.546 73.8961H83.8231V75.4652H83.2666V71.9434H83.8231V73.4249H85.546V71.9434H86.1028V75.4652H85.546V73.8961Z" fill="black"/>
<path d="M87.2324 75.4652V71.9434H87.7884V74.6571L89.5788 71.9434H90.1353V75.4652H89.5788V72.7514L87.7884 75.4652H87.2324Z" fill="black"/>
<path d="M91.4903 75.4652H90.8533L91.9195 73.9904C91.8123 73.968 91.7095 73.9343 91.611 73.8895C91.5126 73.8446 91.4265 73.784 91.3529 73.7076C91.2792 73.6315 91.2198 73.5394 91.1753 73.4315C91.1304 73.3237 91.1082 73.1958 91.1082 73.0477V73.0276C91.1082 72.8345 91.1439 72.6696 91.2154 72.5326C91.2869 72.3956 91.3831 72.2833 91.5038 72.1958C91.6245 72.1083 91.7663 72.0442 91.9297 72.004C92.0927 71.9635 92.2659 71.9434 92.4493 71.9434H93.6293V75.4652H93.0729V74.0847H92.4694L91.4903 75.4652ZM92.4158 72.3876C92.1518 72.3876 91.9607 72.4428 91.8426 72.5527C91.7241 72.6628 91.6646 72.8212 91.6646 73.0276V73.0477C91.6646 73.2407 91.7204 73.3912 91.8324 73.4989C91.9439 73.6068 92.1386 73.6606 92.4158 73.6606H93.0729V72.3876H92.4158Z" fill="black"/>
<path d="M96.613 70.6501H97.9738C98.2021 70.6501 98.4176 70.6761 98.6211 70.7278C98.8242 70.7796 99.0022 70.8629 99.1542 70.9775C99.3059 71.0923 99.4266 71.2387 99.5163 71.4163C99.6053 71.5942 99.6501 71.809 99.6501 72.061V72.0879C99.6501 72.3445 99.6053 72.5629 99.5163 72.7427C99.4266 72.9227 99.3059 73.0704 99.1542 73.185C99.0022 73.2998 98.8242 73.3829 98.6211 73.4347C98.4176 73.4866 98.2021 73.5124 97.9738 73.5124H97.1961V75.4651H96.613V70.6501ZM98.014 73.0409C98.3585 73.0409 98.62 72.959 98.7987 72.7951C98.9773 72.6312 99.0671 72.3943 99.0671 72.0847V72.0578C99.0671 71.7166 98.973 71.4752 98.7852 71.3339C98.5974 71.1923 98.3403 71.1216 98.014 71.1216H97.1961V73.0409H98.014Z" fill="black"/>
<path d="M101.886 75.5259C101.635 75.5259 101.405 75.4808 101.195 75.3913C100.985 75.3014 100.804 75.1769 100.652 75.0174C100.5 74.8582 100.381 74.6685 100.296 74.4485C100.211 74.2285 100.169 73.9904 100.169 73.7347V73.6808C100.169 73.4159 100.213 73.1734 100.3 72.9535C100.387 72.7337 100.506 72.5439 100.659 72.3846C100.811 72.2251 100.991 72.1017 101.202 72.014C101.412 71.9264 101.642 71.8828 101.892 71.8828C102.138 71.8828 102.367 71.9264 102.579 72.014C102.792 72.1017 102.974 72.224 103.126 72.3811C103.278 72.5382 103.398 72.727 103.485 72.9467C103.572 73.1668 103.615 73.4091 103.615 73.674V73.7279C103.615 73.9928 103.572 74.2364 103.485 74.4584C103.398 74.6808 103.277 74.8705 103.122 75.0274C102.969 75.1846 102.786 75.307 102.576 75.3944C102.366 75.4821 102.136 75.5259 101.886 75.5259ZM101.892 75.0547C102.067 75.0547 102.225 75.0234 102.368 74.9608C102.511 74.8983 102.632 74.8088 102.73 74.6927C102.829 74.5764 102.905 74.4371 102.958 74.274C103.012 74.1109 103.039 73.9311 103.039 73.7345V73.6878C103.039 73.4867 103.012 73.3034 102.958 73.1381C102.905 72.9729 102.828 72.8321 102.727 72.716C102.626 72.5997 102.506 72.5105 102.365 72.4481C102.224 72.3857 102.067 72.3541 101.892 72.3541C101.718 72.3541 101.559 72.3857 101.416 72.4481C101.273 72.5105 101.153 72.5997 101.054 72.716C100.956 72.8321 100.88 72.9718 100.826 73.1348C100.773 73.2977 100.746 73.4799 100.746 73.681V73.7345C100.746 74.1366 100.847 74.4572 101.051 74.696C101.254 74.935 101.535 75.0547 101.892 75.0547Z" fill="black"/>
<path d="M106.02 75.5259C105.774 75.5259 105.547 75.4843 105.34 75.4014C105.132 75.3184 104.951 75.1994 104.797 75.0443C104.642 74.8897 104.522 74.7021 104.435 74.4821C104.347 74.2622 104.304 74.0154 104.304 73.7414V73.6876C104.304 73.4182 104.349 73.1725 104.438 72.9502C104.527 72.7279 104.649 72.5382 104.803 72.3811C104.957 72.224 105.138 72.1017 105.343 72.014C105.549 71.9264 105.77 71.8828 106.007 71.8828C106.19 71.8828 106.368 71.9054 106.54 71.95C106.712 71.9951 106.866 72.0658 107.002 72.1623C107.139 72.2587 107.254 72.3857 107.348 72.5428C107.442 72.6999 107.502 72.8907 107.529 73.1152H106.979C106.935 72.8393 106.822 72.6435 106.641 72.5278C106.459 72.412 106.248 72.3541 106.007 72.3541C105.846 72.3541 105.697 72.3857 105.561 72.4481C105.425 72.5105 105.306 72.5988 105.206 72.7127C105.105 72.8266 105.026 72.9661 104.968 73.1313C104.909 73.2967 104.881 73.4821 104.881 73.6878V73.7412C104.881 74.1745 104.987 74.5016 105.199 74.7227C105.411 74.9442 105.687 75.0548 106.027 75.0548C106.152 75.0548 106.272 75.0368 106.386 75.001C106.5 74.9654 106.602 74.9123 106.694 74.8409C106.786 74.7694 106.862 74.6804 106.922 74.5733C106.982 74.4665 107.02 74.3418 107.033 74.1992H107.549C107.531 74.388 107.481 74.564 107.398 74.728C107.316 74.8917 107.207 75.0322 107.073 75.1489C106.939 75.2657 106.783 75.3574 106.603 75.4248C106.425 75.4922 106.23 75.5259 106.02 75.5259Z" fill="black"/>
<path d="M109.927 75.5259C109.682 75.5259 109.455 75.4843 109.247 75.4014C109.039 75.3184 108.858 75.1994 108.704 75.0443C108.55 74.8897 108.429 74.7021 108.342 74.4821C108.255 74.2622 108.211 74.0154 108.211 73.7414V73.6876C108.211 73.4182 108.256 73.1725 108.345 72.9502C108.435 72.7279 108.556 72.5382 108.711 72.3811C108.865 72.224 109.045 72.1017 109.25 72.014C109.456 71.9264 109.677 71.8828 109.914 71.8828C110.097 71.8828 110.275 71.9054 110.447 71.95C110.619 71.9951 110.773 72.0658 110.91 72.1623C111.046 72.2587 111.161 72.3857 111.255 72.5428C111.349 72.6999 111.409 72.8907 111.436 73.1152H110.886C110.842 72.8393 110.729 72.6435 110.548 72.5278C110.367 72.412 110.156 72.3541 109.914 72.3541C109.753 72.3541 109.605 72.3857 109.468 72.4481C109.332 72.5105 109.213 72.5988 109.113 72.7127C109.013 72.8266 108.933 72.9661 108.875 73.1313C108.817 73.2967 108.788 73.4821 108.788 73.6878V73.7412C108.788 74.1745 108.894 74.5016 109.106 74.7227C109.318 74.9442 109.594 75.0548 109.934 75.0548C110.059 75.0548 110.179 75.0368 110.293 75.001C110.407 74.9654 110.51 74.9123 110.602 74.8409C110.693 74.7694 110.769 74.6804 110.83 74.5733C110.89 74.4665 110.927 74.3418 110.94 74.1992H111.456C111.439 74.388 111.388 74.564 111.305 74.728C111.223 74.8917 111.114 75.0322 110.981 75.1489C110.846 75.2657 110.69 75.3574 110.511 75.4248C110.332 75.4922 110.138 75.5259 109.927 75.5259Z" fill="black"/>
<path d="M112.31 75.4652V71.9434H112.867V74.6571L114.657 71.9434H115.214V75.4652H114.657V72.7514L112.867 75.4652H112.31Z" fill="black"/>
<path d="M116.307 75.4652V71.9434H116.863V74.6571L118.653 71.9434H119.21V75.4652H118.653V72.7514L116.863 75.4652H116.307ZM117.748 71.2968C117.627 71.2968 117.515 71.2745 117.409 71.2294C117.304 71.1847 117.213 71.1228 117.135 71.0443C117.056 70.9657 116.993 70.8727 116.943 70.7646C116.895 70.657 116.868 70.5382 116.863 70.408H117.346C117.355 70.5382 117.39 70.6537 117.453 70.7548C117.516 70.8557 117.614 70.9062 117.748 70.9062C117.891 70.9062 117.997 70.8567 118.067 70.7581C118.136 70.6594 118.177 70.5426 118.191 70.408H118.66C118.651 70.5382 118.622 70.657 118.573 70.7646C118.524 70.8727 118.458 70.9657 118.375 71.0443C118.293 71.1228 118.197 71.1847 118.09 71.2294C117.983 71.2745 117.869 71.2968 117.748 71.2968Z" fill="black"/>
<path d="M121.812 75.5259C121.566 75.5259 121.339 75.4843 121.132 75.4014C120.924 75.3184 120.743 75.1994 120.589 75.0443C120.434 74.8897 120.314 74.7021 120.227 74.4821C120.139 74.2622 120.096 74.0154 120.096 73.7414V73.6876C120.096 73.4182 120.141 73.1725 120.23 72.9502C120.319 72.7279 120.441 72.5382 120.596 72.3811C120.749 72.224 120.93 72.1017 121.135 72.014C121.341 71.9264 121.562 71.8828 121.799 71.8828C121.982 71.8828 122.16 71.9054 122.332 71.95C122.504 71.9951 122.658 72.0658 122.795 72.1623C122.931 72.2587 123.046 72.3857 123.14 72.5428C123.234 72.6999 123.294 72.8907 123.321 73.1152H122.771C122.727 72.8393 122.614 72.6435 122.433 72.5278C122.251 72.412 122.04 72.3541 121.799 72.3541C121.638 72.3541 121.489 72.3857 121.353 72.4481C121.217 72.5105 121.098 72.5988 120.998 72.7127C120.897 72.8266 120.818 72.9661 120.76 73.1313C120.701 73.2967 120.673 73.4821 120.673 73.6878V73.7412C120.673 74.1745 120.779 74.5016 120.991 74.7227C121.203 74.9442 121.479 75.0548 121.819 75.0548C121.944 75.0548 122.064 75.0368 122.178 75.001C122.292 74.9654 122.395 74.9123 122.486 74.8409C122.578 74.7694 122.654 74.6804 122.714 74.5733C122.774 74.4665 122.812 74.3418 122.825 74.1992H123.341C123.323 74.388 123.273 74.564 123.19 74.728C123.108 74.8917 122.999 75.0322 122.865 75.1489C122.731 75.2657 122.575 75.3574 122.395 75.4248C122.217 75.4922 122.022 75.5259 121.812 75.5259Z" fill="black"/>
<path d="M124.751 73.6672V75.4652H124.195V71.9434H124.751V73.5865L126.206 71.9434H126.857L125.355 73.6L126.984 75.4652H126.307L124.751 73.6672Z" fill="black"/>
<path d="M128.976 75.5259C128.725 75.5259 128.495 75.4808 128.285 75.3913C128.075 75.3014 127.894 75.1769 127.742 75.0174C127.59 74.8582 127.471 74.6685 127.387 74.4485C127.302 74.2285 127.259 73.9904 127.259 73.7347V73.6808C127.259 73.4159 127.303 73.1734 127.39 72.9535C127.477 72.7337 127.597 72.5439 127.749 72.3846C127.901 72.2251 128.082 72.1017 128.292 72.014C128.502 71.9264 128.732 71.8828 128.982 71.8828C129.228 71.8828 129.457 71.9264 129.67 72.014C129.882 72.1017 130.064 72.224 130.216 72.3811C130.368 72.5382 130.488 72.727 130.575 72.9467C130.662 73.1668 130.706 73.4091 130.706 73.674V73.7279C130.706 73.9928 130.662 74.2364 130.575 74.4584C130.488 74.6808 130.367 74.8705 130.213 75.0274C130.059 75.1846 129.876 75.307 129.666 75.3944C129.456 75.4821 129.226 75.5259 128.976 75.5259ZM128.982 75.0547C129.157 75.0547 129.315 75.0234 129.458 74.9608C129.601 74.8983 129.722 74.8088 129.821 74.6927C129.919 74.5764 129.995 74.4371 130.049 74.274C130.102 74.1109 130.129 73.9311 130.129 73.7345V73.6878C130.129 73.4867 130.102 73.3034 130.049 73.1381C129.995 72.9729 129.918 72.8321 129.817 72.716C129.717 72.5997 129.596 72.5105 129.455 72.4481C129.314 72.3857 129.157 72.3541 128.982 72.3541C128.808 72.3541 128.649 72.3857 128.506 72.4481C128.363 72.5105 128.243 72.5997 128.144 72.716C128.046 72.8321 127.97 72.9718 127.916 73.1348C127.863 73.2977 127.836 73.4799 127.836 73.681V73.7345C127.836 74.1366 127.938 74.4572 128.141 74.696C128.344 74.935 128.625 75.0547 128.982 75.0547Z" fill="black"/>
<path d="M131.584 75.4652V71.9434H132.141V74.6571L133.931 71.9434H134.488V75.4652H133.931V72.7514L132.141 75.4652H131.584ZM133.026 71.2968C132.905 71.2968 132.792 71.2745 132.687 71.2294C132.582 71.1847 132.49 71.1228 132.412 71.0443C132.334 70.9657 132.271 70.8727 132.221 70.7646C132.172 70.657 132.146 70.5382 132.141 70.408H132.624C132.633 70.5382 132.668 70.6537 132.731 70.7548C132.794 70.8557 132.892 70.9062 133.026 70.9062C133.169 70.9062 133.275 70.8567 133.344 70.7581C133.414 70.6594 133.455 70.5426 133.468 70.408H133.938C133.929 70.5382 133.9 70.657 133.851 70.7646C133.801 70.8727 133.736 70.9657 133.653 71.0443C133.57 71.1228 133.475 71.1847 133.368 71.2294C133.261 71.2745 133.147 71.2968 133.026 71.2968Z" fill="black"/>
<path d="M139.798 71.2699C140.098 71.279 140.378 71.3158 140.64 71.3811C140.901 71.4462 141.128 71.5471 141.32 71.6841C141.512 71.821 141.663 71.9983 141.773 72.216C141.882 72.4339 141.937 72.6998 141.937 73.014V73.0678C141.928 73.3867 141.868 73.6571 141.756 73.8795C141.644 74.1016 141.492 74.2832 141.3 74.4248C141.108 74.5661 140.883 74.6707 140.626 74.7381C140.369 74.8053 140.093 74.8413 139.798 74.8458V75.5324H139.228V74.8458C138.924 74.8413 138.643 74.8066 138.383 74.7414C138.124 74.6764 137.898 74.5741 137.706 74.4348C137.514 74.2958 137.363 74.1175 137.254 73.8996C137.144 73.6818 137.089 73.4158 137.089 73.1016V73.0678C137.094 72.7447 137.152 72.4709 137.264 72.2462C137.376 72.0219 137.528 71.8388 137.72 71.6974C137.912 71.5561 138.138 71.4517 138.397 71.3843C138.656 71.3169 138.933 71.279 139.228 71.2699V70.583H139.798V71.2699ZM139.228 71.7145C139.014 71.7233 138.814 71.7469 138.628 71.7849C138.443 71.8232 138.281 71.8928 138.142 71.9937C138.003 72.0948 137.894 72.2318 137.813 72.4046C137.733 72.5775 137.691 72.8009 137.686 73.0746V73.1083C137.686 73.3508 137.724 73.5538 137.8 73.7177C137.876 73.8816 137.982 74.014 138.119 74.1151C138.255 74.2162 138.417 74.2901 138.605 74.3372C138.793 74.3845 139 74.4104 139.228 74.4149V71.7145ZM139.798 74.4013C140.013 74.3969 140.213 74.3744 140.398 74.3341C140.584 74.2937 140.745 74.2239 140.881 74.1252C141.018 74.0265 141.127 73.8919 141.21 73.721C141.292 73.5505 141.336 73.3304 141.34 73.0611V73.0073C141.34 72.7648 141.302 72.5617 141.226 72.3978C141.15 72.2342 141.044 72.1016 140.908 72.0005C140.772 71.8995 140.609 71.8267 140.422 71.7817C140.234 71.7368 140.026 71.7099 139.798 71.7009V74.4013Z" fill="black"/>
<path d="M144.345 75.5259C144.094 75.5259 143.867 75.483 143.661 75.3979C143.455 75.3127 143.277 75.1924 143.125 75.0377C142.973 74.8828 142.855 74.6954 142.773 74.4754C142.69 74.2554 142.649 74.0108 142.649 73.7414V73.6876C142.649 73.4226 142.689 73.1791 142.769 72.957C142.85 72.7347 142.963 72.5439 143.108 72.3846C143.253 72.2251 143.426 72.1017 143.628 72.014C143.829 71.9264 144.05 71.8828 144.291 71.8828C144.493 71.8828 144.688 71.9156 144.878 71.9812C145.068 72.0467 145.237 72.1494 145.385 72.2895C145.532 72.4298 145.649 72.6118 145.736 72.8356C145.824 73.0593 145.867 73.3294 145.867 73.6459V73.8289H143.225C143.239 74.2265 143.339 74.5301 143.527 74.7399C143.715 74.9498 143.99 75.0548 144.352 75.0548C144.901 75.0548 145.212 74.855 145.284 74.4552H145.84C145.778 74.8075 145.612 75.0741 145.344 75.2547C145.076 75.4354 144.743 75.5259 144.345 75.5259ZM145.297 73.3644C145.27 73.0031 145.169 72.7444 144.992 72.5884C144.815 72.4322 144.582 72.3541 144.291 72.3541C144.005 72.3541 143.772 72.4446 143.591 72.6252C143.41 72.8059 143.294 73.0522 143.246 73.3644H145.297Z" fill="black"/>
<path d="M146.777 76.3207H146.328V74.9939H146.576C146.648 74.9759 146.705 74.9391 146.747 74.8827C146.79 74.8266 146.824 74.7571 146.851 74.6741C146.878 74.5908 146.9 74.4978 146.918 74.3945C146.936 74.2911 146.952 74.1835 146.965 74.0713C146.987 73.8649 147.009 73.638 147.029 73.3912C147.049 73.1442 147.066 72.9131 147.079 72.6976C147.097 72.4462 147.11 72.1948 147.119 71.9434H149.433V74.9939H149.969V76.3207H149.52L149.48 75.4652H146.818L146.777 76.3207ZM147.475 74.1096C147.452 74.3148 147.423 74.4894 147.388 74.6322C147.352 74.7749 147.305 74.8955 147.247 74.9939H148.89V72.4146H147.602C147.598 72.5308 147.591 72.6592 147.582 72.8C147.573 72.9406 147.563 73.0869 147.552 73.2387C147.54 73.3905 147.528 73.5412 147.515 73.691C147.502 73.8406 147.488 73.9801 147.475 74.1096Z" fill="black"/>
<path d="M152.143 75.5259C151.893 75.5259 151.665 75.483 151.46 75.3979C151.254 75.3127 151.075 75.1924 150.923 75.0377C150.771 74.8828 150.654 74.6954 150.571 74.4754C150.488 74.2554 150.447 74.0108 150.447 73.7414V73.6876C150.447 73.4226 150.487 73.1791 150.568 72.957C150.648 72.7347 150.761 72.5439 150.906 72.3846C151.052 72.2251 151.225 72.1017 151.426 72.014C151.627 71.9264 151.848 71.8828 152.09 71.8828C152.291 71.8828 152.486 71.9156 152.676 71.9812C152.866 72.0467 153.035 72.1494 153.183 72.2895C153.33 72.4298 153.447 72.6118 153.535 72.8356C153.622 73.0593 153.665 73.3294 153.665 73.6459V73.8289H151.024C151.037 74.2265 151.138 74.5301 151.325 74.7399C151.513 74.9498 151.788 75.0548 152.15 75.0548C152.7 75.0548 153.01 74.855 153.082 74.4552H153.639C153.576 74.8075 153.411 75.0741 153.142 75.2547C152.874 75.4354 152.541 75.5259 152.143 75.5259ZM153.096 73.3644C153.069 73.0031 152.967 72.7444 152.791 72.5884C152.614 72.4322 152.38 72.3541 152.09 72.3541C151.803 72.3541 151.57 72.4446 151.389 72.6252C151.208 72.8059 151.093 73.0522 151.044 73.3644H153.096Z" fill="black"/>
<path d="M154.569 71.9435H155.126V72.536C155.175 72.4507 155.241 72.3688 155.324 72.2902C155.406 72.2115 155.499 72.1421 155.602 72.0813C155.705 72.0207 155.816 71.9727 155.937 71.9366C156.058 71.9007 156.183 71.8828 156.313 71.8828C156.541 71.8828 156.753 71.9231 156.95 72.0041C157.146 72.0848 157.315 72.2016 157.456 72.3541C157.597 72.5067 157.707 72.6931 157.788 72.9132C157.868 73.1332 157.908 73.38 157.908 73.6539V73.7077C157.908 73.9771 157.87 74.2228 157.795 74.4449C157.718 74.6673 157.611 74.8593 157.473 75.0209C157.334 75.1823 157.166 75.307 156.97 75.3944C156.773 75.4821 156.554 75.5259 156.313 75.5259C156.022 75.5259 155.777 75.4631 155.578 75.3375C155.38 75.2117 155.229 75.0613 155.126 74.8863V76.6909H154.569V71.9435ZM156.259 75.0547C156.608 75.0547 156.873 74.9415 157.057 74.7162C157.24 74.4908 157.332 74.1633 157.332 73.7345V73.681C157.332 73.462 157.303 73.2688 157.245 73.1012C157.186 72.9337 157.109 72.7953 157.013 72.6858C156.917 72.5765 156.803 72.4937 156.671 72.4379C156.539 72.3822 156.4 72.3541 156.252 72.3541C156.091 72.3541 155.941 72.3811 155.8 72.4346C155.659 72.4882 155.537 72.5697 155.434 72.6792C155.331 72.7887 155.251 72.9271 155.193 73.0945C155.135 73.262 155.106 73.4576 155.106 73.681V73.7345C155.106 73.958 155.133 74.1523 155.19 74.3175C155.245 74.4829 155.324 74.62 155.424 74.7295C155.525 74.8388 155.646 74.9207 155.79 74.9741C155.933 75.0278 156.089 75.0547 156.259 75.0547Z" fill="black"/>
<path d="M159.726 75.5259C159.565 75.5259 159.413 75.5055 159.27 75.4653C159.127 75.4248 159.003 75.3622 158.898 75.2767C158.793 75.1915 158.71 75.0838 158.65 74.9535C158.589 74.8233 158.56 74.6685 158.56 74.4887C158.56 74.2867 158.609 74.1162 158.707 73.9771C158.805 73.8379 158.936 73.7257 159.099 73.6404C159.262 73.5552 159.45 73.4933 159.662 73.4553C159.875 73.4172 160.092 73.3981 160.316 73.3981H160.819V73.1438C160.819 72.8627 160.761 72.6609 160.645 72.5382C160.529 72.4155 160.336 72.3541 160.068 72.3541C159.585 72.3541 159.317 72.5631 159.263 72.9804H158.707C158.725 72.7785 158.775 72.6078 158.858 72.4686C158.94 72.3294 159.045 72.2161 159.173 72.1286C159.301 72.0409 159.443 71.9782 159.602 71.9399C159.761 71.9019 159.925 71.8828 160.095 71.8828C160.26 71.8828 160.421 71.9019 160.577 71.9399C160.734 71.9782 160.87 72.0454 160.987 72.1421C161.103 72.2386 161.197 72.3676 161.268 72.5294C161.34 72.6909 161.376 72.8953 161.376 73.1421V75.4653H160.819V75.0209C160.689 75.1871 160.54 75.3127 160.37 75.3979C160.2 75.483 159.985 75.5259 159.726 75.5259ZM159.78 75.0817C159.927 75.0817 160.065 75.0624 160.192 75.0243C160.319 74.9861 160.429 74.9309 160.521 74.8593C160.612 74.7876 160.685 74.6986 160.739 74.5931C160.792 74.4878 160.819 74.3675 160.819 74.2331V73.7953H160.336C160.162 73.7953 160 73.8077 159.85 73.8324C159.7 73.857 159.571 73.8962 159.461 73.9502C159.352 74.004 159.267 74.0747 159.206 74.1622C159.146 74.2498 159.116 74.3587 159.116 74.4887C159.116 74.6729 159.165 74.8179 159.263 74.9231C159.362 75.0287 159.534 75.0817 159.78 75.0817Z" fill="black"/>
<path d="M165.316 76.3207L165.276 75.4652H162.46V71.9434H163.016V74.9939H164.672V71.9434H165.229V74.9939H165.766V76.3207H165.316Z" fill="black"/>
<path d="M166.516 75.4652V71.9434H167.072V74.6571L168.862 71.9434H169.419V75.4652H168.862V72.7514L167.072 75.4652H166.516Z" fill="black"/>
<path d="M170.512 75.4652V71.9434H171.068V74.6571L172.858 71.9434H173.415V75.4652H172.858V72.7514L171.068 75.4652H170.512Z" fill="black"/>
<path d="M116.965 38.6558V37.294H116.962V19.6049H116.98V15.5303H110.193V16.8233H104.64V18.2598H100.816L100.82 15.53L95.2951 15.5228L95.2965 14.1518L93.4033 14.1494V12.8299L95.9959 11.9872V10.0691L93.4033 10.9116V10.9067H93.0642V14.1489L91.1965 14.1465L91.1947 15.5173L85.771 15.5103L85.7674 18.2171H81.764V16.874H76.3093V16.8612H76.3035V15.5191H69.4996V19.5828H69.5033V37.7133H69.5095V38.6558H68.1672V40.0399H118.336V38.6558H116.965ZM70.859 35.9459H74.9539V37.294H70.859V35.9459ZM74.9539 34.5619H73.5599V19.5828H74.9539V34.5619ZM111.532 34.5892V19.6049H112.895V34.5892H111.532ZM110.177 37.294H108.836V20.9557H110.177V37.294ZM81.6958 33.2014H83.0522V37.294H81.6958V33.2014ZM84.4076 33.2014H85.7641V37.294H84.4076V33.2014ZM87.1199 20.9717H88.4978V37.294H87.1199V20.9717ZM89.8535 33.2358H91.2151V37.294H89.8535V33.2358ZM93.9247 20.9587V31.8504H92.5687V20.9571L93.9247 20.9587ZM95.2805 33.2358H96.6118V37.294H95.2805V33.2358ZM97.9675 20.9744H99.3349V37.294H97.9675V20.9744ZM100.691 33.2358H102.057V37.294H100.691V33.2358ZM103.413 33.2358H104.769V37.294H103.413V33.2358ZM106.125 20.9744H107.481V37.294H106.125V20.9744ZM104.769 31.8504H103.413V20.9744H104.769V31.8504ZM102.057 31.8504H100.691V20.9744H102.057V31.8504ZM96.6118 31.8504H95.2805V20.9605L96.6118 20.9624V31.8504ZM91.2129 31.8504H89.8535V20.9534L91.2129 20.9553V31.8504ZM85.7641 31.8518H84.4076V20.9717H85.7641V31.8518ZM83.0522 31.8518H81.6958V20.9717H83.0522V31.8518ZM80.3401 20.9717V37.294H79.027V20.9557H80.2941V20.9717H80.3401ZM111.532 37.294V35.9514H115.592V37.294H111.532ZM115.592 34.5892H114.251V19.6049H115.592V34.5892ZM77.6712 20.9557V37.294H76.3093V20.9557H77.6712ZM72.2042 19.5828V34.5619H70.859V19.5828H72.2042Z" fill="black"/>
<path d="M34.4435 81.9199H35.1898V84.4004C35.5309 84.4004 35.7706 84.3341 35.9091 84.2013C36.0476 84.0687 36.2246 83.75 36.44 83.2452C36.5964 82.8742 36.7253 82.6122 36.8266 82.4589C36.9279 82.3057 37.0722 82.1769 37.2594 82.0726C37.4466 81.9682 37.6531 81.916 37.8787 81.916C38.166 81.916 38.3173 81.9186 38.3327 81.9238V82.5729C38.3071 82.5729 38.257 82.5715 38.1827 82.5691C38.1006 82.5664 38.0506 82.5652 38.0326 82.5652C37.7941 82.5652 37.6172 82.6231 37.5018 82.7389C37.3838 82.855 37.2492 83.1022 37.0978 83.4808C36.908 83.96 36.7477 84.262 36.617 84.3868C36.4862 84.5118 36.3297 84.6116 36.1477 84.6863C36.5118 84.7867 36.8709 85.1242 37.2248 85.6985L38.3865 87.584H37.4594L36.517 86.0463C36.2579 85.6213 36.0412 85.3295 35.8668 85.1712C35.6924 85.0128 35.4668 84.9336 35.1898 84.9336V87.584H34.4435V81.9199Z" fill="black"/>
<path d="M38.6754 85.5328C38.6754 84.773 38.8857 84.2101 39.3063 83.8444C39.6577 83.5404 40.0859 83.3884 40.5912 83.3884C41.1528 83.3884 41.6119 83.5733 41.9683 83.9428C42.3248 84.3124 42.5031 84.8231 42.5031 85.4748C42.5031 86.0028 42.4242 86.4182 42.2665 86.7208C42.1087 87.0234 41.8792 87.2585 41.5779 87.4259C41.2765 87.5933 40.9476 87.677 40.5912 87.677C40.0193 87.677 39.557 87.4929 39.2044 87.1245C38.8517 86.7563 38.6754 86.2256 38.6754 85.5328ZM39.3871 85.5328C39.3871 86.0582 39.5012 86.4516 39.7295 86.7131C39.9577 86.9746 40.245 87.1051 40.5912 87.1051C40.9349 87.1051 41.2208 86.9738 41.4491 86.7111C41.6773 86.4484 41.7914 86.0478 41.7914 85.5096C41.7914 85.0021 41.6766 84.6176 41.4471 84.3562C41.2175 84.0949 40.9322 83.9641 40.5912 83.9641C40.245 83.9641 39.9577 84.0942 39.7295 84.3543C39.5012 84.6145 39.3871 85.0072 39.3871 85.5328Z" fill="black"/>
<path d="M43.334 83.481H44.4111L45.4844 86.7651L46.677 83.481H47.6733V87.5841H46.9808V84.2807L45.773 87.5841H45.1536L44.0111 84.1224V87.5841H43.334V83.481Z" fill="black"/>
<path d="M48.731 83.481H49.4234V86.6105L51.3429 83.481H52.0893V87.5841H51.3968V84.4739L49.4772 87.5841H48.731V83.481Z" fill="black"/>
<path d="M52.7587 83.481H56.0785V84.0567H54.7629V87.5841H54.0743V84.0567H52.7587V83.481Z" fill="black"/>
<path d="M59.4482 86.2629L60.1637 86.3518C60.0508 86.7717 59.8418 87.0974 59.5367 87.3293C59.2314 87.5611 58.8416 87.677 58.3672 87.677C57.7696 87.677 57.2958 87.4922 56.9457 87.1226C56.5956 86.753 56.4207 86.2346 56.4207 85.5674C56.4207 84.8772 56.5976 84.3415 56.9515 83.9603C57.3054 83.579 57.7645 83.3884 58.3287 83.3884C58.875 83.3884 59.3212 83.5752 59.6674 83.9486C60.0137 84.3221 60.1867 84.8475 60.1867 85.525C60.1867 85.5662 60.1854 85.6281 60.1829 85.7104H57.1362C57.1618 86.1612 57.2887 86.5064 57.517 86.7459C57.7452 86.9854 58.0299 87.1051 58.371 87.1051C58.6249 87.1051 58.8416 87.0383 59.0211 86.9043C59.2006 86.7703 59.3429 86.5565 59.4482 86.2629ZM57.1746 85.1386H59.4559C59.425 84.7935 59.3379 84.5346 59.1942 84.362C58.9736 84.0942 58.6877 83.9603 58.3364 83.9603C58.0184 83.9603 57.751 84.0672 57.5343 84.2808C57.3176 84.4946 57.1977 84.7806 57.1746 85.1386Z" fill="black"/>
<path d="M60.3988 83.481H63.7187V84.0567H62.403V87.5841H61.7144V84.0567H60.3988V83.481Z" fill="black"/>
<path d="M66.6692 81.9204H70.316V82.5888H67.4155V87.5845H66.6692V81.9204Z" fill="black"/>
<path d="M70.0505 85.5328C70.0505 84.773 70.2608 84.2101 70.6814 83.8444C71.0328 83.5404 71.461 83.3884 71.9663 83.3884C72.5279 83.3884 72.987 83.5733 73.3435 83.9428C73.6999 84.3124 73.8782 84.8231 73.8782 85.4748C73.8782 86.0028 73.7993 86.4182 73.6416 86.7208C73.4839 87.0234 73.2543 87.2585 72.953 87.4259C72.6516 87.5933 72.3228 87.677 71.9663 87.677C71.3944 87.677 70.9321 87.4929 70.5795 87.1245C70.2268 86.7563 70.0505 86.2256 70.0505 85.5328ZM70.7622 85.5328C70.7622 86.0582 70.8763 86.4516 71.1046 86.7131C71.3328 86.9746 71.6201 87.1051 71.9663 87.1051C72.31 87.1051 72.5959 86.9738 72.8242 86.7111C73.0524 86.4484 73.1665 86.0478 73.1665 85.5096C73.1665 85.0021 73.0517 84.6176 72.8222 84.3562C72.5926 84.0949 72.3074 83.9641 71.9663 83.9641C71.6201 83.9641 71.3328 84.0942 71.1046 84.3543C70.8763 84.6145 70.7622 85.0072 70.7622 85.5328Z" fill="black"/>
<path d="M77.3559 86.0814L78.0367 86.1702C77.9623 86.6416 77.7719 87.0106 77.4655 87.2772C77.159 87.5438 76.7827 87.677 76.3364 87.677C75.7773 87.677 75.3279 87.4935 74.988 87.1265C74.6482 86.7594 74.4784 86.2333 74.4784 85.5481C74.4784 85.1051 74.5515 84.7174 74.6976 84.3853C74.8438 84.0529 75.0663 83.8037 75.3651 83.6375C75.6638 83.4715 75.9889 83.3884 76.3402 83.3884C76.7839 83.3884 77.1467 83.5011 77.429 83.7265C77.711 83.9519 77.8918 84.2718 77.9713 84.6866L77.2981 84.7909C77.234 84.5154 77.1205 84.3079 76.9577 84.1688C76.7948 84.0297 76.598 83.9603 76.3672 83.9603C76.0184 83.9603 75.735 84.0857 75.517 84.337C75.299 84.5881 75.19 84.9854 75.19 85.5289C75.19 86.08 75.2951 86.4806 75.5055 86.7304C75.7158 86.9803 75.9902 87.1051 76.3287 87.1051C76.6005 87.1051 76.8275 87.0216 77.0096 86.854C77.1916 86.6866 77.3071 86.429 77.3559 86.0814Z" fill="black"/>
<path d="M78.5986 89.1644L78.5216 88.5114C78.6729 88.5527 78.805 88.5732 78.9178 88.5732C79.0717 88.5732 79.1949 88.5474 79.2871 88.496C79.3795 88.4444 79.4551 88.3723 79.5141 88.2796C79.5577 88.2101 79.6282 88.0375 79.7257 87.7619C79.7385 87.7232 79.759 87.6666 79.7872 87.5919L78.2369 83.481H78.9833L79.8334 85.8571C79.9437 86.1584 80.0424 86.4753 80.1296 86.8076C80.2091 86.4881 80.304 86.1766 80.4143 85.8725L81.2875 83.481H81.98L80.4258 87.6538C80.2591 88.1045 80.1296 88.4148 80.0373 88.5848C79.9142 88.814 79.7731 88.9821 79.6142 89.0891C79.4551 89.1958 79.2653 89.2493 79.0448 89.2493C78.9114 89.2493 78.7627 89.221 78.5986 89.1644Z" fill="black"/>
<path d="M82.8528 83.481H85.6995V87.0123H86.1419V88.7471H85.5726V87.5841H82.3566V88.7471H81.7872V87.0123H82.1527C82.6399 86.3478 82.8733 85.1708 82.8528 83.481ZM83.4299 84.0567C83.3785 85.3883 83.1734 86.3735 82.8143 87.0123H85.0109V84.0567H83.4299Z" fill="black"/>
<path d="M89.5695 87.0782C89.313 87.2971 89.0662 87.4517 88.8289 87.5417C88.5917 87.6319 88.3372 87.677 88.0654 87.677C87.6165 87.677 87.2716 87.567 87.0306 87.3466C86.7895 87.1265 86.6689 86.8451 86.6689 86.5025C86.6689 86.3016 86.7145 86.1181 86.8055 85.9519C86.8965 85.7857 87.0158 85.6525 87.1633 85.552C87.3107 85.4515 87.4768 85.3756 87.6614 85.3241C87.7973 85.288 88.0025 85.2532 88.2769 85.2198C88.836 85.1528 89.2476 85.073 89.5117 84.9801C89.5143 84.885 89.5156 84.8243 89.5156 84.7987C89.5156 84.5154 89.4502 84.3156 89.3194 84.1998C89.1425 84.0427 88.8796 83.9641 88.5308 83.9641C88.2051 83.9641 87.9647 84.0214 87.8096 84.136C87.6544 84.2507 87.5396 84.4535 87.4653 84.7445L86.7882 84.6518C86.8497 84.3608 86.951 84.1258 87.0921 83.9466C87.2331 83.7676 87.437 83.6299 87.7037 83.5332C87.9705 83.4367 88.2795 83.3884 88.6308 83.3884C88.9796 83.3884 89.263 83.4296 89.481 83.512C89.699 83.5945 89.8593 83.6982 89.9619 83.823C90.0644 83.948 90.1362 84.1057 90.1773 84.2963C90.2004 84.4148 90.212 84.6286 90.212 84.9377V85.8649C90.212 86.5115 90.2267 86.9204 90.2562 87.0917C90.2856 87.2629 90.344 87.4273 90.4312 87.5843H89.708C89.6361 87.4401 89.59 87.2713 89.5695 87.0782ZM89.5117 85.525C89.2604 85.6281 88.8834 85.7156 88.3808 85.7877C88.0962 85.8289 87.8947 85.8753 87.7768 85.9268C87.6588 85.9784 87.5678 86.0537 87.5037 86.1529C87.4395 86.252 87.4075 86.362 87.4075 86.4832C87.4075 86.6685 87.4774 86.8231 87.6172 86.9469C87.757 87.0705 87.9615 87.1322 88.2308 87.1322C88.4974 87.1322 88.7347 87.0737 88.9425 86.9565C89.1502 86.8393 89.3027 86.6789 89.4002 86.4754C89.4745 86.3184 89.5117 86.0865 89.5117 85.78V85.525Z" fill="black"/>
<path d="M91.2852 89.1568V83.4811H91.916V84.0142C92.0647 83.8057 92.2328 83.6491 92.4199 83.5448C92.6072 83.4406 92.8341 83.3884 93.1009 83.3884C93.4496 83.3884 93.7573 83.4786 94.0241 83.6589C94.2908 83.8391 94.4921 84.0935 94.6281 84.4219C94.7639 84.7504 94.8319 85.1102 94.8319 85.5018C94.8319 85.9217 94.7569 86.2997 94.6069 86.6357C94.4568 86.9719 94.2389 87.2295 93.953 87.4085C93.667 87.5875 93.3663 87.677 93.0508 87.677C92.82 87.677 92.6129 87.6281 92.4295 87.5301C92.2462 87.4324 92.0955 87.3087 91.9776 87.1593V89.1568H91.2852ZM91.9122 85.5558C91.9122 86.0839 92.0186 86.4742 92.2314 86.7266C92.4443 86.979 92.7021 87.1051 93.0047 87.1051C93.3124 87.1051 93.5759 86.9746 93.7952 86.7131C94.0145 86.4516 94.1241 86.0466 94.1241 85.498C94.1241 84.975 94.017 84.5836 93.8029 84.3234C93.5887 84.0633 93.3329 83.9332 93.0355 83.9332C92.7405 83.9332 92.4796 84.0716 92.2526 84.3484C92.0256 84.6254 91.9122 85.0279 91.9122 85.5558Z" fill="black"/>
<path d="M98.3327 86.0814L99.0136 86.1702C98.9392 86.6416 98.7488 87.0106 98.4424 87.2772C98.1358 87.5438 97.7595 87.677 97.3134 87.677C96.7542 87.677 96.3047 87.4935 95.9651 87.1265C95.6252 86.7594 95.4553 86.2333 95.4553 85.5481C95.4553 85.1051 95.5283 84.7174 95.6745 84.3853C95.8207 84.0529 96.0432 83.8037 96.342 83.6375C96.6407 83.4715 96.9657 83.3884 97.3173 83.3884C97.7609 83.3884 98.1237 83.5011 98.4059 83.7265C98.6879 83.9519 98.8688 84.2718 98.9483 84.6866L98.2751 84.7909C98.2109 84.5154 98.0975 84.3079 97.9347 84.1688C97.7717 84.0297 97.575 83.9603 97.3441 83.9603C96.9953 83.9603 96.7119 84.0857 96.4939 84.337C96.2759 84.5881 96.167 84.9854 96.167 85.5289C96.167 86.08 96.2721 86.4806 96.4823 86.7304C96.6926 86.9803 96.9671 87.1051 97.3057 87.1051C97.5774 87.1051 97.8043 87.0216 97.9866 86.854C98.1687 86.6866 98.284 86.429 98.3327 86.0814Z" fill="black"/>
<path d="M99.2329 83.481H102.553V84.0567H101.237V87.5841H100.549V84.0567H99.2329V83.481Z" fill="black"/>
<path d="M103.218 83.481H104.815C105.207 83.481 105.499 83.5138 105.69 83.5795C105.881 83.6451 106.045 83.7656 106.182 83.9408C106.319 84.1159 106.388 84.3259 106.388 84.5705C106.388 84.7663 106.348 84.937 106.267 85.0824C106.186 85.228 106.065 85.3498 105.903 85.4475C106.096 85.5119 106.255 85.6324 106.382 85.8088C106.509 85.9853 106.572 86.1945 106.572 86.4366C106.547 86.8256 106.408 87.1141 106.157 87.3021C105.906 87.4901 105.54 87.5841 105.061 87.5841H103.218V83.481ZM103.91 85.208H104.649C104.944 85.208 105.147 85.1926 105.257 85.1616C105.367 85.1307 105.466 85.0683 105.553 84.9743C105.64 84.8802 105.684 84.7676 105.684 84.6362C105.684 84.4198 105.608 84.2691 105.455 84.1841C105.302 84.0992 105.041 84.0567 104.672 84.0567H103.91V85.208ZM103.91 87.0123H104.822C105.215 87.0123 105.484 86.9667 105.63 86.8752C105.776 86.7838 105.853 86.626 105.861 86.4018C105.861 86.2705 105.819 86.1489 105.734 86.0367C105.649 85.9247 105.539 85.854 105.403 85.8243C105.267 85.7947 105.049 85.7799 104.749 85.7799H103.91V87.0123Z" fill="black"/>
<path d="M110.108 86.2629L110.824 86.3518C110.711 86.7717 110.502 87.0974 110.197 87.3293C109.891 87.5611 109.502 87.677 109.027 87.677C108.43 87.677 107.956 87.4922 107.606 87.1226C107.256 86.753 107.081 86.2346 107.081 85.5674C107.081 84.8772 107.258 84.3415 107.611 83.9603C107.965 83.579 108.424 83.3884 108.989 83.3884C109.535 83.3884 109.981 83.5752 110.327 83.9486C110.673 84.3221 110.847 84.8475 110.847 85.525C110.847 85.5662 110.845 85.6281 110.843 85.7104H107.796C107.822 86.1612 107.949 86.5064 108.177 86.7459C108.405 86.9854 108.69 87.1051 109.031 87.1051C109.285 87.1051 109.502 87.0383 109.681 86.9043C109.861 86.7703 110.003 86.5565 110.108 86.2629ZM107.835 85.1386H110.116C110.085 84.7935 109.998 84.5346 109.854 84.362C109.634 84.0942 109.348 83.9603 108.996 83.9603C108.678 83.9603 108.411 84.0672 108.194 84.2808C107.977 84.4946 107.858 84.7806 107.835 85.1386Z" fill="black"/>
<path d="M111.697 83.481H112.389V85.1887H114.309V83.481H115.001V87.5841H114.309V85.7644H112.389V87.5841H111.697V83.481Z" fill="black"/>
<path d="M116.047 83.481H116.74V85.1887H118.659V83.481H119.352V87.5841H118.659V85.7644H116.74V87.5841H116.047V83.481Z" fill="black"/>
<path d="M120.137 85.5328C120.137 84.773 120.347 84.2101 120.768 83.8444C121.119 83.5404 121.547 83.3884 122.053 83.3884C122.614 83.3884 123.073 83.5733 123.43 83.9428C123.786 84.3124 123.964 84.8231 123.964 85.4748C123.964 86.0028 123.886 86.4182 123.728 86.7208C123.57 87.0234 123.341 87.2585 123.039 87.4259C122.738 87.5933 122.409 87.677 122.053 87.677C121.481 87.677 121.018 87.4929 120.666 87.1245C120.313 86.7563 120.137 86.2256 120.137 85.5328ZM120.848 85.5328C120.848 86.0582 120.963 86.4516 121.191 86.7131C121.419 86.9746 121.706 87.1051 122.053 87.1051C122.396 87.1051 122.682 86.9738 122.91 86.7111C123.139 86.4484 123.253 86.0478 123.253 85.5096C123.253 85.0021 123.138 84.6176 122.908 84.3562C122.679 84.0949 122.393 83.9641 122.053 83.9641C121.706 83.9641 121.419 84.0942 121.191 84.3543C120.963 84.6145 120.848 85.0072 120.848 85.5328Z" fill="black"/>
<path d="M124.776 83.4809H125.468V86.6105L127.388 83.4809H128.134V87.5841H127.442V84.4739L125.522 87.5841H124.776V83.4809ZM127.18 81.9277H127.654C127.615 82.2497 127.498 82.4971 127.302 82.6696C127.105 82.8421 126.844 82.9284 126.519 82.9284C126.19 82.9284 125.928 82.8429 125.732 82.6714C125.536 82.5002 125.419 82.2523 125.38 81.9277H125.853C125.889 82.1029 125.96 82.2336 126.067 82.3199C126.173 82.4063 126.316 82.4493 126.496 82.4493C126.703 82.4493 126.86 82.4075 126.967 82.3238C127.073 82.2401 127.144 82.1081 127.18 81.9277Z" fill="black"/>
<path d="M131.966 81.9204H135.397V86.9161H135.905V88.9059H135.24V87.5845H131.512V88.9059H130.847V86.9161H131.285C131.739 86.2284 131.966 84.8388 131.966 82.7472V81.9204ZM134.651 82.5888H132.685V82.8786C132.685 83.3603 132.642 84.0191 132.556 84.8549C132.47 85.6908 132.302 86.3777 132.051 86.9161H134.651V82.5888Z" fill="black"/>
<path d="M136.844 89.1644L136.767 88.5114C136.918 88.5527 137.05 88.5732 137.163 88.5732C137.317 88.5732 137.44 88.5474 137.532 88.496C137.625 88.4444 137.7 88.3723 137.759 88.2796C137.803 88.2101 137.874 88.0375 137.971 87.7619C137.984 87.7232 138.004 87.6666 138.032 87.5919L136.482 83.481H137.229L138.079 85.8571C138.189 86.1584 138.288 86.4753 138.375 86.8076C138.454 86.4881 138.549 86.1766 138.66 85.8725L139.533 83.481H140.225L138.671 87.6538C138.504 88.1045 138.375 88.4148 138.282 88.5848C138.159 88.814 138.018 88.9821 137.859 89.0891C137.7 89.1958 137.511 89.2493 137.29 89.2493C137.157 89.2493 137.008 89.221 136.844 89.1644Z" fill="black"/>
<path d="M140.745 83.481H141.822L142.895 86.7651L144.088 83.481H145.084V87.5841H144.391V84.2807L143.184 87.5841H142.564L141.422 84.1224V87.5841H140.745V83.481Z" fill="black"/>
<path d="M146.157 83.481H146.85V85.0844H147.727C148.299 85.0844 148.739 85.1958 149.048 85.4186C149.357 85.6414 149.512 85.9485 149.512 86.3401C149.512 86.6826 149.383 86.9757 149.125 87.219C148.867 87.4624 148.455 87.5841 147.888 87.5841H146.157V83.481ZM146.85 87.0123H147.577C148.015 87.0123 148.328 86.9582 148.515 86.85C148.702 86.7419 148.796 86.5732 148.796 86.344C148.796 86.1662 148.727 86.0078 148.589 85.8687C148.45 85.7296 148.143 85.6601 147.669 85.6601H146.85V87.0123ZM150.031 83.481H150.724V87.5841H150.031V83.481Z" fill="black"/>
<path d="M45.4785 92.1946H48.7022V96.2978H48.0098V92.7703H46.1709V96.2978H45.4785V92.1946Z" fill="black"/>
<path d="M49.499 94.2459C49.499 93.4861 49.7093 92.9233 50.1299 92.5575C50.4813 92.2535 50.9095 92.1016 51.4148 92.1016C51.9764 92.1016 52.4355 92.2864 52.7919 92.6559C53.1484 93.0255 53.3267 93.5362 53.3267 94.1879C53.3267 94.7159 53.2478 95.1313 53.0901 95.434C52.9324 95.7366 52.7028 95.9716 52.4015 96.139C52.1001 96.3064 51.7712 96.3901 51.4148 96.3901C50.8429 96.3901 50.3806 96.206 50.028 95.8376C49.6753 95.4694 49.499 94.9387 49.499 94.2459ZM50.2107 94.2459C50.2107 94.7713 50.3248 95.1648 50.5531 95.4262C50.7813 95.6877 51.0686 95.8183 51.4148 95.8183C51.7585 95.8183 52.0444 95.6869 52.2727 95.4242C52.5009 95.1615 52.615 94.761 52.615 94.2227C52.615 93.7152 52.5002 93.3308 52.2707 93.0693C52.0411 92.808 51.7558 92.6773 51.4148 92.6773C51.0686 92.6773 50.7813 92.8074 50.5531 93.0674C50.3248 93.3277 50.2107 93.7203 50.2107 94.2459Z" fill="black"/>
<path d="M56.4241 96.2976V90.6335H57.5474L58.8822 94.6441C59.0053 95.0175 59.095 95.297 59.1515 95.4825C59.2156 95.2764 59.3156 94.9738 59.4516 94.5744L60.8018 90.6335H61.8058V96.2976H61.0864V91.557L59.4477 96.2976H58.7745L57.1434 91.4758V96.2976H56.4241Z" fill="black"/>
<path d="M62.7675 94.2459C62.7675 93.4861 62.9777 92.9233 63.3983 92.5575C63.7497 92.2535 64.178 92.1016 64.6832 92.1016C65.2449 92.1016 65.7039 92.2864 66.0604 92.6559C66.4168 93.0255 66.5951 93.5362 66.5951 94.1879C66.5951 94.7159 66.5163 95.1313 66.3585 95.434C66.2008 95.7366 65.9713 95.9716 65.67 96.139C65.3686 96.3064 65.0397 96.3901 64.6832 96.3901C64.1113 96.3901 63.649 96.206 63.2964 95.8376C62.9438 95.4694 62.7675 94.9387 62.7675 94.2459ZM63.4791 94.2459C63.4791 94.7713 63.5932 95.1648 63.8215 95.4262C64.0497 95.6877 64.337 95.8183 64.6832 95.8183C65.0269 95.8183 65.3128 95.6869 65.5411 95.4242C65.7693 95.1615 65.8835 94.761 65.8835 94.2227C65.8835 93.7152 65.7686 93.3308 65.5392 93.0693C65.3096 92.808 65.0243 92.6773 64.6832 92.6773C64.337 92.6773 64.0497 92.8074 63.8215 93.0674C63.5932 93.3277 63.4791 93.7203 63.4791 94.2459Z" fill="black"/>
<path d="M67.5882 92.1946H70.8041V96.2978H70.1156V92.7703H68.2806V94.8142C68.2806 95.2907 68.2652 95.605 68.2344 95.7569C68.2036 95.9088 68.119 96.0416 67.9805 96.1548C67.842 96.2682 67.642 96.3248 67.3804 96.3248C67.2188 96.3248 67.0329 96.3145 66.8226 96.2939V95.7143H67.1265C67.2701 95.7143 67.3727 95.6996 67.4343 95.6699C67.4958 95.6404 67.5368 95.5934 67.5573 95.5288C67.5778 95.4645 67.5882 95.2545 67.5882 94.8991V92.1946Z" fill="black"/>
<path d="M71.6932 94.2459C71.6932 93.4861 71.9035 92.9233 72.3241 92.5575C72.6755 92.2535 73.1037 92.1016 73.609 92.1016C74.1706 92.1016 74.6297 92.2864 74.9862 92.6559C75.3426 93.0255 75.5209 93.5362 75.5209 94.1879C75.5209 94.7159 75.442 95.1313 75.2843 95.434C75.1266 95.7366 74.897 95.9716 74.5957 96.139C74.2943 96.3064 73.9655 96.3901 73.609 96.3901C73.0371 96.3901 72.5748 96.206 72.2222 95.8376C71.8695 95.4694 71.6932 94.9387 71.6932 94.2459ZM72.4049 94.2459C72.4049 94.7713 72.519 95.1648 72.7473 95.4262C72.9755 95.6877 73.2628 95.8183 73.609 95.8183C73.9527 95.8183 74.2386 95.6869 74.4669 95.4242C74.6951 95.1615 74.8092 94.761 74.8092 94.2227C74.8092 93.7152 74.6944 93.3308 74.4649 93.0693C74.2353 92.808 73.9501 92.6773 73.609 92.6773C73.2628 92.6773 72.9755 92.8074 72.7473 93.0674C72.519 93.3277 72.4049 93.7203 72.4049 94.2459Z" fill="black"/>
<path d="M76.7218 92.1946H79.5685V95.7259H80.0109V97.4608H79.4416V96.2978H76.2256V97.4608H75.6562V95.7259H76.0217C76.509 95.0614 76.7423 93.8844 76.7218 92.1946ZM77.2989 92.7703C77.2475 94.1019 77.0424 95.0871 76.6833 95.7259H78.8799V92.7703H77.2989Z" fill="black"/>
<path d="M83.5846 94.976L84.3002 95.065C84.1872 95.4849 83.9783 95.8105 83.6731 96.0425C83.3679 96.2742 82.9781 96.3901 82.5036 96.3901C81.9061 96.3901 81.4323 96.2054 81.0822 95.8358C80.7321 95.4661 80.5571 94.9477 80.5571 94.2806C80.5571 93.5904 80.734 93.0546 81.088 92.6734C81.4419 92.2922 81.9009 92.1016 82.4652 92.1016C83.0114 92.1016 83.4577 92.2883 83.8039 92.6618C84.1501 93.0353 84.3232 93.5607 84.3232 94.2382C84.3232 94.2793 84.3219 94.3412 84.3193 94.4235H81.2727C81.2982 94.8744 81.4252 95.2195 81.6535 95.459C81.8817 95.6985 82.1663 95.8183 82.5075 95.8183C82.7614 95.8183 82.9781 95.7514 83.1576 95.6175C83.3371 95.4835 83.4794 95.2697 83.5846 94.976ZM81.3111 93.8517H83.5923C83.5615 93.5067 83.4743 93.2477 83.3307 93.0752C83.1101 92.8074 82.8242 92.6734 82.4729 92.6734C82.1549 92.6734 81.8875 92.7803 81.6708 92.994C81.454 93.2078 81.3342 93.4937 81.3111 93.8517Z" fill="black"/>
<path d="M87.567 92.1946V93.9681C87.7876 93.9681 87.9427 93.9255 88.0325 93.8404C88.1222 93.7555 88.253 93.5083 88.4248 93.0987C88.5864 92.7098 88.7313 92.4612 88.8595 92.353C88.9852 92.2473 89.1852 92.1946 89.4597 92.1946H89.7136V92.7703L89.5251 92.7664C89.3404 92.7664 89.2224 92.7935 89.1712 92.8475C89.1173 92.9043 89.0352 93.0729 88.9249 93.3537C88.8223 93.6217 88.7275 93.807 88.6403 93.9101C88.5531 94.0131 88.4171 94.1072 88.2325 94.1921C88.5326 94.2719 88.825 94.5501 89.1096 95.0266L89.8713 96.2978H89.1096L88.3671 95.0266C88.2158 94.769 88.0837 94.6004 87.9709 94.5206C87.858 94.4407 87.7234 94.4007 87.567 94.4007V96.2978H86.8592V94.4007C86.7053 94.4007 86.5719 94.44 86.4591 94.5185C86.3462 94.5971 86.2141 94.7666 86.0629 95.0266L85.3204 96.2978H84.5587L85.3165 95.0266C85.6037 94.5501 85.8974 94.2719 86.1975 94.1921C85.9923 94.0968 85.8487 93.9931 85.7667 93.8811C85.6845 93.769 85.5615 93.5018 85.3973 93.0794C85.341 92.9377 85.2806 92.8501 85.2166 92.8167C85.1499 92.7833 85.0511 92.7664 84.9203 92.7664C84.887 92.7664 84.819 92.7678 84.7165 92.7703V92.1946H84.8127C85.0793 92.1946 85.2672 92.2107 85.3762 92.2429C85.4851 92.2752 85.5826 92.3434 85.6685 92.4477C85.7545 92.552 85.8667 92.769 86.0052 93.0987C86.1744 93.5032 86.3033 93.7492 86.3918 93.8366C86.4803 93.9243 86.6361 93.9681 86.8592 93.9681V92.1946H87.567Z" fill="black"/>
<path d="M90.3868 92.1946H91.0793V93.9023H92.9988V92.1946H93.6913V96.2978H92.9988V94.478H91.0793V96.2978H90.3868V92.1946Z" fill="black"/>
<path d="M94.4918 94.2459C94.4918 93.4861 94.7021 92.9233 95.1227 92.5575C95.4739 92.2535 95.9025 92.1016 96.4077 92.1016C96.9694 92.1016 97.4281 92.2864 97.7849 92.6559C98.1414 93.0255 98.3194 93.5362 98.3194 94.1879C98.3194 94.7159 98.2406 95.1313 98.0828 95.434C97.9251 95.7366 97.6955 95.9716 97.3942 96.139C97.0929 96.3064 96.7639 96.3901 96.4077 96.3901C95.8356 96.3901 95.3735 96.206 95.0207 95.8376C94.6681 95.4694 94.4918 94.9387 94.4918 94.2459ZM95.2034 94.2459C95.2034 94.7713 95.3177 95.1648 95.546 95.4262C95.774 95.6877 96.0615 95.8183 96.4077 95.8183C96.7513 95.8183 97.0372 95.6869 97.2655 95.4242C97.4938 95.1615 97.6077 94.761 97.6077 94.2227C97.6077 93.7152 97.4931 93.3308 97.2636 93.0693C97.0341 92.808 96.7485 92.6773 96.4077 92.6773C96.0615 92.6773 95.774 92.8074 95.546 93.0674C95.3177 93.3277 95.2034 93.7203 95.2034 94.2459Z" fill="black"/>
<path d="M99.1467 92.1945H99.8392V95.3241L101.759 92.1945H102.505V96.2977H101.813V93.1875L99.8931 96.2977H99.1467V92.1945ZM101.551 90.6414H102.024C101.986 90.9633 101.868 91.2107 101.672 91.3832C101.476 91.5557 101.215 91.6421 100.889 91.6421C100.561 91.6421 100.299 91.5565 100.103 91.3851C99.9065 91.2138 99.7892 90.9659 99.7507 90.6414H100.224C100.26 90.8165 100.331 90.9472 100.437 91.0336C100.544 91.1199 100.687 91.1629 100.866 91.1629C101.074 91.1629 101.231 91.1211 101.338 91.0374C101.444 90.9537 101.515 90.8218 101.551 90.6414Z" fill="black"/>
<path d="M105.864 90.6335H110.299V96.2976H109.549V91.3019H106.61V96.2976H105.864V90.6335Z" fill="black"/>
<path d="M111.189 94.2459C111.189 93.4861 111.399 92.9233 111.82 92.5575C112.171 92.2535 112.599 92.1016 113.105 92.1016C113.666 92.1016 114.125 92.2864 114.482 92.6559C114.838 93.0255 115.016 93.5362 115.016 94.1879C115.016 94.7159 114.938 95.1313 114.78 95.434C114.622 95.7366 114.393 95.9716 114.091 96.139C113.79 96.3064 113.461 96.3901 113.105 96.3901C112.533 96.3901 112.07 96.206 111.718 95.8376C111.365 95.4694 111.189 94.9387 111.189 94.2459ZM111.9 94.2459C111.9 94.7713 112.015 95.1648 112.243 95.4262C112.471 95.6877 112.758 95.8183 113.105 95.8183C113.448 95.8183 113.734 95.6869 113.962 95.4242C114.191 95.1615 114.305 94.761 114.305 94.2227C114.305 93.7152 114.19 93.3308 113.96 93.0693C113.731 92.808 113.445 92.6773 113.105 92.6773C112.758 92.6773 112.471 92.8074 112.243 93.0674C112.015 93.3277 111.9 93.7203 111.9 94.2459Z" fill="black"/>
<path d="M116.009 92.1946H119.225V96.2978H118.537V92.7703H116.702V94.8142C116.702 95.2907 116.686 95.605 116.655 95.7569C116.625 95.9088 116.54 96.0416 116.402 96.1548C116.263 96.2682 116.063 96.3248 115.801 96.3248C115.64 96.3248 115.454 96.3145 115.244 96.2939V95.7143H115.548C115.691 95.7143 115.794 95.6996 115.855 95.6699C115.917 95.6404 115.958 95.5934 115.978 95.5288C115.999 95.4645 116.009 95.2545 116.009 94.8991V92.1946Z" fill="black"/>
<path d="M120.283 92.1946H120.976V95.3241L122.895 92.1946H123.642V96.2978H122.949V93.1875L121.03 96.2978H120.283V92.1946Z" fill="black"/>
<path d="M124.327 92.1946H127.647V92.7703H126.331V96.2978H125.643V92.7703H124.327V92.1946Z" fill="black"/>
<path d="M128.324 92.1946H129.017V95.3241L130.936 92.1946H131.682V96.2978H130.99V93.1875L129.07 96.2978H128.324V92.1946Z" fill="black"/>
<path d="M132.737 92.1946H133.429V93.9681C133.65 93.9681 133.804 93.9255 133.893 93.8404C133.981 93.7555 134.112 93.5083 134.283 93.0987C134.419 92.7741 134.53 92.5603 134.614 92.4573C134.699 92.3544 134.796 92.2848 134.907 92.2487C135.017 92.2127 135.194 92.1946 135.437 92.1946H135.576V92.7703L135.383 92.7664C135.201 92.7664 135.085 92.7935 135.033 92.8475C134.98 92.9043 134.897 93.0729 134.787 93.3537C134.682 93.6217 134.586 93.807 134.499 93.9101C134.412 94.0131 134.277 94.1072 134.095 94.1921C134.392 94.2719 134.685 94.5501 134.972 95.0266L135.73 96.2978H134.968L134.23 95.0266C134.078 94.7717 133.946 94.6036 133.833 94.5224C133.72 94.4413 133.586 94.4007 133.429 94.4007V96.2978H132.737V92.1946Z" fill="black"/>
<path d="M139.088 94.976L139.804 95.065C139.691 95.4849 139.482 95.8105 139.177 96.0425C138.871 96.2742 138.482 96.3901 138.007 96.3901C137.41 96.3901 136.936 96.2054 136.586 95.8358C136.236 95.4661 136.061 94.9477 136.061 94.2806C136.061 93.5904 136.238 93.0546 136.592 92.6734C136.946 92.2922 137.405 92.1016 137.969 92.1016C138.515 92.1016 138.961 92.2883 139.308 92.6618C139.654 93.0353 139.827 93.5607 139.827 94.2382C139.827 94.2793 139.826 94.3412 139.823 94.4235H136.776C136.802 94.8744 136.929 95.2195 137.157 95.459C137.385 95.6985 137.67 95.8183 138.011 95.8183C138.265 95.8183 138.482 95.7514 138.661 95.6175C138.841 95.4835 138.983 95.2697 139.088 94.976ZM136.815 93.8517H139.096C139.065 93.5067 138.978 93.2477 138.834 93.0752C138.614 92.8074 138.328 92.6734 137.976 92.6734C137.659 92.6734 137.391 92.7803 137.175 92.994C136.958 93.2078 136.838 93.4937 136.815 93.8517Z" fill="black"/>
</svg>
