<svg width="237" height="49" viewBox="0 0 237 49" fill="none" xmlns="http://www.w3.org/2000/svg">
<g clip-path="url(#clip0_321_1340)">
<path d="M27.1911 20.3847C26.4569 19.7133 25.5432 19.278 24.5653 19.1338C23.5875 18.9895 22.5895 19.1429 21.6975 19.5744C20.8055 20.0059 20.0596 20.6963 19.554 21.5582C19.0484 22.42 18.8059 23.4147 18.8571 24.4165C18.9082 25.4183 19.2509 26.3822 19.8416 27.1864C20.4323 27.9905 21.2446 28.5988 22.1758 28.9343C23.107 29.2698 24.1153 29.3175 25.0731 29.0713C26.031 28.8251 26.8955 28.2961 27.5573 27.5512C28.4442 26.5513 28.9039 25.2348 28.8352 23.891C28.7666 22.5472 28.1752 21.2861 27.1911 20.3847Z" fill="url(#paint0_radial_321_1340)"/>
<path d="M9.53252 4.85557C6.23773 7.37721 3.64293 10.7227 2.00122 14.5659C3.97835 15.0606 9.89793 17.0165 12.6138 24.4608C13.4307 24.1906 15.1916 23.1487 16.4133 19.1262C18.0516 13.7409 21.1595 8.56103 25.1898 6.8217C21.1707 2.78486 15.8754 1.83437 9.53252 4.85557Z" fill="url(#paint1_linear_321_1340)"/>
<path d="M42.1675 8.75217L42.1687 8.75084C38.2659 3.96527 32.6969 0.890489 26.619 0.165551C20.541 -0.559387 14.4217 1.12127 9.53271 4.85823C18.3382 0.66395 25.1246 4.12398 29.2804 12.8697C35.9002 14.0751 40.3959 10.731 42.1675 8.75217Z" fill="url(#paint2_linear_321_1340)"/>
<path d="M14.5405 46.3857C18.3387 48.0219 22.4897 48.6307 26.5887 48.1527C26.0221 46.1669 24.7306 39.984 29.7225 33.8738C29.0835 33.2906 27.3144 32.2633 23.2725 33.2002C17.8598 34.4524 11.8876 34.3096 8.38892 31.6355C6.95516 37.1878 8.79207 42.3192 14.5405 46.3857Z" fill="url(#paint3_linear_321_1340)"/>
<path d="M1.54447 15.7405L1.54274 15.7402C-0.587835 21.5647 -0.42604 27.9987 1.99451 33.7052C4.41505 39.4117 8.90823 43.952 14.5404 46.3827C6.56013 40.7374 6.11823 33.0402 11.5001 25.0131C9.21836 18.5899 4.11822 16.3088 1.54447 15.7405Z" fill="url(#paint4_linear_321_1340)"/>
<path d="M47.4581 21.2166C46.9546 17.0588 45.3983 13.1045 42.9411 9.73926C41.5305 11.2303 36.9025 15.4574 29.1948 14.1233C29.0168 14.9766 29.0251 17.0459 31.8452 20.1314C35.6197 24.2646 38.4839 29.5872 37.9523 34.0007C43.4052 32.4852 46.8636 28.3043 47.4581 21.2166Z" fill="url(#paint5_linear_321_1340)"/>
<path d="M27.8191 47.9661L27.8197 47.9677C33.8534 46.9284 39.2606 43.5688 42.9178 38.5872C46.575 33.6056 48.201 27.3849 47.4579 21.2178C46.6328 31.0574 40.2883 35.2946 30.7505 34.5759C26.4126 39.7938 27.017 45.4189 27.8191 47.9661Z" fill="url(#paint6_linear_321_1340)"/>
<path d="M63.0092 36.887H57.6333V11.4184H66.27C67.7074 11.4015 69.1409 11.5727 70.5351 11.9278C71.7059 12.2216 72.808 12.7472 73.7783 13.4743C74.6759 14.1679 75.385 15.0819 75.8388 16.1304C76.3168 17.2097 76.5559 18.477 76.5561 19.9323C76.5793 21.2442 76.3288 22.5462 75.821 23.7528C75.3434 24.8527 74.6121 25.8198 73.6888 26.5724C72.6784 27.3767 71.5214 27.9703 70.2842 28.3189C68.815 28.7369 67.2944 28.9391 65.7688 28.9192H63.0092V36.887ZM62.9015 24.1163H65.8404C67.4647 24.1163 68.731 23.7949 69.6392 23.152C70.5468 22.5101 71.0006 21.5096 71.0008 20.1505C71.0008 18.7195 70.5588 17.7069 69.6747 17.1127C68.7909 16.5187 67.5246 16.2215 65.8759 16.2212H62.9015V24.1163Z" fill="#414042"/>
<path d="M92.826 37.3247C91.1342 37.3461 89.4526 37.0565 87.8625 36.4698C86.4099 35.9265 85.0941 35.0628 84.0099 33.941C82.8963 32.7626 82.0466 31.3538 81.5191 29.8111C80.9334 28.1738 80.6409 26.2881 80.6414 24.1538C80.6414 22.0196 80.9459 20.1337 81.5551 18.4962C82.1045 16.956 82.9651 15.5494 84.0815 14.3667C85.1567 13.2509 86.4596 12.3877 87.8986 11.838C89.4281 11.2571 91.0499 10.9673 92.6828 10.983C94.618 10.983 96.3442 11.2862 97.8616 11.8926C99.3158 12.4564 100.626 13.3454 101.696 14.4936C102.773 15.6874 103.586 17.1019 104.08 18.6416C104.65 20.4206 104.929 22.283 104.903 24.1538C104.903 26.4093 104.599 28.3679 103.99 30.0298C103.453 31.575 102.584 32.9794 101.445 34.141C100.358 35.2203 99.0485 36.0406 97.6106 36.5425C96.0707 37.0756 94.4529 37.3401 92.826 37.3247ZM93.0053 32.5219C93.8673 32.5313 94.7218 32.3578 95.5139 32.0124C96.2852 31.6675 96.9619 31.1367 97.4852 30.4659C98.0748 29.6931 98.5073 28.809 98.7575 27.8651C99.077 26.6553 99.2278 25.4061 99.2055 24.1538C99.2055 21.2673 98.6082 19.1509 97.4136 17.8046C96.2184 16.4588 94.6414 15.7857 92.6827 15.7854C91.8268 15.7797 90.9789 15.9531 90.1919 16.2948C89.4065 16.6412 88.7128 17.1711 88.1673 17.8413C87.5512 18.6143 87.0942 19.5051 86.8234 20.4607C86.4811 21.6603 86.3179 22.9052 86.3393 24.1538C86.314 25.4113 86.4895 26.6646 86.8589 27.8651C87.1562 28.8187 87.6374 29.7028 88.2744 30.4659C88.8506 31.142 89.5748 31.6717 90.3889 32.0124C91.2194 32.3557 92.1086 32.5288 93.0053 32.5219Z" fill="#414042"/>
<path d="M128.987 35.8773C128.651 36.0465 128.287 36.2152 127.894 36.3832C127.439 36.5726 126.972 36.7296 126.496 36.853C125.883 37.0113 125.261 37.1261 124.633 37.1964C123.829 37.2856 123.021 37.3278 122.213 37.3228C120.441 37.3453 118.678 37.0623 116.999 36.4858C115.502 35.9699 114.133 35.1321 112.985 34.0298C111.842 32.9008 110.96 31.5276 110.405 30.0098C109.795 28.4087 109.491 26.5653 109.49 24.4794C109.49 22.2961 109.795 20.3617 110.405 18.6762C110.945 17.083 111.84 15.6382 113.022 14.4548C114.203 13.2713 115.638 12.3812 117.214 11.8541C118.998 11.2481 120.87 10.953 122.751 10.9811C123.985 10.9684 125.217 11.0903 126.425 11.3447C127.329 11.5286 128.212 11.8091 129.059 12.1815L127.875 16.7658C127.118 16.501 126.338 16.3061 125.546 16.1836C124.87 16.0723 124.188 16.0116 123.503 16.002C122.358 15.9881 121.216 16.1478 120.117 16.4759C119.148 16.7656 118.254 17.27 117.5 17.9527C116.746 18.6587 116.164 19.5323 115.798 20.5052C115.392 21.5392 115.189 22.7607 115.189 24.17C115.189 26.8684 115.936 28.8984 117.429 30.2599C118.922 31.6211 120.934 32.3018 123.468 32.3018C124.166 32.2884 124.862 32.2092 125.546 32.0652C126.36 31.9075 127.153 31.6574 127.912 31.3195L128.987 35.8773Z" fill="#414042"/>
<path d="M149.413 31.3194H139.773L137.981 36.8859H132.677L141.243 11.4172H148.231L156.689 36.8859H151.205L149.413 31.3194ZM141.243 26.5167H147.944L144.611 15.8198L141.243 26.5167Z" fill="#414042"/>
<path d="M168.91 36.8859H163.535V16.4381H156.402V11.4172H176.006V16.4381H168.91V36.8859Z" fill="#414042"/>
<path d="M190.7 37.3247C189.008 37.346 187.326 37.0564 185.736 36.4697C184.284 35.9266 182.968 35.0629 181.884 33.941C180.77 32.7627 179.92 31.3539 179.393 29.811C178.807 28.1738 178.514 26.2881 178.514 24.1538C178.514 22.0196 178.819 20.1337 179.429 18.4961C179.978 16.9561 180.839 15.5496 181.955 14.3667C183.03 13.2509 184.333 12.3877 185.772 11.838C187.301 11.2572 188.923 10.9674 190.556 10.983C192.491 10.983 194.218 11.2862 195.735 11.8926C197.189 12.4564 198.5 13.3454 199.57 14.4935C200.647 15.6877 201.459 17.102 201.953 18.6416C202.524 20.4205 202.803 22.2829 202.777 24.1538C202.777 26.4093 202.473 28.3679 201.864 30.0298C201.327 31.575 200.457 32.9794 199.319 34.141C198.232 35.2201 196.922 36.0404 195.484 36.5425C193.944 37.0756 192.327 37.3401 190.7 37.3247ZM190.879 32.5218C191.741 32.5312 192.596 32.3577 193.388 32.0124C194.159 31.6678 194.835 31.1369 195.358 30.4659C195.948 29.6931 196.381 28.8091 196.631 27.865C196.951 26.6554 197.102 25.4061 197.079 24.1538C197.079 21.2672 196.482 19.1508 195.287 17.8046C194.092 16.4588 192.516 15.7857 190.556 15.7854C189.7 15.7797 188.852 15.9531 188.065 16.2948C187.28 16.6412 186.586 17.1711 186.041 17.8413C185.424 18.6141 184.967 19.5049 184.697 20.4607C184.355 21.6602 184.192 22.9052 184.213 24.1538C184.188 25.4112 184.363 26.6645 184.732 27.865C185.03 28.8187 185.511 29.7028 186.149 30.4659C186.724 31.1423 187.448 31.672 188.262 32.0124C189.093 32.3558 189.982 32.529 190.879 32.5218Z" fill="#414042"/>
<path d="M236.322 36.8859H230.911L229.549 19.9673L224.388 36.8859H219.263L214.174 20.0405L212.813 36.8859H207.401L209.909 11.4172H216.324L221.987 30.6279L227.578 11.4172H233.778L236.322 36.8859Z" fill="#414042"/>
</g>
<defs>
<radialGradient id="paint0_radial_321_1340" cx="0" cy="0" r="1" gradientUnits="userSpaceOnUse" gradientTransform="translate(22.2429 21.325) scale(7.03413 7.14123)">
<stop stop-color="#4495D1"/>
<stop offset="1" stop-color="#15256D"/>
</radialGradient>
<linearGradient id="paint1_linear_321_1340" x1="6.97108" y1="20.7406" x2="19.0543" y2="2.41314" gradientUnits="userSpaceOnUse">
<stop stop-color="#4495D1"/>
<stop offset="1" stop-color="#15256D"/>
</linearGradient>
<linearGradient id="paint2_linear_321_1340" x1="11.6934" y1="-0.571115" x2="41.2046" y2="11.1733" gradientUnits="userSpaceOnUse">
<stop stop-color="#4495D1"/>
<stop offset="1" stop-color="#15256D"/>
</linearGradient>
<linearGradient id="paint3_linear_321_1340" x1="29.3545" y1="40.7041" x2="7.66221" y2="39.5846" gradientUnits="userSpaceOnUse">
<stop stop-color="#4495D1"/>
<stop offset="1" stop-color="#15256D"/>
</linearGradient>
<linearGradient id="paint4_linear_321_1340" x1="8.81265" y1="47.2073" x2="4.26793" y2="15.3579" gradientUnits="userSpaceOnUse">
<stop stop-color="#4495D1"/>
<stop offset="1" stop-color="#15256D"/>
</linearGradient>
<linearGradient id="paint5_linear_321_1340" x1="35.1886" y1="11.0418" x2="45.2884" y2="30.5672" gradientUnits="userSpaceOnUse">
<stop stop-color="#4495D1"/>
<stop offset="1" stop-color="#15256D"/>
</linearGradient>
<linearGradient id="paint6_linear_321_1340" x1="51.0094" y1="25.8522" x2="25.746" y2="45.2936" gradientUnits="userSpaceOnUse">
<stop stop-color="#4495D1"/>
<stop offset="1" stop-color="#15256D"/>
</linearGradient>
<clipPath id="clip0_321_1340">
<rect width="236.272" height="48.3112" fill="white" transform="translate(0.050293)"/>
</clipPath>
</defs>
</svg>
