<svg width="229" height="64" viewBox="0 0 229 64" fill="none" xmlns="http://www.w3.org/2000/svg">
<g clip-path="url(#clip0_321_1366)">
<mask id="mask0_321_1366" style="mask-type:luminance" maskUnits="userSpaceOnUse" x="0" y="0" width="229" height="63">
<path d="M228.401 0H0V62.1345H228.401V0Z" fill="white"/>
</mask>
<g mask="url(#mask0_321_1366)">
<path d="M176.855 51.5063V48.5818H186.979V51.5063H183.692V61.9586H180.149V51.5063H176.861H176.855Z" fill="#005CA9"/>
<path d="M109.463 62.1345C108.17 62.1345 107.001 61.8706 105.956 61.3429C104.911 60.8151 104.079 60.0455 103.472 59.0194C102.859 58.0005 102.559 56.7472 102.559 55.2738C102.559 53.8006 102.866 52.5252 103.472 51.5063C104.086 50.4802 104.911 49.7105 105.956 49.1828C107.001 48.6551 108.17 48.3984 109.463 48.3984C110.756 48.3984 111.917 48.6624 112.962 49.1828C114.007 49.7032 114.832 50.4802 115.446 51.5063C116.059 52.5324 116.366 53.7859 116.366 55.2738C116.366 56.7618 116.059 58.0078 115.446 59.034C114.832 60.0529 114.007 60.8297 112.962 61.3502C111.917 61.8706 110.748 62.1345 109.463 62.1345ZM109.463 58.9754C110.105 58.9754 110.646 58.8361 111.077 58.5503C111.515 58.2643 111.844 57.8466 112.063 57.2969C112.283 56.7472 112.399 56.0728 112.399 55.2738C112.399 54.4749 112.29 53.7932 112.063 53.2435C111.837 52.6937 111.508 52.2687 111.077 51.9901C110.639 51.7042 110.105 51.565 109.463 51.565C108.82 51.565 108.294 51.7042 107.856 51.9901C107.417 52.2759 107.088 52.6937 106.862 53.2435C106.636 53.8006 106.526 54.4749 106.526 55.2738C106.526 56.0728 106.636 56.7398 106.862 57.2969C107.088 57.8466 107.417 58.2643 107.856 58.5503C108.294 58.8361 108.827 58.9754 109.463 58.9754Z" fill="#005CA9"/>
<path d="M129.633 61.9513V48.5745H138.479V51.499H133.402V53.764H137.961V56.6152H133.402V59.0194H138.443V61.944H129.633V61.9513Z" fill="#005CA9"/>
<path d="M152.674 61.9513V48.5745H161.521V51.499H156.443V53.764H161.002V56.6152H156.443V59.0194H161.484V61.944H152.674V61.9513Z" fill="#005CA9"/>
<path d="M147.559 48.5745V54.5043C147.377 54.5189 147.194 54.541 146.99 54.5482C146.727 54.5629 146.479 54.5702 146.245 54.5775C146.019 54.5775 145.85 54.5849 145.756 54.5849C144.922 54.5849 144.345 54.4384 144.039 54.1524C143.725 53.8666 143.571 53.4048 143.571 52.7672V48.5672H140.335V52.7672C140.335 53.8007 140.561 54.6582 141.006 55.3398C141.46 56.0216 142.088 56.5272 142.906 56.8645C143.725 57.1942 144.674 57.3629 145.756 57.3629C145.814 57.3629 145.945 57.3629 146.165 57.3483C146.384 57.3409 146.625 57.3262 146.902 57.3042C147.136 57.2896 147.356 57.2676 147.567 57.2455V61.9367H150.832V48.5598H147.567L147.559 48.5745Z" fill="#005CA9"/>
<path d="M169.337 62.1345C168.066 62.1345 166.926 61.8706 165.918 61.3429C164.91 60.8151 164.107 60.0455 163.522 59.0194C162.938 58.0005 162.638 56.7472 162.638 55.2738C162.638 53.8006 162.938 52.5252 163.536 51.5063C164.135 50.4802 164.939 49.7105 165.955 49.1828C166.97 48.6624 168.095 48.3984 169.337 48.3984C170.214 48.3984 171.025 48.5158 171.762 48.7429C172.5 48.9702 173.15 49.3147 173.705 49.7545C174.261 50.2017 174.707 50.744 175.042 51.3891C175.378 52.034 175.584 52.7671 175.656 53.6026H171.836C171.813 53.2948 171.74 53.0162 171.623 52.7671C171.507 52.5178 171.353 52.2979 171.148 52.122C170.945 51.9461 170.703 51.8069 170.419 51.7042C170.134 51.6089 169.811 51.5576 169.446 51.5576C168.818 51.5576 168.285 51.7042 167.846 52.0048C167.409 52.2979 167.08 52.723 166.853 53.2801C166.626 53.8373 166.517 54.4968 166.517 55.2812C166.517 56.0654 166.634 56.7765 166.86 57.3262C167.086 57.8759 167.423 58.2864 167.854 58.5649C168.285 58.8435 168.811 58.9754 169.425 58.9754C169.775 58.9754 170.082 58.9314 170.36 58.8507C170.63 58.7701 170.871 58.6455 171.076 58.4843C171.28 58.323 171.448 58.125 171.573 57.8979C171.697 57.6707 171.785 57.4141 171.828 57.1282H175.649C175.605 57.7 175.444 58.2791 175.159 58.8654C174.875 59.4517 174.473 59.9942 173.947 60.4926C173.421 60.9837 172.778 61.3869 172.003 61.6874C171.236 61.9879 170.345 62.1418 169.322 62.1418L169.337 62.1345Z" fill="#005CA9"/>
<path d="M117.155 51.5063V48.5818H127.763V51.5063H124.315V61.9586H120.603V51.5063H117.155Z" fill="#005CA9"/>
<path d="M188.827 61.9513V48.5745H194.854C195.914 48.5745 196.797 48.7137 197.521 48.9849C198.244 49.2635 198.785 49.6446 199.15 50.1504C199.515 50.6489 199.698 51.2352 199.698 51.9169C199.698 52.4079 199.588 52.855 199.362 53.2656C199.136 53.676 198.828 54.0131 198.427 54.2843C198.025 54.5556 197.557 54.7462 197.017 54.8488V54.9953C197.616 55.01 198.156 55.1566 198.645 55.4204C199.136 55.6843 199.522 56.0581 199.815 56.5273C200.107 56.9964 200.246 57.5461 200.246 58.1764C200.246 58.9095 200.049 59.5544 199.661 60.1262C199.274 60.6979 198.712 61.145 197.981 61.4749C197.251 61.8048 196.388 61.9659 195.38 61.9659H188.835L188.827 61.9513ZM192.597 53.9765H194.146C194.474 53.9765 194.767 53.9252 195.015 53.8299C195.263 53.7346 195.46 53.5881 195.607 53.3975C195.753 53.2069 195.819 52.9796 195.819 52.7011C195.819 52.2906 195.665 51.9828 195.359 51.7556C195.051 51.5357 194.665 51.4258 194.197 51.4258H192.589V53.9765H192.597ZM192.597 59.056H194.372C195 59.056 195.476 58.9388 195.797 58.7043C196.119 58.4696 196.279 58.1325 196.279 57.6927C196.279 57.3776 196.206 57.1064 196.053 56.8864C195.899 56.6665 195.688 56.5052 195.417 56.388C195.139 56.2781 194.811 56.2194 194.431 56.2194H192.604V59.056H192.597Z" fill="#005CA9"/>
<path d="M211.021 61.9513H214.44L208.391 48.5745H206.163L200.114 61.9513H203.489L204.658 59.3859H209.845L211.013 61.9513H211.021ZM205.892 56.6739L207.2 53.8079H207.31L208.617 56.6739H205.892Z" fill="#005CA9"/>
<path d="M107.673 44.1398C106.68 44.1398 105.796 43.9566 105.021 43.5973C104.247 43.2382 103.648 42.7325 103.21 42.0948C102.771 41.4571 102.552 40.7168 102.552 39.8885H105.993C105.993 40.1451 106.066 40.3723 106.212 40.5775C106.358 40.7754 106.563 40.9367 106.826 41.0467C107.089 41.1639 107.381 41.2152 107.71 41.2152C108.038 41.2152 108.301 41.1565 108.542 41.0393C108.783 40.922 108.966 40.7535 109.105 40.5483C109.236 40.3356 109.302 40.0938 109.302 39.8226C109.302 39.5513 109.222 39.3094 109.068 39.0969C108.915 38.8843 108.696 38.7304 108.418 38.6131C108.141 38.4959 107.812 38.4372 107.439 38.4372H106.154V35.9231H107.439C107.775 35.9231 108.075 35.8645 108.338 35.7399C108.601 35.6226 108.798 35.4539 108.951 35.2487C109.105 35.0435 109.171 34.8016 109.171 34.5378C109.171 34.2739 109.105 34.0467 108.981 33.8488C108.857 33.6509 108.689 33.4969 108.469 33.3797C108.25 33.2624 108.002 33.2111 107.71 33.2111C107.395 33.2111 107.111 33.2697 106.862 33.3869C106.614 33.5043 106.424 33.6655 106.285 33.8707C106.146 34.0759 106.081 34.3178 106.081 34.5964H102.793C102.793 33.7755 103.005 33.0498 103.429 32.4268C103.852 31.7965 104.43 31.3053 105.175 30.9535C105.912 30.5944 106.76 30.4185 107.717 30.4185C108.674 30.4185 109.478 30.587 110.193 30.9243C110.909 31.2614 111.472 31.7231 111.874 32.3095C112.275 32.8959 112.48 33.5629 112.48 34.3178C112.48 35.0729 112.239 35.6739 111.749 36.1503C111.26 36.6341 110.639 36.9199 109.887 37.0079V37.0959C110.902 37.2131 111.669 37.543 112.173 38.0854C112.685 38.6278 112.933 39.3094 112.933 40.1304C112.933 40.9513 112.706 41.611 112.261 42.2193C111.815 42.8277 111.194 43.3041 110.405 43.6414C109.616 43.9785 108.703 44.1544 107.673 44.1544V44.1398Z" fill="#005CA9"/>
<path d="M145.945 41.2669V30.5801H142.359V41.1569H139.108V30.5801H135.528V41.1569H132.19V30.5801H128.566V43.9569H143.959H144.951V45.7526H148.422V41.2669H145.945Z" fill="#005CA9"/>
<path d="M149.744 30.5801H153.397V37.58H153.506L159.285 30.5801H161.389V43.9569H157.736V36.935H157.648L151.849 43.9569H149.744V30.5801Z" fill="#005CA9"/>
<path d="M188.813 30.5801H192.546V37.58H192.655L198.559 30.5801H200.713V43.9569H196.98V36.935H196.885L190.969 43.9569H188.813V30.5801Z" fill="#005CA9"/>
<path d="M216.617 30.5801H220.314V37.58H220.423L226.267 30.5801H228.401V43.9569H224.704V36.935H224.61L218.743 43.9569H216.609V30.5801H216.617Z" fill="#005CA9"/>
<path d="M163.23 33.4751V30.5505H173.355V33.4751H170.068V43.9274H166.524V33.4751H163.238H163.23Z" fill="#005CA9"/>
<path d="M175.204 43.9569V30.5801H178.738V35.8061H183.429V30.5801H186.965V43.9569H183.429V38.7307H178.738V43.9569H175.204Z" fill="#005CA9"/>
<path d="M210.729 43.9569L206.668 38.5549H206.149V43.9569H202.555V30.5801H206.149V35.623H206.609L210.414 30.5801H214.952L209.896 37.0082L215.236 43.9569H210.714H210.729Z" fill="#005CA9"/>
<path d="M123.942 43.7806H127.324L121.334 30.4038H119.128L113.137 43.7806H116.483L117.637 41.2152H122.773L123.927 43.7806H123.942ZM118.865 38.5031L120.158 35.6373H120.267L121.56 38.5031H118.865Z" fill="#005CA9"/>
<path d="M21.3682 43.9493H21.4705C22.2229 43.9054 22.9168 43.8687 23.5232 43.8246C23.9543 43.7954 25.6053 43.5901 26.3795 44.0959L26.8471 45.5618C26.8325 45.5032 26.628 44.8655 26.628 44.8655L25.3934 41.0027C25.3934 41.0027 24.7359 41.142 23.8885 41.3399C21.7042 41.8897 19.5053 42.6226 17.584 43.6414C18.5555 43.8613 19.8049 44.0152 21.3682 43.9346V43.9493Z" fill="black"/>
<path d="M23.7494 47.3577C23.1358 47.3944 22.4345 47.4383 21.6382 47.4823H21.5286C21.1926 47.5044 20.8638 47.5116 20.5498 47.5116C17.5253 47.5116 15.4141 46.8007 14.2526 46.2656C14.0187 46.6248 13.8434 47.0206 13.7704 47.4236C13.7485 47.5483 13.7411 47.6583 13.7339 47.7609C13.7339 47.7755 13.7339 47.7902 13.7339 47.8048C13.7923 47.9881 13.8507 48.1639 13.9092 48.3106C14.0479 48.7064 14.2233 49.2048 14.2452 49.2341C14.4132 49.476 14.6105 49.7179 15.2753 50.0698C15.9692 50.4362 16.9117 50.6781 18.2193 50.9199C19.1764 51.0959 20.3744 51.3452 21.6674 51.2791C21.6893 51.2791 21.7113 51.2791 21.7405 51.2791C22.04 51.2644 22.3175 51.2426 22.5879 51.2278H22.7413C24.7575 51.0959 25.9995 51.0079 26.8542 51.0299H26.8688C27.0076 51.0299 27.139 51.0446 27.2633 51.052H27.3218C27.4386 51.0666 27.5482 51.0885 27.6505 51.1033H27.6723C27.782 51.1326 27.8916 51.1546 27.9865 51.1911C28.0742 51.2205 28.1619 51.2572 28.2422 51.3011C28.2641 51.3085 28.2861 51.3231 28.3079 51.3304C28.3738 51.3671 28.4321 51.4037 28.4979 51.4404C28.5198 51.455 28.5418 51.4697 28.5636 51.4843C28.644 51.5356 28.7243 51.6017 28.7974 51.6676L27.4752 47.5116C27.1244 47.2258 26.9565 47.1745 23.764 47.3651L23.7494 47.3577Z" fill="black"/>
<path d="M13.7339 48.0979C13.7339 48.1785 13.7558 48.2665 13.7705 48.3471C13.8144 48.3324 13.8657 48.3178 13.9098 48.3032C13.8585 48.1565 13.7998 47.9807 13.7339 47.7974C13.7339 47.8414 13.7339 47.8927 13.7339 47.944C13.7339 47.9953 13.7339 48.0539 13.7339 48.0979Z" fill="black"/>
<path d="M13.7776 48.4132C13.7849 48.4571 13.7995 48.4938 13.8068 48.5231C13.8361 48.6477 13.8799 48.765 13.9384 48.8824C14.2378 49.454 14.8953 49.9157 15.2387 50.0991C15.8742 50.4289 16.7655 50.7807 17.9124 51.0153C18.0001 50.9786 18.095 50.942 18.1827 50.9053H18.2192C16.9115 50.6708 15.9691 50.4289 15.2752 50.0624C14.6031 49.7105 14.4132 49.4686 14.2452 49.2267C14.2232 49.1974 14.0479 48.699 13.909 48.3032C13.8653 48.3179 13.8214 48.3325 13.7776 48.3473C13.7776 48.3692 13.7776 48.3912 13.7849 48.4132H13.7776Z" fill="black"/>
<path d="M13.8 48.5025L13.7849 48.457C13.7849 48.457 13.7925 48.4874 13.8 48.5025Z" fill="#DE5A13"/>
<path d="M13.7706 48.3552C13.8149 48.3404 13.8667 48.3256 13.9036 48.3108C13.8593 48.3256 13.8149 48.3404 13.7632 48.3552H13.7706Z" fill="black"/>
<path d="M28.4907 51.4404C28.4907 51.4404 28.5349 51.4701 28.557 51.4847C28.5349 51.4701 28.5127 51.4552 28.4907 51.4404Z" fill="#DE5A13"/>
<path d="M28.2351 51.3013C28.2351 51.3013 28.2793 51.3235 28.3014 51.3309C28.2793 51.3235 28.2571 51.3087 28.2351 51.3013Z" fill="#DE5A13"/>
<path d="M21.6674 51.272C20.3743 51.3379 19.1763 51.0887 18.2193 50.9128C18.1317 50.9495 18.044 50.986 17.9563 51.0227C18.9864 51.2279 20.2209 51.3526 21.6674 51.272Z" fill="black"/>
<path d="M17.9127 51.0157H17.9493C18.0371 50.9862 18.1324 50.9496 18.2129 50.9128H18.1762C18.0885 50.9422 17.9932 50.979 17.9053 51.0157H17.9127Z" fill="black"/>
<path d="M12.5795 44.6823C9.59898 45.6938 5.66141 46.8153 1.14673 47.2405L2.27905 50.8759C6.72799 50.4801 10.6582 49.4101 13.7484 48.3546C13.595 47.8782 13.1566 46.4928 12.5795 44.675V44.6823Z" fill="#FBBB30"/>
<path d="M13.7706 48.3553C13.7558 48.2672 13.7412 48.1863 13.7339 48.1055C13.7412 48.2083 13.7558 48.2891 13.7632 48.3553H13.7706Z" fill="black"/>
<path d="M22.5878 51.2207C22.3175 51.2353 22.0399 51.25 21.7405 51.272C21.7185 51.272 21.6893 51.272 21.6674 51.272C20.2209 51.3453 18.9863 51.2279 17.9562 51.0227H17.9198C14.4424 52.4301 9.33603 53.94 3.42603 54.4458L4.57297 58.03C5.06972 57.9861 5.56649 57.9421 6.05595 57.8907C6.2751 57.8688 6.48695 57.8394 6.70612 57.8101C6.96181 57.7808 7.22479 57.7515 7.48047 57.7149C7.77269 57.6782 8.06491 57.6342 8.35711 57.5902C8.51784 57.5682 8.67124 57.5462 8.83197 57.5169C9.18261 57.4584 9.52596 57.3997 9.86931 57.341C9.94967 57.3263 10.0227 57.3117 10.1031 57.2971C10.4976 57.2237 10.8848 57.1504 11.2719 57.0698H11.2939C12.5138 56.8133 13.6826 56.5347 14.7858 56.2343C15.0708 56.1536 15.3482 56.073 15.6186 55.9924C15.7355 55.9557 15.8524 55.9264 15.962 55.8898C16.3053 55.7872 16.634 55.6845 16.9627 55.5745C17.0285 55.5525 17.1015 55.5306 17.1673 55.5086C17.4449 55.4206 17.7079 55.3253 17.9782 55.23C18.1316 55.1787 18.285 55.12 18.4384 55.0687C18.6064 55.0102 18.7745 54.9442 18.9352 54.8855C19.2202 54.7755 19.4978 54.6729 19.7607 54.5631C19.7972 54.5484 19.8338 54.5337 19.8703 54.519C21.2583 53.9547 22.4126 53.3975 23.2599 52.8845C24.2827 52.2762 25.1374 51.6458 25.7584 51.0227C25.006 51.0521 24.0343 51.1181 22.7486 51.1986H22.5952L22.5878 51.2207Z" fill="#FBBB30"/>
<path d="M26.3793 44.096C25.6049 43.5902 23.9612 43.7955 23.5228 43.8247C22.9166 43.8614 22.2225 43.9055 21.4701 43.942H21.3678C19.8045 44.0227 18.5479 43.8688 17.5837 43.6489C16.7874 44.0666 16.035 44.5358 15.3555 45.0562C14.9392 45.3787 14.5447 45.7891 14.2451 46.2583C15.4066 46.7933 17.5179 47.5044 20.5423 47.5044C20.8565 47.5044 21.1852 47.497 21.5212 47.4824H21.6308C22.427 47.4383 23.1283 47.3944 23.7421 47.3577C26.9345 47.1671 27.1025 47.2184 27.4531 47.5044L26.8322 45.5619L26.3647 44.096H26.3793Z" fill="#DE5A13"/>
<path d="M11.3302 34.6479C12.353 33.717 13.5145 32.94 14.7711 32.361C18.8985 30.4625 23.3329 29.5024 27.7965 28.9526C30.9742 28.5641 34.3785 28.4102 37.5929 28.271L32.8078 24.7673C30.755 24.8699 28.7095 25.0018 26.6933 25.2511C22.2298 25.8008 17.7954 26.761 13.6679 28.6595C12.4114 29.2385 11.2499 30.0154 10.2271 30.9463C9.53314 31.5768 9.12403 32.5955 8.94141 33.1965C9.28476 34.2667 9.67193 35.4982 10.0883 36.7954C10.2856 36.1872 10.6874 35.2416 11.3449 34.6479H11.3302Z" fill="#FBBB30"/>
<path d="M42.3342 31.7453C41.3116 31.782 40.0477 31.9433 39.025 31.9872C35.7157 32.1265 32.3772 32.2437 29.1043 32.6469C24.6408 33.1966 20.2065 34.1568 16.0789 36.0552C14.8225 36.6342 13.6609 37.4112 12.6382 38.3421C11.9003 39.0165 11.4839 40.1233 11.3159 40.7023L11.3963 40.9662C11.7396 42.0436 12.0684 43.0918 12.3752 44.0373C12.3898 43.986 12.419 43.9275 12.4409 43.8761C12.6674 43.2898 13.0254 42.5421 13.5806 42.0363C14.6033 41.1054 15.7649 40.3285 17.0213 39.7494C21.1489 37.8511 25.5831 36.8908 30.0467 36.3411C33.3196 35.938 36.658 35.8206 39.9673 35.6815C40.5372 35.6521 41.0997 35.6374 41.6695 35.6154L42.8092 32.0531L42.3342 31.738V31.7453Z" fill="#FBBB30"/>
<path d="M28.5563 51.4844C28.5563 51.4844 28.5124 51.4551 28.4905 51.4405C28.4248 51.3965 28.3664 51.3598 28.3005 51.3305C28.2787 51.3231 28.2568 51.3085 28.2348 51.3012C28.1545 51.2646 28.0668 51.2279 27.9791 51.1912C27.8769 51.1546 27.7746 51.1253 27.665 51.1033H27.6432C27.5409 51.0814 27.4313 51.0666 27.3144 51.052H27.2559C27.1318 51.0373 27.0076 51.0301 26.8614 51.0227H26.8468C26.5327 51.0153 26.1747 51.0227 25.7437 51.0373C25.1228 51.6604 24.268 52.2907 23.2453 52.8991C22.3978 53.4049 21.2437 53.9693 19.8557 54.5336C19.8192 54.5483 19.7826 54.5629 19.7461 54.5775C19.4758 54.6875 19.2055 54.7902 18.9206 54.9002C18.7598 54.9587 18.5918 55.0247 18.4238 55.0834C18.2704 55.1347 18.117 55.1933 17.9636 55.2447C17.7006 55.3399 17.4303 55.4279 17.1527 55.5232C17.0869 55.5451 17.0139 55.5671 16.9481 55.5892C16.6194 55.699 16.2906 55.8016 15.9473 55.9042C15.8378 55.9409 15.7135 55.9703 15.6039 56.0069C15.3482 56.0802 15.1072 56.1535 14.8443 56.2269C14.8223 56.2269 14.7931 56.2415 14.7638 56.2487C13.668 56.5493 12.4919 56.8279 11.2719 57.0844H11.25C10.8628 57.165 10.4756 57.2456 10.0811 57.3189C10.0008 57.3336 9.92773 57.3483 9.84737 57.363C9.50402 57.4215 9.16067 57.4802 8.81003 57.5388C8.65661 57.5608 8.4959 57.5901 8.33517 57.6121C8.04297 57.6562 7.75806 57.7001 7.45853 57.7367C7.20285 57.7734 6.94716 57.8027 6.68418 57.832C6.46501 57.8614 6.25316 57.8833 6.03401 57.9127C5.54455 57.964 5.04778 58.0153 4.55103 58.052L5.69795 61.6581C14.6835 60.9691 22.3833 58.1839 25.488 56.0948C27.6432 54.6436 29.2649 53.4635 28.7755 51.6824C28.695 51.6163 28.6147 51.5578 28.5416 51.4991L28.5563 51.4844Z" fill="black"/>
<path d="M8.92702 33.1968C9.10965 32.5957 9.51875 31.5841 10.2127 30.9464C11.2355 30.0155 12.397 29.2387 13.6536 28.6596C17.7811 26.7612 22.2154 25.8009 26.6789 25.2512C28.7026 25.0021 30.7479 24.87 32.7935 24.7674L28.067 21.3005C26.6643 21.3885 25.6708 21.4617 25.0426 21.5424C23.0921 21.799 21.1561 22.114 19.2713 22.5393C17.3866 22.9643 15.5164 23.5287 13.7485 24.2764C11.9368 25.046 10.2201 26.1382 8.7663 27.4721C7.78739 28.3664 7.76548 29.5391 7.78739 29.5978C7.78739 29.5978 8.25492 31.0711 8.92702 33.1894V33.1968Z" fill="black"/>
<path d="M30.0465 36.3482C25.5829 36.898 21.1486 37.8581 17.0211 39.7566C15.7647 40.3356 14.603 41.1126 13.5803 42.0434C13.0251 42.5492 12.6598 43.2896 12.4407 43.8832C12.4188 43.9345 12.3969 43.9932 12.3749 44.0445C12.0754 43.0916 11.7394 42.0508 11.396 40.9733C8.4666 41.9262 4.71897 42.8571 -0.00756836 43.6413L1.13937 47.2402C5.65405 46.8151 9.59161 45.6937 12.5722 44.6822C13.1493 46.4999 13.5877 47.8853 13.7411 48.3617C10.6436 49.4172 6.72062 50.48 2.27169 50.8831L3.41132 54.4527C9.32132 53.9469 14.4278 52.437 17.9051 51.0224C16.7582 50.7879 15.8669 50.4434 15.2314 50.1062C14.888 49.9229 14.2305 49.4612 13.9309 48.8894C13.8725 48.7722 13.8286 48.6475 13.7995 48.5303C13.7922 48.5082 13.7849 48.4717 13.7703 48.4203C13.7703 48.3984 13.7703 48.3763 13.7629 48.3543C13.7483 48.2884 13.7411 48.2004 13.7337 48.1052C13.7337 48.0539 13.7337 48.0026 13.7337 47.9513C13.7337 47.9 13.7337 47.8559 13.7337 47.7973C13.7337 47.7827 13.7337 47.7753 13.7337 47.7607C13.7337 47.6507 13.7483 47.5408 13.7703 47.4234C13.8434 47.0204 14.0186 46.6318 14.2524 46.2654C14.5519 45.8037 14.9464 45.3858 15.3628 45.0634C16.0421 44.5355 16.7947 44.0738 17.5909 43.6559C19.5196 42.6371 21.7111 41.8968 23.8954 41.3544C26.4084 40.7241 28.8995 40.343 30.9085 40.0644C34.4517 39.5732 40.2008 39.4487 40.4712 39.4047L41.6765 35.6372C41.1068 35.6592 40.5442 35.6739 39.9745 35.7032C36.6652 35.8424 33.3266 35.9597 30.0538 36.3629L30.0465 36.3482Z" fill="black"/>
<path d="M14.7711 32.361C13.5145 32.94 12.353 33.717 11.3302 34.6479C10.6728 35.2417 10.271 36.1872 10.0737 36.7955C10.4828 38.0783 10.9065 39.4122 11.3156 40.7096C11.4837 40.1306 11.9001 39.0164 12.6379 38.3494C13.6607 37.4185 14.8222 36.6416 16.0787 36.0626C20.2062 34.1641 24.6406 33.2039 29.1041 32.6542C32.3769 32.251 35.7153 32.1338 39.0246 31.9945C40.0475 31.9432 41.3112 31.7893 42.3341 31.7526L37.5855 28.2783C34.3713 28.4103 30.9669 28.5643 27.7891 28.9601C23.3255 29.5098 18.8913 30.47 14.7637 32.3684L14.7711 32.361Z" fill="black"/>
<path d="M43.9779 31.7452L39.0835 47.1157L52.9197 37.2205L66.7998 47.145L61.8833 31.7452L76.1725 21.2855L58.3476 20.6186L52.9343 3.64282L47.5137 20.6186L29.7034 21.2783L43.9779 31.7452Z" fill="#E30613"/>
<path d="M83.9893 10.3716C83.9893 10.3716 84.0404 10.3716 84.0622 10.3716C88.7888 8.28265 93.2013 7.30778 101.924 5.99575L100.017 0C91.0315 0.688999 83.3317 3.47431 80.227 5.5633C78.0718 7.0146 76.4501 8.19469 76.9395 9.97582C78.0135 10.8847 78.8828 10.6575 83.9965 10.3716H83.9893Z" fill="#F2EFF0"/>
<path d="M92.1418 14.0071C92.025 13.648 91.9299 13.3622 91.8423 13.113C91.7108 12.7245 91.4989 12.4606 91.426 12.358C91.3236 12.2041 91.0826 11.9036 90.4105 11.5591C89.1977 10.9287 87.0647 10.225 83.9817 10.3863C83.9599 10.3863 83.938 10.3863 83.9088 10.3863C78.8023 10.6721 77.933 10.8994 76.8518 9.99048L78.7951 16.0815C78.8462 16.0888 78.8973 16.0962 78.9557 16.1036C79.0434 16.1182 79.1384 16.1328 79.2261 16.1401C80.3948 16.2794 81.4322 16.1914 82.9882 16.1695C83.1198 16.1695 83.2367 16.1695 83.3755 16.1695C85.1434 16.1695 86.2757 16.1841 87.0938 16.2208C87.313 16.2281 87.5103 16.2428 87.6856 16.2575C88.5915 16.3234 89.0589 16.4186 89.8407 16.5286C90.0086 16.5507 90.1548 16.5726 90.2936 16.602C91.1995 15.8543 91.594 15.2093 91.7765 14.6669C91.7765 14.6522 91.7765 14.6448 91.7839 14.6376C91.8277 14.4983 91.8569 14.3737 91.8788 14.249C91.9811 13.6626 91.8788 13.2449 91.835 13.1276C91.8569 13.2009 91.9445 13.4428 92.1345 14.0219L92.1418 14.0071Z" fill="#C6C6C6"/>
<path d="M89.8404 16.5214C89.0588 16.4041 88.5913 16.3088 87.6854 16.2502C87.5101 16.2356 87.3129 16.2282 87.0936 16.2136C86.2755 16.1769 85.1432 16.1549 83.3753 16.1622C83.2364 16.1622 83.1196 16.1622 82.9881 16.1622C81.432 16.1843 81.0595 16.2502 79.5984 16.1622C79.3208 16.1476 78.8679 15.9863 78.678 15.6785L79.0287 16.7779L80.2851 20.7067C80.2851 20.7067 80.4167 20.67 80.4459 20.67C80.643 20.6261 80.833 20.5821 81.0303 20.5381C81.5708 20.4135 82.0895 20.2816 82.5937 20.1496C83.1124 20.0103 83.6091 19.871 84.0839 19.7245H84.1059C84.9021 19.468 85.6253 19.2041 86.2535 18.9255C88.2041 18.0607 89.4679 17.2837 90.308 16.5947C90.1692 16.5727 90.0232 16.5507 89.8552 16.5214H89.8404Z" fill="#183E75"/>
<path d="M93.267 17.5918C92.9967 16.7342 92.8068 16.0598 92.6241 15.4881C92.4926 15.0776 92.3831 14.7478 92.2881 14.462C92.2516 14.3447 92.215 14.2347 92.1858 14.1395L92.1421 14.0075C91.9521 13.4285 91.8716 13.1866 91.8425 13.1133C91.879 13.2305 91.9886 13.6483 91.8862 14.2347C91.8644 14.3594 91.8351 14.484 91.7913 14.6233C91.7913 14.6379 91.7913 14.6452 91.784 14.6525C91.6014 15.1949 91.2069 15.84 90.3011 16.5875C89.4682 17.2765 88.1971 18.0535 86.2466 18.9184C85.6184 19.197 84.8951 19.4609 84.0988 19.7101H84.077C83.6094 19.864 83.1053 20.0033 82.5866 20.1425C82.0826 20.2744 81.5639 20.4064 81.0234 20.531C80.8334 20.575 80.6361 20.6189 80.4389 20.663C80.4096 20.663 80.3878 20.6776 80.3585 20.6849C80.3293 20.6849 80.2928 20.6996 80.2636 20.7069C79.3504 20.9049 77.8162 21.2933 77.8162 21.2933L67.9614 28.5058C67.9614 28.5058 74.7773 28.1466 76.7278 27.8975C78.6783 27.6482 80.6142 27.3257 82.499 26.9005C82.9007 26.8127 83.3098 26.7101 83.7189 26.6001C83.7336 26.6001 83.7554 26.5927 83.77 26.5854C83.792 26.5854 83.8139 26.5781 83.8285 26.5708C84.0477 26.5121 84.2669 26.4462 84.4933 26.3802C85.7206 26.0283 86.9333 25.6179 88.0218 25.1561C89.797 24.4012 91.7328 23.3603 93.004 21.9603C93.3327 21.6011 93.5666 21.154 93.7272 20.7656C93.9245 20.2891 94.0048 19.8933 93.9829 19.8347L94.1948 20.4944C93.8514 19.3729 93.5227 18.398 93.267 17.5845V17.5918Z" fill="#E6E6E6"/>
<path d="M93.267 17.5912C93.5227 18.4049 93.8514 19.3871 94.1948 20.5012L94.2313 20.6111C97.1681 19.6508 100.908 18.72 105.649 17.9283L103.736 11.9106C98.7678 12.7243 95.0641 13.5965 92.2881 14.4614C92.3831 14.7472 92.4926 15.0771 92.6242 15.4876C92.8068 16.0519 93.004 16.7337 93.267 17.5912Z" fill="#E30613"/>
<path d="M90.4106 11.5518C91.0827 11.9037 91.3749 12.2848 91.4844 12.4387C91.6014 12.6073 91.8789 13.1644 92.1346 14.0073L92.1785 14.1392C92.2076 14.2345 92.2442 14.3445 92.2807 14.4617C95.0567 13.5968 98.7605 12.7246 103.728 11.911L101.924 5.98853L101.843 6.00318C93.1208 7.31521 88.7012 8.29007 83.9819 10.379C87.0647 10.2178 89.1979 10.9215 90.4106 11.5518Z" fill="#005CA9"/>
<path d="M95.1882 23.646C94.918 22.7884 94.728 22.1141 94.5453 21.5423C94.4139 21.1319 94.3042 20.802 94.2093 20.5162C94.1728 20.399 94.1362 20.289 94.1071 20.1937L94.0632 20.0617C93.8732 19.4827 93.7929 19.2408 93.7637 19.1675C93.8003 19.2847 93.9098 19.7026 93.8075 20.289C93.7857 20.4136 93.7564 20.5382 93.7126 20.6775C93.7126 20.6921 93.7126 20.6994 93.7052 20.7068C93.5226 21.2491 93.1281 21.8942 92.2223 22.6418C91.3894 23.3308 90.1183 24.1077 88.1678 24.9727C87.5396 25.2512 86.8164 25.5152 86.02 25.7643H85.9981C84.4932 26.2481 83.3609 26.6439 81.4616 26.9737C76.1359 27.9046 69.1448 28.2491 68.3705 28.3297C68.3559 28.3297 68.1731 28.3736 68.1877 28.3517L63.0376 32.1265L63.9288 34.9119C63.9288 34.9119 76.7058 34.2009 78.6563 33.9516C80.6069 33.7025 82.5427 33.38 84.4275 32.9548C86.3122 32.5297 88.1824 31.9653 89.9503 31.2176C91.762 30.448 93.6103 29.4805 94.9326 28.0219C95.2613 27.6627 95.4951 27.2156 95.6558 26.8271C95.853 26.3507 95.9333 25.9549 95.9115 25.8962L96.1233 26.5559C95.7799 25.4344 95.4512 24.4596 95.1955 23.646H95.1882Z" fill="#005CA9"/>
<path d="M97.146 29.7957C96.8757 28.9381 96.6858 28.2637 96.5032 27.692C96.3716 27.2815 96.2621 26.9517 96.1671 26.6659C96.1305 26.5486 96.094 26.4386 96.0648 26.3434L96.021 26.2114C95.8311 25.6324 95.7506 25.3905 95.7215 25.3171C96.189 26.6951 95.0128 27.9705 94.0924 28.7988C93.2888 29.5171 92.0688 30.2648 90.1183 31.1297C89.49 31.4083 88.7668 31.6721 87.9706 31.9213H87.9486C86.4437 32.4051 85.3114 32.8009 83.412 33.1308C78.0865 34.0617 72.1472 34.3988 71.3656 34.4794C71.3509 34.4794 64.9514 34.8605 63.9214 34.9192L65.0319 38.4228L65.8355 40.9369C65.8355 40.9369 77.9403 40.4605 80.6068 40.1086C82.5573 39.8521 84.4931 39.5369 86.378 39.1118C88.2628 38.6867 90.1329 38.1224 91.9008 37.3747C93.7125 36.6051 95.5607 35.6375 96.883 34.1789C97.2117 33.8198 97.4456 33.3727 97.6062 32.9841C97.8035 32.5077 97.8838 32.1119 97.8619 32.0532C97.8619 32.0532 97.4017 30.6093 97.146 29.7957Z" fill="#E30613"/>
</g>
</g>
<defs>
<clipPath id="clip0_321_1366">
<rect width="228.725" height="63.3079" fill="white"/>
</clipPath>
</defs>
</svg>
