<svg width="109" height="109" viewBox="0 0 109 109" fill="none" xmlns="http://www.w3.org/2000/svg">
<path d="M0 52.2996C0 27.6453 0 15.3182 7.6591 7.6591C15.3182 0 27.6453 0 52.2996 0H56.6579C81.3122 0 93.6393 0 101.298 7.6591C108.958 15.3182 108.958 27.6453 108.958 52.2996V56.6579C108.958 81.3122 108.958 93.6393 101.298 101.298C93.6393 108.958 81.3122 108.958 56.6579 108.958H52.2996C27.6453 108.958 15.3182 108.958 7.6591 101.298C0 93.6393 0 81.3122 0 56.6579V52.2996Z" fill="#0077FF"/>
<path d="M57.9742 78.492C33.141 78.492 18.9767 61.4674 18.3865 33.1384H30.8257C31.2343 53.9312 40.4048 62.7385 47.6686 64.5544V33.1384H59.3819V51.0709C66.5549 50.2992 74.0902 42.1274 76.6326 33.1384H88.3459C86.3937 44.2158 78.2219 52.3875 72.4108 55.747C78.2219 58.471 87.5291 65.5986 91.0703 78.492H78.1766C75.4072 69.8661 68.5071 63.1925 59.3819 62.2845V78.492H57.9742Z" fill="white"/>
</svg>
