<svg width="201" height="82" viewBox="0 0 201 82" fill="none" xmlns="http://www.w3.org/2000/svg">
<g clip-path="url(#clip0_321_736)">
<path d="M200.644 61.009H-0.000244141V81.3422H200.644V61.009Z" fill="#C40000"/>
<mask id="mask0_321_736" style="mask-type:luminance" maskUnits="userSpaceOnUse" x="0" y="0" width="201" height="62">
<path d="M200.644 0H0V61.0103H200.644V0Z" fill="white"/>
</mask>
<g mask="url(#mask0_321_736)">
<path d="M200.644 0H0V61.0103H200.644V0Z" fill="url(#paint0_linear_321_736)"/>
</g>
<mask id="mask1_321_736" style="mask-type:luminance" maskUnits="userSpaceOnUse" x="0" y="0" width="201" height="82">
<path d="M200.644 0H0V81.3424H200.644V0Z" fill="white"/>
</mask>
<g mask="url(#mask1_321_736)">
<path d="M17.3789 67.9776H19.8984V76.4416H22.1557V67.9776H24.6752V66.0573H17.3789V67.9776ZM28.3892 72.1262H31.6127L31.705 70.2813H28.3892V67.9776H32.3347V66.0573H26.1319V76.4416H32.4727V74.5213H28.3892V72.1262ZM33.2382 74.722L33.3454 76.5956C36.2461 76.4416 37.86 75.7056 37.86 67.9319H40.2255V76.4416H42.4828V66.0573H35.711C35.711 73.5696 35.0187 74.3832 33.2382 74.722ZM46.888 72.1262H50.1115L50.2028 70.2813H46.888V67.9776H50.8324V66.0573H44.6286V76.4416H50.9715V74.5213H46.888L46.888 72.1262ZM58.4621 70.9887C59.2764 70.6053 59.768 69.9436 59.768 68.977C59.768 67.2702 58.4005 66.0573 56.2059 66.0573H52.8115V76.4416H56.2813C58.5704 76.4416 60.1513 75.0279 60.1513 73.2765C60.1513 72.1251 59.5068 71.3721 58.4621 70.9887ZM55.0698 67.9776H56.1432C57.0956 67.9776 57.4789 68.4545 57.4789 69.0832C57.4789 69.7279 56.9724 70.2048 56.036 70.2048H55.0698V67.9776ZM56.2675 74.5213H55.0698V72.0338H56.3896C57.3865 72.0338 57.8643 72.5564 57.8643 73.2765C57.8643 73.9849 57.2634 74.5213 56.2675 74.5213ZM63.9715 72.1411C64.0012 71.5559 64.0182 71.0035 64.0182 70.5585V66.0573H61.7609V76.4416H63.6041L67.4264 70.3886C67.3807 70.9887 67.3659 71.5558 67.3659 72.0168V76.4416H69.6231V66.0573H67.797L63.9715 72.1411ZM80.0166 66.0573H73.4582C73.4136 69.1459 72.768 73.3232 71.7689 74.5691H70.8495V78.4533L72.9061 78.1474V76.4416H79.0345V78.4533L81.0921 78.1474V74.5691H80.0166V66.0573ZM77.7593 74.5691H74.2109C74.7641 73.6004 75.3332 70.5734 75.4872 67.933H77.7593V74.5691ZM84.7275 72.1262H87.9531L88.0444 70.2813H84.7275V67.9776H88.673V66.0573H82.4703V76.4416H88.8131V74.5213H84.7275V72.1262ZM96.1031 70.2197H92.9093V66.0573H90.6521V76.4416H92.9093V72.0954H96.1031V76.4416H98.3625V66.0573H96.1031V70.2197ZM102.718 72.1411C102.749 71.5559 102.764 71.0035 102.764 70.5585V66.0573H100.507V76.4416H102.351L106.174 70.3886C106.126 70.9887 106.113 71.5558 106.113 72.0168V76.4416H108.368V66.0573H106.543L102.718 72.1411ZM112.775 72.1262H116.001L116.093 70.2813H112.775V67.9776H116.72V66.0573H110.519V76.4416H116.859V74.5213H112.775L112.775 72.1262ZM124.288 72.1411C124.318 71.5559 124.333 71.0035 124.333 70.5585V66.0573H122.077V76.4416H123.921L127.744 70.3886C127.696 70.9887 127.684 71.5558 127.684 72.0168V76.4416H129.939V66.0573H128.111L124.288 72.1411ZM139.162 66.0573H135.462V76.4416H137.717V72.6488H139.162C141.27 72.6488 142.571 71.1257 142.571 69.3764C142.571 67.6239 141.27 66.0573 139.162 66.0573ZM139.085 70.7731H137.717V67.9776H139.085C139.808 67.9776 140.284 68.5458 140.284 69.3764C140.284 70.2197 139.808 70.7731 139.085 70.7731ZM146.378 66.0573L143.262 76.4416H145.551L146.24 73.9371H149.128L149.82 76.4416H152.107L148.99 66.0573H146.378ZM146.747 72.1092L147.284 70.1443C147.409 69.6674 147.561 69.0216 147.684 68.3769C147.807 69.0216 147.946 69.6674 148.084 70.1443L148.619 72.1092H146.747ZM161.733 66.0573H155.173C155.129 69.1459 154.484 73.3232 153.484 74.5691H152.562V78.4533L154.623 78.1474V76.4416H160.75V78.4533L162.805 78.1474V74.5691H161.733L161.733 66.0573ZM159.474 74.5691H155.926C156.479 73.6004 157.048 70.5734 157.199 67.933H159.474V74.5691ZM166.398 72.1411C166.428 71.5559 166.443 71.0035 166.443 70.5585V66.0573H164.186V76.4416H166.029L169.851 70.3886C169.804 70.9887 169.789 71.5558 169.789 72.0168V76.4416H172.049V66.0573H170.22L166.398 72.1411ZM178.033 65.8586C175.777 65.8586 173.932 67.301 173.932 70.1581V72.3556C173.932 75.2276 175.777 76.6413 178.033 76.6413C180.306 76.6413 182.15 75.2276 182.15 72.3556V70.1581C182.15 67.301 180.306 65.8586 178.033 65.8586ZM179.892 72.1867C179.892 74.1071 179.111 74.721 178.033 74.721C176.941 74.721 176.191 74.1071 176.191 72.1867V70.3121C176.191 68.4375 176.941 67.7768 178.033 67.7768C179.111 67.7768 179.892 68.4375 179.892 70.3121V72.1867Z" fill="white"/>
<path d="M52.0474 31.3267C54.7082 30.0724 56.3135 27.9141 56.3135 24.7501C56.3135 19.1782 51.8457 15.2122 44.6704 15.2122H33.5784V49.1501H44.921C52.3989 49.1501 57.5685 44.532 57.5685 38.8083C57.5685 35.042 55.4599 32.5832 52.0474 31.3267ZM40.9564 21.4872H44.4698C47.5807 21.4872 48.8356 23.0454 48.8356 25.1027C48.8356 27.2099 47.1793 28.7659 44.1183 28.7659H40.9564V21.4872ZM44.8711 42.8741H40.9564V34.7414H45.2724C48.5352 34.7414 50.0906 36.4493 50.0906 38.8083C50.0906 41.1173 48.1317 42.8741 44.8711 42.8741ZM62.8348 49.1501H70.2139V21.4883H82.407V15.2112H62.8347L62.8348 49.1501ZM84.4137 21.4883H92.6454V49.1501H100.021V21.4883H108.254V15.2112H84.4137L84.4137 21.4883ZM125.115 15.2122H113.019V49.1491H120.395V36.7488H125.115C131.989 36.7488 136.257 31.7792 136.257 26.0565C136.257 20.3317 131.989 15.2122 125.115 15.2122ZM124.863 30.6247H120.395V21.4872H124.863C127.222 21.4872 128.778 23.3449 128.778 26.0565C128.778 28.8169 127.222 30.6247 124.863 30.6247ZM158.638 32.0298C160.294 31.177 161.647 29.8217 162.503 26.6587L165.514 15.2112H158.186L155.677 24.3486C155.174 26.1574 154.371 27.1101 152.266 27.8132L148.401 29.0187V15.2112H141.022V49.1501H148.401V35.9459L151.862 34.6915L158.738 49.1501H167.42L158.638 32.0298Z" fill="white"/>
</g>
</g>
<defs>
<linearGradient id="paint0_linear_321_736" x1="100.322" y1="-32.8168" x2="100.322" y2="95.7137" gradientUnits="userSpaceOnUse">
<stop stop-color="#0085FF"/>
<stop offset="0.18296" stop-color="#0072EC"/>
<stop offset="0.55269" stop-color="#0042BE"/>
<stop offset="1" stop-color="#00007E"/>
</linearGradient>
<clipPath id="clip0_321_736">
<rect width="200.644" height="81.3423" fill="white"/>
</clipPath>
</defs>
</svg>
