<svg width="92" height="90" viewBox="0 0 92 90" fill="none" xmlns="http://www.w3.org/2000/svg">
<path fill-rule="evenodd" clip-rule="evenodd" d="M6.09843 52.2362L7.82463 52.2115V51.7021H6.5153L7.05136 49.967L6.69205 49.8336C6.66692 49.8267 6.64625 49.8208 6.61867 49.8179L5.58398 51.6283L6.09843 52.2362Z" fill="#264796"/>
<path d="M53.7885 88.4653H39.1255V89.186H53.7885V88.4653Z" fill="#005799"/>
<path fill-rule="evenodd" clip-rule="evenodd" d="M86.416 53.161C85.3591 53.161 84.5076 52.3469 84.5076 51.3442C84.5076 50.4907 85.1229 49.8149 85.9424 49.6121L86.0749 49.5525L86.0901 49.584C86.1989 49.5673 86.3032 49.5205 86.416 49.5205C87.4245 49.5205 88.3199 50.2938 88.3199 51.3442C88.3199 52.3469 87.455 53.161 86.416 53.161ZM62.4251 82.34H61.5539V62.5065H62.4251V82.34ZM60.0004 82.6678H59.3718V80.5886H59.0642V77.9887H58.7423V76.8374H58.1225L57.3109 78.6202L56.5883 78.6113V81.5106H56.2762V82.6678H55.3572V76.5395H60.0004V82.6678ZM54.6962 82.3808H54.4062V76.8511H54.6962V82.3808ZM47.2364 74.7907H56.2615V75.3533H47.2364V74.7907ZM52.5018 82.0855H51.5926V81.486H51.8811V76.2482H52.5018V82.0855ZM50.0653 81.4584H49.7748V76.2211H50.0653V81.4584ZM48.4906 80.3124H47.8787V76.2482H48.4906V80.3124ZM47.2364 82.622H43.1937V76.2176H43.5058V82.0545H44.3381L45.2778 81.1739H45.7612V81.326L45.2448 82.0545H47.2364V82.622ZM45.6765 80.3124V76.2482H45.0593V80.3124H45.6765ZM36.6628 74.7907H45.6775V75.3533H36.6628V74.7907ZM41.6166 82.34H41.0314V76.2324H41.6166V82.34ZM38.2084 82.3562H37.918V76.8314H38.2084V82.3562ZM37.285 82.6678H36.3453V81.5106H36.0323V78.6113L35.318 78.6202L34.5024 76.8374H33.8822V77.9887H33.5618V80.5886H33.261V82.6678H32.632V76.5395H37.285V82.6678ZM32.6428 73.3523H36.3812V46.7015H37.2382V73.8805H36.8902V73.9017H32.6428V73.3523ZM38.8537 72.4358H43.5885L44.379 72.0125L42.286 69.7734L43.0549 69.2639L44.4977 70.1873L45.7681 68.9951L46.6295 69.0045L47.9058 70.1987L49.259 69.2639L50.0268 69.7911L48.1839 71.6355L48.8863 72.3309L48.876 72.4358H53.1289V73.6093H48.5078V73.3523H47.8438V72.7247H47.5421V72.4702H47.23V71.2692H45.6878V72.4392H45.393V72.7504H45.0593V73.31H44.4671L44.4395 73.307V73.6093H38.8537V72.4358ZM39.409 46.7015V70.9576H40.0543V46.7015H39.409ZM44.4617 68.0747H43.7952V46.7488H44.4617V68.0747ZM47.5736 68.1081H46.9189V46.7896H47.5736V68.1081ZM42.8664 42.6721H48.4926V43.2589H42.8664V42.6721ZM43.2528 35.074H43.7942V40.9153H43.2528V35.074ZM45.0081 40.9148H44.4671V35.0726H45.0081V40.9148ZM46.2623 40.9148H45.7287V35.0726H46.2623V40.9148ZM47.4993 40.9148H46.9598V35.0726H47.4993V40.9148ZM43.5274 33.0466H47.5421V33.3375H43.5274V33.0466ZM43.8341 21.9507H44.1196V26.2917H43.8341V21.9507ZM43.7194 1.24109L44.4588 2.18025C43.9075 2.43473 43.3119 1.76039 43.7194 1.24109ZM45.6947 1.15892C46.1018 1.67575 45.5048 2.34712 44.9535 2.0951L45.6947 1.15892ZM45.3758 26.2932H45.0942V21.9527H45.3758V26.2932ZM46.3258 21.9507H46.6103V26.2917H46.3258V21.9507ZM52.1996 46.4426V70.9576H52.8542V46.4426H52.1996ZM54.3993 46.3963H55.2691V73.0403H58.9968V73.5886H54.7557V73.567H54.3993V46.3963ZM30.4007 82.6378H29.5353V62.4878H30.4007V82.6378ZM6.22526 53.5632C5.16009 53.5632 4.29716 52.7018 4.29716 51.6484C4.29716 50.5951 5.16009 49.7396 6.22526 49.7396C6.36608 49.7396 6.49156 49.7898 6.61855 49.8149L6.62397 49.807L6.69192 49.8341C7.52966 50.0408 8.15676 50.757 8.15676 51.6484C8.15676 52.7018 7.29536 53.5632 6.22526 53.5632ZM91.735 57.0211L91.7508 55.573L91.3757 55.5764L91.4471 53.2595L90.5497 53.2275L90.5345 55.5459L89.9275 55.5493L89.9581 48.8816L89.5849 48.8742V46.227H88.7063V48.8742H88.3489L88.3558 45.3779L87.4245 45.372V43.5842H87.7469L87.7514 43.2549L87.4393 43.2589L87.455 42.7435L85.5806 42.7026V43.2411H85.2439V43.5901L85.5432 43.5842L85.5353 45.2839L84.6671 45.2967L84.6311 48.8993H84.296V46.227H83.3636L83.3838 48.8993H82.7656L82.7813 55.5493L82.1237 55.5459L82.1321 53.5352H81.2451L81.2348 55.5297H80.2513V53.8201L79.3436 53.8108L79.3323 54.937L79.0113 54.9464L78.9847 52.6698H78.3892V51.7784H78.717L78.7061 50.9037L76.8613 50.8938L76.8529 51.7651L77.1483 51.771V52.6659H76.5511L76.5546 54.6476L76.2445 54.6633L76.2376 53.8108L75.6085 53.8019L75.6071 54.6821L74.9825 54.6879L74.9692 56.9906H75.2906V59.0659H63.4391L63.4327 55.8314H62.5374V54.6417L62.1948 54.6362V54.0677H61.2517L61.2566 54.6417H60.9396L60.9263 55.8029H60.0004L59.9857 59.0659H57.8346L57.8533 44.4279H58.1452V43.8544H57.84V43.5581H57.528V40.9148H57.2193V40.6338L56.9206 40.6407V40.9148L56.602 40.9222L56.5784 43.8599L55.9892 43.8732L55.9947 42.1061L55.3425 42.0957V41.5193L54.7144 41.5228L54.7252 40.6407H54.0696L54.0548 38.8839H54.4234V38.0289L53.1574 36.8274L51.95 38.0358L51.9554 38.8839H52.2355L52.2473 40.3208L51.9229 40.334L51.915 40.0412H51.5926L51.5725 28.7194L51.0162 28.7267L50.9941 25.7788H50.0653L50.0323 28.3925L49.7286 28.3989L49.7035 26.9247H49.3948V26.6096L49.0626 26.6205V26.0426H48.8135L48.7658 20.2161L48.5078 20.2092V19.3242L48.1839 19.3119L48.1706 20.2161H47.2517V18.7536H47.5667V16.4318H46.9238V16.1395L46.3135 16.1365L46.3204 14.996L46.6074 14.991L46.5734 13.2383H46.0088L46.0157 10.8996L45.6765 10.8932L45.2625 2.94424C46.6118 2.3811 46.4917 0.795113 46.2273 0.364449C45.6765 -0.559969 45.5117 0.556372 45.4604 0.634681L44.9234 0.815802L44.8584 0.419549L44.6074 0.388551L44.4671 0.430864L44.4149 0.837493L43.8602 0.643048C43.8021 0.566234 43.6461 -0.468426 43.0987 0.451551C42.8324 0.898997 42.8526 2.48104 44.4395 3.055L44.4588 10.9109H44.1087L44.1196 13.5483H43.5545L43.5634 15.0142L43.8169 15.0236V16.1463L43.1937 16.1532V16.451H42.5745L42.5937 18.7891H42.8885V20.2466H42.2693L42.2535 19.3621H41.9317V20.2466L41.6112 20.2575L41.6535 26.6333H41.3351V26.9463H41.0023L40.9993 28.1627H40.6922L40.6651 25.8236H39.7254L39.7663 28.9611H39.4222L39.4759 40.0707H39.1594L39.1491 40.3596L38.837 40.3695L38.8419 38.9076H39.1136L39.1254 38.0481L37.9126 36.8451L36.6446 38.0481L36.6628 38.9076L37.0305 38.9031L37.001 40.653H36.3453L36.3542 41.5454H35.7325L35.7217 42.1154L35.069 42.1292L35.0768 43.885H34.496L34.4857 40.9424L34.1578 40.933L34.1534 40.653H33.8414V40.9424H33.5362V43.5739H33.2295V43.8756H32.9278V44.4441H33.2187L33.2295 59.3514L31.4028 59.345L31.3792 56.0918L30.4464 56.0785V54.9233H30.124L30.1343 54.3596H29.1814V54.9233H28.8442V56.1095H27.9636L27.9489 59.345L17.3787 59.3356V57.2589L17.7031 57.2628L17.6962 54.9596H17.0765L17.0534 54.0677L16.4391 54.0801L16.4336 54.9321L15.9847 54.9233V52.942H15.5215V52.0437L15.8164 52.0338L15.8139 51.1538L13.9666 51.1784L13.9542 52.0609L14.2299 52.0555V52.946H13.6806L13.6565 55.2137H13.336L13.3291 54.0801L12.4214 54.0874L12.4269 55.8029H11.4449L11.4399 53.8137L10.5411 53.8265L10.5618 55.8275H9.89189L9.89878 49.1656H9.29334L9.30516 46.5022H8.37037L8.37284 49.1656H8.0337L8.01107 45.5753L7.13935 45.5556L7.12948 43.8668L7.44153 43.8732V43.5133H7.0921L7.10342 42.9808L5.21178 43.0191L5.2334 43.533L4.9228 43.5237L4.93166 43.8599H5.24822V45.6466H4.31443L4.31784 49.1459H3.96841L3.96152 46.4977H3.08778L3.0932 49.1459L2.71815 49.1622L2.74618 55.8314L2.14515 55.8146L2.12692 53.5056L1.23453 53.5292V55.8146H0.855033L0.875207 57.2628L0.605469 57.284V58.1478L0.851619 58.1553L0.855033 89.184H3.66172V60.9462H4.33608V89.184H10.8734V61.0648H11.7353V89.184H18.3194V62.4878H19.1931V89.184H31.6253L32.695 87.8918H37.633L40.7636 86.1075H47.5839V85.0315H43.4777V85.669H42.5745L42.2388 84.7297L42.8403 84.7396V83.7832H50.3566V85.8624H53.2126L55.5664 87.341H60.6536L62.3223 89.184H73.1021V62.5095H73.9738V89.184H80.2394V61.0835H81.0994V89.184H87.7209V61.0505H88.2781V89.184H91.7601L91.7709 57.9194H91.9998V57.0295L91.735 57.0211Z" fill="#005799"/>
<path fill-rule="evenodd" clip-rule="evenodd" d="M86.0127 51.4382L84.5537 51.4741L84.724 52.0338H86.7126L86.7658 51.1054L86.0905 49.584C86.0427 49.5943 85.9891 49.5982 85.9428 49.612L85.3777 49.8631L86.0127 51.4382Z" fill="#264796"/>
</svg>
