<svg width="1147" height="87" viewBox="0 0 1147 87" fill="none" xmlns="http://www.w3.org/2000/svg">
<rect width="1147" height="87" rx="43.5" fill="white"/>
<path d="M1025.22 19.2885L1024.29 19.4104L1025.37 27.6099L1026.3 27.488L1025.22 19.2885Z" fill="black"/>
<path d="M1020.2 20.5072L1019.34 20.8646L1022.5 28.5053L1023.36 28.1479L1020.2 20.5072Z" fill="black"/>
<path d="M1042.12 50.7635L1042.67 50.0525L1036.38 45.2227L1035.83 45.9337L1042.12 50.7635Z" fill="black"/>
<path d="M1044.69 46.5271L1045.04 45.6991L1037.71 42.663L1037.37 43.491L1044.69 46.5271Z" fill="black"/>
<path d="M1046.14 41.6002L1046.24 40.7092L1038.35 39.8524L1038.26 40.7433L1046.14 41.6002Z" fill="black"/>
<path d="M1022.2 18L1021.3 18.2417L1023.91 27.9676L1024.81 27.7259L1022.2 18Z" fill="black"/>
<path d="M1047.21 44.6465L1047.45 43.7809L1038.12 41.2815L1037.89 42.1471L1047.21 44.6465Z" fill="black"/>
<path d="M1041.64 47.6251L1042.09 46.849L1037.13 43.9858L1036.68 44.762L1041.64 47.6251Z" fill="black"/>
<path d="M1044.06 39.0524L1044.03 38.1566L1038.31 38.3114L1038.34 39.2073L1044.06 39.0524Z" fill="black"/>
<path d="M1024.99 49.7857L1025.44 49.9492V49.8674C1025.3 49.8423 1025.14 49.8171 1024.99 49.7857Z" fill="black"/>
<path d="M1023.53 49.251L1023.49 49.3674C1023.66 49.4303 1023.85 49.49 1024.03 49.5435L1024.05 49.4429L1023.53 49.251Z" fill="black"/>
<path d="M1024.9 49.751L1025 49.773L1024.95 49.7573L1024.9 49.751Z" fill="black"/>
<path d="M1022.59 48.9051L1022.16 48.7511L1022.14 48.7794C1022.31 48.8674 1022.48 48.9492 1022.65 49.0278L1022.69 48.9429L1022.59 48.9051Z" fill="black"/>
<path d="M1023.4 49.2038L1023.47 49.229L1023.53 49.251L1023.54 49.2227L1022.72 48.8799L1022.69 48.9429L1022.73 48.9585L1023.4 49.2038Z" fill="black"/>
<path d="M1023.47 49.229L1023.4 49.2038L1022.73 48.9585L1022.69 48.9585L1022.65 49.0434C1022.93 49.1692 1023.2 49.2824 1023.49 49.383L1023.53 49.2667L1023.47 49.229Z" fill="black"/>
<path d="M1024.26 49.5151L1024.15 49.4774L1024.05 49.4429L1024.03 49.5435C1024.31 49.6284 1024.6 49.7038 1024.89 49.7636L1024.26 49.5151Z" fill="black"/>
<path d="M1021.91 48.6567C1021.98 48.7007 1022.06 48.7385 1022.14 48.7794L1022.16 48.7511L1021.91 48.6567Z" fill="black"/>
<path d="M1015.67 22.9827L1014.93 23.5513L1019.96 30.1125L1020.7 29.544L1015.67 22.9827Z" fill="black"/>
<path d="M1011.93 26.5471L1011.36 27.2892L1013.89 29.2326C1014.3 29.1231 1014.71 29.0474 1015.13 29.0062L1011.93 26.5471Z" fill="black"/>
<path d="M1011.41 31.8521L1009.25 30.959L1008.89 31.8206L1011.43 32.8741C1011.37 32.5363 1011.37 32.1915 1011.41 31.8521Z" fill="black"/>
<path d="M1012.42 23.3712L1011.76 24.0315L1016.75 29.0314C1017.36 29.1077 1017.95 29.2544 1018.53 29.4685L1012.42 23.3712Z" fill="black"/>
<path d="M1012.7 29.7767L1006.45 26.1636L1005.98 26.9717L1012 30.4528C1012.2 30.1928 1012.44 29.9647 1012.7 29.7767Z" fill="black"/>
<path d="M1012.03 34.3708L1006.63 32.9212L1006.39 33.8268L1013.11 35.6287C1012.7 35.2608 1012.33 34.8376 1012.03 34.3708Z" fill="black"/>
<path d="M1019.01 23.5893L1018.2 24.0563L1021.18 29.2251L1021.99 28.7581L1019.01 23.5893Z" fill="black"/>
<path d="M1019.1 47.3108L1019.01 47.3894L1019.25 47.5906L1019.62 47.2227L1019.1 47.3108Z" fill="black"/>
<path d="M1011.51 32.9055L1011.43 32.8741C1011.53 33.4077 1011.73 33.9163 1012.03 34.3708L1012.13 34.3992C1011.83 33.9473 1011.62 33.4396 1011.51 32.9055Z" fill="black"/>
<path d="M1019.75 47.1002L1019.62 47.2227L1019.85 47.1851C1019.73 47.0813 1019.86 47.2103 1019.75 47.1002Z" fill="black"/>
<path d="M1013.81 29.2673L1013.9 29.2421C1013.86 29.2421 1013.81 29.2641 1013.77 29.2798C1013.39 29.3873 1013.03 29.5584 1012.7 29.7861L1012.73 29.805C1013.06 29.5641 1013.42 29.3822 1013.81 29.2673Z" fill="black"/>
<path d="M1015.35 28.9937H1015.14C1015.21 29.0063 1015.28 28.9968 1015.35 28.9937Z" fill="black"/>
<path d="M1012.04 30.4779L1012 30.4528C1011.69 30.8605 1011.49 31.3426 1011.41 31.8521L1011.47 31.8804C1011.54 31.3719 1011.74 30.8889 1012.04 30.4779Z" fill="black"/>
<path d="M1011.47 31.8804L1011.41 31.8521C1011.37 32.1915 1011.37 32.5363 1011.43 32.8741L1011.51 32.9055C1011.44 32.5678 1011.43 32.2218 1011.47 31.8804Z" fill="black"/>
<path d="M1012.73 29.7954L1012.7 29.7767C1012.44 29.9647 1012.2 30.1928 1012 30.4528L1012.04 30.4779C1012.24 30.2162 1012.47 29.9859 1012.73 29.7954Z" fill="black"/>
<path d="M1012.13 34.3992L1012.03 34.3708C1012.33 34.8376 1012.7 35.2608 1013.11 35.6287L1013.26 35.6696C1012.83 35.2994 1012.45 34.872 1012.13 34.3992Z" fill="black"/>
<path d="M1016.75 29.0314C1016.51 29.001 1016.27 28.983 1016.02 28.9778C1016.27 28.985 1016.51 29.0049 1016.76 29.0376L1016.75 29.0314Z" fill="black"/>
<path d="M1018.53 29.4905L1018.5 29.4685C1017.94 29.2556 1017.35 29.1089 1016.75 29.0314C1017.36 29.1154 1017.95 29.2695 1018.53 29.4905Z" fill="black"/>
<path d="M1041.13 51.6629L1031.03 43.5781L1027.69 44.1568C1028.02 42.8989 1028.4 41.6411 1028.68 40.355C1028.77 39.8525 1028.69 39.3326 1028.43 38.8896C1027.92 37.8141 1027.03 37.2513 1026 36.6884C1024.27 35.745 1023.17 38.7072 1024.51 39.6191C1026.08 40.6883 1025.4 41.9115 1024.89 43.3455C1024.76 43.7322 1024.36 45.2322 1024.03 45.3297C1021.89 45.9586 1020.6 46.2448 1018.44 46.7856L1017.6 49.251L1036.54 54.6125C1037.86 54.9081 1039.97 55.0905 1041.32 54.6125C1043.83 53.7257 1041.78 52.1849 1041.13 51.6629ZM1034.16 53.0276L1019.26 47.5749L1024.45 46.0341C1024.5 46.0183 1024.5 45.9429 1024.52 45.8957C1025.1 44.8541 1025.62 43.7777 1026.07 42.6725C1026.49 41.5342 1026.74 41.0499 1026.07 39.8644C1025.88 39.5248 1025.17 38.55 1024.76 38.2921C1024.9 37.4714 1025.71 37.6632 1026.24 37.9777C1026.92 38.4745 1027.6 39.2355 1027.66 40.1128C1027.74 41.2008 1027.25 44.0121 1026.65 45.0624C1026.3 45.6913 1026.26 45.8171 1025.57 45.7448C1025.49 45.7448 1025.28 45.7448 1025.28 45.8202C1025.28 45.8957 1025.36 45.9712 1025.44 46.0309C1026.23 46.6598 1028.8 47.0435 1027.85 45.336C1027.82 45.2888 1027.7 45.2165 1027.76 45.2008C1028.72 44.8863 1029.7 44.6473 1030.68 44.3895L1040.6 52.188C1040.79 52.3327 1041.58 52.8326 1041.53 53.2823C1041.24 55.4584 1034.78 53.232 1034.16 53.0276Z" fill="black"/>
<path d="M1022.3 38.6349C1022.19 38.1512 1022.16 37.6532 1022.21 37.16C1022.79 35.8142 1023.54 34.767 1025.29 35.4808C1026.24 35.8676 1026.32 36.289 1026.41 36.3865L1027.14 36.8487L1026.8 35.9714C1026.53 35.4651 1025.75 34.6727 1025.17 34.506C1025.12 34.492 1025.06 34.4825 1025.01 34.4777L1024.16 33.7325C1022.6 31.9683 1020.7 30.2734 1018.52 29.4684L1018.54 29.4904C1017.97 29.272 1017.37 29.12 1016.77 29.0376C1016.52 29.0049 1016.28 28.985 1016.03 28.9778H1015.35C1015.29 28.9778 1015.22 28.9779 1015.16 28.9967C1014.74 29.0393 1014.33 29.116 1013.92 29.2263L1013.83 29.2514C1013.44 29.3624 1013.07 29.5412 1012.74 29.7797C1012.48 29.9702 1012.24 30.2004 1012.05 30.4621C1011.75 30.8731 1011.55 31.356 1011.48 31.8646C1011.44 32.2059 1011.45 32.552 1011.52 32.8897C1011.63 33.4243 1011.84 33.932 1012.15 34.3834C1012.46 34.8518 1012.84 35.2749 1013.27 35.6412C1014.2 36.4161 1015.24 37.0373 1016.36 37.4808C1016.56 37.5657 1016.77 37.6475 1016.99 37.7292C1020.44 39.0248 1020.91 39.1254 1024.33 40.16C1023.47 39.0311 1023.47 38.9619 1022.3 38.6349ZM1022.12 35.7701L1022.1 35.8016V35.8299L1022.07 35.8959C1022.03 35.9966 1021.99 36.1003 1021.96 36.2104L1021.76 35.4054C1020.69 34.3854 1019.5 33.5023 1018.21 32.7765C1017.21 32.201 1016.31 31.8772 1015.97 32.2859C1015.56 33.5878 1013.83 32.5847 1013.93 31.569C1013.96 31.4085 1014.02 31.2557 1014.11 31.1222C1014.2 30.9888 1014.32 30.8781 1014.47 30.7986C1014.55 30.7402 1014.64 30.6887 1014.74 30.6445C1014.96 30.5403 1015.2 30.4633 1015.44 30.4149C1016.01 30.304 1016.6 30.3518 1017.15 30.5533C1017.86 30.8177 1018.51 31.2041 1019.08 31.6948C1020.16 32.5127 1021.13 33.4636 1021.98 34.5249C1022.54 34.0626 1022.97 33.9463 1023.69 34.506C1023.35 34.5712 1023.04 34.7109 1022.77 34.9145C1022.5 35.1181 1022.27 35.3805 1022.12 35.6821V35.7701Z" fill="black"/>
<path d="M1044.79 56.5684C1044.79 56.5684 1045.58 56.1093 1045.99 55.7917L1045.43 57.2696L1044.61 57.4866L1044.79 56.5684Z" fill="black"/>
<path fill-rule="evenodd" clip-rule="evenodd" d="M1019.28 46.6032L1019.11 46.4617L1018.83 46.7353L1019.28 46.6032Z" fill="black"/>
<path d="M1034.87 27.6793C1034.87 29.7956 1033.77 30.9496 1031.83 30.9496H1030.47V34.6728H1029.27V24.4529H1031.85C1033.78 24.4529 1034.87 25.6227 1034.87 27.6793ZM1033.66 27.6793C1033.66 26.2894 1033.06 25.5881 1031.83 25.5881H1030.47V29.8113H1031.85C1033.06 29.8144 1033.66 29.1415 1033.66 27.6793H1033.66Z" fill="black"/>
<path d="M1036.14 31.7263V27.4025C1036.14 25.39 1037.28 24.2579 1038.99 24.2579C1040.7 24.2579 1041.82 25.3396 1041.92 27.3113H1040.74C1040.65 25.9969 1040.04 25.3837 1038.98 25.3837C1038 25.3837 1037.34 26.0126 1037.34 27.3962V31.72C1037.34 33.0784 1038.03 33.7199 1039.02 33.7199C1040.1 33.7199 1040.7 33.091 1040.81 31.808H1042C1041.88 33.7482 1040.8 34.8457 1039.02 34.8457C1037.3 34.852 1036.14 33.742 1036.14 31.7263Z" fill="black"/>
<path d="M1043.24 31.4527V27.6509C1043.24 25.5629 1044.38 24.2642 1046.27 24.2642C1048.17 24.2642 1049.29 25.5629 1049.29 27.6509V31.4527C1049.29 33.5565 1048.17 34.8552 1046.27 34.8552C1044.37 34.8552 1043.24 33.5659 1043.24 31.4527ZM1048.06 31.4527V27.6509C1048.06 26.2359 1047.45 25.4309 1046.27 25.4309C1045.08 25.4309 1044.46 26.2359 1044.46 27.6509V31.4527C1044.46 32.8835 1045.09 33.6885 1046.27 33.6885C1047.44 33.6885 1048.06 32.893 1048.06 31.4527Z" fill="black"/>
<path d="M1051.83 45.2574C1051.45 44.6128 1050.58 43.9744 1050.55 43.8423C1050.3 42.1694 1050.96 40.616 1051.62 39.1255C1052.05 37.745 1050.94 37.3802 1050.17 37.0721C1048.58 43.031 1045.89 53.5277 1045.42 56.8452L1044.96 57.0559C1045.13 56.776 1045.31 56.4678 1045.52 56.1345C1042.08 58.4175 1038.61 57.3137 1035.12 56.6093H1035.2L1034.21 54.2446L1036.6 54.7886C1038.33 55.0874 1040 55.3704 1041.35 54.8893C1043.47 54.144 1042.44 52.7918 1041.64 52.1094C1043.43 54.5465 1037.64 55.6282 1034.22 53.1472L1033.67 52.949L1033.61 52.8358L1032.45 52.4082L1032.5 52.5403L1031.36 52.122L1031.32 52.0025L1030.29 51.6283L1030.32 51.7447L1029.45 51.4302L1029.44 51.3076L1028.49 50.9617V51.0812L1026.9 50.4994L1026.29 50.273L1025.31 57.732L1024.42 57.6125L1025.44 49.9491L1024.99 49.7856L1024.89 49.7636L1022.43 58.9615L1021.56 58.7288L1024.02 49.5435C1023.84 49.49 1023.66 49.4303 1023.48 49.3674L1020.51 56.5527L1019.68 56.21L1022.65 49.0278C1022.48 48.9491 1022.31 48.8674 1022.14 48.7793L1019.36 53.5968L1018.59 53.1503L1021.31 48.4334L1021.25 48.4146L1020.74 48.229L1016.17 54.1786L1015.46 53.6314L1019.85 47.9051H1019.83L1019.46 47.7699L1019.26 47.6001L1013.05 53.8138L1012.42 53.1849L1019.12 46.4775C1018.99 46.336 1018.87 46.1945 1018.75 46.0467L1012.6 50.7636L1012.05 50.0497L1018.2 45.3329C1018.1 45.1756 1017.99 45.0184 1017.89 44.858L1013.08 47.6379L1012.62 46.8611L1017.44 44.0782C1017.35 43.9084 1017.27 43.7386 1017.19 43.5656L1010.01 46.5404L1009.67 45.7134L1016.86 42.7323C1016.79 42.5562 1016.73 42.3738 1016.68 42.1914L1007.49 44.6599L1007.26 43.7952L1016.46 41.3267C1016.42 41.1443 1016.39 40.9588 1016.36 40.7701L1008.61 41.7921L1008.5 40.9022L1016.26 39.8802C1016.26 39.6946 1016.24 39.506 1016.23 39.3204H1010.6V38.4211H1016.26C1016.28 38.1066 1016.31 37.8205 1016.35 37.5249C1015.23 37.0814 1014.19 36.4602 1013.27 35.6853L1013.12 35.6444C1013.3 35.8079 1013.49 35.9589 1013.71 36.1255H1013.67C1013.54 36.1413 1013.4 36.1413 1013.26 36.1255C1011.22 36.0061 1003.83 34.8426 1004.65 37.2922C1002.9 38.6286 1003.39 40.7103 1003.49 42.9053L1002.53 43.6474C1002.02 44.0436 1001.96 44.5908 1002.02 45.2197C1003.33 47.446 1007.97 62.974 1009.04 63.823C1010.41 64.911 1021.57 60.6092 1024.44 61.0526C1026.48 62.9614 1028.32 62.9897 1030.86 61.1124C1033.1 61.3765 1044.69 64.7947 1045.92 63.735C1048.4 58.6533 1048.12 54.0465 1051.81 46.5089C1051.93 46.3228 1052 46.1072 1052 45.8863C1052 45.6653 1051.95 45.4477 1051.83 45.2574ZM1003.4 44.5562C1003.52 44.1033 1004.21 44.0405 1004.64 44.0845L1008.13 58.4017C1007.84 58.3703 1004.26 47.2636 1003.4 44.5562H1003.4ZM1033.08 53.927L1034.11 56.4207C1033.56 56.3263 1033.01 56.254 1032.47 56.2131L1031.75 53.5339L1033.08 53.927ZM1026.92 57.5527V52.1157L1028.72 52.644L1029.21 56.4867C1028.39 56.72 1027.62 57.0797 1026.92 57.5527ZM1030.11 56.2949L1029.66 52.9239L1030.73 53.2383L1031.53 56.1785C1031.05 56.1812 1030.58 56.2201 1030.11 56.2949ZM1045.91 59.0464L1049.41 44.7291C1049.84 44.6851 1050.53 44.748 1050.65 45.2008C1049.78 47.9051 1046.22 59.0118 1045.91 59.0432V59.0464Z" fill="black"/>
</svg>
