<svg width="130" height="134" viewBox="0 0 130 134" fill="none" xmlns="http://www.w3.org/2000/svg">
<path d="M124.63 69.1041C127.03 66.3953 128.282 62.857 128.122 59.2389C127.922 52.1466 122.901 46.4962 116.91 46.665L95.6662 47.2637C101.773 26.5502 101.095 15.0849 100.986 13.7393C100.756 10.1756 99.1503 6.84134 96.5091 4.44201C93.8679 2.04268 90.3984 0.766538 86.8347 0.883568C83.271 1.0006 79.8926 2.50162 77.4145 5.06907C74.9363 7.63651 73.5528 11.0689 73.5566 14.6401C73.561 14.7961 73.9911 30.0587 61.8579 39.1027C61.2609 39.5454 46.9308 50.0993 46.9534 66.4949L48.3013 114.325C48.5916 124.623 55.7534 132.811 64.2652 132.571L119.288 131.021C125.278 130.852 129.973 124.928 129.773 117.821C129.726 114.201 128.277 110.74 125.731 108.168C128.08 105.427 129.325 101.907 129.223 98.2962C129.121 94.685 127.68 91.241 125.18 88.6363C127.529 85.8948 128.774 82.3753 128.672 78.764C128.571 75.1528 127.129 71.7089 124.63 69.1041ZM105.891 66.5659L106.067 72.8213L117.638 72.4952C120.145 72.4245 122.341 75.4006 122.442 79.0035C122.544 82.6063 120.519 85.7013 118.012 85.7719L106.441 86.098L106.617 92.3393L118.188 92.0132C120.695 91.9426 122.891 94.9328 122.992 98.5215C123.094 102.11 121.069 105.219 118.562 105.29L106.991 105.616L107.168 111.871L118.739 111.545C121.246 111.475 123.441 114.451 123.543 118.054C123.644 121.657 121.62 124.752 119.113 124.822L64.1047 126.372C59.0344 126.515 54.756 121.057 54.5629 114.206L53.2365 67.1412C53.2256 67.0044 53.2217 66.8671 53.225 66.7299L53.1766 65.0135C53.9626 52.6693 65.347 44.2143 65.5 44.1106C80.369 33.0589 79.7646 15.1323 79.7304 14.4235C79.7599 12.4893 80.5337 10.6413 81.8906 9.26476C83.2474 7.88823 85.0825 7.08949 87.0131 7.03508C88.9438 6.98067 90.821 7.6748 92.2532 8.97273C93.6854 10.2707 94.5621 12.0722 94.7004 14.0016L94.706 14.2002C94.7096 14.3279 95.7093 26.6643 88.3745 49.556L87.0753 53.752L117.086 52.9063C119.593 52.8356 121.789 55.8258 121.89 59.4145C121.991 63.0032 119.969 66.1691 117.462 66.2398L105.891 66.5659Z" fill="#39BFBF"/>
<path d="M26.0977 49.224L14.7675 49.5433C10.8047 49.6587 7.04933 51.3431 4.32483 54.2274C1.60033 57.1116 0.128974 60.9602 0.233331 64.9295L1.76674 119.342C1.88612 123.312 3.57148 127.073 6.45375 129.801C9.33602 132.53 13.1803 134.003 17.1448 133.899L28.475 133.58C32.4377 133.461 36.1914 131.772 38.9132 128.886C41.635 125.999 43.1027 122.149 42.9946 118.18L41.4612 63.7676C41.3456 59.8 39.663 56.0402 36.7826 53.3135C33.9022 50.5868 30.0595 49.1161 26.0977 49.224ZM36.763 118.355C36.8244 120.668 35.968 122.91 34.3814 124.592C32.7948 126.273 30.6075 127.256 28.2987 127.324L16.9685 127.644C14.6595 127.705 12.4203 126.847 10.7415 125.258C9.06279 123.669 8.08144 121.478 8.01253 119.166L6.47911 64.7535C6.41769 62.4409 7.27409 60.1983 8.86066 58.5171C10.4472 56.8359 12.6346 55.8533 14.9434 55.7845L26.2736 55.4652C28.5826 55.4039 30.8218 56.2617 32.5006 57.8509C34.1793 59.4401 35.1606 61.6309 35.2295 63.9432L36.763 118.355Z" fill="#39BFBF"/>
<path d="M21.9919 104.647C20.3112 104.695 18.6823 105.24 17.3112 106.215C15.9401 107.189 14.8884 108.549 14.2891 110.122C13.6898 111.695 13.5697 113.411 13.9441 115.053C14.3185 116.695 15.1706 118.188 16.3925 119.345C17.6145 120.502 19.1515 121.27 20.8091 121.552C22.4668 121.834 24.1706 121.617 25.7052 120.929C27.2398 120.241 28.5362 119.113 29.4305 117.687C30.3248 116.261 30.7768 114.602 30.7294 112.918C30.6658 110.661 29.7095 108.522 28.0709 106.971C26.4323 105.419 24.2456 104.584 21.9919 104.647ZM22.2945 115.385C21.8519 115.397 21.4155 115.278 21.0406 115.042C20.6657 114.806 20.369 114.464 20.1881 114.06C20.0072 113.655 19.9502 113.206 20.0243 112.768C20.0984 112.331 20.3002 111.926 20.6043 111.604C20.9085 111.281 21.3012 111.057 21.7328 110.958C22.1644 110.859 22.6156 110.891 23.0293 111.049C23.443 111.207 23.8005 111.485 24.0568 111.846C24.3131 112.208 24.4565 112.637 24.469 113.081C24.4858 113.675 24.2661 114.252 23.8583 114.684C23.4505 115.116 22.8879 115.368 22.2945 115.385Z" fill="#39BFBF"/>
</svg>
