<svg width="128" height="134" viewBox="0 0 128 134" fill="none" xmlns="http://www.w3.org/2000/svg">
<path d="M88.1849 3.84595C77.6031 4.238 71.6604 9.2464 66.3563 13.7836C60.6958 18.5973 55.8108 22.7392 45.728 22.3397C35.6453 21.9401 30.9196 17.4172 25.4444 12.1622C19.9691 6.90719 13.5406 0.790878 1.20647 0.302072L1.09807 6.19565C11.1808 6.59524 15.9062 11.1302 21.3817 16.3731C26.8573 21.616 33.2855 27.7444 45.6196 28.2332C57.9537 28.722 64.4997 23.1805 70.2582 18.3101C74.4052 14.7807 78.1458 11.6107 83.8254 10.3703" fill="#4AABFF"/>
<path d="M67.3446 34.4231C61.6841 39.2368 55.4109 44.438 45.3645 44.0398C35.318 43.6417 30.5563 39.1053 25.081 33.8503C19.6057 28.5953 13.1772 22.479 0.843135 21.9901L0.734729 27.8837C10.8175 28.2833 15.5429 32.8183 21.0184 38.0612C26.4939 43.3041 32.9222 49.4325 45.2563 49.9213C57.5904 50.4101 64.1364 44.8686 69.8948 39.9982" fill="#4AABFF"/>
<path d="M55.2883 70.18C51.9059 71.1738 48.369 71.5903 44.8243 71.4123C32.4539 70.9221 26.1453 64.8711 20.5864 59.5522C15.0275 54.2333 10.3855 49.7743 0.30277 49.3747L0.411398 43.4691C12.7697 43.9588 19.0783 50.0098 24.6493 55.3292C30.2203 60.6485 34.8502 65.1071 44.9329 65.5066C47.989 65.677 51.0394 65.3017 53.9411 64.3983" fill="#4AABFF"/>
<path d="M92.3261 85.5264L92.5569 72.9768L86.638 72.7422L86.4072 85.2918L77.0628 84.9215L76.4008 120.912C76.3408 124.173 77.5789 127.352 79.8428 129.749C82.1067 132.146 85.2108 133.566 88.4724 133.695C91.734 133.824 94.8858 132.653 97.2345 130.438C99.5832 128.224 100.936 125.148 100.996 121.887L101.658 85.8962L92.3261 85.5264ZM95.631 91.5552L95.5101 98.1265L82.7645 97.6214L82.8854 91.0501L95.631 91.5552ZM88.5817 127.753C86.8952 127.686 85.2899 126.953 84.1182 125.715C82.9465 124.476 82.304 122.834 82.3318 121.147L82.6559 103.527L95.4015 104.032L95.0774 121.652C95.04 123.339 94.3354 124.929 93.1179 126.072C91.9004 127.215 90.2693 127.82 88.5817 127.753Z" fill="#4AABFF"/>
<path d="M85.8782 23.2169C85.6234 22.6703 85.2207 22.2037 84.7168 21.8708C84.2128 21.538 83.628 21.3525 83.0299 21.3358C82.4241 21.2956 81.8232 21.4296 81.2983 21.7222C80.7734 22.0148 80.3465 22.4536 80.0683 22.9866L74.8766 20.0923C75.6643 18.6093 76.8552 17.3848 78.3151 16.5568C79.775 15.7288 81.4457 15.3302 83.139 15.406C84.8329 15.463 86.4872 15.9928 87.9147 16.9354C89.3423 17.878 90.4862 19.1958 91.2172 20.7399L112.643 65.6111C113.316 67.0318 113.618 68.5936 113.52 70.1476C113.421 71.7017 112.926 73.1962 112.082 74.4887C111.237 75.7812 110.07 76.8286 108.694 77.5311C107.317 78.2337 105.776 78.5679 104.218 78.502L104.326 72.5963C104.878 72.6258 105.424 72.5106 105.911 72.2622C106.398 72.0138 106.808 71.6409 107.102 71.1804C107.407 70.7279 107.586 70.2001 107.62 69.6505C107.653 69.101 107.54 68.5492 107.293 68.0513" fill="#4AABFF"/>
<path d="M116.866 79.0268L62.1189 76.8571C60.3173 76.7913 58.5528 76.265 56.9937 75.3284C55.4347 74.3917 54.1332 73.0761 53.2133 71.5069C52.2934 69.9377 51.7859 68.1673 51.7392 66.3648C51.6925 64.5622 52.1082 62.7875 52.9465 61.21L81.3103 8.12697C82.226 6.41337 83.6044 4.99763 85.2922 4.03727C86.9801 3.0769 88.9111 2.60956 90.8706 2.68722C92.83 2.76487 94.7411 3.38447 96.3911 4.47712C98.0412 5.56977 99.3656 7.09262 100.217 8.87625L126.552 64.1271C127.331 65.7686 127.681 67.5736 127.568 69.3699C127.455 71.1661 126.883 72.8937 125.907 74.3877C124.931 75.8818 123.583 77.0925 121.991 77.9043C120.4 78.716 118.619 79.1018 116.817 79.0249L116.866 79.0268ZM90.7737 8.61101C89.91 8.5685 89.057 8.76999 88.3123 9.19241C87.5676 9.61482 86.9613 10.2411 86.5629 10.9995L58.2112 64.083C57.8288 64.773 57.6376 65.5556 57.657 66.3518C57.6763 67.148 57.9057 67.9294 58.3217 68.6168C58.7215 69.3081 59.2914 69.8877 59.976 70.299C60.6605 70.7104 61.4362 70.9393 62.2273 70.9636L116.962 73.1327C117.758 73.1719 118.546 73.0041 119.249 72.6456C119.952 72.2871 120.546 71.7503 120.973 71.0876C121.41 70.4326 121.666 69.6708 121.714 68.8781C121.763 68.0853 121.603 67.2893 121.25 66.5692L94.8908 11.3174C94.5214 10.529 93.9389 9.85653 93.2103 9.37763C92.4818 8.89873 91.6371 8.63296 90.7737 8.61101Z" fill="#4AABFF"/>
</svg>
