<svg width="116" height="123" viewBox="0 0 116 123" fill="none" xmlns="http://www.w3.org/2000/svg">
<path fill-rule="evenodd" clip-rule="evenodd" d="M56.8316 0.65208C55.4561 0.77935 53.6699 1.25369 52.495 1.8036C51.505 2.26708 14.8695 22.1786 13.4836 23.0064C7.76095 26.4249 3.51161 32.3005 1.95792 38.9429C1.38524 41.3909 1.26622 43.4998 0.893126 57.8056L0.536203 71.489L6.26921 71.6551L6.55782 64.1417L23.171 54.9191C32.3083 49.8467 39.8744 45.665 39.9846 45.6262C40.1614 45.5642 40.072 49.4522 39.2193 78.8749C38.6882 97.2003 38.2088 112.191 38.1538 112.187C37.9122 112.17 9.41415 94.9003 8.88346 94.4492C7.52542 93.2948 6.37983 91.3528 6.0189 89.5931C5.88598 88.9447 5.87053 87.834 5.95393 84.9056L6.06315 81.0678L0.164546 80.8969L0.116185 85.0704C0.0658423 89.4182 0.116993 90.029 0.697146 92.0009C1.46704 94.6178 3.24999 97.322 5.29852 98.9798C5.85107 99.4269 14.1431 104.505 24.918 110.994C35.1823 117.176 43.6074 122.235 43.6404 122.236C43.6734 122.237 44.2226 104.232 44.8609 82.2256L46.0214 42.2133L57.5436 35.6729L67.5584 42.607L66.4271 82.8021C65.8049 104.909 65.3355 122.999 65.384 123C65.4327 123.001 74.7281 118.416 86.0406 112.811C102.005 104.9 106.873 102.43 107.789 101.777C110.505 99.8399 112.526 96.8213 113.433 93.3484C113.747 92.1478 113.755 91.9544 114.436 70.0471C115.15 47.0482 115.168 45.3347 114.721 42.5876C113.639 35.9493 109.765 29.8136 104.267 26.0326C103.3 25.3678 65.5977 2.8453 64.1956 2.09499C62.2033 1.02886 59.1741 0.435404 56.8316 0.65208ZM60.1658 6.68392C60.5818 6.8054 61.2695 7.09319 61.6941 7.32339C63.7093 8.41638 100.587 30.4796 101.448 31.1075C102.75 32.0565 104.79 34.1568 105.808 35.5961C106.85 37.0689 107.985 39.4695 108.533 41.3617C109.31 44.041 109.341 44.7324 109.058 53.0879L108.805 60.525L104.63 58.0514C101.135 55.9809 100.426 55.607 100.282 55.7579C100.068 55.9817 97.5366 60.286 97.5323 60.4337C97.5306 60.4929 100.036 62.0263 103.1 63.8413L108.671 67.1413L108.322 79.2886C107.935 92.7363 107.974 92.2923 107.027 94.0804C106.432 95.2045 105.416 96.3962 104.482 97.0649C103.91 97.4738 71.6795 113.563 71.4451 113.557C71.3775 113.555 73.1863 52.1014 73.3654 48.3101L73.4492 46.5362L78.4908 49.8406C78.0585 49.5646 81.2637 51.6578 78.4908 49.8406C78.9232 50.1166 85.3762 54.3329 85.3762 54.3329L87.0042 51.9478L88.6218 49.6021C88.6218 49.6021 82.4945 45.4483 75.223 40.582C67.9516 35.7157 61.166 31.1544 60.1437 30.4459C59.1215 29.7374 58.1686 29.0906 58.0259 29.0088C57.8043 28.8817 56.6421 29.5022 50.0575 33.2638C45.8174 35.6858 34.4757 42.0365 24.8535 47.3763C15.2313 52.7163 7.21813 57.1686 7.04638 57.2703L6.73411 57.4553L7.30336 41.0912L7.70081 39.652C8.95414 35.1139 11.8271 31.0451 15.538 28.5528C16.1293 28.1558 25.185 23.1607 35.6618 17.4525C49.8741 9.70918 54.9841 6.98785 55.788 6.7346C56.6691 6.45687 57.0969 6.40127 58.1373 6.42901C58.8434 6.44788 59.7458 6.56127 60.1658 6.68392Z" fill="#2100ED"/>
</svg>
