<svg width="110" height="133" viewBox="0 0 110 133" fill="none" xmlns="http://www.w3.org/2000/svg">
<g id="Vector">
<path d="M18.3992 132.719L18.133 129.938C14.9295 95.8345 43.8445 88.7783 44.1409 88.6522L45.4598 94.3191L44.8004 91.4856L45.4729 94.3187C44.5135 94.543 22.8493 100.027 23.7584 126.408C31.0597 125.212 49.6126 120.03 50.7889 98.3154L56.6338 98.622C54.9101 130.372 21.5404 132.546 21.2016 132.569L18.3992 132.719Z" fill="#EB574B"/>
<path d="M94.6263 130.431L91.8219 130.515C91.4828 130.526 58.0423 130.343 54.4181 98.7536L60.2212 98.0974C62.7126 119.78 81.5417 123.802 88.9027 124.597C88.228 98.1951 66.2737 94.0072 65.303 93.8539L66.2928 88.1177C66.5928 88.1087 95.8823 93.5358 94.7293 127.77L94.6263 130.431Z" fill="#EB574B"/>
<path d="M63.0696 84.6837L61.3882 79.1189C65.5659 77.9165 69.2302 75.3733 71.8137 71.883C74.3971 68.3927 75.7557 64.15 75.679 59.8116C75.3336 54.5814 72.9682 49.6892 69.0807 46.1649C65.1932 42.6406 60.087 40.7592 54.837 40.9167C49.587 41.0743 44.6027 43.2584 40.9336 47.0094C37.2644 50.7605 35.1965 55.7857 35.1653 61.0272C35.3263 65.1687 36.797 69.1528 39.3666 72.4085C41.9362 75.6642 45.4728 78.0244 49.4695 79.1508L47.809 84.7247C42.6347 83.2537 38.0602 80.1854 34.7414 75.9597C31.4226 71.7339 29.53 66.5679 29.3348 61.2021C28.9149 47.209 40.3129 35.48 54.661 35.0495C69.009 34.619 81.0897 45.6435 81.5095 59.6367C81.6225 65.2537 79.8773 70.7515 76.5439 75.2793C73.2105 79.8071 68.4747 83.1124 63.0696 84.6837Z" fill="#EB574B"/>
<path d="M109.077 37.2733C108.338 27.0028 104.174 18.7374 96.8434 12.443C79.8627 -1.76983 51.696 0.638709 50.4999 0.804883L48.2733 1.00197L47.8825 3.20251C46.8459 9.12254 36.3107 9.13898 36.0233 9.13457L35.8929 9.13849C22.2753 9.54707 12.2999 13.4292 6.21107 20.6604C1.63571 26.3524 -0.493409 33.6215 0.289901 40.8761C1.121 66.4002 19.086 88.1792 43.3581 93.4702C44.1098 96.3836 45.8323 98.9552 48.2424 100.762C50.6526 102.569 53.6071 103.504 56.6205 103.414C59.6339 103.324 62.527 102.213 64.8245 100.265C67.122 98.3164 68.6872 95.6462 69.2629 92.6929C93.9762 85.7107 110.989 62.2569 109.077 37.2733ZM56.4322 97.5728C54.8737 97.6871 53.3166 97.3335 51.9612 96.5573C50.6059 95.7811 49.5144 94.6179 48.8271 93.2174C48.1398 91.8169 47.8882 90.2432 48.1047 88.6987C48.3212 87.1542 48.9958 85.7096 50.0418 84.5508C51.0878 83.3921 52.4573 82.5721 53.974 82.1965C55.4908 81.8209 57.0854 81.9068 58.5527 82.4431C60.0201 82.9795 61.2929 83.9418 62.2075 85.2062C63.1222 86.4706 63.6367 87.9792 63.6849 89.538C63.7411 90.5416 63.5976 91.5463 63.2629 92.4944C62.9281 93.4425 62.4087 94.3151 61.7345 95.062C61.0604 95.8088 60.2447 96.4152 59.3347 96.8461C58.4247 97.277 57.4382 97.524 56.4322 97.5728ZM69.1587 86.6117C68.4759 83.6114 66.7694 80.9412 64.3314 79.0581C61.8934 77.1749 58.8753 76.1958 55.7936 76.2883C52.7118 76.3808 49.7579 77.5391 47.4371 79.565C45.1164 81.5909 43.5731 84.3585 43.0714 87.3944C22.115 82.0951 6.7733 62.8953 6.10154 40.5062L6.0906 40.1418C5.5047 34.4774 7.17795 28.8104 10.7481 24.3677C15.6886 18.4608 24.223 15.2864 35.9623 14.9341L36.0667 14.931C36.6536 14.9134 49.5572 15.0734 53.0196 6.46187C59.5415 6.26619 80.3523 6.28019 93.0761 16.9858C99.1834 22.1182 102.579 29.1039 103.269 37.7602C104.912 59.4557 90.434 79.915 69.1587 86.6117Z" fill="#EB574B"/>
</g>
</svg>
