<svg width="73" height="140" viewBox="0 0 73 140" fill="none" xmlns="http://www.w3.org/2000/svg">
<path d="M11.5545 1.9269L5.16086 2.14124L6.16762 32.1734L12.5613 31.9591L11.5545 1.9269Z" fill="#00AA25"/>
<path d="M62.7049 0.211957L56.3112 0.426291L57.318 30.4585L63.7116 30.2441L62.7049 0.211957Z" fill="#00AA25"/>
<path d="M27.9769 1.37614L21.5832 1.59047L22.822 38.5424L29.2157 38.328L27.9769 1.37614Z" fill="#00AA25"/>
<path d="M46.5493 0.753537L40.1557 0.967871L41.3944 37.9198L47.7881 37.7054L46.5493 0.753537Z" fill="#00AA25"/>
<path d="M34.482 98.3399C34.0555 88.5627 31.0942 81.3959 25.661 77.035C19.8671 72.4322 12.7161 71.9242 8.77241 72.0423C9.05361 74.2127 9.59841 76.3408 10.3947 78.3792L4.42446 80.7098C2.99083 77.0566 2.19343 73.1846 2.06687 69.2619L1.97238 66.4433L4.77622 65.9683C5.35078 65.8644 19.1616 63.5814 29.6801 72.0186C36.62 77.5847 40.3816 86.3331 40.8859 98.0124L34.482 98.3399Z" fill="#00AA25"/>
<path d="M34.2251 61.2563C32.9317 50.0126 35.3019 41.2279 41.2747 35.1866C50.9702 25.3805 66.4558 26.7943 67.1064 26.8571L69.9353 27.1291L70.0298 29.9477C70.2564 36.5626 68.566 43.1018 65.1625 48.7769L59.667 45.5044C61.9135 41.7599 63.2498 37.5396 63.5682 33.1836L63.3992 33.1893C59.0476 33.3352 51.1026 34.3775 45.8541 39.7314C41.3269 44.3133 39.5741 51.3277 40.6304 60.5477L34.2251 61.2563Z" fill="#00AA25"/>
<path d="M36.5827 65.5372C27.4299 65.8627 18.5222 62.5384 11.8173 56.2947C5.1124 50.0509 1.15893 41.3988 0.82575 32.2397L0.731262 29.4211L3.5351 28.9462C4.10967 28.8423 17.9205 26.5592 28.4395 35.0105C34.9442 40.2103 38.653 48.2268 39.5162 58.8359C46.2662 57.8753 52.4339 54.4829 56.8622 49.2953L61.7217 53.365C58.7244 56.8791 55.0508 59.7534 50.9199 61.8165C46.7889 63.8796 42.2851 65.0893 37.6769 65.3735L36.5827 65.5372ZM7.53177 35.0342C8.44941 41.3436 11.4764 47.1558 16.119 51.5226C20.7615 55.8894 26.7457 58.5532 33.0953 59.0794C32.3405 50.4418 29.4329 44.0351 24.4198 40.0129C18.6828 35.4223 11.475 34.902 7.53177 35.0342Z" fill="#00AA25"/>
<path d="M37.8238 102.559C31.8714 102.779 25.9642 101.446 20.6814 98.6922C15.3987 95.9383 10.9218 91.8577 7.68975 86.8507L13.0579 83.3833C15.4898 87.145 18.7872 90.2687 22.6738 92.4925C26.5604 94.7164 30.9229 95.9757 35.3959 96.1649C35.06 86.1448 37.6144 78.2287 43.2624 72.5934C52.9195 62.9013 67.6834 63.8173 68.3477 63.8656L71.1742 64.0671L71.2687 66.8857C71.5945 75.8636 68.394 84.6121 62.3527 91.2572C56.3115 97.9022 47.9099 101.915 38.9476 102.437L37.8238 102.559ZM64.77 70.278C60.5499 70.5606 52.9786 71.8162 47.7141 77.1142C43.4596 81.4189 41.4419 87.6803 41.7262 95.741C47.8488 94.6632 53.4381 91.5748 57.6111 86.9637C61.7841 82.3526 64.303 76.4816 64.77 70.278Z" fill="#00AA25"/>
<path d="M39.0659 139.568C29.913 139.893 21.0053 136.569 14.3004 130.325C7.59554 124.081 3.64207 115.429 3.30889 106.27L3.2144 103.452L6.01776 102.962C6.59233 102.859 20.4031 100.576 30.9222 109.027C34.2034 111.67 36.8182 115.047 38.5559 118.887C39.8281 115.399 41.8378 112.228 44.4477 109.589C54.1052 99.9114 68.8686 100.813 69.5329 100.861L72.3594 101.063L72.4539 103.882C72.7798 112.861 69.5798 121.611 63.539 128.258C57.4982 134.905 49.0967 138.922 40.1333 139.447L39.0659 139.568ZM10.0149 109.065C10.9325 115.374 13.9595 121.186 18.6021 125.553C23.2447 129.92 29.2288 132.584 35.5784 133.11C34.8236 124.472 31.9165 118.08 26.9034 114.057C21.166 109.453 13.9581 108.932 10.0149 109.065ZM66.0126 107.3C61.7919 107.569 54.2211 108.838 48.9566 114.136C44.7016 118.427 42.6839 124.688 42.9687 132.763C49.0914 131.685 54.6806 128.597 58.8536 123.986C63.0266 119.375 65.5456 113.504 66.0126 107.3Z" fill="#00AA25"/>
</svg>
