<svg width="132" height="145" viewBox="0 0 132 145" fill="none" xmlns="http://www.w3.org/2000/svg">
<path d="M131.197 101.484L126.484 101.32L127.082 84.1065L126.819 84.0974L126.832 83.7171L118.298 83.4206L119.456 50.1056L113.015 49.8818L111.857 83.1968L103.514 82.9069L104.671 49.5919L98.2892 49.3702L97.1311 82.6998L50.8901 81.0931L51.3983 66.4684L11.9931 65.0992L10.4326 110.012C8.37732 111.978 6.81464 114.401 5.87115 117.083C4.92767 119.765 4.62991 122.632 5.00198 125.451C5.37406 128.27 6.40552 130.962 8.0128 133.308C9.62007 135.655 11.758 137.59 14.2532 138.957C16.7485 140.324 19.531 141.085 22.3754 141.178C25.2197 141.27 28.0458 140.692 30.6247 139.49C33.2036 138.288 35.4629 136.496 37.2194 134.259C38.9759 132.022 40.1803 129.403 40.7349 126.615L46.7364 126.823C47.0738 129.602 48.0504 132.264 49.5896 134.603C51.1289 136.941 53.1891 138.892 55.6089 140.302C58.0287 141.712 60.7424 142.544 63.5374 142.731C66.3324 142.918 69.1328 142.457 71.7194 141.382C74.3059 140.308 76.6084 138.65 78.4464 136.538C80.2844 134.426 81.608 131.918 82.3137 129.209C83.0193 126.501 83.0878 123.666 82.5137 120.926C81.9396 118.187 80.7386 115.617 79.0047 113.419L93.0132 113.906C91.0722 116.068 89.6805 118.665 88.9557 121.478C88.2309 124.291 88.1943 127.237 88.8489 130.067C89.5035 132.897 90.8301 135.528 92.7167 137.738C94.6033 139.948 96.9945 141.672 99.6884 142.765C102.382 143.857 105.3 144.286 108.194 144.015C111.089 143.744 113.875 142.781 116.319 141.207C118.762 139.633 120.791 137.495 122.233 134.973C123.675 132.451 124.489 129.62 124.605 126.717C124.644 125.573 124.571 124.428 124.387 123.298L130.432 123.508L131.197 101.484ZM22.5279 134.767C20.362 134.698 18.2578 134.03 16.4491 132.837C14.6405 131.645 13.1982 129.974 12.2827 128.012C11.3672 126.05 11.0142 123.872 11.2631 121.721C11.512 119.571 12.353 117.531 13.6925 115.829C15.0321 114.128 16.8178 112.83 18.8511 112.082C20.8844 111.333 23.0857 111.163 25.2102 111.589C27.3348 112.016 29.2994 113.022 30.8857 114.497C32.472 115.973 33.6178 117.858 34.1958 119.945L23.0564 119.558L22.8328 125.993L34.1771 126.387C33.4406 128.877 31.8964 131.051 29.7876 132.568C27.6788 134.085 25.125 134.859 22.5279 134.767ZM76.4505 124.927C76.3436 127.769 75.2053 130.474 73.248 132.538C71.2907 134.603 68.6483 135.884 65.8142 136.145C62.9801 136.405 60.148 135.625 57.8468 133.952C55.5456 132.279 53.9325 129.826 53.3089 127.052L64.6532 127.446L64.8768 121.011L53.7227 120.623C54.6719 118.01 56.5207 115.82 58.9384 114.445C61.3561 113.069 64.1849 112.598 66.9185 113.116C69.6522 113.633 72.1124 115.106 73.8588 117.27C75.6052 119.434 76.5239 122.148 76.4505 124.927ZM106.052 137.67C103.736 137.589 101.495 136.824 99.6142 135.472C97.7332 134.119 96.2957 132.24 95.4836 130.071C94.6716 127.903 94.5214 125.542 95.0521 123.288C95.5829 121.034 96.7706 118.988 98.4651 117.409C100.16 115.83 102.285 114.788 104.572 114.416C106.86 114.043 109.206 114.357 111.315 115.316C113.424 116.276 115.201 117.839 116.421 119.808C117.641 121.777 118.249 124.063 118.168 126.377C118.061 129.48 116.723 132.413 114.451 134.531C112.179 136.648 109.157 137.777 106.052 137.67ZM108.545 108.076L64.0609 106.531C60.1167 106.693 56.3332 108.136 53.2841 110.641C50.235 113.145 48.0865 116.575 47.1645 120.41L40.8409 120.19C40.4015 117.593 39.4017 115.122 37.9109 112.949C36.4202 110.776 34.4741 108.953 32.2077 107.607C29.9413 106.26 27.4089 105.422 24.7861 105.152C22.1634 104.881 19.513 105.183 17.0191 106.038L18.2137 71.6555L44.7229 72.5766L44.2148 87.2013L120.463 89.8506L119.854 107.4L124.567 107.564L124.249 116.704L122.039 116.628C120.586 114.256 118.607 112.251 116.255 110.765C113.902 109.279 111.24 108.353 108.473 108.059L108.545 108.076Z" fill="#FC9C38"/>
<path d="M33.284 59.2359C38.0688 59.4023 42.7255 57.6728 46.2395 54.4242C49.7535 51.1757 51.8402 46.6713 52.0449 41.8923C52.4631 29.8562 63.1964 20.4188 75.9899 20.8633C88.7834 21.3078 98.9091 31.47 98.4909 43.5061L104.932 43.7299C105.473 28.1546 92.6216 15.0278 76.2857 14.4602C59.9498 13.8926 46.1908 26.0509 45.6073 41.5808C45.4995 44.6837 44.1623 47.6167 41.8899 49.7346C39.6176 51.8524 36.5962 52.9815 33.4904 52.8736C30.3847 52.7657 27.449 51.4296 25.3291 49.1591C23.2092 46.8887 22.0789 43.87 22.1867 40.767L15.746 40.5432C15.5947 45.3444 17.3566 50.0095 20.6448 53.5141C23.933 57.0188 28.4788 59.0767 33.284 59.2359Z" fill="#FC9C38"/>
<path d="M61.2174 53.778L60.9948 60.1836C65.7933 60.3542 70.4634 58.6164 73.981 55.3513C77.4985 52.0863 79.5761 47.5606 79.7582 42.7669L73.3176 42.5431C73.1947 45.6328 71.8533 48.5485 69.5863 50.6534C67.3192 52.7583 64.3106 53.8816 61.2174 53.778Z" fill="#FC9C38"/>
<path d="M18.6437 31.4037L18.8663 24.9981C14.0678 24.8275 9.39768 26.5653 5.88017 29.8304C2.36265 33.0954 0.284994 37.6211 0.10291 42.4148L6.54358 42.6386C6.66641 39.5489 8.00779 36.6332 10.2748 34.5283C12.5419 32.4234 15.5505 31.3001 18.6437 31.4037Z" fill="#FC9C38"/>
<path d="M85.481 43.0387L91.9217 43.2625C92.0513 39.1959 90.5597 35.244 87.7747 32.2754C84.9896 29.3068 81.139 27.5642 77.0688 27.4305L76.8462 33.8361C79.212 33.9144 81.45 34.9275 83.0689 36.6529C84.6879 38.3783 85.5554 40.675 85.481 43.0387Z" fill="#FC9C38"/>
<path d="M76.3986 7.01069C97.3747 7.73952 113.898 24.4202 113.217 44.0173L119.658 44.2411C120.45 21.0312 101.154 1.45751 76.6212 0.605085C52.0881 -0.247342 31.4953 17.9404 30.6889 41.1497L37.1149 41.373C37.7984 21.7028 55.4226 6.28185 76.3986 7.01069Z" fill="#FC9C38"/>
</svg>
