<svg width="98" height="128" viewBox="0 0 98 128" fill="none" xmlns="http://www.w3.org/2000/svg">
<path d="M52.047 101.884L51.4812 96.1762C62.9256 94.915 73.4575 89.3089 80.9215 80.5052C88.3855 71.7016 92.2172 60.3659 91.6326 48.8181C91.0479 37.2703 86.091 26.3835 77.7764 18.3856C69.4618 10.3877 58.418 5.88338 46.9052 5.7945V0.0498985C59.9893 -0.015897 72.5949 4.98703 82.0996 14.0179C91.6043 23.0487 97.2762 35.4121 97.9354 48.536C98.5946 61.6599 94.1902 74.5337 85.6386 84.4793C77.087 94.4248 65.0467 100.676 52.0224 101.933L52.047 101.884Z" fill="#EA06D3"/>
<path d="M20.2968 10.6246L17.7013 5.49772C24.8449 1.86173 32.7448 -0.0222589 40.7534 0.000198438V5.79421C33.6502 5.75743 26.6395 7.41286 20.2968 10.6246Z" fill="#EA06D3"/>
<path d="M12.2881 32.3061V35.1845C12.3121 43.1726 15.0745 50.9086 20.1107 57.0914C25.1469 63.2742 32.1496 67.5266 39.9409 69.1333V128H53.9025V69.1333C61.6972 67.5313 68.704 63.2805 73.743 57.097C78.782 50.9135 81.5453 43.1749 81.5676 35.1845V32.3061H12.2881ZM48.1333 122.255H45.6731V69.8127H48.1333V122.255ZM46.9032 64.0929C39.7514 64.0968 32.8525 61.4358 27.5419 56.625C22.2313 51.8142 18.8867 45.1957 18.1557 38.0507H75.6508C74.9197 45.1957 71.5752 51.8142 66.2646 56.625C60.954 61.4358 54.0551 64.0968 46.9032 64.0929Z" fill="#EA06D3"/>
<path d="M45.9321 81.228C33.7769 81.2378 22.1143 76.4046 13.5032 67.7889C4.8921 59.1732 0.0358327 47.4786 0 35.2712V32.1703H5.7446V35.2712C5.78108 43.2034 8.14199 50.9492 12.5329 57.5428C16.9238 64.1363 23.1503 69.2857 30.436 72.3487C37.7216 75.4118 45.744 76.2529 53.5025 74.7672C61.261 73.2815 68.4123 69.5347 74.0645 63.9942L78.0747 68.0957C69.4949 76.5449 57.9482 81.2624 45.9321 81.228Z" fill="#EA06D3"/>
<path d="M33.6058 118.302C28.8555 118.305 24.2979 116.416 20.9332 113.048C17.5685 109.681 15.6715 105.11 15.6585 100.339H21.4031C21.4129 103.583 22.7028 106.691 24.9902 108.981C27.2776 111.271 30.3758 112.557 33.6058 112.557V118.302Z" fill="#EA06D3"/>
</svg>
