<svg width="112" height="67" viewBox="0 0 112 67" fill="none" xmlns="http://www.w3.org/2000/svg">
<g id="Group 162">
<rect id="Rectangle 131" y="0.392578" width="111.604" height="66.2056" rx="17.6359" fill="#39BFBF"/>
<path id="&#226;&#134;&#179; Icon Color" d="M38.0259 35.5156C40.6246 33.1774 44.9024 33.1727 47.8605 35.5662L48.1555 35.8169C51.3577 38.673 51.6859 42.8776 49.1657 45.2225C46.8159 47.4088 43.6462 47.9136 40.2212 47.0394C36.7921 46.1642 33.1261 43.9086 29.8392 40.6066C26.4781 37.23 24.2019 33.6081 23.3312 30.2198C22.4625 26.839 22.993 23.7 25.2309 21.2379C27.4559 18.7898 31.7946 18.8661 34.6944 22.3308C37.2019 25.3268 37.2596 29.711 34.9851 32.3316L34.9842 32.3306L34.8025 32.5272L34.6929 32.6457L34.8487 32.7952L34.7954 32.8402L34.9902 33.0708L34.9901 33.0709L34.9916 33.0725C35.1068 33.2064 35.2372 33.3537 35.3834 33.5139L35.3834 33.5139L35.3857 33.5163L35.8685 34.0306L35.8684 34.0306L35.8723 34.0345L36.3406 34.5105L36.3406 34.5105L36.3424 34.5124C36.8089 34.9761 37.1965 35.3298 37.4962 35.5851L37.4973 35.586L37.5756 35.652L37.7364 35.7874L37.8897 35.6435L38.0259 35.5156ZM33.0206 30.979L33.0207 30.9791L33.0259 30.9738C34.6186 29.3738 34.8106 26.1478 32.8842 23.8461C30.5521 21.0598 27.8763 21.8372 26.9777 22.8259C25.1806 24.8032 24.9402 27.4609 25.8282 30.2915C26.7153 33.1191 28.7345 36.1504 31.5123 38.941C34.293 41.7345 37.3803 43.7101 40.2286 44.5743C43.075 45.4379 45.724 45.2002 47.5577 43.494C48.8159 42.3233 49.015 39.7456 46.5826 37.5774C44.3681 35.6034 41.1241 35.7357 39.4429 37.4247L39.4429 37.4246L39.4395 37.4281C39.3441 37.5281 39.2518 37.6323 39.1647 37.7308C39.1335 37.766 39.103 37.8005 39.0732 37.8338C38.9572 37.9636 38.8485 38.0796 38.7363 38.1777C38.5165 38.3699 38.2957 38.4826 38.0084 38.4768C37.7088 38.4707 37.2995 38.3351 36.7109 37.9388C36.1247 37.5441 35.3818 36.9052 34.4194 35.9265C33.5273 35.0193 32.926 34.3136 32.539 33.7534C32.1501 33.1906 31.9906 32.7928 31.956 32.4991C31.9233 32.2202 32.0009 32.0162 32.1454 31.8241C32.2717 31.6561 32.4393 31.5078 32.6376 31.3324C32.6845 31.2909 32.7331 31.2478 32.7833 31.2027L32.7834 31.2027L32.7874 31.1989L33.0206 30.979Z" fill="white" stroke="#39BFBF" stroke-width="0.472897"/>
<path id="Vector 31" d="M73.772 29.7122L81.8112 37.7514L89.8505 29.7122" stroke="white" stroke-width="1.53129" stroke-linecap="round"/>
</g>
</svg>
