<svg width="46" height="46" viewBox="0 0 46 46" fill="none" xmlns="http://www.w3.org/2000/svg">
<g id="i_chain">
<rect width="46" height="46" rx="10" fill="#39BFBF"/>
<path id="&#226;&#134;&#179; Icon Color" fill-rule="evenodd" clip-rule="evenodd" d="M24.9807 12.719C27.2728 10.427 30.9889 10.427 33.281 12.719C35.573 15.0111 35.573 18.7272 33.281 21.0193L31.8523 22.448C31.3834 22.9168 30.6233 22.9168 30.1545 22.448C29.6857 21.9791 29.6857 21.219 30.1545 20.7502L31.5832 19.3215C32.9376 17.9671 32.9376 15.7712 31.5832 14.4168C30.2288 13.0624 28.0329 13.0624 26.6785 14.4168L21.9625 19.1328C20.6081 20.4872 20.6081 22.6831 21.9625 24.0375C22.4313 24.5064 22.4313 25.2665 21.9625 25.7353C21.4936 26.2041 20.7335 26.2041 20.2647 25.7353C17.9727 23.4433 17.9727 19.7271 20.2647 17.4351L24.9807 12.719ZM24.0375 20.2647C24.5064 19.7959 25.2665 19.7959 25.7353 20.2647C28.0273 22.5567 28.0273 26.2729 25.7353 28.5649L21.0193 33.281C18.7272 35.573 15.0111 35.573 12.719 33.281C10.427 30.9889 10.427 27.2728 12.719 24.9807L14.2148 23.485C14.6836 23.0162 15.4437 23.0162 15.9125 23.485C16.3814 23.9538 16.3814 24.7139 15.9125 25.1828L14.4168 26.6785C13.0624 28.0329 13.0624 30.2288 14.4168 31.5832C15.7712 32.9376 17.9671 32.9376 19.3215 31.5832L24.0375 26.8672C25.3919 25.5128 25.3919 23.3169 24.0375 21.9625C23.5687 21.4936 23.5687 20.7335 24.0375 20.2647Z" fill="white"/>
</g>
</svg>
