<svg width="44" height="44" viewBox="0 0 44 44" fill="none" xmlns="http://www.w3.org/2000/svg">
<rect y="0.0385742" width="43.3462" height="43.3462" rx="9.42308" fill="#39BFBF"/>
<path d="M22.6136 23.3567C24.6658 21.5106 28.0488 21.5044 30.3903 23.3986L30.6245 23.5977C33.1622 25.8614 33.4111 29.1798 31.4286 31.0245C29.5704 32.7534 27.0619 33.1554 24.3431 32.4615C21.6203 31.7665 18.7054 29.9742 16.0899 27.3466C13.4147 24.6591 11.6061 21.7793 10.9149 19.0893C10.2256 16.4067 10.6473 13.9221 12.4182 11.9737C14.1685 10.048 17.5932 10.0988 19.8902 12.8433C21.8684 15.2069 21.9178 18.6577 20.1428 20.7297L19.9779 20.9081L19.8905 21.0026L20.0487 21.1543L19.9708 21.22L20.126 21.4038L20.126 21.4039L20.1275 21.4055C20.2196 21.5126 20.3238 21.6304 20.4407 21.7584L20.4407 21.7584L20.4429 21.7608L20.8278 22.1706L20.8277 22.1707L20.8316 22.1746L21.2048 22.554L21.2048 22.554L21.2067 22.5558C21.5792 22.9262 21.889 23.2089 22.1289 23.4133L22.13 23.4142L22.1924 23.4668L22.3527 23.6017L22.5054 23.4583L22.6136 23.3567ZM18.6245 19.7404L18.6246 19.7405L18.6299 19.7352C19.9187 18.4404 20.0686 15.8414 18.5196 13.9907C16.643 11.7485 14.4768 12.3663 13.7409 13.176C12.2935 14.7684 12.1036 16.9061 12.8146 19.1723C13.5246 21.4355 15.1392 23.8578 17.3566 26.0855C19.5769 28.316 22.0441 29.8957 24.3237 30.5874C26.6012 31.2784 28.7326 31.0914 30.2111 29.7158C31.2395 28.7589 31.3869 26.6718 29.4332 24.9303C27.6514 23.342 25.0373 23.4446 23.6777 24.8104L23.6777 24.8104L23.6743 24.8139C23.5976 24.8943 23.5232 24.9784 23.4535 25.0571C23.4288 25.085 23.4047 25.1122 23.3814 25.1384C23.2891 25.2415 23.204 25.3322 23.1169 25.4084C22.9472 25.5568 22.7822 25.6395 22.5687 25.6351C22.343 25.6306 22.0257 25.528 21.5599 25.2144C21.0964 24.9023 20.5068 24.3956 19.7407 23.6166C19.0305 22.8943 18.5533 22.334 18.2471 21.8907C17.939 21.4448 17.8167 21.1352 17.7905 20.9122C17.766 20.704 17.8231 20.5533 17.9323 20.408C18.0298 20.2783 18.159 20.164 18.3165 20.0246C18.3543 19.9912 18.3936 19.9563 18.4346 19.9195L18.4346 19.9195L18.4387 19.9157L18.6245 19.7404Z" fill="white" stroke="#39BFBF" stroke-width="0.471154"/>
</svg>
