<svg width="30" height="29" viewBox="0 0 30 29" fill="none" xmlns="http://www.w3.org/2000/svg">
<path d="M16.0259 16.5156C18.6246 14.1774 22.9024 14.1727 25.8605 16.5662L26.1555 16.8169C29.3577 19.673 29.6859 23.8776 27.1657 26.2225C24.8159 28.4088 21.6462 28.9136 18.2212 28.0394C14.7921 27.1642 11.1261 24.9086 7.83925 21.6066C4.4781 18.23 2.20188 14.6081 1.33124 11.2198C0.462496 7.83896 0.993033 4.7 3.23085 2.23789C5.45593 -0.21019 9.79464 -0.133875 12.6944 3.33079C15.2019 6.3268 15.2596 10.711 12.9851 13.3316L12.9842 13.3306L12.8025 13.5272L12.6929 13.6457L12.8487 13.7952L12.7954 13.8402L12.9902 14.0708L12.9901 14.0709L12.9916 14.0725C13.1068 14.2064 13.2372 14.3537 13.3834 14.5139L13.3834 14.5139L13.3857 14.5163L13.8685 15.0306L13.8684 15.0306L13.8723 15.0345L14.3406 15.5105L14.3406 15.5105L14.3424 15.5124C14.8089 15.9761 15.1965 16.3298 15.4962 16.5851L15.4973 16.586L15.5756 16.652L15.7364 16.7874L15.8897 16.6435L16.0259 16.5156ZM11.0206 11.979L11.0207 11.9791L11.0259 11.9738C12.6186 10.3738 12.8106 7.14783 10.8842 4.84614C8.55212 2.05981 5.87634 2.83722 4.97772 3.8259C3.18056 5.80319 2.9402 8.4609 3.82824 11.2915C4.71532 14.1191 6.73448 17.1504 9.51228 19.941C12.293 22.7345 15.3803 24.7101 18.2286 25.5743C21.075 26.4379 23.724 26.2002 25.5577 24.494C26.8159 23.3233 27.015 20.7456 24.5826 18.5774C22.3681 16.6034 19.1241 16.7357 17.4429 18.4247L17.4429 18.4246L17.4395 18.4281C17.3441 18.5281 17.2518 18.6323 17.1647 18.7308C17.1335 18.766 17.103 18.8005 17.0732 18.8338C16.9572 18.9636 16.8485 19.0796 16.7363 19.1777C16.5165 19.3699 16.2957 19.4826 16.0084 19.4768C15.7088 19.4707 15.2995 19.3351 14.7109 18.9388C14.1247 18.5441 13.3818 17.9052 12.4194 16.9265C11.5273 16.0193 10.926 15.3136 10.539 14.7534C10.1501 14.1906 9.99055 13.7928 9.95603 13.4991C9.92325 13.2202 10.0009 13.0162 10.1454 12.8241C10.2717 12.6561 10.4393 12.5078 10.6376 12.3324C10.6845 12.2909 10.7331 12.2478 10.7833 12.2027L10.7834 12.2027L10.7874 12.1989L11.0206 11.979Z" fill="white" stroke="#39BFBF" stroke-width="0.472897"/>
</svg>
