<svg width="46" height="46" viewBox="0 0 46 46" fill="none" xmlns="http://www.w3.org/2000/svg">
<g id="i_telegram">
<rect width="46" height="46" rx="10" fill="#39BFBF"/>
<path id="Path-3" fill-rule="evenodd" clip-rule="evenodd" d="M10.8561 21.9014C18.1039 18.6555 22.9368 16.5157 25.355 15.4818C32.2594 12.5299 33.6941 12.0171 34.6292 12.0002C34.8349 11.9965 35.2947 12.0488 35.5926 12.2973C35.8441 12.5071 35.9133 12.7905 35.9464 12.9894C35.9795 13.1883 36.0208 13.6414 35.988 13.9954C35.6138 18.0363 33.9949 27.8426 33.1713 32.3686C32.8228 34.2836 32.1365 34.9258 31.4722 34.9886C30.0284 35.1252 28.9321 34.0078 27.5337 33.0656C25.3455 31.5912 24.1094 30.6734 21.9854 29.2347C19.5307 27.572 21.122 26.6581 22.5209 25.1646C22.887 24.7738 29.2483 18.8262 29.3714 18.2867C29.3868 18.2192 29.4011 17.9677 29.2557 17.8349C29.1103 17.7021 28.8958 17.7475 28.7409 17.7836C28.5215 17.8348 25.0259 20.2097 18.2541 24.9084C17.2618 25.6088 16.3631 25.95 15.5579 25.9321C14.6702 25.9124 12.9626 25.4162 11.6932 24.9921C10.1362 24.4718 8.89879 24.1968 9.00654 23.3133C9.06267 22.8531 9.67919 22.3824 10.8561 21.9014Z" fill="white"/>
</g>
</svg>
