<svg width="607" height="307" viewBox="0 0 607 307" fill="none" xmlns="http://www.w3.org/2000/svg">
<path d="M32.8859 29.2061C29.9059 27.0775 25.8617 25.8004 22.0303 25.2683L21.9239 44.5316C35.653 42.8287 35.653 36.1238 35.653 33.3567C35.653 31.6539 34.163 30.1639 32.8859 29.2061ZM21.8174 57.7285L21.4982 96.5744L3.19269 96.468L3.83125 12.1777H14.2611C15.7511 11.9649 17.2411 11.8585 18.8375 11.8585C26.3938 11.8585 34.8015 14.3063 40.655 18.6698C45.87 22.6076 48.7435 27.8225 48.7435 33.3567C48.7435 40.168 45.9764 55.2807 21.8174 57.7285ZM85.9015 96.3615C85.3694 93.5944 82.8151 82.3132 81.7508 77.7368H60.9976L56.3148 97.0001H41.415L63.7647 12.0713H85.4758L104.739 96.1487L85.9015 96.3615ZM65.5739 59.2185H77.7066L72.2788 31.3346L65.5739 59.2185ZM128.022 24.8426L128.235 52.4072C142.283 53.7907 154.629 60.9213 154.629 76.1404C154.629 89.9759 137.281 97.3194 125.361 97.1065C121.743 97.1065 115.144 97.1065 110.674 97.0001C110.461 75.7147 110.036 21.5433 110.036 12.0713C119.188 12.0713 137.494 11.9649 146.753 12.0713C146.647 15.3705 146.647 21.8626 146.753 24.8426C142.07 24.949 130.895 25.0554 128.022 24.8426ZM138.984 80.1846C140.261 79.3332 141.751 77.8432 141.751 76.1404C141.751 75.9275 141.644 66.8812 128.341 65.1784L128.447 84.1224C132.172 83.5903 136.217 82.3132 138.984 80.1846ZM197.279 55.6V55.7064C197.173 47.6179 196.428 39.5295 194.512 32.6117C193.554 29.2061 192.171 26.1197 190.574 24.5233C189.084 22.9269 187.914 22.1819 184.827 22.0754H183.763H182.486C181.634 22.0754 180.889 22.0754 180.357 22.1819C179.293 22.3947 178.867 22.5012 178.335 22.9269C177.803 23.2461 177.058 24.0976 176.419 25.2683C175.674 26.5454 175.036 28.1418 174.61 29.7382C172.588 36.656 171.843 44.9573 171.737 53.0457C171.63 61.1342 172.162 69.3291 174.185 76.2468C175.249 79.6525 176.739 82.7389 178.442 84.4417C180.144 86.1445 181.528 86.6767 183.976 86.996C184.082 86.996 184.295 86.996 184.402 86.996H184.934H185.359C185.466 86.996 185.679 86.996 185.785 86.996C186.211 86.996 186.636 86.8895 186.956 86.7831C187.701 86.5702 188.339 86.1445 189.084 85.506C190.681 84.016 192.384 81.2489 193.554 78.0561C196.002 71.4576 197.066 63.582 197.279 55.6ZM211.008 55.7064C211.008 60.0699 211.008 64.5398 210.583 69.0098C210.263 73.5861 209.625 78.1625 208.135 82.8453C206.751 87.5281 204.729 92.5302 200.259 97.0001C198.131 99.1286 195.151 101.044 191.851 102.108C190.255 102.534 188.552 102.853 186.849 102.96C186.53 103.066 186.104 103.066 185.679 103.066H185.04H184.614L183.55 102.96L182.379 102.853C179.506 102.641 176.313 101.789 173.546 100.193C170.672 98.5965 168.225 96.5744 166.415 94.1266C162.797 89.3374 161.307 84.2289 160.455 79.5461C159.498 74.8633 159.178 70.3933 158.965 65.9234C158.859 61.5599 158.859 57.1964 158.859 52.9393C158.965 48.5758 158.965 44.3187 159.178 39.9552C159.391 35.4853 159.817 31.0153 160.775 26.3325C161.307 23.9911 161.945 21.5433 163.116 18.9891C164.18 16.4348 165.883 13.6677 168.544 11.3263C171.205 8.98493 174.823 7.49495 177.803 7.06925C179.293 6.74996 180.677 6.64354 181.954 6.64354L182.912 6.53711H183.869C184.508 6.53711 185.146 6.64354 185.891 6.64354C188.552 6.85639 191.532 7.38852 194.619 8.66565C197.492 10.0492 200.259 12.1777 202.175 14.5191C206.113 19.3083 207.815 24.3104 208.88 28.8868C211.008 38.2524 211.008 46.9794 211.008 55.7064ZM261.271 11.8585V29.7382H246.797V97.0001H230.62V29.7382H215.294V11.8585H261.271ZM299.483 96.3615C298.951 93.5944 296.397 82.3132 295.333 77.7368H274.579L269.897 97.0001H254.997L277.346 12.0713H299.058L318.321 96.1487L299.483 96.3615ZM279.156 59.2185H291.288L285.861 31.3346L279.156 59.2185ZM50.2335 196.442H55.2355V209.213V220.813H43.1029L41.1872 209.213H13.6226V220.813H2.12842V209.213V196.442H10.1105C11.6004 195.164 13.3033 191.759 14.6868 182.925C16.0704 173.985 17.7732 148.656 18.0925 136.842L18.5182 123.858L43.9543 124.603H50.2335V196.442ZM29.2673 142.483C28.5224 155.574 27.2452 176.327 25.9681 184.735C25.436 187.927 24.7974 192.291 23.3074 196.442H36.5044V142.696L29.2673 142.483ZM98.1323 124.603L108.456 124.39C108.137 145.463 108.349 187.821 108.456 209L90.576 209.106V143.441L83.0197 143.228C82.2747 156.744 80.8911 178.136 79.614 186.863C78.2304 195.484 75.6762 211.554 60.4571 211.554L58.435 196.867C62.2664 195.59 65.3528 193.781 66.9492 185.054C68.5456 175.795 70.142 149.507 70.4613 137.268L70.887 123.858L98.1323 124.603ZM160.793 208.787L142.381 208.894L142.168 181.648L124.076 212.299L112.688 205.701L134.612 168.664C117.264 164.088 115.029 151.529 115.029 145.463C115.029 139.822 117.903 134.607 123.224 130.67C130.248 125.455 141.104 122.901 149.725 124.178L160.154 124.071L160.793 208.787ZM128.226 145.463C128.226 148.23 128.226 155.041 141.955 156.744L141.849 137.268C138.018 137.8 133.973 139.077 130.993 141.312C129.716 142.27 128.226 143.76 128.226 145.463ZM236.534 144.824C234.299 142.27 233.448 137.907 226.956 137.907C220.464 137.907 213.12 151.742 213.12 167.281C213.12 181.542 216.632 188.46 222.273 188.46C230.042 188.46 231.745 185.905 234.299 176.753C238.237 178.562 241.643 179.413 245.155 181.542C243.878 197.932 235.257 210.384 223.124 210.384C210.992 210.384 195.028 196.229 195.028 166.003C195.028 135.778 214.504 122.794 229.191 122.794C229.191 122.794 240.791 122.794 246.432 137.055L236.534 144.824ZM295.569 123.858V141.738H281.095V209H264.918V141.738H249.592V123.858H295.569ZM298.727 123.858H311.924L325.015 150.146L334.487 123.858H353.431L319.694 209H300.75L316.82 165.791L298.727 123.858ZM391.029 196.442H396.031V209.213V220.813H383.898L381.983 209.213H354.418V220.813H342.924V209.213V196.442H350.906C352.396 195.164 354.099 191.759 355.482 182.925C356.866 173.985 358.569 148.656 358.888 136.842L359.314 123.858L384.75 124.603H391.029V196.442ZM370.063 142.483C369.318 155.574 368.041 176.327 366.763 184.735C366.231 187.927 365.593 192.291 364.103 196.442H377.3V142.696L370.063 142.483ZM445.845 138.652H418.174V152.274H443.291V167.068H418.813L418.174 191.546H445.845V209H418.174H401.359V191.546V167.068V152.274V138.652V123.858H418.174H445.845V138.652ZM480.279 123.858H494.966V211.022H480.279V174.411H467.401L466.869 208.787L452.182 208.574L453.353 124.178L468.04 124.39L467.614 154.829H480.279V123.858Z" fill="black"/>
<path d="M547.105 123.858V141.738H532.631V209H516.454V141.738H501.129V123.858H547.105ZM585.317 208.361C584.785 205.594 582.231 194.313 581.167 189.737H560.413L555.731 209H540.831L563.181 124.071H584.892L604.155 208.149L585.317 208.361ZM564.99 171.218H577.122L571.695 143.335L564.99 171.218Z" fill="black"/>
<path d="M16.9595 254.139C31.1772 253.865 45.0543 249.435 59.3867 249.159" stroke="#39BFBF" stroke-width="5.40132" stroke-linecap="round"/>
<path d="M479.923 225.217C481.836 232.041 480.453 238.458 476.901 244.538C472.529 251.95 465.747 256.117 457.319 257.685C453.29 258.324 449.433 258.114 445.795 254.517C445.836 261.752 446.576 271.136 442.275 277.324C441.408 276.213 440.55 275.571 440.44 274.727C439.725 271.64 438.632 268.465 438.576 265.459C437.818 250.061 437.39 232.215 437.104 216.902C437.081 215.681 437.053 214.178 437.598 213.134C438.585 210.672 440.741 210.35 442.747 212.098C443.126 212.279 443.223 212.465 443.511 212.742C443.606 212.834 443.89 212.923 444.173 213.011C448.176 210.963 452.476 209.755 457.074 209.387C467.684 208.907 477.107 215.309 479.923 225.217ZM473.142 234.459C474.613 227.666 472.056 221.605 466.445 218.045C460.547 214.209 450.529 216.181 445.991 219.743C444.789 220.799 444.624 222.024 444.65 223.433C444.994 231.79 445.243 240.055 445.679 248.317C445.691 248.974 445.798 249.63 445.812 250.382C446.377 250.465 446.662 250.648 447.132 250.639C449.387 250.597 451.831 250.645 454.178 250.507C463.563 249.862 471.054 243.426 473.142 234.459ZM506.326 222.092C504.76 223.813 503.294 225.814 502.299 227.9C498.23 236.434 496.892 245.292 499.508 254.547C500.219 257.352 501.588 260.24 503.699 262.55C506.763 265.594 510.535 266.275 514.259 264.42C516.96 263.148 518.804 261.234 520.646 259.226C522.49 257.312 524.525 255.582 526.558 253.759C527.019 253.28 527.769 253.173 528.885 252.588C529.518 256.241 529.386 259.251 527.746 262.006C524.551 267.047 520.015 270.702 514.125 272.316C508.514 273.831 503.6 272.325 499.299 268.458C495.283 264.775 493.128 260.116 491.997 254.875C489.434 243.458 491.111 232.62 496.841 222.458C499.839 216.951 504.183 213.017 510.64 211.581C516.723 210.245 522.106 211.648 526.33 216.456C527.674 217.934 528.558 219.985 529.438 221.848C529.733 222.501 529.75 223.44 529.575 224.101C529.401 224.856 528.762 225.902 528.204 226.194C527.642 226.299 526.504 225.756 525.927 225.015C524.114 223.545 522.295 221.794 520.296 220.422C515.541 217.409 510.197 218.073 506.326 222.092ZM578.794 217.731C582.37 223.02 583.989 229.192 583.639 235.589C583.341 244.804 580.585 253.219 575.839 260.731C573.648 264.155 571.168 267.209 567.92 269.431C560.126 274.745 551.54 272.932 546.405 264.665C544.273 261.228 543.354 257.298 542.435 253.368C541.911 250.465 541.481 247.56 540.861 244.564C538.298 233.147 543.586 219.422 553.149 213.229C556.301 210.915 560.041 209.905 565.02 209.812C570.187 209.716 575.123 212.349 578.794 217.731ZM576.806 237.032C577.172 231.481 576.23 226.33 573.515 221.87C571.282 218.059 568.239 216.142 564.2 216.218C560.442 216.288 556.99 217.574 554.421 220.911C552.954 222.912 551.4 225.197 550.125 227.382C549.036 229.47 547.946 231.463 548.934 234.076C549.135 234.73 548.869 235.581 548.601 236.338C548.646 238.78 548.504 241.226 548.451 243.389C548.59 245.829 548.627 247.802 548.854 249.865C549.493 253.894 550.132 257.923 552.077 261.458C555.279 266.848 559.526 267.802 564.438 264.14C565.826 262.986 567.211 261.645 568.496 260.023C573.352 253.354 576.12 245.597 576.806 237.032Z" fill="#39BFBF"/>
<mask id="mask0_29_137" style="mask-type:luminance" maskUnits="userSpaceOnUse" x="434" y="204" width="154" height="78">
<path d="M587.518 204.656H434.161V281.484H587.518V204.656Z" fill="white"/>
<path d="M479.923 225.217C481.836 232.041 480.453 238.458 476.901 244.538C472.529 251.95 465.747 256.117 457.319 257.685C453.29 258.324 449.433 258.114 445.795 254.517C445.836 261.752 446.576 271.136 442.275 277.324C441.408 276.213 440.55 275.571 440.44 274.727C439.725 271.64 438.632 268.465 438.576 265.459C437.818 250.061 437.39 232.215 437.104 216.902C437.081 215.681 437.053 214.178 437.598 213.134C438.585 210.672 440.741 210.35 442.747 212.098C443.126 212.279 443.223 212.465 443.511 212.742C443.606 212.834 443.89 212.923 444.173 213.011C448.176 210.963 452.476 209.755 457.074 209.387C467.684 208.907 477.107 215.309 479.923 225.217ZM473.142 234.459C474.613 227.666 472.056 221.605 466.445 218.045C460.547 214.209 450.529 216.181 445.991 219.743C444.789 220.799 444.624 222.024 444.65 223.433C444.994 231.79 445.243 240.055 445.679 248.317C445.691 248.974 445.798 249.63 445.812 250.382C446.377 250.465 446.662 250.648 447.132 250.639C449.387 250.597 451.831 250.645 454.178 250.507C463.563 249.862 471.054 243.426 473.142 234.459ZM506.326 222.092C504.76 223.813 503.294 225.814 502.299 227.9C498.23 236.434 496.892 245.292 499.508 254.547C500.219 257.352 501.588 260.24 503.699 262.55C506.763 265.594 510.535 266.275 514.259 264.42C516.96 263.148 518.804 261.234 520.646 259.226C522.49 257.312 524.525 255.582 526.558 253.759C527.019 253.28 527.769 253.173 528.885 252.588C529.518 256.241 529.386 259.251 527.746 262.006C524.551 267.047 520.015 270.702 514.125 272.316C508.514 273.831 503.6 272.325 499.299 268.458C495.283 264.775 493.128 260.116 491.997 254.875C489.434 243.458 491.111 232.62 496.841 222.458C499.839 216.951 504.183 213.017 510.64 211.581C516.723 210.245 522.106 211.648 526.33 216.456C527.674 217.934 528.558 219.985 529.438 221.848C529.733 222.501 529.75 223.44 529.575 224.101C529.401 224.856 528.762 225.902 528.204 226.194C527.642 226.299 526.504 225.756 525.927 225.015C524.114 223.545 522.295 221.794 520.296 220.422C515.541 217.409 510.197 218.073 506.326 222.092ZM578.794 217.731C582.37 223.02 583.989 229.192 583.639 235.589C583.341 244.804 580.585 253.219 575.839 260.731C573.648 264.155 571.168 267.209 567.92 269.431C560.126 274.745 551.54 272.932 546.405 264.665C544.273 261.228 543.354 257.298 542.435 253.368C541.911 250.465 541.481 247.56 540.861 244.564C538.298 233.147 543.586 219.422 553.149 213.229C556.301 210.915 560.041 209.905 565.02 209.812C570.187 209.716 575.123 212.349 578.794 217.731ZM576.806 237.032C577.172 231.481 576.23 226.33 573.515 221.87C571.282 218.059 568.239 216.142 564.2 216.218C560.442 216.288 556.99 217.574 554.421 220.911C552.954 222.912 551.4 225.197 550.125 227.382C549.036 229.47 547.946 231.463 548.934 234.076C549.135 234.73 548.869 235.581 548.601 236.338C548.646 238.78 548.504 241.226 548.451 243.389C548.59 245.829 548.627 247.802 548.854 249.865C549.493 253.894 550.132 257.923 552.077 261.458C555.279 266.848 559.526 267.802 564.438 264.14C565.826 262.986 567.211 261.645 568.496 260.023C573.352 253.354 576.12 245.597 576.806 237.032Z" fill="black"/>
</mask>
<g mask="url(#mask0_29_137)">
<path d="M479.923 225.217L481.849 224.677L481.847 224.67L479.923 225.217ZM476.901 244.538L478.624 245.554L478.629 245.547L476.901 244.538ZM457.319 257.685L457.632 259.66L457.658 259.656L457.685 259.651L457.319 257.685ZM445.795 254.517L447.201 253.095L443.768 249.7L443.795 254.528L445.795 254.517ZM442.275 277.324L440.697 278.554L442.367 280.696L443.917 278.466L442.275 277.324ZM440.44 274.727L442.424 274.469L442.411 274.372L442.389 274.276L440.44 274.727ZM438.576 265.459L440.575 265.421V265.391L440.573 265.36L438.576 265.459ZM437.598 213.134L439.371 214.059L439.417 213.971L439.454 213.879L437.598 213.134ZM442.747 212.098L441.433 213.606L441.639 213.786L441.886 213.903L442.747 212.098ZM444.173 213.011L443.576 214.92L444.357 215.164L445.084 214.792L444.173 213.011ZM457.074 209.387L456.983 207.389L456.949 207.391L456.914 207.393L457.074 209.387ZM473.142 234.459L475.09 234.913L475.094 234.898L475.097 234.882L473.142 234.459ZM466.445 218.045L465.355 219.722L465.364 219.728L465.374 219.734L466.445 218.045ZM445.991 219.743L444.756 218.17L444.712 218.204L444.671 218.241L445.991 219.743ZM444.65 223.433L442.65 223.471L442.651 223.493L442.652 223.516L444.65 223.433ZM445.679 248.317L447.679 248.28L447.678 248.245L447.676 248.211L445.679 248.317ZM445.812 250.382L443.812 250.419L443.844 252.113L445.52 252.36L445.812 250.382ZM454.178 250.507L454.295 252.504L454.305 252.503H454.315L454.178 250.507ZM477.998 225.757C479.733 231.949 478.517 237.807 475.174 243.53L478.629 245.547C482.389 239.108 483.94 232.134 481.849 224.677L477.998 225.757ZM475.179 243.522C471.143 250.363 464.902 254.24 456.953 255.718L457.685 259.651C466.593 257.994 473.915 253.537 478.624 245.554L475.179 243.522ZM457.006 255.709C455.107 256.01 453.416 256.082 451.839 255.736C450.301 255.398 448.762 254.638 447.201 253.095L444.389 255.939C446.466 257.993 448.675 259.136 450.982 259.643C453.25 260.141 455.502 259.998 457.632 259.66L457.006 255.709ZM443.795 254.528C443.816 258.259 444.008 262.239 443.671 266.141C443.335 270.024 442.491 273.508 440.632 276.183L443.917 278.466C446.359 274.951 447.296 270.649 447.656 266.485C448.014 262.339 447.815 258.01 447.795 254.506L443.795 254.528ZM443.852 276.095C443.595 275.766 443.346 275.479 443.133 275.24C442.905 274.983 442.752 274.816 442.612 274.647C442.316 274.291 442.401 274.293 442.424 274.469L438.457 274.985C438.59 276.005 439.158 276.75 439.536 277.204C439.732 277.44 439.962 277.694 440.143 277.896C440.338 278.116 440.52 278.327 440.697 278.554L443.852 276.095ZM442.389 274.276C442.203 273.472 441.993 272.669 441.79 271.892C441.584 271.107 441.385 270.351 441.207 269.6C440.848 268.092 440.599 266.71 440.575 265.421L436.576 265.496C436.608 267.213 436.934 268.922 437.315 270.525C437.506 271.329 437.718 272.134 437.92 272.906C438.125 273.687 438.321 274.438 438.492 275.179L442.389 274.276ZM440.573 265.36C439.817 249.995 439.39 232.174 439.104 216.865L435.105 216.94C435.391 232.255 435.819 250.128 436.578 265.557L440.573 265.36ZM439.104 216.865C439.092 216.237 439.083 215.662 439.13 215.128C439.179 214.581 439.274 214.244 439.371 214.059L435.824 212.209C435.377 213.068 435.214 214.005 435.146 214.776C435.077 215.559 435.093 216.347 435.105 216.94L439.104 216.865ZM439.454 213.879C439.773 213.084 440.103 213.014 440.156 213.004C440.269 212.983 440.712 212.978 441.433 213.606L444.061 210.59C442.775 209.471 441.138 208.753 439.425 209.071C437.651 209.401 436.41 210.723 435.741 212.389L439.454 213.879ZM441.886 213.903C441.888 213.904 441.866 213.894 441.833 213.871C441.818 213.86 441.804 213.849 441.793 213.84C441.782 213.83 441.776 213.824 441.776 213.824C441.784 213.833 441.796 213.845 441.864 213.917C441.922 213.98 442.012 214.075 442.123 214.182L444.898 211.301C444.866 211.27 444.835 211.238 444.783 211.182C444.74 211.137 444.65 211.039 444.551 210.944C444.305 210.707 444.011 210.485 443.608 210.293L441.886 213.903ZM442.123 214.182C442.356 214.407 442.595 214.535 442.707 214.592C442.841 214.661 442.969 214.712 443.064 214.748C443.248 214.818 443.451 214.881 443.576 214.92L444.77 211.102C444.697 211.079 444.639 211.061 444.585 211.044C444.532 211.026 444.499 211.015 444.479 211.007C444.456 210.998 444.477 211.005 444.523 211.028C444.547 211.041 444.592 211.065 444.649 211.102C444.703 211.138 444.795 211.202 444.898 211.301L442.123 214.182ZM445.084 214.792C448.847 212.866 452.891 211.728 457.233 211.381L456.914 207.393C452.061 207.782 447.505 209.06 443.262 211.231L445.084 214.792ZM457.164 211.385C466.92 210.943 475.456 216.816 478 225.764L481.847 224.67C478.758 213.802 468.448 206.87 456.983 207.389L457.164 211.385ZM475.097 234.882C476.741 227.287 473.851 220.375 467.517 216.357L465.374 219.734C470.261 222.835 472.484 228.045 471.187 234.036L475.097 234.882ZM467.536 216.369C464.048 214.1 459.537 213.644 455.469 214.134C451.395 214.625 447.382 216.109 444.756 218.17L447.226 221.317C449.137 219.816 452.402 218.533 455.947 218.106C459.497 217.678 462.944 218.154 465.355 219.722L467.536 216.369ZM444.671 218.241C442.799 219.885 442.62 221.865 442.65 223.471L446.65 223.396C446.627 222.184 446.778 221.714 447.311 221.246L444.671 218.241ZM442.652 223.516C442.995 231.842 443.245 240.147 443.682 248.422L447.676 248.211C447.241 239.964 446.994 231.739 446.648 223.351L442.652 223.516ZM443.679 248.354C443.687 248.765 443.724 249.166 443.752 249.489C443.783 249.832 443.806 250.121 443.812 250.419L447.811 250.344C447.803 249.891 447.767 249.476 447.737 249.139C447.706 248.782 447.683 248.526 447.679 248.28L443.679 248.354ZM445.52 252.36C445.651 252.38 445.717 252.402 445.979 252.474C446.235 252.544 446.645 252.649 447.17 252.639L447.095 248.639C447.15 248.638 447.182 248.656 447.036 248.616C446.898 248.578 446.537 248.467 446.104 248.403L445.52 252.36ZM447.17 252.639C449.311 252.599 451.901 252.645 454.295 252.504L454.06 248.511C451.76 248.646 449.462 248.595 447.095 248.639L447.17 252.639ZM454.315 252.503C464.574 251.797 472.802 244.738 475.09 234.913L471.194 234.006C469.306 242.113 462.552 247.927 454.04 248.512L454.315 252.503ZM506.326 222.092L504.885 220.705L504.865 220.725L504.846 220.747L506.326 222.092ZM499.508 254.547L501.447 254.056L501.441 254.029L501.433 254.002L499.508 254.547ZM503.699 262.55L502.222 263.899L502.255 263.935L502.289 263.969L503.699 262.55ZM514.259 264.42L513.407 262.61L513.387 262.62L513.367 262.63L514.259 264.42ZM520.646 259.226L519.205 257.838L519.189 257.856L519.172 257.874L520.646 259.226ZM526.558 253.759L527.893 255.248L527.948 255.199L527.998 255.147L526.558 253.759ZM528.885 252.588L530.856 252.247L530.388 249.543L527.958 250.816L528.885 252.588ZM527.746 262.006L529.435 263.077L529.45 263.053L529.465 263.029L527.746 262.006ZM514.125 272.316L514.646 274.247L514.653 274.245L514.125 272.316ZM499.299 268.458L497.947 269.932L497.954 269.939L497.962 269.946L499.299 268.458ZM491.997 254.875L493.952 254.453L493.95 254.445L493.948 254.437L491.997 254.875ZM496.841 222.458L498.583 223.44L498.591 223.427L498.598 223.414L496.841 222.458ZM510.64 211.581L510.211 209.627L510.206 209.628L510.64 211.581ZM526.33 216.456L524.828 217.776L524.839 217.789L524.85 217.801L526.33 216.456ZM529.438 221.848L531.262 221.026L531.254 221.01L531.247 220.994L529.438 221.848ZM529.575 224.101L527.642 223.588L527.633 223.62L527.625 223.652L529.575 224.101ZM528.204 226.194L528.57 228.16L528.865 228.105L529.132 227.966L528.204 226.194ZM525.927 225.015L527.504 223.785L527.364 223.605L527.186 223.461L525.927 225.015ZM520.296 220.422L521.428 218.773L521.398 218.752L521.367 218.732L520.296 220.422ZM504.846 220.747C503.191 222.566 501.596 224.728 500.494 227.039L504.105 228.761C504.992 226.9 506.33 225.06 507.805 223.438L504.846 220.747ZM500.494 227.039C496.256 235.928 494.812 245.287 497.584 255.091L501.433 254.002C498.972 245.297 500.205 236.939 504.105 228.761L500.494 227.039ZM497.57 255.037C498.345 258.102 499.85 261.303 502.222 263.899L505.175 261.201C503.327 259.177 502.092 256.603 501.447 254.056L497.57 255.037ZM502.289 263.969C504.062 265.73 506.127 266.89 508.381 267.291C510.641 267.693 512.949 267.307 515.151 266.21L513.367 262.63C511.845 263.388 510.405 263.588 509.082 263.353C507.753 263.116 506.399 262.413 505.108 261.131L502.289 263.969ZM515.111 266.229C518.201 264.774 520.274 262.59 522.12 260.578L519.172 257.874C517.334 259.878 515.72 261.521 513.407 262.61L515.111 266.229ZM522.086 260.613C523.863 258.769 525.806 257.12 527.893 255.248L525.223 252.27C523.243 254.045 521.116 255.855 519.205 257.838L522.086 260.613ZM527.998 255.147C527.913 255.235 527.862 255.219 528.243 255.06C528.559 254.929 529.152 254.706 529.813 254.36L527.958 250.816C527.502 251.055 527.162 251.178 526.708 251.366C526.32 251.528 525.664 251.804 525.118 252.371L527.998 255.147ZM526.915 252.929C527.509 256.363 527.319 258.813 526.027 260.984L529.465 263.029C531.453 259.688 531.526 256.119 530.856 252.247L526.915 252.929ZM526.057 260.936C523.099 265.602 518.955 268.919 513.596 270.387L514.653 274.245C521.074 272.486 526.003 268.491 529.435 263.077L526.057 260.936ZM513.603 270.385C508.736 271.699 504.505 270.449 500.636 266.971L497.962 269.946C502.695 274.201 508.293 275.962 514.646 274.247L513.603 270.385ZM500.651 266.985C497.021 263.655 495.023 259.413 493.952 254.453L490.042 255.297C491.234 260.819 493.545 265.894 497.947 269.932L500.651 266.985ZM493.948 254.437C491.496 243.512 493.091 233.179 498.583 223.44L495.099 221.475C489.13 232.06 487.372 243.404 490.045 255.313L493.948 254.437ZM498.598 223.414C501.377 218.31 505.288 214.82 511.074 213.533L510.206 209.628C503.077 211.214 498.302 215.592 495.085 221.501L498.598 223.414ZM511.069 213.534C516.525 212.336 521.139 213.577 524.828 217.776L527.833 215.136C523.073 209.719 516.921 208.154 510.211 209.627L511.069 213.534ZM524.85 217.801C525.942 219.003 526.686 220.705 527.63 222.703L531.247 220.994C530.43 219.266 529.406 216.866 527.811 215.111L524.85 217.801ZM527.615 222.67C527.631 222.705 527.674 222.84 527.685 223.068C527.696 223.288 527.67 223.48 527.642 223.588L531.507 224.615C531.775 223.606 531.782 222.181 531.262 221.026L527.615 222.67ZM527.625 223.652C527.617 223.688 527.592 223.771 527.539 223.892C527.487 224.008 527.421 224.13 527.349 224.243C527.275 224.358 527.21 224.439 527.168 224.484C527.114 224.542 527.145 224.491 527.276 224.422L529.132 227.966C529.88 227.574 530.411 226.879 530.718 226.399C531.06 225.865 531.373 225.203 531.524 224.55L527.625 223.652ZM527.838 224.228C527.975 224.203 528.073 224.206 528.114 224.209C528.159 224.212 528.178 224.218 528.169 224.216C528.146 224.21 528.076 224.188 527.972 224.136C527.871 224.085 527.768 224.02 527.677 223.95C527.585 223.878 527.529 223.818 527.504 223.785L524.349 226.245C524.86 226.9 525.545 227.392 526.171 227.708C526.494 227.87 526.849 228.011 527.216 228.101C527.556 228.184 528.043 228.258 528.57 228.16L527.838 224.228ZM527.186 223.461C525.572 222.153 523.499 220.194 521.428 218.773L519.165 222.071C521.092 223.394 522.655 224.938 524.667 226.569L527.186 223.461ZM521.367 218.732C515.808 215.211 509.415 216.003 504.885 220.705L507.766 223.48C510.98 220.143 515.275 219.608 519.226 222.111L521.367 218.732ZM578.794 217.731L580.451 216.61L580.446 216.603L578.794 217.731ZM583.639 235.589L581.642 235.479L581.64 235.502V235.524L583.639 235.589ZM575.839 260.731L577.524 261.81L577.53 261.8L575.839 260.731ZM567.92 269.431L569.047 271.084L569.049 271.082L567.92 269.431ZM546.405 264.665L544.705 265.719L544.706 265.72L546.405 264.665ZM542.435 253.368L540.467 253.724L540.476 253.774L540.488 253.824L542.435 253.368ZM540.861 244.564L542.819 244.159L542.816 244.142L542.812 244.126L540.861 244.564ZM553.149 213.229L554.236 214.908L554.286 214.876L554.333 214.842L553.149 213.229ZM576.806 237.032L578.799 237.192L578.8 237.178L578.801 237.164L576.806 237.032ZM573.515 221.87L571.789 222.881L571.798 222.896L571.807 222.91L573.515 221.87ZM554.421 220.911L552.836 219.691L552.821 219.71L552.807 219.729L554.421 220.911ZM550.125 227.382L548.397 226.374L548.373 226.415L548.351 226.457L550.125 227.382ZM548.934 234.076L550.847 233.491L550.828 233.429L550.805 233.368L548.934 234.076ZM548.601 236.338L546.715 235.671L546.594 236.013L546.601 236.375L548.601 236.338ZM548.451 243.389L546.451 243.339L546.449 243.421L546.454 243.503L548.451 243.389ZM548.854 249.865L546.866 250.083L546.871 250.131L546.878 250.179L548.854 249.865ZM552.077 261.458L550.325 262.422L550.341 262.451L550.358 262.479L552.077 261.458ZM564.438 264.14L565.634 265.743L565.676 265.711L565.716 265.678L564.438 264.14ZM568.496 260.023L570.063 261.265L570.089 261.233L570.113 261.2L568.496 260.023ZM577.137 218.851C580.457 223.762 581.969 229.499 581.642 235.479L585.636 235.698C586.009 228.886 584.283 222.278 580.451 216.61L577.137 218.851ZM581.64 235.524C581.354 244.364 578.714 252.436 574.148 259.663L577.53 261.8C582.456 254.002 585.328 245.243 585.638 235.653L581.64 235.524ZM574.155 259.653C572.033 262.968 569.726 265.772 566.791 267.78L569.049 271.082C572.61 268.646 575.262 265.343 577.524 261.81L574.155 259.653ZM566.793 267.779C563.274 270.178 559.733 270.874 556.592 270.187C553.449 269.5 550.44 267.37 548.104 263.609L544.706 265.72C547.506 270.227 551.357 273.137 555.738 274.095C560.123 275.053 564.772 273.998 569.047 271.084L566.793 267.779ZM548.105 263.611C546.175 260.499 545.315 256.899 544.382 252.913L540.488 253.824C541.394 257.697 542.372 261.956 544.705 265.719L548.105 263.611ZM544.403 253.013C543.895 250.199 543.444 247.179 542.819 244.159L538.902 244.969C539.517 247.94 539.927 250.731 540.467 253.724L544.403 253.013ZM542.812 244.126C540.422 233.476 545.418 220.619 554.236 214.908L552.062 211.551C541.754 218.226 536.175 232.819 538.909 245.002L542.812 244.126ZM554.333 214.842C557.049 212.848 560.342 211.9 565.057 211.812L564.983 207.813C559.741 207.911 555.554 208.983 551.966 211.617L554.333 214.842ZM565.057 211.812C569.442 211.73 573.786 213.938 577.142 218.858L580.446 216.603C576.46 210.76 570.931 207.702 564.983 207.813L565.057 211.812ZM578.801 237.164C579.188 231.305 578.2 225.721 575.223 220.83L571.807 222.91C574.259 226.939 575.156 231.657 574.81 236.901L578.801 237.164ZM575.241 220.859C573.999 218.74 572.467 217.037 570.58 215.881C568.678 214.717 566.525 214.174 564.163 214.218L564.237 218.218C565.914 218.186 567.302 218.564 568.491 219.292C569.693 220.028 570.798 221.189 571.789 222.881L575.241 220.859ZM564.163 214.218C559.928 214.297 555.848 215.778 552.836 219.691L556.005 222.131C558.131 219.371 560.957 218.279 564.237 218.218L564.163 214.218ZM552.807 219.729C551.315 221.765 549.718 224.11 548.397 226.374L551.852 228.39C553.081 226.283 554.594 224.059 556.034 222.094L552.807 219.729ZM548.351 226.457C547.323 228.43 545.716 231.221 547.064 234.784L550.805 233.368C550.176 231.706 550.75 230.509 551.898 228.307L548.351 226.457ZM547.022 234.662C546.985 234.541 547.026 234.545 546.979 234.79C546.935 235.02 546.847 235.3 546.715 235.671L550.486 237.005C550.623 236.619 550.801 236.095 550.907 235.547C551.01 235.014 551.084 234.266 550.847 233.491L547.022 234.662ZM546.601 236.375C546.646 238.762 546.507 241.084 546.451 243.339L550.45 243.438C550.501 241.368 550.647 238.799 550.6 236.3L546.601 236.375ZM546.454 243.503C546.588 245.845 546.632 247.952 546.866 250.083L550.842 249.647C550.623 247.652 550.593 245.813 550.447 243.274L546.454 243.503ZM546.878 250.179C547.507 254.142 548.183 258.529 550.325 262.422L553.83 260.493C552.081 257.317 551.478 253.646 550.829 249.552L546.878 250.179ZM550.358 262.479C552.109 265.427 554.362 267.528 557.189 268.147C560.036 268.771 562.913 267.771 565.634 265.743L563.243 262.536C561.051 264.171 559.348 264.525 558.044 264.24C556.72 263.95 555.248 262.879 553.797 260.436L550.358 262.479ZM565.716 265.678C567.189 264.454 568.676 263.015 570.063 261.265L566.929 258.781C565.745 260.274 564.463 261.518 563.16 262.602L565.716 265.678ZM570.113 261.2C575.2 254.214 578.086 246.099 578.799 237.192L574.812 236.873C574.154 245.094 571.504 252.494 566.879 258.846L570.113 261.2Z" fill="#39BFBF"/>
</g>
<path d="M94.0725 253.206C103.168 254.185 111.816 261.951 111.077 271.617C110.725 277.368 106.78 281.464 101.886 283.968C98.8108 285.404 95.1503 286.277 91.8065 285.65C88.1159 284.915 84.9761 282.905 82.5103 280.079C76.8746 273.635 77.9599 264.078 78.386 256.142C78.7885 246.942 79.6505 237.734 81.0889 228.63C81.8092 224.135 82.6422 219.524 83.7071 215.023C84.7762 210.752 87.0069 207.148 90.8713 204.893C94.8464 202.405 99.6641 201.971 103.289 205.35C106.214 208.168 106.641 212.526 106.369 216.438C105.991 220.811 105.152 225.078 104.197 229.347C103.128 233.618 101.829 237.894 100.065 241.834C98.3019 245.888 95.9607 249.724 93.1515 253.108C93.4961 253.102 93.7279 253.212 94.0725 253.206ZM88.5431 234.006C87.8528 240.109 87.3923 246.207 87.0467 252.303C87.9441 251.137 88.8394 249.857 89.5049 248.58C91.1784 245.906 92.6051 242.318 93.6957 239.195C95.0053 235.494 95.8533 231.686 96.5865 227.881C97.207 224.192 97.938 220.272 97.6395 216.601C97.4667 213.502 96.0347 210.656 93.0247 209.448C92.9184 209.91 92.6995 210.489 92.5932 210.95C91.5111 214.532 90.8907 218.221 90.2702 221.909C89.5414 225.944 89.0422 229.975 88.5431 234.006ZM101.449 279.035C101.449 279.035 101.562 278.918 101.56 278.804C101.447 278.921 101.449 279.035 101.449 279.035ZM102.215 276.953C102.527 275.224 102.495 273.501 102.118 271.784C102.118 271.784 102.116 271.669 102.114 271.555C101.999 271.557 101.999 271.557 101.999 271.557C101.995 271.327 101.876 271.099 101.871 270.87C101.75 270.527 101.627 270.07 101.39 269.73C101.029 268.817 100.669 268.02 100.08 267.226C99.603 266.316 99.0137 265.523 98.3116 264.846C97.6074 264.055 97.2543 263.602 96.5544 263.041C94.8057 261.695 92.9486 260.695 90.8682 260.045C90.7534 260.047 90.4066 259.939 90.2918 259.941C90.1748 259.828 89.9451 259.832 89.7132 259.722C89.1367 259.618 88.5603 259.514 88.1008 259.522C87.7541 259.414 87.4095 259.42 87.065 259.427C86.9501 259.429 86.9522 259.544 86.8374 259.546C86.7848 262.879 86.7343 266.327 87.8261 269.409C88.8008 272.378 90.6922 275.215 93.2557 277.12C94.5363 278.016 95.9296 278.794 97.4314 279.226C98.01 279.444 98.7013 279.546 99.3905 279.534C99.5054 279.531 99.7351 279.527 99.9648 279.523C99.9648 279.523 99.9648 279.523 100.08 279.521C100.08 279.521 100.424 279.514 100.654 279.51C100.769 279.508 101.111 279.387 101.111 279.387L101.226 279.384C101.224 279.27 101.337 279.153 101.449 279.035C101.447 278.921 101.56 278.804 101.56 278.804C101.673 278.687 101.671 278.572 101.671 278.572C101.779 278.225 102.002 277.876 102.111 277.529C102.106 277.3 102.219 277.183 102.215 276.953ZM160.8 251.844C164.017 257.988 165.747 264.505 166.221 271.39C166.253 273.113 166.058 274.955 165.394 276.346C164.182 279.127 160.739 279.306 159.088 277.039C158.258 275.676 157.771 274.191 157.396 272.589C156.283 268.359 155.399 264.124 154.284 259.779C154.031 258.519 153.088 257.273 152.131 255.223C150.802 257.89 149.458 259.754 148.577 261.839C147.476 264.387 146.602 266.816 145.733 269.475C144.857 271.79 143.27 272.968 140.86 273.128C138.45 273.288 136.814 271.825 135.619 269.32C134.531 266.467 133.331 263.732 131.786 261.003C131.191 259.866 130.023 258.853 129.082 257.722C127.026 258.335 126.483 260.069 125.939 261.687C125.07 264.346 124.545 266.999 123.677 269.773C122.819 273.006 121.145 275.68 118.312 277.801C115.394 275.328 114.532 272.242 114.818 269.134C115.3 264.184 116.471 259.222 119.146 254.805C120.152 253.293 121.386 251.661 122.855 250.37C126.252 247.664 130.499 247.469 133.994 250.047C136.328 251.956 138.211 254.334 140.555 256.818C142.008 254.608 143.228 252.287 144.802 250.419C146.035 248.787 147.505 247.496 149.096 246.547C152.167 244.881 155.862 245.846 158.44 248.556C159.264 249.574 160.089 250.708 160.8 251.844ZM197.587 267.242C197.927 267.006 198.384 266.882 199.184 266.638C198.806 271.011 197.494 274.597 193.974 276.846C187.056 281.687 176.816 280.959 172.052 271.971C168.352 264.571 168.327 257.103 171.98 249.681C175.414 242.838 182.139 239.955 189.074 242.123C190.229 242.446 191.505 243.112 192.667 243.779C197.792 247.475 198.027 253.905 192.927 257.677C189.075 260.622 184.621 262.084 179.68 262.061C178.761 262.079 177.957 262.094 176.809 262.115C177.066 263.604 177.207 264.98 177.69 266.235C179.403 271.833 183.232 273.83 188.705 271.544C191.782 270.223 194.626 268.676 197.587 267.242ZM185.861 248.503C181.603 248.123 178.553 250.937 177.618 256.24C181.996 256.848 185.767 255.743 189.163 253.037C190.407 251.98 190.267 250.603 188.871 249.71C187.939 249.038 186.899 248.713 185.861 248.503ZM236.551 267.433C237.209 271.902 235.659 275.033 232.25 277.05C224.857 281.095 217.395 281.464 210.411 276.654C203.428 271.844 201.227 264.761 202.914 256.686C204.487 248.614 209.678 243.576 217.803 241.816C223.523 240.445 228.615 242.418 232.717 246.707C233.772 247.837 234.496 249.662 234.753 251.151C235.152 254.016 233.223 255.316 230.559 254.216C228.709 253.562 227.081 252.558 225.228 251.788C221.404 250.021 217.847 250.318 214.8 253.247C211.639 256.294 210.789 259.986 212.013 263.985C213.618 269.93 219.987 272.568 226.257 269.923C228.877 268.725 231.493 267.298 234.48 267.242C235.169 267.229 235.63 267.335 236.551 267.433ZM298.884 251.101C300.937 256.463 301.092 264.733 299.932 270.27C299.411 273.152 297.733 275.596 294.896 277.487C292.318 274.778 291.339 271.579 291.27 267.904C291.214 264.917 291.343 259.515 291.059 256.647C290.915 255.041 290.195 253.446 289.368 252.198C287.717 249.931 285.068 249.635 282.918 251.399C281.676 252.571 280.553 253.971 279.892 255.477C278.583 259.179 277.735 262.986 276.54 266.685C276.321 267.264 276.453 268.181 276.236 268.874C275.711 271.527 273.901 273.054 271.487 272.984C269.19 273.027 267.667 271.447 267.158 268.814C266.519 265.379 266.108 261.825 265.354 258.392C264.971 256.331 264.356 254.159 263.513 252.107C262.679 250.514 261.639 250.188 260.282 251.363C258.7 252.771 257.124 254.524 256.01 256.383C253.116 261.378 251.841 266.917 250.914 272.68C250.819 273.715 250.61 274.868 250.285 275.909C249.522 278.106 247.933 279.17 245.978 279.091C244.021 278.898 242.737 277.773 242.236 275.599C240.578 266.783 240.068 257.945 240.36 248.978C240.351 248.518 240.458 248.056 240.677 247.478C241.108 245.976 241.774 244.7 243.611 244.665C245.332 244.518 246.047 245.884 246.307 247.488C246.688 249.434 247.071 251.495 247.578 254.013C248.25 253.081 248.813 252.496 249.262 251.913C251.172 249.58 252.845 246.906 255.223 245.023C261.223 240.2 267.453 241.577 271.028 248.404C271.498 248.97 271.625 249.657 272.336 250.793C273.346 249.51 274.016 248.463 274.688 247.531C281.989 238.548 294.545 240.266 298.884 251.101ZM332.525 264.719C332.865 264.483 333.323 264.36 334.122 264.115C333.745 268.488 332.433 272.075 328.913 274.324C321.995 279.164 311.755 278.436 306.991 269.448C303.291 262.049 303.266 254.581 306.919 247.159C310.353 240.315 317.078 237.432 324.013 239.6C325.168 239.924 326.444 240.589 327.605 241.257C332.73 244.953 332.965 251.383 327.865 255.155C324.014 258.099 319.56 259.562 314.619 259.539C313.7 259.556 312.896 259.571 311.747 259.593C312.005 261.082 312.146 262.458 312.629 263.713C314.342 269.311 318.171 271.307 323.643 269.022C326.721 267.701 329.565 266.154 332.525 264.719ZM320.8 245.98C316.541 245.6 313.492 248.415 312.557 253.718C316.934 254.325 320.705 253.221 324.102 250.514C325.346 249.457 325.205 248.081 323.81 247.188C322.878 246.516 321.838 246.19 320.8 245.98ZM403.458 264.313C404.116 268.782 402.566 271.913 399.157 273.93C391.764 277.975 384.302 278.344 377.318 273.534C370.334 268.724 368.133 261.641 369.821 253.566C371.394 245.494 376.585 240.456 384.71 238.696C390.429 237.325 395.522 239.298 399.623 243.587C400.679 244.717 401.402 246.542 401.66 248.03C402.058 250.895 400.129 252.195 397.466 251.096C395.615 250.441 393.988 249.438 392.135 248.668C388.31 246.901 384.754 247.197 381.706 250.127C378.546 253.173 377.696 256.866 378.92 260.865C380.524 266.81 386.893 269.448 393.163 266.803C395.784 265.605 398.4 264.177 401.386 264.122C402.075 264.109 402.537 264.215 403.458 264.313Z" fill="#39BFBF"/>
<path d="M11.5312 270.692C25.375 270.425 38.7486 264.618 52.464 264.353" stroke="#39BFBF" stroke-width="5.40132" stroke-linecap="round"/>
</svg>
