<svg width="50" height="46" viewBox="0 0 50 46" fill="none" xmlns="http://www.w3.org/2000/svg">
<g id="Vector">
<path d="M23.217 1.28846L22.2917 1.41036L23.3704 9.60985L24.2957 9.48795L23.217 1.28846Z" fill="black"/>
<path d="M18.1989 2.5072L17.3367 2.86461L20.4993 10.5053L21.3615 10.1479L18.1989 2.5072Z" fill="black"/>
<path d="M40.1214 32.7635L40.6665 32.0525L34.3768 27.2227L33.8316 27.9337L40.1214 32.7635Z" fill="black"/>
<path d="M42.6928 28.5271L43.0356 27.6991L35.711 24.663L35.3683 25.491L42.6928 28.5271Z" fill="black"/>
<path d="M44.1387 23.6002L44.2354 22.7092L36.3537 21.8524L36.257 22.7433L44.1387 23.6002Z" fill="black"/>
<path d="M20.2028 0L19.3013 0.241722L21.9055 9.96757L22.807 9.72585L20.2028 0Z" fill="black"/>
<path d="M45.2133 26.6465L45.4451 25.7809L36.1239 23.2815L35.8921 24.1471L45.2133 26.6465Z" fill="black"/>
<path d="M39.6376 29.6251L40.0854 28.849L35.1299 25.9858L34.6821 26.762L39.6376 29.6251Z" fill="black"/>
<path d="M42.0555 21.0524L42.0313 20.1566L36.3112 20.3114L36.3354 21.2073L42.0555 21.0524Z" fill="black"/>
<path d="M22.9923 31.7857L23.4417 31.9492V31.8674C23.2971 31.8423 23.1431 31.8171 22.9923 31.7857Z" fill="black"/>
<path d="M21.5342 31.251L21.4871 31.3674C21.6631 31.4303 21.8453 31.49 22.0276 31.5435L22.0527 31.4429L21.5342 31.251Z" fill="black"/>
<path d="M22.8978 31.751L22.9952 31.773L22.9481 31.7573L22.8978 31.751Z" fill="black"/>
<path d="M20.5852 30.9051L20.1609 30.7511L20.1421 30.7794C20.3118 30.8674 20.4815 30.9492 20.6543 31.0278L20.692 30.9429L20.5852 30.9051Z" fill="black"/>
<path d="M21.4021 31.2038L21.4681 31.229L21.5342 31.251L21.5435 31.2227L20.7171 30.8799L20.692 30.9429L20.7297 30.9585L21.4021 31.2038Z" fill="black"/>
<path d="M21.4681 31.229L21.4021 31.2038L20.7297 30.9585L20.692 30.9585L20.6543 31.0434C20.9277 31.1692 21.2042 31.2824 21.487 31.383L21.5341 31.2667L21.4681 31.229Z" fill="black"/>
<path d="M22.2568 31.5151L22.15 31.4774L22.0527 31.4429L22.0276 31.5435C22.3104 31.6284 22.5994 31.7038 22.8947 31.7636L22.2568 31.5151Z" fill="black"/>
<path d="M19.9095 30.6567C19.9849 30.7007 20.0635 30.7385 20.1421 30.7794L20.1609 30.7511L19.9095 30.6567Z" fill="black"/>
<path d="M13.6715 4.98275L12.9311 5.55129L17.962 12.1125L18.7024 11.544L13.6715 4.98275Z" fill="black"/>
<path d="M9.92634 8.54712L9.35758 9.28924L11.8934 11.2326C12.2992 11.1231 12.7133 11.0474 13.1315 11.0062L9.92634 8.54712Z" fill="black"/>
<path d="M9.41417 13.8521L7.25225 12.959L6.89404 13.8206L9.42988 14.8741C9.37146 14.5363 9.36616 14.1915 9.41417 13.8521Z" fill="black"/>
<path d="M10.4167 5.37118L9.75679 6.03154L14.7531 11.0314C15.3588 11.1077 15.9536 11.2544 16.5253 11.4685L10.4167 5.37118Z" fill="black"/>
<path d="M10.7027 11.7767L4.44635 8.16357L3.98128 8.97172L10.002 12.4528C10.1995 12.1928 10.4358 11.9647 10.7027 11.7767Z" fill="black"/>
<path d="M10.0302 16.3708L4.6286 14.9212L4.38663 15.8268L11.1143 17.6287C10.6973 17.2608 10.3326 16.8376 10.0302 16.3708Z" fill="black"/>
<path d="M17.0059 5.58931L16.1976 6.05628L19.1797 11.2251L19.9879 10.7581L17.0059 5.58931Z" fill="black"/>
<path d="M17.1036 29.3108L17.0124 29.3894L17.2544 29.5907L17.6221 29.2227L17.1036 29.3108Z" fill="black"/>
<path d="M9.50857 14.9055L9.42988 14.8741C9.52951 15.4077 9.73363 15.9163 10.0302 16.3708L10.1307 16.3992C9.82678 15.9473 9.61532 15.4396 9.50857 14.9055Z" fill="black"/>
<path d="M17.7475 29.1002L17.6221 29.2227L17.8512 29.1851C17.7255 29.0813 17.8638 29.2103 17.7475 29.1002Z" fill="black"/>
<path d="M11.8119 11.2673L11.903 11.2421C11.8558 11.2421 11.8118 11.2641 11.7679 11.2798C11.3868 11.3873 11.0266 11.5584 10.7026 11.7861L10.7309 11.805C11.0572 11.5641 11.423 11.3822 11.8119 11.2673Z" fill="black"/>
<path d="M13.3452 10.9937H13.141C13.2133 11.0063 13.2793 10.9968 13.3452 10.9937Z" fill="black"/>
<path d="M10.0429 12.4779L10.002 12.4528C9.68846 12.8605 9.48583 13.3426 9.41417 13.8521L9.4741 13.8804C9.54051 13.3719 9.73636 12.8889 10.0429 12.4779Z" fill="black"/>
<path d="M9.4741 13.8804L9.41417 13.8521C9.36616 14.1915 9.37146 14.5363 9.42988 14.8741L9.50857 14.9055C9.44265 14.5678 9.43108 14.2218 9.4741 13.8804Z" fill="black"/>
<path d="M10.7307 11.7954L10.7027 11.7767C10.4358 11.9647 10.1995 12.1928 10.002 12.4528L10.0429 12.4779C10.2356 12.2162 10.4675 11.9859 10.7307 11.7954Z" fill="black"/>
<path d="M10.1307 16.3992L10.0302 16.3708C10.3326 16.8376 10.6973 17.2608 11.1143 17.6287L11.2589 17.6696C10.8269 17.2994 10.4473 16.872 10.1307 16.3992Z" fill="black"/>
<path d="M14.7531 11.0314C14.5101 11.001 14.2656 10.983 14.0208 10.9778C14.2678 10.985 14.5143 11.0049 14.7592 11.0376L14.7531 11.0314Z" fill="black"/>
<path d="M16.5253 11.4905L16.5033 11.4685C15.9366 11.2556 15.3471 11.1089 14.7468 11.0314C15.3553 11.1154 15.9521 11.2695 16.5253 11.4905Z" fill="black"/>
<path d="M39.1311 33.6629L29.0317 25.5781L25.6883 26.1568C26.0182 24.8989 26.3953 23.6411 26.6781 22.355C26.7731 21.8525 26.685 21.3326 26.4299 20.8896C25.9177 19.8141 25.0315 19.2513 23.9977 18.6884C22.2663 17.745 21.1696 20.7072 22.5114 21.6191C24.0826 22.6883 23.4038 23.9115 22.8853 25.3455C22.7628 25.7322 22.3637 27.2322 22.0338 27.3297C19.8876 27.9586 18.6024 28.2448 16.4405 28.7856L15.6015 31.251L34.537 36.6125C35.8599 36.9081 37.9653 37.0905 39.3196 36.6125C41.8303 35.7257 39.7784 34.1849 39.1311 33.6629ZM32.1583 35.0276L17.2574 29.5749L22.4486 28.0341C22.4988 28.0183 22.4988 27.9429 22.524 27.8957C23.1041 26.8541 23.6194 25.7777 24.0668 24.6725C24.4911 23.5342 24.7393 23.0499 24.0668 21.8644C23.8752 21.5248 23.1713 20.55 22.7628 20.2921C22.901 19.4714 23.7055 19.6632 24.2365 19.9777C24.9247 20.4745 25.6003 21.2355 25.6631 22.1128C25.7417 23.2008 25.2452 26.0121 24.6545 27.0624C24.2962 27.6913 24.2554 27.8171 23.5704 27.7448C23.495 27.7448 23.2781 27.7448 23.2781 27.8202C23.2781 27.8957 23.3598 27.9712 23.4384 28.0309C24.2271 28.6598 26.7975 29.0435 25.8485 27.336C25.8234 27.2888 25.704 27.2165 25.7574 27.2008C26.719 26.8863 27.7025 26.6473 28.6798 26.3895L38.6 34.188C38.7949 34.3327 39.5836 34.8326 39.527 35.2823C39.2442 37.4584 32.7836 35.232 32.1583 35.0276Z" fill="black"/>
<path d="M20.296 20.6349C20.1874 20.1512 20.1577 19.6532 20.2081 19.16C20.7925 17.8142 21.5435 16.767 23.2938 17.4808C24.2365 17.8676 24.315 18.289 24.4062 18.3865L25.1352 18.8487L24.7958 17.9714C24.5256 17.4651 23.7494 16.6727 23.1681 16.506C23.1167 16.492 23.0641 16.4825 23.011 16.4777L22.1563 15.7325C20.604 13.9683 18.6997 12.2734 16.519 11.4684L16.541 11.4904C15.9695 11.272 15.3749 11.12 14.7687 11.0376C14.5238 11.0049 14.2773 10.985 14.0303 10.9778H13.3547C13.2887 10.9778 13.2227 10.9779 13.1567 10.9967C12.7395 11.0393 12.3264 11.116 11.9218 11.2263L11.8306 11.2514C11.4391 11.3624 11.0701 11.5412 10.7403 11.7797C10.477 11.9702 10.2449 12.2004 10.0521 12.4621C9.74559 12.8731 9.54975 13.356 9.48334 13.8646C9.44032 14.2059 9.452 14.552 9.51791 14.8897C9.62657 15.4243 9.84019 15.932 10.1464 16.3834C10.4639 16.8518 10.8434 17.2749 11.2745 17.6412C12.1966 18.4161 13.2375 19.0373 14.3571 19.4808C14.5582 19.5657 14.7656 19.6475 14.9855 19.7292C18.4421 21.0248 18.9071 21.1254 22.326 22.16C21.4713 21.0311 21.4713 20.9619 20.296 20.6349ZM20.1169 17.7701L20.1012 17.8016V17.8299L20.0729 17.8959C20.0321 17.9966 19.9944 18.1003 19.963 18.2104L19.7587 17.4054C18.6896 16.3854 17.4979 15.5023 16.211 14.7765C15.2118 14.201 14.3068 13.8772 13.9737 14.2859C13.5621 15.5878 11.8275 14.5847 11.9312 13.569C11.9561 13.4085 12.0171 13.2557 12.1097 13.1222C12.2022 12.9888 12.3238 12.8781 12.4654 12.7986C12.5524 12.7402 12.6438 12.6887 12.7388 12.6445C12.9613 12.5403 13.1955 12.4633 13.4364 12.4149C14.0102 12.304 14.6034 12.3518 15.1521 12.5533C15.8561 12.8177 16.5081 13.2041 17.0783 13.6948C18.1589 14.5127 19.1323 15.4636 19.9755 16.5249C20.5411 16.0626 20.9653 15.9463 21.6881 16.506C21.3547 16.5712 21.0403 16.7109 20.7683 16.9145C20.4963 17.1181 20.2736 17.3805 20.1169 17.6821V17.7701Z" fill="black"/>
<path d="M42.7887 38.5684C42.7887 38.5684 43.5774 38.1093 43.9922 37.7917L43.4329 39.2696L42.6127 39.4866L42.7887 38.5684Z" fill="black"/>
<path fill-rule="evenodd" clip-rule="evenodd" d="M17.2763 28.6032L17.1098 28.4617L16.8301 28.7353L17.2763 28.6032Z" fill="black"/>
<path d="M32.8653 9.67927C32.8653 11.7956 31.7717 12.9496 29.8298 12.9496H28.466V16.6728H27.2688V6.45292H29.8518C31.7812 6.45292 32.8653 7.62271 32.8653 9.67927ZM31.6555 9.67927C31.6555 8.28936 31.0553 7.58812 29.8298 7.58812H28.466V11.8113H29.8518C31.0647 11.8144 31.6649 11.1415 31.6649 9.67927H31.6555Z" fill="black"/>
<path d="M34.1441 13.7263V9.40248C34.1441 7.38995 35.2848 6.2579 36.9911 6.2579C38.6974 6.2579 39.8192 7.33964 39.9229 9.31129H38.7414C38.6534 7.99685 38.0406 7.38366 36.9754 7.38366C35.9981 7.38366 35.3414 8.01258 35.3414 9.39619V13.72C35.3414 15.0784 36.0264 15.7199 37.0194 15.7199C38.1003 15.7199 38.6974 15.091 38.8136 13.808H39.9983C39.8789 15.7482 38.801 16.8457 37.0194 16.8457C35.2974 16.852 34.1441 15.742 34.1441 13.7263Z" fill="black"/>
<path d="M41.2395 13.4527V9.65094C41.2395 7.56294 42.377 6.26423 44.2719 6.26423C46.1667 6.26423 47.2948 7.56294 47.2948 9.65094V13.4527C47.2948 15.5565 46.1698 16.8552 44.2719 16.8552C42.3739 16.8552 41.2395 15.5659 41.2395 13.4527ZM46.063 13.4527V9.65094C46.063 8.23588 45.4502 7.43087 44.2656 7.43087C43.0809 7.43087 42.4588 8.23588 42.4588 9.65094V13.4527C42.4588 14.8835 43.0872 15.6885 44.2656 15.6885C45.4439 15.6885 46.063 14.893 46.063 13.4527Z" fill="black"/>
<path d="M49.8339 27.2574C49.4537 26.6128 48.577 25.9744 48.5456 25.8423C48.2974 24.1694 48.9635 22.616 49.6171 21.1255C50.0508 19.745 48.9415 19.3802 48.1748 19.0721C46.5848 25.031 43.8856 35.5276 43.4205 38.8452L42.9554 39.0559C43.1345 38.776 43.3105 38.4678 43.521 38.1345C40.0802 40.4175 36.6079 39.3137 33.1231 38.6093H33.1954L32.215 36.2446L34.5969 36.7886C36.3346 37.0874 37.9969 37.3704 39.3543 36.8893C41.4723 36.144 40.4447 34.7918 39.6434 34.1094C41.4314 36.5465 35.6433 37.6282 32.2244 35.1472L31.6745 34.9491L31.6085 34.8358L30.4459 34.4082L30.4993 34.5403L29.3586 34.122L29.3241 34.0025L28.2934 33.6283L28.3248 33.7447L27.4544 33.4302L27.4355 33.3076L26.4929 32.9617V33.0812L24.8997 32.4994L24.287 32.273L23.3065 39.732L22.4173 39.6125L23.4385 31.9491L22.9892 31.7856L22.8918 31.7636L20.4282 40.9615L19.564 40.7288L22.0245 31.5435C21.8422 31.49 21.66 31.4303 21.484 31.3674L18.5082 38.5527L17.6818 38.21L20.6513 31.0278C20.4785 30.9491 20.3088 30.8674 20.1391 30.7793L17.3613 35.5968L16.5883 35.1503L19.3064 30.4334L19.253 30.4146L18.7439 30.229L14.1687 36.1786L13.4554 35.6314L17.8546 29.9051H17.8295L17.4618 29.7699L17.2607 29.6001L11.0515 35.8138L10.4231 35.1849L17.1225 28.4775C16.9936 28.336 16.8679 28.1945 16.7454 28.0467L10.5959 32.7636L10.0491 32.0497L16.2049 27.3329C16.0981 27.1756 15.9912 27.0184 15.8907 26.858L11.0798 29.6378L10.621 28.8611L15.4382 26.0782C15.3533 25.9084 15.2685 25.7386 15.1931 25.5656L8.00976 28.5404L7.66726 27.7134L14.8569 24.7323C14.794 24.5562 14.7343 24.3738 14.6809 24.1914L5.49277 26.6599L5.26023 25.7952L14.4609 23.3267C14.4232 23.1443 14.3887 22.9588 14.3572 22.7701L6.61458 23.7921L6.49831 22.9022L14.2598 21.8802C14.2598 21.6946 14.2378 21.506 14.2347 21.3204H8.60051V20.4211H14.2567C14.2755 20.1066 14.3101 19.8205 14.3509 19.5249C13.2313 19.0814 12.1905 18.4602 11.2683 17.6853L11.1238 17.6444C11.3029 17.8079 11.4946 17.9589 11.7051 18.1255H11.6737C11.5359 18.1413 11.3967 18.1413 11.2589 18.1255C9.22269 18.0061 1.83197 16.8426 2.64583 19.2922C0.895565 20.6286 1.38892 22.7103 1.49261 24.9053L0.527915 25.6474C0.0188606 26.0436 -0.0408437 26.5908 0.0188602 27.2197C1.33235 29.446 5.97355 44.974 7.04193 45.823C8.41198 46.911 19.5735 42.6092 22.4393 43.0526C24.4849 44.9614 26.32 44.9897 28.8622 43.1124C31.0995 43.3765 42.6883 46.7947 43.9233 45.735C46.3994 40.6533 46.1229 36.0465 49.8119 28.5089C49.9309 28.3228 49.9959 28.1072 49.9998 27.8863C50.0037 27.6653 49.9463 27.4477 49.8339 27.2574ZM1.40147 26.5562C1.52088 26.1033 2.20905 26.0405 2.6364 26.0845L6.13381 40.4017C5.84157 40.3703 2.25934 29.2636 1.3952 26.5562H1.40147ZM31.0838 35.927L32.105 38.4207C31.5583 38.3263 31.0146 38.254 30.4679 38.2131L29.7514 35.5339L31.0838 35.927ZM24.9185 39.5527V34.1157L26.7159 34.644L27.2093 38.4867C26.3947 38.72 25.6217 39.0797 24.9185 39.5527ZM28.108 38.2949L27.6586 34.9239L28.7333 35.2383L29.5252 38.1785C29.0505 38.1812 28.5767 38.2201 28.108 38.2949ZM43.9107 41.0464L47.4112 26.7291C47.8386 26.6851 48.5267 26.748 48.6461 27.2008C47.782 29.9051 44.2155 41.0118 43.9107 41.0432V41.0464Z" fill="black"/>
</g>
</svg>
