<svg width="154" height="78" viewBox="0 0 154 78" fill="none" xmlns="http://www.w3.org/2000/svg">
<g id="Mask group">
<mask id="mask0_29_142" style="mask-type:luminance" maskUnits="userSpaceOnUse" x="0" y="0" width="154" height="78">
<g id="Group">
<path id="Vector" d="M153.518 0.656006H0.161133V77.484H153.518V0.656006Z" fill="white"/>
<path id="Vector_2" d="M45.923 21.2171C47.836 28.0411 46.453 34.4581 42.901 40.5381C38.529 47.9501 31.747 52.1171 23.319 53.6851C19.29 54.3241 15.433 54.1141 11.795 50.5171C11.836 57.7521 12.576 67.1361 8.27503 73.3241C7.40803 72.2131 6.55004 71.5711 6.44004 70.7271C5.72504 67.6401 4.63202 64.4651 4.57602 61.4591C3.81802 46.0611 3.39004 28.2151 3.10404 12.9021C3.08104 11.6811 3.05303 10.1781 3.59803 9.13408C4.58503 6.67208 6.74104 6.35008 8.74704 8.09808C9.12604 8.27908 9.22302 8.46508 9.51102 8.74208C9.60602 8.83408 9.89004 8.92308 10.173 9.01108C14.176 6.96308 18.476 5.75507 23.074 5.38707C33.684 4.90707 43.107 11.3091 45.923 21.2171ZM39.142 30.4591C40.613 23.6661 38.056 17.6051 32.445 14.0451C26.547 10.2091 16.529 12.1811 11.991 15.7431C10.789 16.7991 10.624 18.0241 10.65 19.4331C10.994 27.7901 11.243 36.0551 11.679 44.3171C11.691 44.9741 11.798 45.6301 11.812 46.3821C12.377 46.4651 12.662 46.6481 13.132 46.6391C15.387 46.5971 17.831 46.6451 20.178 46.5071C29.563 45.8621 37.054 39.4261 39.142 30.4591ZM72.326 18.0921C70.76 19.8131 69.294 21.8141 68.299 23.9001C64.23 32.4341 62.892 41.2921 65.508 50.5471C66.219 53.3521 67.588 56.2401 69.699 58.5501C72.763 61.5941 76.535 62.2751 80.259 60.4201C82.96 59.1481 84.804 57.2341 86.646 55.2261C88.49 53.3121 90.525 51.5821 92.558 49.7591C93.019 49.2801 93.769 49.1731 94.885 48.5881C95.518 52.2411 95.386 55.2511 93.746 58.0061C90.551 63.0471 86.015 66.7021 80.125 68.3161C74.514 69.8311 69.6 68.3251 65.299 64.4581C61.283 60.7751 59.128 56.1161 57.997 50.8751C55.434 39.4581 57.111 28.6201 62.841 18.4581C65.839 12.9511 70.1831 9.01707 76.6401 7.58107C82.7231 6.24507 88.1061 7.64807 92.3301 12.4561C93.6741 13.9341 94.558 15.9851 95.438 17.8481C95.733 18.5011 95.7501 19.4401 95.5751 20.1011C95.4011 20.8561 94.762 21.9021 94.204 22.1941C93.642 22.2991 92.504 21.7561 91.927 21.0151C90.114 19.5451 88.2951 17.7941 86.2961 16.4221C81.5411 13.4091 76.197 14.0731 72.326 18.0921ZM144.794 13.7311C148.37 19.0201 149.989 25.1921 149.639 31.5891C149.341 40.8041 146.585 49.2191 141.839 56.7311C139.648 60.1551 137.168 63.2091 133.92 65.4311C126.126 70.7451 117.54 68.9321 112.405 60.6651C110.273 57.2281 109.354 53.2981 108.435 49.3681C107.911 46.4651 107.481 43.5601 106.861 40.5641C104.298 29.1471 109.586 15.4221 119.149 9.22908C122.301 6.91508 126.041 5.90507 131.02 5.81207C136.187 5.71607 141.123 8.34908 144.794 13.7311ZM142.806 33.0321C143.172 27.4811 142.23 22.3301 139.515 17.8701C137.282 14.0591 134.239 12.1421 130.2 12.2181C126.442 12.2881 122.99 13.5741 120.421 16.9111C118.954 18.9121 117.4 21.1971 116.125 23.3821C115.036 25.4701 113.946 27.4631 114.934 30.0761C115.135 30.7301 114.869 31.5811 114.601 32.3381C114.646 34.7801 114.504 37.2261 114.451 39.3891C114.59 41.8291 114.627 43.8021 114.854 45.8651C115.493 49.8941 116.132 53.9231 118.077 57.4581C121.279 62.8481 125.526 63.8021 130.438 60.1401C131.826 58.9861 133.211 57.6451 134.496 56.0231C139.352 49.3541 142.12 41.5971 142.806 33.0321Z" fill="black"/>
</g>
</mask>
<g mask="url(#mask0_29_142)">
<path id="Vector_3" d="M45.9234 21.2171L47.8494 20.6771L47.8474 20.6701L45.9234 21.2171ZM42.9014 40.5381L44.6244 41.5541L44.6294 41.5471L42.9014 40.5381ZM23.3194 53.6851L23.6324 55.6601L23.6584 55.6561L23.6854 55.6511L23.3194 53.6851ZM11.7954 50.5171L13.2014 49.0951L9.76837 45.7001L9.79538 50.5281L11.7954 50.5171ZM8.27536 73.3241L6.69736 74.5541L8.36737 76.6961L9.91736 74.4661L8.27536 73.3241ZM6.44037 70.7271L8.42438 70.4691L8.41138 70.3721L8.38937 70.2761L6.44037 70.7271ZM4.57636 61.4591L6.57538 61.4211V61.3911L6.57336 61.3601L4.57636 61.4591ZM3.59836 9.13408L5.37137 10.0591L5.41736 9.97107L5.45438 9.87907L3.59836 9.13408ZM8.74738 8.09808L7.43338 9.60608L7.63937 9.78607L7.88635 9.90307L8.74738 8.09808ZM10.1734 9.01107L9.57636 10.9201L10.3574 11.1641L11.0844 10.7921L10.1734 9.01107ZM23.0744 5.38707L22.9834 3.38908L22.9494 3.39108L22.9144 3.39308L23.0744 5.38707ZM39.1424 30.4591L41.0904 30.9131L41.0944 30.8981L41.0974 30.8821L39.1424 30.4591ZM32.4454 14.0451L31.3554 15.7221L31.3644 15.7281L31.3744 15.7341L32.4454 14.0451ZM11.9914 15.7431L10.7564 14.1701L10.7124 14.2041L10.6714 14.2411L11.9914 15.7431ZM10.6504 19.4331L8.65036 19.4711L8.65137 19.4931L8.65237 19.5161L10.6504 19.4331ZM11.6794 44.3171L13.6794 44.2801L13.6784 44.2451L13.6764 44.2111L11.6794 44.3171ZM11.8124 46.3821L9.81238 46.4191L9.84436 48.1131L11.5204 48.3601L11.8124 46.3821ZM20.1784 46.5071L20.2954 48.5041L20.3054 48.5031H20.3154L20.1784 46.5071ZM43.9984 21.7571C45.7334 27.9491 44.5174 33.8071 41.1744 39.5301L44.6294 41.5471C48.3894 35.1081 49.9404 28.1341 47.8494 20.6771L43.9984 21.7571ZM41.1794 39.5221C37.1434 46.3631 30.9024 50.2401 22.9534 51.7181L23.6854 55.6511C32.5934 53.9941 39.9154 49.5371 44.6244 41.5541L41.1794 39.5221ZM23.0064 51.7091C21.1074 52.0101 19.4164 52.0821 17.8394 51.7361C16.3014 51.3981 14.7624 50.6381 13.2014 49.0951L10.3894 51.9391C12.4664 53.9931 14.6754 55.1361 16.9824 55.6431C19.2504 56.1411 21.5024 55.9981 23.6324 55.6601L23.0064 51.7091ZM9.79538 50.5281C9.81638 54.2591 10.0084 58.2391 9.67136 62.1411C9.33536 66.0241 8.49136 69.5081 6.63236 72.1831L9.91736 74.4661C12.3594 70.9511 13.2964 66.6491 13.6564 62.4851C14.0144 58.3391 13.8154 54.0101 13.7954 50.5061L9.79538 50.5281ZM9.85236 72.0951C9.59536 71.7661 9.34636 71.4791 9.13336 71.2401C8.90536 70.9831 8.75237 70.8161 8.61237 70.6471C8.31637 70.2911 8.40138 70.2931 8.42438 70.4691L4.45737 70.9851C4.59037 72.0051 5.15838 72.7501 5.53638 73.2041C5.73238 73.4401 5.96237 73.6941 6.14337 73.8961C6.33837 74.1161 6.52036 74.3271 6.69736 74.5541L9.85236 72.0951ZM8.38937 70.2761C8.20337 69.4721 7.99338 68.6691 7.79038 67.8921C7.58438 67.1071 7.38537 66.3511 7.20737 65.6001C6.84837 64.0921 6.59938 62.7101 6.57538 61.4211L2.57636 61.4961C2.60836 63.2131 2.93437 64.9221 3.31537 66.5251C3.50637 67.3291 3.71838 68.1341 3.92038 68.9061C4.12538 69.6871 4.32137 70.4381 4.49237 71.1791L8.38937 70.2761ZM6.57336 61.3601C5.81736 45.9951 5.39037 28.1741 5.10437 12.8651L1.10538 12.9401C1.39138 28.2551 1.81937 46.1281 2.57837 61.5571L6.57336 61.3601ZM5.10437 12.8651C5.09237 12.2371 5.08337 11.6621 5.13037 11.1281C5.17937 10.5811 5.27437 10.2441 5.37137 10.0591L1.82437 8.20907C1.37737 9.06807 1.21436 10.0051 1.14636 10.7761C1.07736 11.5591 1.09338 12.3471 1.10538 12.9401L5.10437 12.8651ZM5.45438 9.87907C5.77338 9.08407 6.10337 9.01407 6.15637 9.00407C6.26937 8.98307 6.71238 8.97808 7.43338 9.60608L10.0614 6.59007C8.77537 5.47107 7.13835 4.75307 5.42535 5.07107C3.65135 5.40107 2.41036 6.72308 1.74136 8.38908L5.45438 9.87907ZM7.88635 9.90307C7.88835 9.90407 7.86637 9.89407 7.83337 9.87107C7.81837 9.86007 7.80437 9.84907 7.79337 9.84007C7.78237 9.83007 7.77637 9.82408 7.77637 9.82408C7.78437 9.83308 7.79638 9.84508 7.86438 9.91708C7.92238 9.98008 8.01235 10.0751 8.12335 10.1821L10.8984 7.30107C10.8664 7.27007 10.8354 7.23808 10.7834 7.18208C10.7404 7.13708 10.6504 7.03907 10.5514 6.94407C10.3054 6.70707 10.0114 6.48507 9.60837 6.29307L7.88635 9.90307ZM8.12335 10.1821C8.35635 10.4071 8.59537 10.5351 8.70737 10.5921C8.84137 10.6611 8.96936 10.7121 9.06436 10.7481C9.24836 10.8181 9.45136 10.8811 9.57636 10.9201L10.7704 7.10208C10.6974 7.07908 10.6394 7.06108 10.5854 7.04408C10.5324 7.02608 10.4994 7.01508 10.4794 7.00708C10.4564 6.99808 10.4774 7.00507 10.5234 7.02807C10.5474 7.04107 10.5924 7.06508 10.6494 7.10208C10.7034 7.13808 10.7954 7.20207 10.8984 7.30107L8.12335 10.1821ZM11.0844 10.7921C14.8474 8.86608 18.8914 7.72807 23.2334 7.38107L22.9144 3.39308C18.0614 3.78208 13.5054 5.06008 9.26236 7.23108L11.0844 10.7921ZM23.1644 7.38507C32.9204 6.94307 41.4564 12.8161 44.0004 21.7641L47.8474 20.6701C44.7584 9.80207 34.4484 2.87008 22.9834 3.38908L23.1644 7.38507ZM41.0974 30.8821C42.7414 23.2871 39.8514 16.3751 33.5174 12.3571L31.3744 15.7341C36.2614 18.8351 38.4844 24.0451 37.1874 30.0361L41.0974 30.8821ZM33.5364 12.3691C30.0484 10.1001 25.5374 9.64408 21.4694 10.1341C17.3954 10.6251 13.3824 12.1091 10.7564 14.1701L13.2264 17.3171C15.1374 15.8161 18.4024 14.5331 21.9474 14.1061C25.4974 13.6781 28.9444 14.1541 31.3554 15.7221L33.5364 12.3691ZM10.6714 14.2411C8.79936 15.8851 8.62036 17.8651 8.65036 19.4711L12.6504 19.3961C12.6274 18.1841 12.7784 17.7141 13.3114 17.2461L10.6714 14.2411ZM8.65237 19.5161C8.99537 27.8421 9.24537 36.1471 9.68237 44.4221L13.6764 44.2111C13.2414 35.9641 12.9944 27.7391 12.6484 19.3511L8.65237 19.5161ZM9.67935 44.3541C9.68735 44.7651 9.72438 45.1661 9.75238 45.4891C9.78338 45.8321 9.80638 46.1211 9.81238 46.4191L13.8114 46.3441C13.8034 45.8911 13.7674 45.4761 13.7374 45.1391C13.7064 44.7821 13.6834 44.5261 13.6794 44.2801L9.67935 44.3541ZM11.5204 48.3601C11.6514 48.3801 11.7174 48.4021 11.9794 48.4741C12.2354 48.5441 12.6454 48.6491 13.1704 48.6391L13.0954 44.6391C13.1504 44.6381 13.1824 44.6561 13.0364 44.6161C12.8984 44.5781 12.5374 44.4671 12.1044 44.4031L11.5204 48.3601ZM13.1704 48.6391C15.3114 48.5991 17.9014 48.6451 20.2954 48.5041L20.0604 44.5111C17.7604 44.6461 15.4624 44.5951 13.0954 44.6391L13.1704 48.6391ZM20.3154 48.5031C30.5744 47.7971 38.8024 40.7381 41.0904 30.9131L37.1944 30.0061C35.3064 38.1131 28.5524 43.9271 20.0404 44.5121L20.3154 48.5031ZM72.3264 18.0921L70.8854 16.7051L70.8654 16.7251L70.8464 16.7471L72.3264 18.0921ZM65.5084 50.5471L67.4474 50.0561L67.4414 50.0291L67.4334 50.0021L65.5084 50.5471ZM69.6994 58.5501L68.2224 59.8991L68.2554 59.9351L68.2894 59.9691L69.6994 58.5501ZM80.2593 60.4201L79.4073 58.6101L79.3874 58.6201L79.3674 58.6301L80.2593 60.4201ZM86.6464 55.2261L85.2054 53.8381L85.1894 53.8561L85.1724 53.8741L86.6464 55.2261ZM92.5583 49.7591L93.8934 51.2481L93.9484 51.1991L93.9984 51.1471L92.5583 49.7591ZM94.8854 48.5881L96.8564 48.2471L96.3884 45.5431L93.9584 46.8161L94.8854 48.5881ZM93.7463 58.0061L95.4354 59.0771L95.4504 59.0531L95.4654 59.0291L93.7463 58.0061ZM80.1254 68.3161L80.6464 70.2471L80.6534 70.2451L80.1254 68.3161ZM65.2994 64.4581L63.9474 65.9321L63.9544 65.9391L63.9624 65.9461L65.2994 64.4581ZM57.9974 50.8751L59.9524 50.4531L59.9504 50.4451L59.9484 50.4371L57.9974 50.8751ZM62.8414 18.4581L64.5834 19.4401L64.5914 19.4271L64.5984 19.4141L62.8414 18.4581ZM76.6404 7.58107L76.2114 5.62707L76.2064 5.62808L76.6404 7.58107ZM92.3304 12.4561L90.8284 13.7761L90.8394 13.7891L90.8503 13.8011L92.3304 12.4561ZM95.4384 17.8481L97.2624 17.0261L97.2544 17.0101L97.2474 16.9941L95.4384 17.8481ZM95.5754 20.1011L93.6424 19.5881L93.6334 19.6201L93.6254 19.6521L95.5754 20.1011ZM94.2043 22.1941L94.5704 24.1601L94.8654 24.1051L95.1324 23.9661L94.2043 22.1941ZM91.9274 21.0151L93.5044 19.7851L93.3644 19.6051L93.1863 19.4611L91.9274 21.0151ZM86.2964 16.4221L87.4283 14.7731L87.3984 14.7521L87.3674 14.7321L86.2964 16.4221ZM70.8464 16.7471C69.1914 18.5661 67.5964 20.7281 66.4944 23.0391L70.1054 24.7611C70.9924 22.9001 72.3304 21.0601 73.8054 19.4381L70.8464 16.7471ZM66.4944 23.0391C62.2564 31.9281 60.8124 41.2871 63.5844 51.0911L67.4334 50.0021C64.9724 41.2971 66.2054 32.9391 70.1054 24.7611L66.4944 23.0391ZM63.5704 51.0371C64.3454 54.1021 65.8504 57.3031 68.2224 59.8991L71.1754 57.2011C69.3274 55.1771 68.0924 52.6031 67.4474 50.0561L63.5704 51.0371ZM68.2894 59.9691C70.0624 61.7301 72.1274 62.8901 74.3814 63.2911C76.6414 63.6931 78.9494 63.3071 81.1514 62.2101L79.3674 58.6301C77.8454 59.3881 76.4054 59.5881 75.0824 59.3531C73.7534 59.1161 72.3994 58.4131 71.1084 57.1311L68.2894 59.9691ZM81.1114 62.2291C84.2014 60.7741 86.2744 58.5901 88.1204 56.5781L85.1724 53.8741C83.3344 55.8781 81.7203 57.5211 79.4073 58.6101L81.1114 62.2291ZM88.0864 56.6131C89.8634 54.7691 91.8064 53.1201 93.8934 51.2481L91.2234 48.2701C89.2434 50.0451 87.1164 51.8551 85.2054 53.8381L88.0864 56.6131ZM93.9984 51.1471C93.9134 51.2351 93.8623 51.2191 94.2433 51.0601C94.5593 50.9291 95.1524 50.7061 95.8134 50.3601L93.9584 46.8161C93.5024 47.0551 93.1624 47.1781 92.7084 47.3661C92.3204 47.5281 91.6643 47.8041 91.1183 48.3711L93.9984 51.1471ZM92.9153 48.9291C93.5093 52.3631 93.3193 54.8131 92.0273 56.9841L95.4654 59.0291C97.4534 55.6881 97.5264 52.1191 96.8564 48.2471L92.9153 48.9291ZM92.0574 56.9361C89.0994 61.6021 84.9554 64.9191 79.5964 66.3871L80.6534 70.2451C87.0744 68.4861 92.0034 64.4911 95.4354 59.0771L92.0574 56.9361ZM79.6034 66.3851C74.7364 67.6991 70.5054 66.4491 66.6364 62.9711L63.9624 65.9461C68.6954 70.2011 74.2934 71.9621 80.6464 70.2471L79.6034 66.3851ZM66.6514 62.9851C63.0214 59.6551 61.0234 55.4131 59.9524 50.4531L56.0424 51.2971C57.2344 56.8191 59.5454 61.8941 63.9474 65.9321L66.6514 62.9851ZM59.9484 50.4371C57.4964 39.5121 59.0914 29.1791 64.5834 19.4401L61.0994 17.4751C55.1304 28.0601 53.3724 39.4041 56.0454 51.3131L59.9484 50.4371ZM64.5984 19.4141C67.3774 14.3101 71.2884 10.8201 77.0744 9.53308L76.2064 5.62808C69.0774 7.21408 64.3024 11.5921 61.0854 17.5011L64.5984 19.4141ZM77.0694 9.53407C82.5254 8.33607 87.1394 9.57707 90.8284 13.7761L93.8334 11.1361C89.0734 5.71907 82.9214 4.15407 76.2114 5.62707L77.0694 9.53407ZM90.8503 13.8011C91.9423 15.0031 92.6864 16.7051 93.6304 18.7031L97.2474 16.9941C96.4304 15.2661 95.4063 12.8661 93.8113 11.1111L90.8503 13.8011ZM93.6154 18.6701C93.6314 18.7051 93.6744 18.8401 93.6854 19.0681C93.6964 19.2881 93.6704 19.4801 93.6424 19.5881L97.5074 20.6151C97.7754 19.6061 97.7824 18.1811 97.2624 17.0261L93.6154 18.6701ZM93.6254 19.6521C93.6174 19.6881 93.5924 19.7711 93.5394 19.8921C93.4874 20.0081 93.4214 20.1301 93.3494 20.2431C93.2754 20.3581 93.2104 20.4391 93.1684 20.4841C93.1144 20.5421 93.1454 20.4911 93.2764 20.4221L95.1324 23.9661C95.8804 23.5741 96.4114 22.8791 96.7184 22.3991C97.0604 21.8651 97.3734 21.2031 97.5244 20.5501L93.6254 19.6521ZM93.8384 20.2281C93.9754 20.2031 94.0734 20.2061 94.1144 20.2091C94.1594 20.2121 94.1784 20.2181 94.1694 20.2161C94.1464 20.2101 94.0764 20.1881 93.9724 20.1361C93.8714 20.0851 93.7684 20.0201 93.6774 19.9501C93.5854 19.8781 93.5294 19.8181 93.5044 19.7851L90.3494 22.2451C90.8604 22.9001 91.5454 23.3921 92.1714 23.7081C92.4944 23.8701 92.8494 24.0111 93.2164 24.1011C93.5564 24.1841 94.0434 24.2581 94.5704 24.1601L93.8384 20.2281ZM93.1863 19.4611C91.5723 18.1531 89.4993 16.1941 87.4283 14.7731L85.1653 18.0711C87.0923 19.3941 88.6554 20.9381 90.6674 22.5691L93.1863 19.4611ZM87.3674 14.7321C81.8084 11.2111 75.4154 12.0031 70.8854 16.7051L73.7664 19.4801C76.9804 16.1431 81.2754 15.6081 85.2264 18.1111L87.3674 14.7321ZM144.794 13.7311L146.451 12.6101L146.446 12.6031L144.794 13.7311ZM149.639 31.5891L147.642 31.4791L147.64 31.5021V31.5241L149.639 31.5891ZM141.839 56.7311L143.524 57.8101L143.53 57.8001L141.839 56.7311ZM133.92 65.4311L135.047 67.0841L135.049 67.0821L133.92 65.4311ZM112.405 60.6651L110.705 61.7191L110.706 61.7201L112.405 60.6651ZM108.435 49.3681L106.467 49.7241L106.476 49.7741L106.488 49.8241L108.435 49.3681ZM106.861 40.5641L108.819 40.1591L108.816 40.1421L108.812 40.1261L106.861 40.5641ZM119.149 9.22908L120.236 10.9081L120.286 10.8761L120.333 10.8421L119.149 9.22908ZM142.806 33.0321L144.799 33.1921L144.8 33.1781L144.801 33.1641L142.806 33.0321ZM139.515 17.8701L137.789 18.8811L137.798 18.8961L137.807 18.9101L139.515 17.8701ZM120.421 16.9111L118.836 15.6911L118.821 15.7101L118.807 15.7291L120.421 16.9111ZM116.125 23.3821L114.397 22.3741L114.373 22.4151L114.351 22.4571L116.125 23.3821ZM114.934 30.0761L116.847 29.4911L116.828 29.4291L116.805 29.3681L114.934 30.0761ZM114.601 32.3381L112.715 31.6711L112.594 32.0131L112.601 32.3751L114.601 32.3381ZM114.451 39.3891L112.451 39.3391L112.449 39.4211L112.454 39.5031L114.451 39.3891ZM114.854 45.8651L112.866 46.0831L112.871 46.1311L112.878 46.1791L114.854 45.8651ZM118.077 57.4581L116.325 58.4221L116.341 58.4511L116.358 58.4791L118.077 57.4581ZM130.438 60.1401L131.634 61.7431L131.676 61.7111L131.716 61.6781L130.438 60.1401ZM134.496 56.0231L136.063 57.2651L136.089 57.2331L136.113 57.2001L134.496 56.0231ZM143.137 14.8511C146.457 19.7621 147.969 25.4991 147.642 31.4791L151.636 31.6981C152.009 24.8861 150.283 18.2781 146.451 12.6101L143.137 14.8511ZM147.64 31.5241C147.354 40.3641 144.714 48.4361 140.148 55.6631L143.53 57.8001C148.456 50.0021 151.328 41.2431 151.638 31.6531L147.64 31.5241ZM140.155 55.6531C138.033 58.9681 135.726 61.7721 132.791 63.7801L135.049 67.0821C138.61 64.6461 141.262 61.3431 143.524 57.8101L140.155 55.6531ZM132.793 63.7791C129.274 66.1781 125.733 66.8741 122.592 66.1871C119.449 65.5001 116.44 63.3701 114.104 59.6091L110.706 61.7201C113.506 66.2271 117.357 69.1371 121.738 70.0951C126.123 71.0531 130.772 69.9981 135.047 67.0841L132.793 63.7791ZM114.105 59.6111C112.175 56.4991 111.315 52.8991 110.382 48.9131L106.488 49.8241C107.394 53.6971 108.372 57.9561 110.705 61.7191L114.105 59.6111ZM110.403 49.0131C109.895 46.1991 109.444 43.1791 108.819 40.1591L104.902 40.9691C105.517 43.9401 105.927 46.7311 106.467 49.7241L110.403 49.0131ZM108.812 40.1261C106.422 29.4761 111.418 16.6191 120.236 10.9081L118.062 7.55107C107.754 14.2261 102.175 28.8191 104.909 41.0021L108.812 40.1261ZM120.333 10.8421C123.049 8.84807 126.342 7.90007 131.057 7.81207L130.983 3.81308C125.741 3.91108 121.554 4.98308 117.966 7.61708L120.333 10.8421ZM131.057 7.81207C135.442 7.73007 139.786 9.93807 143.142 14.8581L146.446 12.6031C142.46 6.76007 136.931 3.70208 130.983 3.81308L131.057 7.81207ZM144.801 33.1641C145.188 27.3051 144.2 21.7211 141.223 16.8301L137.807 18.9101C140.259 22.9391 141.156 27.6571 140.81 32.9011L144.801 33.1641ZM141.241 16.8591C139.999 14.7401 138.467 13.0371 136.58 11.8811C134.678 10.7171 132.525 10.1741 130.163 10.2181L130.237 14.2181C131.914 14.1861 133.302 14.5641 134.491 15.2921C135.693 16.0281 136.798 17.1891 137.789 18.8811L141.241 16.8591ZM130.163 10.2181C125.928 10.2971 121.848 11.7781 118.836 15.6911L122.005 18.1311C124.131 15.3711 126.957 14.2791 130.237 14.2181L130.163 10.2181ZM118.807 15.7291C117.315 17.7651 115.718 20.1101 114.397 22.3741L117.852 24.3901C119.081 22.2831 120.594 20.0591 122.034 18.0941L118.807 15.7291ZM114.351 22.4571C113.323 24.4301 111.716 27.2211 113.064 30.7841L116.805 29.3681C116.176 27.7061 116.75 26.5091 117.898 24.3071L114.351 22.4571ZM113.022 30.6621C112.985 30.5411 113.026 30.5451 112.979 30.7901C112.935 31.0201 112.847 31.3001 112.715 31.6711L116.486 33.0051C116.623 32.6191 116.801 32.0951 116.907 31.5471C117.01 31.0141 117.084 30.2661 116.847 29.4911L113.022 30.6621ZM112.601 32.3751C112.646 34.7621 112.507 37.0841 112.451 39.3391L116.45 39.4381C116.501 37.3681 116.647 34.7991 116.6 32.3001L112.601 32.3751ZM112.454 39.5031C112.588 41.8451 112.632 43.9521 112.866 46.0831L116.842 45.6471C116.623 43.6521 116.593 41.8131 116.447 39.2741L112.454 39.5031ZM112.878 46.1791C113.507 50.1421 114.183 54.5291 116.325 58.4221L119.83 56.4931C118.081 53.3171 117.478 49.6461 116.829 45.5521L112.878 46.1791ZM116.358 58.4791C118.109 61.4271 120.362 63.5281 123.189 64.1471C126.036 64.7711 128.913 63.7711 131.634 61.7431L129.243 58.5361C127.051 60.1711 125.348 60.5251 124.044 60.2401C122.72 59.9501 121.248 58.8791 119.797 56.4361L116.358 58.4791ZM131.716 61.6781C133.189 60.4541 134.676 59.0151 136.063 57.2651L132.929 54.7811C131.745 56.2741 130.463 57.5181 129.16 58.6021L131.716 61.6781ZM136.113 57.2001C141.2 50.2141 144.086 42.0991 144.799 33.1921L140.812 32.8731C140.154 41.0941 137.504 48.4941 132.879 54.8461L136.113 57.2001Z" fill="#39BFBF"/>
</g>
</g>
</svg>
